M48
; DRILL file {KiCad 9.0.7} date 2026-03-16T10:55:19-0400
; FORMAT={-:-/ absolute / metric / decimal}
; #@! TF.CreationDate,2026-03-16T10:55:19-04:00
; #@! TF.GenerationSoftware,Kicad,Pcbnew,9.0.7
; #@! TF.FileFunction,MixedPlating,1,4
FMAT,2
METRIC
; #@! TA.AperFunction,Plated,PTH,ViaDrill
T1C0.381
; #@! TA.AperFunction,Plated,PTH,ComponentDrill
T2C0.600
; #@! TA.AperFunction,Plated,PTH,ComponentDrill
T3C0.700
; #@! TA.AperFunction,Plated,PTH,ComponentDrill
T4C1.000
; #@! TA.AperFunction,Plated,PTH,ComponentDrill
T5C1.300
; #@! TA.AperFunction,Plated,PTH,ComponentDrill
T6C1.450
; #@! TA.AperFunction,Plated,PTH,ComponentDrill
T7C3.200
; #@! TA.AperFunction,NonPlated,NPTH,ComponentDrill
T8C2.550
%
G90
G05
T1
X112.8Y-55.4
X112.8Y-65.6
X113.5Y-73.0
X114.2Y-65.6
X114.4Y-55.4
X115.8Y-81.2
X115.826Y-65.574
X116.2Y-55.4
X116.6Y-79.4
X116.75Y-70.0
X116.75Y-72.0
X116.8Y-75.6
X116.894Y-67.92
X117.824Y-65.576
X118.0Y-55.4
X119.268Y-70.995
X119.6Y-65.6
X119.8Y-55.4
X120.6Y-81.8
X121.2Y-65.6
X121.244Y-76.153
X121.6Y-56.0
X121.8Y-66.6
X122.0Y-48.0
X122.0Y-79.587
X122.086Y-71.836
X122.107Y-72.797
X122.25Y-74.0
X122.4Y-57.6
X122.4Y-64.4
X122.6Y-45.0
X122.6Y-67.4
X123.0Y-59.4
X123.0Y-63.0
X123.2Y-61.2
X123.4Y-65.2
X123.6Y-66.4
X123.6Y-88.2
X123.8Y-51.8
X123.85Y-84.35
X123.938Y-69.75
X124.5Y-67.25
X125.0Y-81.25
X125.4Y-56.8
X125.562Y-60.743
X125.8Y-54.8
X126.269Y-72.144
X126.4Y-67.2
X126.5Y-48.75
X126.528Y-77.0
X126.8Y-63.4
X127.0Y-46.25
X127.0Y-47.75
X127.416Y-58.049
X127.577Y-79.181
X127.8Y-74.6
X128.081Y-72.938
X128.8Y-70.0
X129.0Y-59.506
X129.0Y-62.6
X129.8Y-45.4
X130.0Y-54.2
X130.045Y-58.191
X130.387Y-81.8
X130.4Y-60.4
X130.469Y-78.219
X131.0Y-71.0
X131.5Y-58.75
X131.595Y-54.731
X131.719Y-57.503
X131.734Y-70.056
X131.8Y-51.6
X131.95Y-71.15
X132.0Y-46.5
X132.0Y-80.0
X132.4Y-48.2
X132.465Y-69.43
X132.523Y-76.081
X132.873Y-72.763
X133.0Y-70.8
X133.017Y-73.714
X133.199Y-71.799
X133.286Y-74.75
X133.4Y-85.631
X133.674Y-50.074
X134.201Y-69.203
X134.425Y-74.825
X134.6Y-63.6
X134.803Y-52.894
X134.956Y-58.491
X135.0Y-49.2
X135.25Y-60.25
X135.375Y-57.625
X135.744Y-79.4
X135.75Y-56.0
X136.0Y-48.0
X136.8Y-68.4
X137.0Y-82.4
X137.25Y-48.8
X137.25Y-54.5
X137.5Y-81.515
X138.0Y-53.75
X138.2Y-63.6
X138.2Y-68.4
X139.0Y-77.8
X139.2Y-48.6
X139.4Y-82.471
X139.524Y-54.276
X139.6Y-59.0
X139.6Y-68.4
X140.2Y-65.2
X140.221Y-80.78
X140.28Y-59.68
X140.299Y-48.499
X140.5Y-77.3
X140.6Y-52.5
X140.804Y-76.387
X141.0Y-71.0
X141.119Y-68.21
X141.137Y-72.486
X141.156Y-75.31
X141.242Y-60.442
X141.5Y-64.0
X143.123Y-44.677
X143.48Y-82.329
X143.701Y-66.301
X143.75Y-83.75
X144.299Y-78.699
X144.4Y-85.6
X144.5Y-51.75
X144.8Y-66.106
X144.956Y-69.4
X145.874Y-62.126
X146.0Y-77.4
X146.239Y-53.094
X146.8Y-88.2
X146.952Y-55.25
X147.0Y-47.652
X147.4Y-80.8
X148.25Y-64.25
X149.0Y-61.0
X149.0Y-63.0
X149.4Y-49.875
X149.6Y-89.2
X149.8Y-46.6
X149.8Y-86.4
X150.0Y-45.6
X150.113Y-74.888
X150.625Y-68.206
X151.123Y-44.342
X152.8Y-69.6
X153.4Y-80.4
X153.6Y-77.2
X153.702Y-54.75
X153.75Y-64.5
X154.0Y-60.0
X154.0Y-62.25
X155.187Y-46.328
X155.6Y-69.2
X156.2Y-79.0
X156.6Y-57.6
X157.5Y-63.5
X157.6Y-69.0
X157.8Y-65.5
X159.6Y-69.0
X159.6Y-79.0
X160.4Y-46.0
X160.4Y-48.8
T2
X128.475Y-40.45
X128.475Y-41.7
X129.725Y-40.45
X129.725Y-41.7
T3
X114.71Y-61.04
X117.25Y-58.5
X117.25Y-63.58
T4
X122.225Y-50.35
X122.225Y-52.89
X134.94Y-88.5
X137.48Y-88.5
X140.02Y-88.5
X142.56Y-88.5
T5
X116.2Y-46.9
X116.2Y-51.9
X123.4Y-86.4
X128.4Y-86.4
T6
X132.425Y-41.28
X136.175Y-41.28
X139.925Y-41.28
X143.675Y-41.28
T7
X117.25Y-40.25
X117.25Y-85.5
X156.0Y-40.25
X156.0Y-85.5
T8
X124.575Y-41.9
X148.225Y-41.9
M30
