%TF.GenerationSoftware,KiCad,Pcbnew,9.0.7*%
%TF.CreationDate,2026-03-16T10:51:19-04:00*%
%TF.ProjectId,FPGA-Lockin,46504741-2d4c-46f6-936b-696e2e6b6963,rev?*%
%TF.SameCoordinates,Original*%
%TF.FileFunction,Soldermask,Bot*%
%TF.FilePolarity,Negative*%
%FSLAX46Y46*%
G04 Gerber Fmt 4.6, Leading zero omitted, Abs format (unit mm)*
G04 Created by KiCad (PCBNEW 9.0.7) date 2026-03-16 10:51:19*
%MOMM*%
%LPD*%
G01*
G04 APERTURE LIST*
G04 Aperture macros list*
%AMRoundRect*
0 Rectangle with rounded corners*
0 $1 Rounding radius*
0 $2 $3 $4 $5 $6 $7 $8 $9 X,Y pos of 4 corners*
0 Add a 4 corners polygon primitive as box body*
4,1,4,$2,$3,$4,$5,$6,$7,$8,$9,$2,$3,0*
0 Add four circle primitives for the rounded corners*
1,1,$1+$1,$2,$3*
1,1,$1+$1,$4,$5*
1,1,$1+$1,$6,$7*
1,1,$1+$1,$8,$9*
0 Add four rect primitives between the rounded corners*
20,1,$1+$1,$2,$3,$4,$5,0*
20,1,$1+$1,$4,$5,$6,$7,0*
20,1,$1+$1,$6,$7,$8,$9,0*
20,1,$1+$1,$8,$9,$2,$3,0*%
%AMFreePoly0*
4,1,23,0.500000,-0.750000,0.000000,-0.750000,0.000000,-0.745722,-0.065263,-0.745722,-0.191342,-0.711940,-0.304381,-0.646677,-0.396677,-0.554381,-0.461940,-0.441342,-0.495722,-0.315263,-0.495722,-0.250000,-0.500000,-0.250000,-0.500000,0.250000,-0.495722,0.250000,-0.495722,0.315263,-0.461940,0.441342,-0.396677,0.554381,-0.304381,0.646677,-0.191342,0.711940,-0.065263,0.745722,0.000000,0.745722,
0.000000,0.750000,0.500000,0.750000,0.500000,-0.750000,0.500000,-0.750000,$1*%
%AMFreePoly1*
4,1,23,0.000000,0.745722,0.065263,0.745722,0.191342,0.711940,0.304381,0.646677,0.396677,0.554381,0.461940,0.441342,0.495722,0.315263,0.495722,0.250000,0.500000,0.250000,0.500000,-0.250000,0.495722,-0.250000,0.495722,-0.315263,0.461940,-0.441342,0.396677,-0.554381,0.304381,-0.646677,0.191342,-0.711940,0.065263,-0.745722,0.000000,-0.745722,0.000000,-0.750000,-0.500000,-0.750000,
-0.500000,0.750000,0.000000,0.750000,0.000000,0.745722,0.000000,0.745722,$1*%
G04 Aperture macros list end*
%ADD10C,0.650000*%
%ADD11O,1.200000X1.600000*%
%ADD12C,1.200000*%
%ADD13C,6.400000*%
%ADD14R,1.700000X1.700000*%
%ADD15C,1.700000*%
%ADD16R,1.500000X1.500000*%
%ADD17RoundRect,0.250000X-0.475000X0.337500X-0.475000X-0.337500X0.475000X-0.337500X0.475000X0.337500X0*%
%ADD18RoundRect,0.250000X-0.450000X0.350000X-0.450000X-0.350000X0.450000X-0.350000X0.450000X0.350000X0*%
%ADD19RoundRect,0.150000X-0.150000X0.512500X-0.150000X-0.512500X0.150000X-0.512500X0.150000X0.512500X0*%
%ADD20RoundRect,0.250000X0.450000X-0.350000X0.450000X0.350000X-0.450000X0.350000X-0.450000X-0.350000X0*%
%ADD21FreePoly0,180.000000*%
%ADD22FreePoly1,180.000000*%
%ADD23RoundRect,0.250000X-0.337500X-0.475000X0.337500X-0.475000X0.337500X0.475000X-0.337500X0.475000X0*%
%ADD24RoundRect,0.250000X0.350000X0.450000X-0.350000X0.450000X-0.350000X-0.450000X0.350000X-0.450000X0*%
%ADD25RoundRect,0.150000X0.150000X-0.512500X0.150000X0.512500X-0.150000X0.512500X-0.150000X-0.512500X0*%
%ADD26RoundRect,0.250001X-0.462499X-0.624999X0.462499X-0.624999X0.462499X0.624999X-0.462499X0.624999X0*%
%ADD27RoundRect,0.250000X0.337500X0.475000X-0.337500X0.475000X-0.337500X-0.475000X0.337500X-0.475000X0*%
%ADD28C,1.000000*%
%ADD29RoundRect,0.162500X-0.650000X-0.162500X0.650000X-0.162500X0.650000X0.162500X-0.650000X0.162500X0*%
%ADD30RoundRect,0.250000X0.475000X-0.337500X0.475000X0.337500X-0.475000X0.337500X-0.475000X-0.337500X0*%
%ADD31C,2.154000*%
%ADD32RoundRect,0.250000X-0.350000X-0.450000X0.350000X-0.450000X0.350000X0.450000X-0.350000X0.450000X0*%
%ADD33RoundRect,0.250000X-0.400000X-1.450000X0.400000X-1.450000X0.400000X1.450000X-0.400000X1.450000X0*%
%ADD34RoundRect,0.102000X0.485000X-0.500000X0.485000X0.500000X-0.485000X0.500000X-0.485000X-0.500000X0*%
%ADD35R,1.500000X0.800000*%
%ADD36R,2.000000X1.450000*%
%ADD37R,1.498600X1.600200*%
%ADD38RoundRect,0.162500X-0.162500X0.617500X-0.162500X-0.617500X0.162500X-0.617500X0.162500X0.617500X0*%
%ADD39RoundRect,0.150000X0.150000X-0.825000X0.150000X0.825000X-0.150000X0.825000X-0.150000X-0.825000X0*%
%ADD40C,2.550000*%
%ADD41RoundRect,0.102000X-0.500000X-0.500000X0.500000X-0.500000X0.500000X0.500000X-0.500000X0.500000X0*%
%ADD42C,1.204000*%
%ADD43C,2.379000*%
G04 APERTURE END LIST*
D10*
X120562500Y-69800000D02*
X121613500Y-70851000D01*
X124991678Y-72144000D02*
X126269254Y-72144000D01*
X122600000Y-67800000D02*
X122637500Y-67837500D01*
X122600000Y-67400000D02*
X122600000Y-67800000D01*
X126250000Y-72124746D02*
X126250000Y-69750000D01*
X123550000Y-68750000D02*
X125250000Y-68750000D01*
X122600000Y-67800000D02*
X123550000Y-68750000D01*
X122637500Y-67837500D02*
X122637500Y-69800000D01*
X126269254Y-72144000D02*
X126250000Y-72124746D01*
X126269254Y-72144000D02*
X126350254Y-72225000D01*
X123698678Y-70851000D02*
X124991678Y-72144000D01*
X127200000Y-72725001D02*
X127200000Y-73387500D01*
X121613500Y-70851000D02*
X123698678Y-70851000D01*
X123887500Y-69800000D02*
X123937500Y-69750000D01*
X125300000Y-71112500D02*
X123937500Y-69750000D01*
X126350254Y-72225000D02*
X126699999Y-72225000D01*
X126699999Y-72225000D02*
X127200000Y-72725001D01*
X126250000Y-69750000D02*
X127250000Y-68750000D01*
%TO.C,JP2*%
G36*
X122750000Y-45650000D02*
G01*
X122450000Y-45650000D01*
X122450000Y-47150000D01*
X122750000Y-47150000D01*
X122750000Y-45650000D01*
G37*
%TD*%
D11*
%TO.C,D5*%
X117250000Y-58500000D03*
D12*
X114710000Y-61040000D03*
X117250000Y-63580000D03*
%TD*%
D13*
%TO.C,H2*%
X117250000Y-40250000D03*
%TD*%
%TO.C,H3*%
X117250000Y-85500000D03*
%TD*%
%TO.C,H1*%
X156000000Y-40250000D03*
%TD*%
%TO.C,H4*%
X156000000Y-85500000D03*
%TD*%
D14*
%TO.C,J7*%
X122225000Y-50350000D03*
D15*
X122225000Y-52890000D03*
%TD*%
D16*
%TO.C,TP3*%
X114200000Y-75200000D03*
%TD*%
D17*
%TO.C,C5*%
X149400000Y-78362500D03*
X149400000Y-80437500D03*
%TD*%
D18*
%TO.C,R22*%
X132200000Y-81400000D03*
X132200000Y-83400000D03*
%TD*%
D19*
%TO.C,U3*%
X145850000Y-74062500D03*
X146800000Y-74062500D03*
X147750000Y-74062500D03*
X147750000Y-76337500D03*
X145850000Y-76337500D03*
%TD*%
D20*
%TO.C,R4*%
X123000000Y-78000000D03*
X123000000Y-76000000D03*
%TD*%
D21*
%TO.C,JP2*%
X123250000Y-46400000D03*
D22*
X121950000Y-46400000D03*
%TD*%
D17*
%TO.C,C36*%
X144500000Y-60962500D03*
X144500000Y-63037500D03*
%TD*%
D23*
%TO.C,C23*%
X113562500Y-71200000D03*
X115637500Y-71200000D03*
%TD*%
D17*
%TO.C,C3*%
X151600000Y-78362500D03*
X151600000Y-80437500D03*
%TD*%
D24*
%TO.C,R3*%
X154200000Y-47400000D03*
X152200000Y-47400000D03*
%TD*%
%TO.C,R17*%
X138250000Y-72000000D03*
X136250000Y-72000000D03*
%TD*%
D25*
%TO.C,U10*%
X127200000Y-73387500D03*
X126250000Y-73387500D03*
X125300000Y-73387500D03*
X125300000Y-71112500D03*
X127200000Y-71112500D03*
%TD*%
D26*
%TO.C,D3*%
X156312500Y-47600000D03*
X159287500Y-47600000D03*
%TD*%
D27*
%TO.C,C40*%
X132787500Y-62000000D03*
X130712500Y-62000000D03*
%TD*%
D26*
%TO.C,D4*%
X156312500Y-45200000D03*
X159287500Y-45200000D03*
%TD*%
D17*
%TO.C,C6*%
X146000000Y-78400000D03*
X146000000Y-80475000D03*
%TD*%
D28*
%TO.C,TP13*%
X145600000Y-88800000D03*
%TD*%
D29*
%TO.C,U9*%
X134912500Y-84305000D03*
X134912500Y-83035000D03*
X134912500Y-81765000D03*
X134912500Y-80495000D03*
X142087500Y-80495000D03*
X142087500Y-81765000D03*
X142087500Y-83035000D03*
X142087500Y-84305000D03*
%TD*%
D24*
%TO.C,R1*%
X154200000Y-45200000D03*
X152200000Y-45200000D03*
%TD*%
D30*
%TO.C,C35*%
X147800000Y-51837500D03*
X147800000Y-49762500D03*
%TD*%
D27*
%TO.C,C20*%
X127237500Y-66200000D03*
X125162500Y-66200000D03*
%TD*%
D24*
%TO.C,R16*%
X138250000Y-70000000D03*
X136250000Y-70000000D03*
%TD*%
D23*
%TO.C,C4*%
X150362500Y-73400000D03*
X152437500Y-73400000D03*
%TD*%
D31*
%TO.C,J4*%
X123400000Y-86400000D03*
X128400000Y-86400000D03*
%TD*%
D30*
%TO.C,C15*%
X129400000Y-73237500D03*
X129400000Y-71162500D03*
%TD*%
D19*
%TO.C,U16*%
X118250000Y-73262500D03*
X119200000Y-73262500D03*
X120150000Y-73262500D03*
X120150000Y-75537500D03*
X118250000Y-75537500D03*
%TD*%
D27*
%TO.C,C42*%
X131000000Y-56000000D03*
X128925000Y-56000000D03*
%TD*%
D17*
%TO.C,C14*%
X125250000Y-76000000D03*
X125250000Y-78075000D03*
%TD*%
D18*
%TO.C,R15*%
X118200000Y-78800000D03*
X118200000Y-80800000D03*
%TD*%
D28*
%TO.C,TP12*%
X148000000Y-88800000D03*
%TD*%
D32*
%TO.C,R20*%
X135600000Y-78000000D03*
X137600000Y-78000000D03*
%TD*%
D28*
%TO.C,TP14*%
X139800000Y-55600000D03*
%TD*%
D17*
%TO.C,C8*%
X141800000Y-53962500D03*
X141800000Y-56037500D03*
%TD*%
D27*
%TO.C,C33*%
X130837500Y-46600000D03*
X128762500Y-46600000D03*
%TD*%
D18*
%TO.C,R5*%
X127500000Y-76000000D03*
X127500000Y-78000000D03*
%TD*%
D32*
%TO.C,R6*%
X125250000Y-68750000D03*
X127250000Y-68750000D03*
%TD*%
D27*
%TO.C,C41*%
X132787500Y-64000000D03*
X130712500Y-64000000D03*
%TD*%
D28*
%TO.C,TPS1_m1*%
X137600000Y-55600000D03*
%TD*%
D27*
%TO.C,C38*%
X130787500Y-50250000D03*
X128712500Y-50250000D03*
%TD*%
D33*
%TO.C,F1*%
X140575000Y-45800000D03*
X145025000Y-45800000D03*
%TD*%
D27*
%TO.C,C32*%
X134837500Y-54200000D03*
X132762500Y-54200000D03*
%TD*%
D24*
%TO.C,R18*%
X138250000Y-74000000D03*
X136250000Y-74000000D03*
%TD*%
D34*
%TO.C,FL1*%
X123400000Y-73935000D03*
X123400000Y-72465000D03*
%TD*%
D24*
%TO.C,R21*%
X148600000Y-83200000D03*
X146600000Y-83200000D03*
%TD*%
D23*
%TO.C,C19*%
X113562500Y-68400000D03*
X115637500Y-68400000D03*
%TD*%
D31*
%TO.C,J3*%
X116200000Y-46900000D03*
X116200000Y-51900000D03*
%TD*%
D18*
%TO.C,R8*%
X133600000Y-66000000D03*
X133600000Y-68000000D03*
%TD*%
D20*
%TO.C,R12*%
X145750000Y-51750000D03*
X145750000Y-49750000D03*
%TD*%
D26*
%TO.C,D2*%
X156312500Y-50200000D03*
X159287500Y-50200000D03*
%TD*%
D35*
%TO.C,J5*%
X156000000Y-66710000D03*
X156000000Y-65610000D03*
X156000000Y-64500000D03*
X156000000Y-63410000D03*
X155990000Y-62310000D03*
X156000000Y-61210000D03*
X156000000Y-60110000D03*
X156000000Y-59010000D03*
D36*
X158600000Y-56630000D03*
X150300000Y-56630000D03*
X158600000Y-70380000D03*
X150300000Y-70380000D03*
%TD*%
D37*
%TO.C,L1*%
X159200000Y-75000000D03*
X155491600Y-75000000D03*
%TD*%
D24*
%TO.C,R19*%
X138250000Y-76000000D03*
X136250000Y-76000000D03*
%TD*%
D17*
%TO.C,C24*%
X129150000Y-65962500D03*
X129150000Y-68037500D03*
%TD*%
D38*
%TO.C,U2*%
X141800000Y-48850000D03*
X142750000Y-48850000D03*
X143700000Y-48850000D03*
X143700000Y-51550000D03*
X141800000Y-51550000D03*
%TD*%
D17*
%TO.C,C44*%
X120200000Y-77562500D03*
X120200000Y-79637500D03*
%TD*%
D14*
%TO.C,J1*%
X134940000Y-88500000D03*
D15*
X137480000Y-88500000D03*
X140020000Y-88500000D03*
X142560000Y-88500000D03*
%TD*%
D17*
%TO.C,C39*%
X144500000Y-54962500D03*
X144500000Y-57037500D03*
%TD*%
D27*
%TO.C,C37*%
X130787500Y-52500000D03*
X128712500Y-52500000D03*
%TD*%
D17*
%TO.C,C25*%
X131400000Y-65962500D03*
X131400000Y-68037500D03*
%TD*%
D39*
%TO.C,U15*%
X136630000Y-51380000D03*
X135360000Y-51380000D03*
X134090000Y-51380000D03*
X132820000Y-51380000D03*
X132820000Y-46430000D03*
X134090000Y-46430000D03*
X135360000Y-46430000D03*
X136630000Y-46430000D03*
%TD*%
D24*
%TO.C,R2*%
X154200000Y-49600000D03*
X152200000Y-49600000D03*
%TD*%
D40*
%TO.C,J2*%
X124575000Y-41900000D03*
X148225000Y-41900000D03*
D41*
X128475000Y-41700000D03*
D42*
X129725000Y-41700000D03*
X128475000Y-40450000D03*
X129725000Y-40450000D03*
D43*
X132425000Y-41280000D03*
X136175000Y-41280000D03*
X139925000Y-41280000D03*
X143675000Y-41280000D03*
%TD*%
D28*
%TO.C,TP15*%
X151200000Y-88800000D03*
%TD*%
D23*
%TO.C,C16*%
X120562500Y-69800000D03*
X122637500Y-69800000D03*
%TD*%
M02*
