%TF.GenerationSoftware,KiCad,Pcbnew,9.0.7*%
%TF.CreationDate,2026-03-16T14:26:10-04:00*%
%TF.ProjectId,FPGA-Lockin,46504741-2d4c-46f6-936b-696e2e6b6963,rev?*%
%TF.SameCoordinates,Original*%
%TF.FileFunction,Soldermask,Top*%
%TF.FilePolarity,Negative*%
%FSLAX46Y46*%
G04 Gerber Fmt 4.6, Leading zero omitted, Abs format (unit mm)*
G04 Created by KiCad (PCBNEW 9.0.7) date 2026-03-16 14:26:10*
%MOMM*%
%LPD*%
G01*
G04 APERTURE LIST*
G04 Aperture macros list*
%AMRoundRect*
0 Rectangle with rounded corners*
0 $1 Rounding radius*
0 $2 $3 $4 $5 $6 $7 $8 $9 X,Y pos of 4 corners*
0 Add a 4 corners polygon primitive as box body*
4,1,4,$2,$3,$4,$5,$6,$7,$8,$9,$2,$3,0*
0 Add four circle primitives for the rounded corners*
1,1,$1+$1,$2,$3*
1,1,$1+$1,$4,$5*
1,1,$1+$1,$6,$7*
1,1,$1+$1,$8,$9*
0 Add four rect primitives between the rounded corners*
20,1,$1+$1,$2,$3,$4,$5,0*
20,1,$1+$1,$4,$5,$6,$7,0*
20,1,$1+$1,$6,$7,$8,$9,0*
20,1,$1+$1,$8,$9,$2,$3,0*%
%AMFreePoly0*
4,1,23,0.550000,-0.750000,0.000000,-0.750000,0.000000,-0.745722,-0.065263,-0.745722,-0.191342,-0.711940,-0.304381,-0.646677,-0.396677,-0.554381,-0.461940,-0.441342,-0.495722,-0.315263,-0.495722,-0.250000,-0.500000,-0.250000,-0.500000,0.250000,-0.495722,0.250000,-0.495722,0.315263,-0.461940,0.441342,-0.396677,0.554381,-0.304381,0.646677,-0.191342,0.711940,-0.065263,0.745722,0.000000,0.745722,
0.000000,0.750000,0.550000,0.750000,0.550000,-0.750000,0.550000,-0.750000,$1*%
%AMFreePoly1*
4,1,23,0.000000,0.745722,0.065263,0.745722,0.191342,0.711940,0.304381,0.646677,0.396677,0.554381,0.461940,0.441342,0.495722,0.315263,0.495722,0.250000,0.500000,0.250000,0.500000,-0.250000,0.495722,-0.250000,0.495722,-0.315263,0.461940,-0.441342,0.396677,-0.554381,0.304381,-0.646677,0.191342,-0.711940,0.065263,-0.745722,0.000000,-0.745722,0.000000,-0.750000,-0.550000,-0.750000,
-0.550000,0.750000,0.000000,0.750000,0.000000,0.745722,0.000000,0.745722,$1*%
G04 Aperture macros list end*
%ADD10C,0.650000*%
%ADD11RoundRect,0.250000X-0.337500X-0.475000X0.337500X-0.475000X0.337500X0.475000X-0.337500X0.475000X0*%
%ADD12RoundRect,0.250000X0.337500X0.475000X-0.337500X0.475000X-0.337500X-0.475000X0.337500X-0.475000X0*%
%ADD13C,1.000000*%
%ADD14O,1.200000X1.600000*%
%ADD15C,1.200000*%
%ADD16RoundRect,0.250000X-0.350000X-0.450000X0.350000X-0.450000X0.350000X0.450000X-0.350000X0.450000X0*%
%ADD17R,1.500000X1.500000*%
%ADD18RoundRect,0.250001X-1.534999X1.117499X-1.534999X-1.117499X1.534999X-1.117499X1.534999X1.117499X0*%
%ADD19RoundRect,0.075000X-0.700000X-0.075000X0.700000X-0.075000X0.700000X0.075000X-0.700000X0.075000X0*%
%ADD20RoundRect,0.075000X-0.075000X-0.700000X0.075000X-0.700000X0.075000X0.700000X-0.075000X0.700000X0*%
%ADD21RoundRect,0.250000X-0.450000X0.350000X-0.450000X-0.350000X0.450000X-0.350000X0.450000X0.350000X0*%
%ADD22RoundRect,0.250000X-0.475000X0.337500X-0.475000X-0.337500X0.475000X-0.337500X0.475000X0.337500X0*%
%ADD23RoundRect,0.250000X-0.362500X-0.700000X0.362500X-0.700000X0.362500X0.700000X-0.362500X0.700000X0*%
%ADD24R,0.750000X2.100000*%
%ADD25RoundRect,0.150000X-0.825000X-0.150000X0.825000X-0.150000X0.825000X0.150000X-0.825000X0.150000X0*%
%ADD26RoundRect,0.250000X0.450000X-0.350000X0.450000X0.350000X-0.450000X0.350000X-0.450000X-0.350000X0*%
%ADD27RoundRect,0.150000X-0.512500X-0.150000X0.512500X-0.150000X0.512500X0.150000X-0.512500X0.150000X0*%
%ADD28RoundRect,0.162500X-0.617500X-0.162500X0.617500X-0.162500X0.617500X0.162500X-0.617500X0.162500X0*%
%ADD29R,1.092200X0.990600*%
%ADD30RoundRect,0.250000X-1.100000X0.412500X-1.100000X-0.412500X1.100000X-0.412500X1.100000X0.412500X0*%
%ADD31C,6.400000*%
%ADD32RoundRect,0.250000X0.350000X-0.450000X0.350000X0.450000X-0.350000X0.450000X-0.350000X-0.450000X0*%
%ADD33R,1.308100X0.355600*%
%ADD34RoundRect,0.250000X1.100000X-0.412500X1.100000X0.412500X-1.100000X0.412500X-1.100000X-0.412500X0*%
%ADD35RoundRect,0.062500X-0.375000X-0.062500X0.375000X-0.062500X0.375000X0.062500X-0.375000X0.062500X0*%
%ADD36RoundRect,0.062500X-0.062500X-0.375000X0.062500X-0.375000X0.062500X0.375000X-0.062500X0.375000X0*%
%ADD37R,5.600000X5.600000*%
%ADD38RoundRect,0.250000X0.350000X0.450000X-0.350000X0.450000X-0.350000X-0.450000X0.350000X-0.450000X0*%
%ADD39RoundRect,0.150000X0.512500X0.150000X-0.512500X0.150000X-0.512500X-0.150000X0.512500X-0.150000X0*%
%ADD40RoundRect,0.250000X0.475000X-0.337500X0.475000X0.337500X-0.475000X0.337500X-0.475000X-0.337500X0*%
%ADD41FreePoly0,180.000000*%
%ADD42R,1.000000X1.500000*%
%ADD43FreePoly1,180.000000*%
%ADD44R,1.700000X1.700000*%
%ADD45C,1.700000*%
%ADD46RoundRect,0.087500X-0.250000X-0.087500X0.250000X-0.087500X0.250000X0.087500X-0.250000X0.087500X0*%
%ADD47R,1.005599X0.500000*%
%ADD48C,2.154000*%
%ADD49C,2.550000*%
%ADD50RoundRect,0.102000X-0.500000X-0.500000X0.500000X-0.500000X0.500000X0.500000X-0.500000X0.500000X0*%
%ADD51C,1.204000*%
%ADD52C,2.379000*%
G04 APERTURE END LIST*
D10*
X125500000Y-72250000D02*
X124325001Y-73424999D01*
X117250000Y-60650151D02*
X117250000Y-58500000D01*
X122600000Y-67400000D02*
X122600000Y-67800000D01*
X126225000Y-72250000D02*
X125500000Y-72250000D01*
X126269254Y-72144000D02*
X126269254Y-72205746D01*
X123937500Y-69137500D02*
X123937500Y-69750000D01*
X122600000Y-67400000D02*
X122600000Y-66000151D01*
X126269254Y-72205746D02*
X126225000Y-72250000D01*
X124325001Y-73424999D02*
X123500000Y-73424999D01*
X122600000Y-66000151D02*
X117250000Y-60650151D01*
X122600000Y-67800000D02*
X123937500Y-69137500D01*
%TO.C,JP1*%
G36*
X141150000Y-46950000D02*
G01*
X139650000Y-46950000D01*
X139650000Y-45450000D01*
X141150000Y-45450000D01*
X141150000Y-46950000D01*
G37*
%TD*%
D11*
%TO.C,C29*%
X144462500Y-64250000D03*
X146537500Y-64250000D03*
%TD*%
D12*
%TO.C,C18*%
X120287500Y-68000000D03*
X118212500Y-68000000D03*
%TD*%
D13*
%TO.C,TP11*%
X140800000Y-85600000D03*
%TD*%
D14*
%TO.C,D5*%
X117250000Y-58500000D03*
D15*
X114710000Y-61040000D03*
X117250000Y-63580000D03*
%TD*%
D13*
%TO.C,TP7*%
X134800000Y-85600000D03*
%TD*%
D11*
%TO.C,C31*%
X126762500Y-56800000D03*
X128837500Y-56800000D03*
%TD*%
D16*
%TO.C,R14*%
X135000000Y-46200000D03*
X137000000Y-46200000D03*
%TD*%
%TO.C,R23*%
X146800000Y-72600000D03*
X148800000Y-72600000D03*
%TD*%
D17*
%TO.C,TP4*%
X150000000Y-83600000D03*
%TD*%
D18*
%TO.C,C21*%
X119600000Y-46800000D03*
X119600000Y-52525000D03*
%TD*%
D17*
%TO.C,TP6*%
X149800000Y-87800000D03*
%TD*%
D13*
%TO.C,TP9*%
X132000000Y-85600000D03*
%TD*%
D19*
%TO.C,U7*%
X133075000Y-52500000D03*
X133075000Y-53000000D03*
X133075000Y-53500000D03*
X133075000Y-54000000D03*
X133075000Y-54500000D03*
X133075000Y-55000000D03*
X133075000Y-55500000D03*
X133075000Y-56000000D03*
X133075000Y-56500000D03*
X133075000Y-57000000D03*
X133075000Y-57500000D03*
X133075000Y-58000000D03*
X133075000Y-58500000D03*
X133075000Y-59000000D03*
X133075000Y-59500000D03*
X133075000Y-60000000D03*
D20*
X135000000Y-61925000D03*
X135500000Y-61925000D03*
X136000000Y-61925000D03*
X136500000Y-61925000D03*
X137000000Y-61925000D03*
X137500000Y-61925000D03*
X138000000Y-61925000D03*
X138500000Y-61925000D03*
X139000000Y-61925000D03*
X139500000Y-61925000D03*
X140000000Y-61925000D03*
X140500000Y-61925000D03*
X141000000Y-61925000D03*
X141500000Y-61925000D03*
X142000000Y-61925000D03*
X142500000Y-61925000D03*
D19*
X144425000Y-60000000D03*
X144425000Y-59500000D03*
X144425000Y-59000000D03*
X144425000Y-58500000D03*
X144425000Y-58000000D03*
X144425000Y-57500000D03*
X144425000Y-57000000D03*
X144425000Y-56500000D03*
X144425000Y-56000000D03*
X144425000Y-55500000D03*
X144425000Y-55000000D03*
X144425000Y-54500000D03*
X144425000Y-54000000D03*
X144425000Y-53500000D03*
X144425000Y-53000000D03*
X144425000Y-52500000D03*
D20*
X142500000Y-50575000D03*
X142000000Y-50575000D03*
X141500000Y-50575000D03*
X141000000Y-50575000D03*
X140500000Y-50575000D03*
X140000000Y-50575000D03*
X139500000Y-50575000D03*
X139000000Y-50575000D03*
X138500000Y-50575000D03*
X138000000Y-50575000D03*
X137500000Y-50575000D03*
X137000000Y-50575000D03*
X136500000Y-50575000D03*
X136000000Y-50575000D03*
X135500000Y-50575000D03*
X135000000Y-50575000D03*
%TD*%
D21*
%TO.C,R13*%
X159250000Y-62800000D03*
X159250000Y-64800000D03*
%TD*%
D13*
%TO.C,TP8*%
X137600000Y-85600000D03*
%TD*%
D22*
%TO.C,C34*%
X159200000Y-58162500D03*
X159200000Y-60237500D03*
%TD*%
D23*
%TO.C,L2*%
X154737500Y-67200000D03*
X158062500Y-67200000D03*
%TD*%
D24*
%TO.C,J6*%
X158193375Y-52550000D03*
X158193375Y-48950000D03*
X156923375Y-52550000D03*
X156923375Y-48950000D03*
X155653375Y-52550000D03*
X155653375Y-48950000D03*
X154383375Y-52550000D03*
X154383375Y-48950000D03*
X153113375Y-52550000D03*
X153113375Y-48950000D03*
X151843375Y-52550000D03*
X151843375Y-48950000D03*
X150573375Y-52550000D03*
X150573375Y-48950000D03*
%TD*%
D25*
%TO.C,U11*%
X115025000Y-74345000D03*
X115025000Y-75615000D03*
X115025000Y-76885000D03*
X115025000Y-78155000D03*
X119975000Y-78155000D03*
X119975000Y-76885000D03*
X119975000Y-75615000D03*
X119975000Y-74345000D03*
%TD*%
D12*
%TO.C,C11*%
X148837500Y-68600000D03*
X146762500Y-68600000D03*
%TD*%
D11*
%TO.C,C26*%
X117750000Y-80250000D03*
X119825000Y-80250000D03*
%TD*%
D26*
%TO.C,R9*%
X152400000Y-73000000D03*
X152400000Y-71000000D03*
%TD*%
D27*
%TO.C,U4*%
X146262500Y-74450000D03*
X146262500Y-75400000D03*
X146262500Y-76350000D03*
X148537500Y-76350000D03*
X148537500Y-74450000D03*
%TD*%
D28*
%TO.C,U8*%
X125450000Y-64050000D03*
X125450000Y-65000000D03*
X125450000Y-65950000D03*
X128150000Y-65950000D03*
X128150000Y-64050000D03*
%TD*%
D12*
%TO.C,C17*%
X120287500Y-72000000D03*
X118212500Y-72000000D03*
%TD*%
D21*
%TO.C,R10*%
X159600000Y-71200000D03*
X159600000Y-73200000D03*
%TD*%
D29*
%TO.C,D1*%
X154726800Y-80600000D03*
X157673200Y-80600000D03*
%TD*%
D22*
%TO.C,C30*%
X130000000Y-48362500D03*
X130000000Y-50437500D03*
%TD*%
D30*
%TO.C,C7*%
X155000000Y-70237500D03*
X155000000Y-73362500D03*
%TD*%
D31*
%TO.C,H2*%
X117250000Y-40250000D03*
%TD*%
D30*
%TO.C,C27*%
X125900000Y-84837500D03*
X125900000Y-87962500D03*
%TD*%
D11*
%TO.C,C43*%
X124962500Y-50400000D03*
X127037500Y-50400000D03*
%TD*%
D22*
%TO.C,C28*%
X146600000Y-84362500D03*
X146600000Y-86437500D03*
%TD*%
D17*
%TO.C,TP5*%
X150600000Y-62800000D03*
%TD*%
D32*
%TO.C,Y1*%
X128700000Y-54700000D03*
X128700000Y-52500000D03*
X127000000Y-52500000D03*
X127000000Y-54700000D03*
%TD*%
D33*
%TO.C,U13*%
X123348050Y-78450002D03*
X123348050Y-79100000D03*
X123348050Y-79750002D03*
X123348050Y-80400000D03*
X123348050Y-81049999D03*
X123348050Y-81700000D03*
X123348050Y-82349999D03*
X123348050Y-83000000D03*
X129151950Y-83000000D03*
X129151950Y-82350002D03*
X129151950Y-81700000D03*
X129151950Y-81050002D03*
X129151950Y-80400003D03*
X129151950Y-79750002D03*
X129151950Y-79100003D03*
X129151950Y-78450002D03*
%TD*%
%TO.C,U12*%
X123500000Y-70825000D03*
X123500000Y-71475001D03*
X123500000Y-72124999D03*
X123500000Y-72775001D03*
X123500000Y-73424999D03*
X123500000Y-74074998D03*
X123500000Y-74724999D03*
X123500000Y-75374998D03*
X123500000Y-76024999D03*
X123500000Y-76674998D03*
X129303900Y-76675000D03*
X129303900Y-76025002D03*
X129303900Y-75375001D03*
X129303900Y-74725002D03*
X129303900Y-74075001D03*
X129303900Y-73425002D03*
X129303900Y-72775001D03*
X129303900Y-72125002D03*
X129303900Y-71475001D03*
X129303900Y-70825002D03*
%TD*%
D26*
%TO.C,R11*%
X157600000Y-73200000D03*
X157600000Y-71200000D03*
%TD*%
D16*
%TO.C,R25*%
X114400000Y-49400000D03*
X116400000Y-49400000D03*
%TD*%
D34*
%TO.C,C13*%
X152000000Y-78962500D03*
X152000000Y-75837500D03*
%TD*%
D31*
%TO.C,H3*%
X117250000Y-85500000D03*
%TD*%
D12*
%TO.C,C10*%
X127637500Y-62000000D03*
X125562500Y-62000000D03*
%TD*%
D35*
%TO.C,U1*%
X135262500Y-67700000D03*
X135262500Y-68200000D03*
X135262500Y-68700000D03*
X135262500Y-69200000D03*
X135262500Y-69700000D03*
X135262500Y-70200000D03*
X135262500Y-70700000D03*
X135262500Y-71200000D03*
X135262500Y-71700000D03*
X135262500Y-72200000D03*
X135262500Y-72700000D03*
X135262500Y-73200000D03*
D36*
X135950000Y-73887500D03*
X136450000Y-73887500D03*
X136950000Y-73887500D03*
X137450000Y-73887500D03*
X137950000Y-73887500D03*
X138450000Y-73887500D03*
X138950000Y-73887500D03*
X139450000Y-73887500D03*
X139950000Y-73887500D03*
X140450000Y-73887500D03*
X140950000Y-73887500D03*
X141450000Y-73887500D03*
D35*
X142137500Y-73200000D03*
X142137500Y-72700000D03*
X142137500Y-72200000D03*
X142137500Y-71700000D03*
X142137500Y-71200000D03*
X142137500Y-70700000D03*
X142137500Y-70200000D03*
X142137500Y-69700000D03*
X142137500Y-69200000D03*
X142137500Y-68700000D03*
X142137500Y-68200000D03*
X142137500Y-67700000D03*
D36*
X141450000Y-67012500D03*
X140950000Y-67012500D03*
X140450000Y-67012500D03*
X139950000Y-67012500D03*
X139450000Y-67012500D03*
X138950000Y-67012500D03*
X138450000Y-67012500D03*
X137950000Y-67012500D03*
X137450000Y-67012500D03*
X136950000Y-67012500D03*
X136450000Y-67012500D03*
X135950000Y-67012500D03*
D37*
X138700000Y-70450000D03*
%TD*%
D13*
%TO.C,TP10*%
X143200000Y-85600000D03*
%TD*%
D12*
%TO.C,C22*%
X127787500Y-68500000D03*
X125712500Y-68500000D03*
%TD*%
%TO.C,C9*%
X148837500Y-66600000D03*
X146762500Y-66600000D03*
%TD*%
D17*
%TO.C,TP1*%
X127600000Y-37800000D03*
%TD*%
D22*
%TO.C,C1*%
X144000000Y-74962500D03*
X144000000Y-77037500D03*
%TD*%
D17*
%TO.C,TP2*%
X146400000Y-37800000D03*
%TD*%
D38*
%TO.C,R24*%
X148800000Y-70600000D03*
X146800000Y-70600000D03*
%TD*%
D31*
%TO.C,H1*%
X156000000Y-40250000D03*
%TD*%
D39*
%TO.C,U5*%
X159137500Y-77350000D03*
X159137500Y-76400000D03*
X159137500Y-75450000D03*
X156862500Y-75450000D03*
X156862500Y-77350000D03*
%TD*%
D40*
%TO.C,C12*%
X154800000Y-78437500D03*
X154800000Y-76362500D03*
%TD*%
D16*
%TO.C,R7*%
X118250000Y-70000000D03*
X120250000Y-70000000D03*
%TD*%
D31*
%TO.C,H4*%
X156000000Y-85500000D03*
%TD*%
D41*
%TO.C,JP1*%
X141700000Y-46200000D03*
D42*
X140400000Y-46200000D03*
D43*
X139100000Y-46200000D03*
%TD*%
D12*
%TO.C,C2*%
X148237500Y-79200000D03*
X146162500Y-79200000D03*
%TD*%
D44*
%TO.C,J7*%
X123825000Y-53550000D03*
D45*
X123825000Y-56090000D03*
%TD*%
D46*
%TO.C,U6*%
X151775000Y-67500000D03*
X151775000Y-68000000D03*
X151775000Y-68500000D03*
X153200000Y-68500000D03*
X153200000Y-68000000D03*
X153200000Y-67500000D03*
%TD*%
D47*
%TO.C,U14*%
X123047201Y-45649999D03*
X123047201Y-46600000D03*
X123047201Y-47550001D03*
X125752799Y-47550001D03*
X125752799Y-45649999D03*
%TD*%
D48*
%TO.C,J4*%
X123400000Y-86400000D03*
X128400000Y-86400000D03*
%TD*%
%TO.C,J3*%
X116200000Y-46900000D03*
X116200000Y-51900000D03*
%TD*%
D44*
%TO.C,J1*%
X134940000Y-88500000D03*
D45*
X137480000Y-88500000D03*
X140020000Y-88500000D03*
X142560000Y-88500000D03*
%TD*%
D49*
%TO.C,J2*%
X124575000Y-41900000D03*
X148225000Y-41900000D03*
D50*
X128475000Y-41700000D03*
D51*
X129725000Y-41700000D03*
X128475000Y-40450000D03*
X129725000Y-40450000D03*
D52*
X132425000Y-41280000D03*
X136175000Y-41280000D03*
X139925000Y-41280000D03*
X143675000Y-41280000D03*
%TD*%
M02*
