%TF.GenerationSoftware,KiCad,Pcbnew,9.0.7*%
%TF.CreationDate,2026-03-16T10:51:19-04:00*%
%TF.ProjectId,FPGA-Lockin,46504741-2d4c-46f6-936b-696e2e6b6963,rev?*%
%TF.SameCoordinates,Original*%
%TF.FileFunction,Legend,Top*%
%TF.FilePolarity,Positive*%
%FSLAX46Y46*%
G04 Gerber Fmt 4.6, Leading zero omitted, Abs format (unit mm)*
G04 Created by KiCad (PCBNEW 9.0.7) date 2026-03-16 10:51:19*
%MOMM*%
%LPD*%
G01*
G04 APERTURE LIST*
%ADD10C,0.100000*%
%ADD11C,0.150000*%
%ADD12C,0.125000*%
%ADD13C,0.120000*%
%ADD14C,0.152400*%
%ADD15C,0.000000*%
G04 APERTURE END LIST*
D10*
X130875312Y-37167236D02*
X130827693Y-37214856D01*
X130827693Y-37214856D02*
X130684836Y-37262475D01*
X130684836Y-37262475D02*
X130589598Y-37262475D01*
X130589598Y-37262475D02*
X130446741Y-37214856D01*
X130446741Y-37214856D02*
X130351503Y-37119617D01*
X130351503Y-37119617D02*
X130303884Y-37024379D01*
X130303884Y-37024379D02*
X130256265Y-36833903D01*
X130256265Y-36833903D02*
X130256265Y-36691046D01*
X130256265Y-36691046D02*
X130303884Y-36500570D01*
X130303884Y-36500570D02*
X130351503Y-36405332D01*
X130351503Y-36405332D02*
X130446741Y-36310094D01*
X130446741Y-36310094D02*
X130589598Y-36262475D01*
X130589598Y-36262475D02*
X130684836Y-36262475D01*
X130684836Y-36262475D02*
X130827693Y-36310094D01*
X130827693Y-36310094D02*
X130875312Y-36357713D01*
X131446741Y-37262475D02*
X131351503Y-37214856D01*
X131351503Y-37214856D02*
X131303884Y-37167236D01*
X131303884Y-37167236D02*
X131256265Y-37071998D01*
X131256265Y-37071998D02*
X131256265Y-36786284D01*
X131256265Y-36786284D02*
X131303884Y-36691046D01*
X131303884Y-36691046D02*
X131351503Y-36643427D01*
X131351503Y-36643427D02*
X131446741Y-36595808D01*
X131446741Y-36595808D02*
X131589598Y-36595808D01*
X131589598Y-36595808D02*
X131684836Y-36643427D01*
X131684836Y-36643427D02*
X131732455Y-36691046D01*
X131732455Y-36691046D02*
X131780074Y-36786284D01*
X131780074Y-36786284D02*
X131780074Y-37071998D01*
X131780074Y-37071998D02*
X131732455Y-37167236D01*
X131732455Y-37167236D02*
X131684836Y-37214856D01*
X131684836Y-37214856D02*
X131589598Y-37262475D01*
X131589598Y-37262475D02*
X131446741Y-37262475D01*
X132208646Y-36595808D02*
X132208646Y-37262475D01*
X132208646Y-36691046D02*
X132256265Y-36643427D01*
X132256265Y-36643427D02*
X132351503Y-36595808D01*
X132351503Y-36595808D02*
X132494360Y-36595808D01*
X132494360Y-36595808D02*
X132589598Y-36643427D01*
X132589598Y-36643427D02*
X132637217Y-36738665D01*
X132637217Y-36738665D02*
X132637217Y-37262475D01*
X133113408Y-36595808D02*
X133113408Y-37262475D01*
X133113408Y-36691046D02*
X133161027Y-36643427D01*
X133161027Y-36643427D02*
X133256265Y-36595808D01*
X133256265Y-36595808D02*
X133399122Y-36595808D01*
X133399122Y-36595808D02*
X133494360Y-36643427D01*
X133494360Y-36643427D02*
X133541979Y-36738665D01*
X133541979Y-36738665D02*
X133541979Y-37262475D01*
X134161027Y-37262475D02*
X134065789Y-37214856D01*
X134065789Y-37214856D02*
X134018170Y-37167236D01*
X134018170Y-37167236D02*
X133970551Y-37071998D01*
X133970551Y-37071998D02*
X133970551Y-36786284D01*
X133970551Y-36786284D02*
X134018170Y-36691046D01*
X134018170Y-36691046D02*
X134065789Y-36643427D01*
X134065789Y-36643427D02*
X134161027Y-36595808D01*
X134161027Y-36595808D02*
X134303884Y-36595808D01*
X134303884Y-36595808D02*
X134399122Y-36643427D01*
X134399122Y-36643427D02*
X134446741Y-36691046D01*
X134446741Y-36691046D02*
X134494360Y-36786284D01*
X134494360Y-36786284D02*
X134494360Y-37071998D01*
X134494360Y-37071998D02*
X134446741Y-37167236D01*
X134446741Y-37167236D02*
X134399122Y-37214856D01*
X134399122Y-37214856D02*
X134303884Y-37262475D01*
X134303884Y-37262475D02*
X134161027Y-37262475D01*
X134922932Y-37262475D02*
X134922932Y-36595808D01*
X134922932Y-36786284D02*
X134970551Y-36691046D01*
X134970551Y-36691046D02*
X135018170Y-36643427D01*
X135018170Y-36643427D02*
X135113408Y-36595808D01*
X135113408Y-36595808D02*
X135208646Y-36595808D01*
X136256266Y-37214856D02*
X136399123Y-37262475D01*
X136399123Y-37262475D02*
X136637218Y-37262475D01*
X136637218Y-37262475D02*
X136732456Y-37214856D01*
X136732456Y-37214856D02*
X136780075Y-37167236D01*
X136780075Y-37167236D02*
X136827694Y-37071998D01*
X136827694Y-37071998D02*
X136827694Y-36976760D01*
X136827694Y-36976760D02*
X136780075Y-36881522D01*
X136780075Y-36881522D02*
X136732456Y-36833903D01*
X136732456Y-36833903D02*
X136637218Y-36786284D01*
X136637218Y-36786284D02*
X136446742Y-36738665D01*
X136446742Y-36738665D02*
X136351504Y-36691046D01*
X136351504Y-36691046D02*
X136303885Y-36643427D01*
X136303885Y-36643427D02*
X136256266Y-36548189D01*
X136256266Y-36548189D02*
X136256266Y-36452951D01*
X136256266Y-36452951D02*
X136303885Y-36357713D01*
X136303885Y-36357713D02*
X136351504Y-36310094D01*
X136351504Y-36310094D02*
X136446742Y-36262475D01*
X136446742Y-36262475D02*
X136684837Y-36262475D01*
X136684837Y-36262475D02*
X136827694Y-36310094D01*
X137113409Y-36595808D02*
X137494361Y-36595808D01*
X137256266Y-36262475D02*
X137256266Y-37119617D01*
X137256266Y-37119617D02*
X137303885Y-37214856D01*
X137303885Y-37214856D02*
X137399123Y-37262475D01*
X137399123Y-37262475D02*
X137494361Y-37262475D01*
X138256266Y-36595808D02*
X138256266Y-37262475D01*
X137827695Y-36595808D02*
X137827695Y-37119617D01*
X137827695Y-37119617D02*
X137875314Y-37214856D01*
X137875314Y-37214856D02*
X137970552Y-37262475D01*
X137970552Y-37262475D02*
X138113409Y-37262475D01*
X138113409Y-37262475D02*
X138208647Y-37214856D01*
X138208647Y-37214856D02*
X138256266Y-37167236D01*
X138732457Y-37262475D02*
X138732457Y-36262475D01*
X138732457Y-36643427D02*
X138827695Y-36595808D01*
X138827695Y-36595808D02*
X139018171Y-36595808D01*
X139018171Y-36595808D02*
X139113409Y-36643427D01*
X139113409Y-36643427D02*
X139161028Y-36691046D01*
X139161028Y-36691046D02*
X139208647Y-36786284D01*
X139208647Y-36786284D02*
X139208647Y-37071998D01*
X139208647Y-37071998D02*
X139161028Y-37167236D01*
X139161028Y-37167236D02*
X139113409Y-37214856D01*
X139113409Y-37214856D02*
X139018171Y-37262475D01*
X139018171Y-37262475D02*
X138827695Y-37262475D01*
X138827695Y-37262475D02*
X138732457Y-37214856D01*
X139637219Y-37262475D02*
X139637219Y-36262475D01*
X139637219Y-36643427D02*
X139732457Y-36595808D01*
X139732457Y-36595808D02*
X139922933Y-36595808D01*
X139922933Y-36595808D02*
X140018171Y-36643427D01*
X140018171Y-36643427D02*
X140065790Y-36691046D01*
X140065790Y-36691046D02*
X140113409Y-36786284D01*
X140113409Y-36786284D02*
X140113409Y-37071998D01*
X140113409Y-37071998D02*
X140065790Y-37167236D01*
X140065790Y-37167236D02*
X140018171Y-37214856D01*
X140018171Y-37214856D02*
X139922933Y-37262475D01*
X139922933Y-37262475D02*
X139732457Y-37262475D01*
X139732457Y-37262475D02*
X139637219Y-37214856D01*
X140494362Y-37214856D02*
X140589600Y-37262475D01*
X140589600Y-37262475D02*
X140780076Y-37262475D01*
X140780076Y-37262475D02*
X140875314Y-37214856D01*
X140875314Y-37214856D02*
X140922933Y-37119617D01*
X140922933Y-37119617D02*
X140922933Y-37071998D01*
X140922933Y-37071998D02*
X140875314Y-36976760D01*
X140875314Y-36976760D02*
X140780076Y-36929141D01*
X140780076Y-36929141D02*
X140637219Y-36929141D01*
X140637219Y-36929141D02*
X140541981Y-36881522D01*
X140541981Y-36881522D02*
X140494362Y-36786284D01*
X140494362Y-36786284D02*
X140494362Y-36738665D01*
X140494362Y-36738665D02*
X140541981Y-36643427D01*
X140541981Y-36643427D02*
X140637219Y-36595808D01*
X140637219Y-36595808D02*
X140780076Y-36595808D01*
X140780076Y-36595808D02*
X140875314Y-36643427D01*
X130780074Y-38872419D02*
X130303884Y-38872419D01*
X130303884Y-38872419D02*
X130303884Y-37872419D01*
X131303884Y-37872419D02*
X131494360Y-37872419D01*
X131494360Y-37872419D02*
X131589598Y-37920038D01*
X131589598Y-37920038D02*
X131684836Y-38015276D01*
X131684836Y-38015276D02*
X131732455Y-38205752D01*
X131732455Y-38205752D02*
X131732455Y-38539085D01*
X131732455Y-38539085D02*
X131684836Y-38729561D01*
X131684836Y-38729561D02*
X131589598Y-38824800D01*
X131589598Y-38824800D02*
X131494360Y-38872419D01*
X131494360Y-38872419D02*
X131303884Y-38872419D01*
X131303884Y-38872419D02*
X131208646Y-38824800D01*
X131208646Y-38824800D02*
X131113408Y-38729561D01*
X131113408Y-38729561D02*
X131065789Y-38539085D01*
X131065789Y-38539085D02*
X131065789Y-38205752D01*
X131065789Y-38205752D02*
X131113408Y-38015276D01*
X131113408Y-38015276D02*
X131208646Y-37920038D01*
X131208646Y-37920038D02*
X131303884Y-37872419D01*
X132732455Y-38777180D02*
X132684836Y-38824800D01*
X132684836Y-38824800D02*
X132541979Y-38872419D01*
X132541979Y-38872419D02*
X132446741Y-38872419D01*
X132446741Y-38872419D02*
X132303884Y-38824800D01*
X132303884Y-38824800D02*
X132208646Y-38729561D01*
X132208646Y-38729561D02*
X132161027Y-38634323D01*
X132161027Y-38634323D02*
X132113408Y-38443847D01*
X132113408Y-38443847D02*
X132113408Y-38300990D01*
X132113408Y-38300990D02*
X132161027Y-38110514D01*
X132161027Y-38110514D02*
X132208646Y-38015276D01*
X132208646Y-38015276D02*
X132303884Y-37920038D01*
X132303884Y-37920038D02*
X132446741Y-37872419D01*
X132446741Y-37872419D02*
X132541979Y-37872419D01*
X132541979Y-37872419D02*
X132684836Y-37920038D01*
X132684836Y-37920038D02*
X132732455Y-37967657D01*
X133161027Y-38872419D02*
X133161027Y-37872419D01*
X133732455Y-38872419D02*
X133303884Y-38300990D01*
X133732455Y-37872419D02*
X133161027Y-38443847D01*
X134780075Y-37872419D02*
X135351503Y-37872419D01*
X135065789Y-38872419D02*
X135065789Y-37872419D01*
X135684837Y-38872419D02*
X135684837Y-37872419D01*
X135684837Y-38348609D02*
X136256265Y-38348609D01*
X136256265Y-38872419D02*
X136256265Y-37872419D01*
X136732456Y-38348609D02*
X137065789Y-38348609D01*
X137208646Y-38872419D02*
X136732456Y-38872419D01*
X136732456Y-38872419D02*
X136732456Y-37872419D01*
X136732456Y-37872419D02*
X137208646Y-37872419D01*
X138732456Y-38348609D02*
X138399123Y-38348609D01*
X138399123Y-38872419D02*
X138399123Y-37872419D01*
X138399123Y-37872419D02*
X138875313Y-37872419D01*
X139256266Y-37872419D02*
X139256266Y-38681942D01*
X139256266Y-38681942D02*
X139303885Y-38777180D01*
X139303885Y-38777180D02*
X139351504Y-38824800D01*
X139351504Y-38824800D02*
X139446742Y-38872419D01*
X139446742Y-38872419D02*
X139637218Y-38872419D01*
X139637218Y-38872419D02*
X139732456Y-38824800D01*
X139732456Y-38824800D02*
X139780075Y-38777180D01*
X139780075Y-38777180D02*
X139827694Y-38681942D01*
X139827694Y-38681942D02*
X139827694Y-37872419D01*
X140875313Y-38777180D02*
X140827694Y-38824800D01*
X140827694Y-38824800D02*
X140684837Y-38872419D01*
X140684837Y-38872419D02*
X140589599Y-38872419D01*
X140589599Y-38872419D02*
X140446742Y-38824800D01*
X140446742Y-38824800D02*
X140351504Y-38729561D01*
X140351504Y-38729561D02*
X140303885Y-38634323D01*
X140303885Y-38634323D02*
X140256266Y-38443847D01*
X140256266Y-38443847D02*
X140256266Y-38300990D01*
X140256266Y-38300990D02*
X140303885Y-38110514D01*
X140303885Y-38110514D02*
X140351504Y-38015276D01*
X140351504Y-38015276D02*
X140446742Y-37920038D01*
X140446742Y-37920038D02*
X140589599Y-37872419D01*
X140589599Y-37872419D02*
X140684837Y-37872419D01*
X140684837Y-37872419D02*
X140827694Y-37920038D01*
X140827694Y-37920038D02*
X140875313Y-37967657D01*
X141303885Y-38872419D02*
X141303885Y-37872419D01*
X141875313Y-38872419D02*
X141446742Y-38300990D01*
X141875313Y-37872419D02*
X141303885Y-38443847D01*
X143065790Y-38872419D02*
X143065790Y-37872419D01*
X143541980Y-38872419D02*
X143541980Y-37872419D01*
X143541980Y-37872419D02*
X144113408Y-38872419D01*
X144113408Y-38872419D02*
X144113408Y-37872419D01*
D11*
X144607142Y-62859580D02*
X144559523Y-62907200D01*
X144559523Y-62907200D02*
X144416666Y-62954819D01*
X144416666Y-62954819D02*
X144321428Y-62954819D01*
X144321428Y-62954819D02*
X144178571Y-62907200D01*
X144178571Y-62907200D02*
X144083333Y-62811961D01*
X144083333Y-62811961D02*
X144035714Y-62716723D01*
X144035714Y-62716723D02*
X143988095Y-62526247D01*
X143988095Y-62526247D02*
X143988095Y-62383390D01*
X143988095Y-62383390D02*
X144035714Y-62192914D01*
X144035714Y-62192914D02*
X144083333Y-62097676D01*
X144083333Y-62097676D02*
X144178571Y-62002438D01*
X144178571Y-62002438D02*
X144321428Y-61954819D01*
X144321428Y-61954819D02*
X144416666Y-61954819D01*
X144416666Y-61954819D02*
X144559523Y-62002438D01*
X144559523Y-62002438D02*
X144607142Y-62050057D01*
X144988095Y-62050057D02*
X145035714Y-62002438D01*
X145035714Y-62002438D02*
X145130952Y-61954819D01*
X145130952Y-61954819D02*
X145369047Y-61954819D01*
X145369047Y-61954819D02*
X145464285Y-62002438D01*
X145464285Y-62002438D02*
X145511904Y-62050057D01*
X145511904Y-62050057D02*
X145559523Y-62145295D01*
X145559523Y-62145295D02*
X145559523Y-62240533D01*
X145559523Y-62240533D02*
X145511904Y-62383390D01*
X145511904Y-62383390D02*
X144940476Y-62954819D01*
X144940476Y-62954819D02*
X145559523Y-62954819D01*
X146035714Y-62954819D02*
X146226190Y-62954819D01*
X146226190Y-62954819D02*
X146321428Y-62907200D01*
X146321428Y-62907200D02*
X146369047Y-62859580D01*
X146369047Y-62859580D02*
X146464285Y-62716723D01*
X146464285Y-62716723D02*
X146511904Y-62526247D01*
X146511904Y-62526247D02*
X146511904Y-62145295D01*
X146511904Y-62145295D02*
X146464285Y-62050057D01*
X146464285Y-62050057D02*
X146416666Y-62002438D01*
X146416666Y-62002438D02*
X146321428Y-61954819D01*
X146321428Y-61954819D02*
X146130952Y-61954819D01*
X146130952Y-61954819D02*
X146035714Y-62002438D01*
X146035714Y-62002438D02*
X145988095Y-62050057D01*
X145988095Y-62050057D02*
X145940476Y-62145295D01*
X145940476Y-62145295D02*
X145940476Y-62383390D01*
X145940476Y-62383390D02*
X145988095Y-62478628D01*
X145988095Y-62478628D02*
X146035714Y-62526247D01*
X146035714Y-62526247D02*
X146130952Y-62573866D01*
X146130952Y-62573866D02*
X146321428Y-62573866D01*
X146321428Y-62573866D02*
X146416666Y-62526247D01*
X146416666Y-62526247D02*
X146464285Y-62478628D01*
X146464285Y-62478628D02*
X146511904Y-62383390D01*
X126361905Y-44254819D02*
X126361905Y-45064342D01*
X126361905Y-45064342D02*
X126409524Y-45159580D01*
X126409524Y-45159580D02*
X126457143Y-45207200D01*
X126457143Y-45207200D02*
X126552381Y-45254819D01*
X126552381Y-45254819D02*
X126742857Y-45254819D01*
X126742857Y-45254819D02*
X126838095Y-45207200D01*
X126838095Y-45207200D02*
X126885714Y-45159580D01*
X126885714Y-45159580D02*
X126933333Y-45064342D01*
X126933333Y-45064342D02*
X126933333Y-44254819D01*
X127933333Y-45254819D02*
X127361905Y-45254819D01*
X127647619Y-45254819D02*
X127647619Y-44254819D01*
X127647619Y-44254819D02*
X127552381Y-44397676D01*
X127552381Y-44397676D02*
X127457143Y-44492914D01*
X127457143Y-44492914D02*
X127361905Y-44540533D01*
X128790476Y-44588152D02*
X128790476Y-45254819D01*
X128552381Y-44207200D02*
X128314286Y-44921485D01*
X128314286Y-44921485D02*
X128933333Y-44921485D01*
X115144642Y-68409580D02*
X115097023Y-68457200D01*
X115097023Y-68457200D02*
X114954166Y-68504819D01*
X114954166Y-68504819D02*
X114858928Y-68504819D01*
X114858928Y-68504819D02*
X114716071Y-68457200D01*
X114716071Y-68457200D02*
X114620833Y-68361961D01*
X114620833Y-68361961D02*
X114573214Y-68266723D01*
X114573214Y-68266723D02*
X114525595Y-68076247D01*
X114525595Y-68076247D02*
X114525595Y-67933390D01*
X114525595Y-67933390D02*
X114573214Y-67742914D01*
X114573214Y-67742914D02*
X114620833Y-67647676D01*
X114620833Y-67647676D02*
X114716071Y-67552438D01*
X114716071Y-67552438D02*
X114858928Y-67504819D01*
X114858928Y-67504819D02*
X114954166Y-67504819D01*
X114954166Y-67504819D02*
X115097023Y-67552438D01*
X115097023Y-67552438D02*
X115144642Y-67600057D01*
X116097023Y-68504819D02*
X115525595Y-68504819D01*
X115811309Y-68504819D02*
X115811309Y-67504819D01*
X115811309Y-67504819D02*
X115716071Y-67647676D01*
X115716071Y-67647676D02*
X115620833Y-67742914D01*
X115620833Y-67742914D02*
X115525595Y-67790533D01*
X116668452Y-67933390D02*
X116573214Y-67885771D01*
X116573214Y-67885771D02*
X116525595Y-67838152D01*
X116525595Y-67838152D02*
X116477976Y-67742914D01*
X116477976Y-67742914D02*
X116477976Y-67695295D01*
X116477976Y-67695295D02*
X116525595Y-67600057D01*
X116525595Y-67600057D02*
X116573214Y-67552438D01*
X116573214Y-67552438D02*
X116668452Y-67504819D01*
X116668452Y-67504819D02*
X116858928Y-67504819D01*
X116858928Y-67504819D02*
X116954166Y-67552438D01*
X116954166Y-67552438D02*
X117001785Y-67600057D01*
X117001785Y-67600057D02*
X117049404Y-67695295D01*
X117049404Y-67695295D02*
X117049404Y-67742914D01*
X117049404Y-67742914D02*
X117001785Y-67838152D01*
X117001785Y-67838152D02*
X116954166Y-67885771D01*
X116954166Y-67885771D02*
X116858928Y-67933390D01*
X116858928Y-67933390D02*
X116668452Y-67933390D01*
X116668452Y-67933390D02*
X116573214Y-67981009D01*
X116573214Y-67981009D02*
X116525595Y-68028628D01*
X116525595Y-68028628D02*
X116477976Y-68123866D01*
X116477976Y-68123866D02*
X116477976Y-68314342D01*
X116477976Y-68314342D02*
X116525595Y-68409580D01*
X116525595Y-68409580D02*
X116573214Y-68457200D01*
X116573214Y-68457200D02*
X116668452Y-68504819D01*
X116668452Y-68504819D02*
X116858928Y-68504819D01*
X116858928Y-68504819D02*
X116954166Y-68457200D01*
X116954166Y-68457200D02*
X117001785Y-68409580D01*
X117001785Y-68409580D02*
X117049404Y-68314342D01*
X117049404Y-68314342D02*
X117049404Y-68123866D01*
X117049404Y-68123866D02*
X117001785Y-68028628D01*
X117001785Y-68028628D02*
X116954166Y-67981009D01*
X116954166Y-67981009D02*
X116858928Y-67933390D01*
D12*
X139930953Y-83876809D02*
X140216667Y-83876809D01*
X140073810Y-84376809D02*
X140073810Y-83876809D01*
X140383333Y-84376809D02*
X140383333Y-83876809D01*
X140383333Y-83876809D02*
X140573809Y-83876809D01*
X140573809Y-83876809D02*
X140621428Y-83900619D01*
X140621428Y-83900619D02*
X140645238Y-83924428D01*
X140645238Y-83924428D02*
X140669047Y-83972047D01*
X140669047Y-83972047D02*
X140669047Y-84043476D01*
X140669047Y-84043476D02*
X140645238Y-84091095D01*
X140645238Y-84091095D02*
X140621428Y-84114904D01*
X140621428Y-84114904D02*
X140573809Y-84138714D01*
X140573809Y-84138714D02*
X140383333Y-84138714D01*
X141145238Y-84376809D02*
X140859524Y-84376809D01*
X141002381Y-84376809D02*
X141002381Y-83876809D01*
X141002381Y-83876809D02*
X140954762Y-83948238D01*
X140954762Y-83948238D02*
X140907143Y-83995857D01*
X140907143Y-83995857D02*
X140859524Y-84019666D01*
X141621428Y-84376809D02*
X141335714Y-84376809D01*
X141478571Y-84376809D02*
X141478571Y-83876809D01*
X141478571Y-83876809D02*
X141430952Y-83948238D01*
X141430952Y-83948238D02*
X141383333Y-83995857D01*
X141383333Y-83995857D02*
X141335714Y-84019666D01*
D11*
X119854819Y-61538094D02*
X118854819Y-61538094D01*
X118854819Y-61538094D02*
X118854819Y-61299999D01*
X118854819Y-61299999D02*
X118902438Y-61157142D01*
X118902438Y-61157142D02*
X118997676Y-61061904D01*
X118997676Y-61061904D02*
X119092914Y-61014285D01*
X119092914Y-61014285D02*
X119283390Y-60966666D01*
X119283390Y-60966666D02*
X119426247Y-60966666D01*
X119426247Y-60966666D02*
X119616723Y-61014285D01*
X119616723Y-61014285D02*
X119711961Y-61061904D01*
X119711961Y-61061904D02*
X119807200Y-61157142D01*
X119807200Y-61157142D02*
X119854819Y-61299999D01*
X119854819Y-61299999D02*
X119854819Y-61538094D01*
X118854819Y-60061904D02*
X118854819Y-60538094D01*
X118854819Y-60538094D02*
X119331009Y-60585713D01*
X119331009Y-60585713D02*
X119283390Y-60538094D01*
X119283390Y-60538094D02*
X119235771Y-60442856D01*
X119235771Y-60442856D02*
X119235771Y-60204761D01*
X119235771Y-60204761D02*
X119283390Y-60109523D01*
X119283390Y-60109523D02*
X119331009Y-60061904D01*
X119331009Y-60061904D02*
X119426247Y-60014285D01*
X119426247Y-60014285D02*
X119664342Y-60014285D01*
X119664342Y-60014285D02*
X119759580Y-60061904D01*
X119759580Y-60061904D02*
X119807200Y-60109523D01*
X119807200Y-60109523D02*
X119854819Y-60204761D01*
X119854819Y-60204761D02*
X119854819Y-60442856D01*
X119854819Y-60442856D02*
X119807200Y-60538094D01*
X119807200Y-60538094D02*
X119759580Y-60585713D01*
D12*
X134169048Y-83876809D02*
X134454762Y-83876809D01*
X134311905Y-84376809D02*
X134311905Y-83876809D01*
X134621428Y-84376809D02*
X134621428Y-83876809D01*
X134621428Y-83876809D02*
X134811904Y-83876809D01*
X134811904Y-83876809D02*
X134859523Y-83900619D01*
X134859523Y-83900619D02*
X134883333Y-83924428D01*
X134883333Y-83924428D02*
X134907142Y-83972047D01*
X134907142Y-83972047D02*
X134907142Y-84043476D01*
X134907142Y-84043476D02*
X134883333Y-84091095D01*
X134883333Y-84091095D02*
X134859523Y-84114904D01*
X134859523Y-84114904D02*
X134811904Y-84138714D01*
X134811904Y-84138714D02*
X134621428Y-84138714D01*
X135073809Y-83876809D02*
X135407142Y-83876809D01*
X135407142Y-83876809D02*
X135192857Y-84376809D01*
D11*
X123557142Y-56959580D02*
X123509523Y-57007200D01*
X123509523Y-57007200D02*
X123366666Y-57054819D01*
X123366666Y-57054819D02*
X123271428Y-57054819D01*
X123271428Y-57054819D02*
X123128571Y-57007200D01*
X123128571Y-57007200D02*
X123033333Y-56911961D01*
X123033333Y-56911961D02*
X122985714Y-56816723D01*
X122985714Y-56816723D02*
X122938095Y-56626247D01*
X122938095Y-56626247D02*
X122938095Y-56483390D01*
X122938095Y-56483390D02*
X122985714Y-56292914D01*
X122985714Y-56292914D02*
X123033333Y-56197676D01*
X123033333Y-56197676D02*
X123128571Y-56102438D01*
X123128571Y-56102438D02*
X123271428Y-56054819D01*
X123271428Y-56054819D02*
X123366666Y-56054819D01*
X123366666Y-56054819D02*
X123509523Y-56102438D01*
X123509523Y-56102438D02*
X123557142Y-56150057D01*
X123890476Y-56054819D02*
X124509523Y-56054819D01*
X124509523Y-56054819D02*
X124176190Y-56435771D01*
X124176190Y-56435771D02*
X124319047Y-56435771D01*
X124319047Y-56435771D02*
X124414285Y-56483390D01*
X124414285Y-56483390D02*
X124461904Y-56531009D01*
X124461904Y-56531009D02*
X124509523Y-56626247D01*
X124509523Y-56626247D02*
X124509523Y-56864342D01*
X124509523Y-56864342D02*
X124461904Y-56959580D01*
X124461904Y-56959580D02*
X124414285Y-57007200D01*
X124414285Y-57007200D02*
X124319047Y-57054819D01*
X124319047Y-57054819D02*
X124033333Y-57054819D01*
X124033333Y-57054819D02*
X123938095Y-57007200D01*
X123938095Y-57007200D02*
X123890476Y-56959580D01*
X125461904Y-57054819D02*
X124890476Y-57054819D01*
X125176190Y-57054819D02*
X125176190Y-56054819D01*
X125176190Y-56054819D02*
X125080952Y-56197676D01*
X125080952Y-56197676D02*
X124985714Y-56292914D01*
X124985714Y-56292914D02*
X124890476Y-56340533D01*
X143757142Y-72854819D02*
X143423809Y-72378628D01*
X143185714Y-72854819D02*
X143185714Y-71854819D01*
X143185714Y-71854819D02*
X143566666Y-71854819D01*
X143566666Y-71854819D02*
X143661904Y-71902438D01*
X143661904Y-71902438D02*
X143709523Y-71950057D01*
X143709523Y-71950057D02*
X143757142Y-72045295D01*
X143757142Y-72045295D02*
X143757142Y-72188152D01*
X143757142Y-72188152D02*
X143709523Y-72283390D01*
X143709523Y-72283390D02*
X143661904Y-72331009D01*
X143661904Y-72331009D02*
X143566666Y-72378628D01*
X143566666Y-72378628D02*
X143185714Y-72378628D01*
X144138095Y-71950057D02*
X144185714Y-71902438D01*
X144185714Y-71902438D02*
X144280952Y-71854819D01*
X144280952Y-71854819D02*
X144519047Y-71854819D01*
X144519047Y-71854819D02*
X144614285Y-71902438D01*
X144614285Y-71902438D02*
X144661904Y-71950057D01*
X144661904Y-71950057D02*
X144709523Y-72045295D01*
X144709523Y-72045295D02*
X144709523Y-72140533D01*
X144709523Y-72140533D02*
X144661904Y-72283390D01*
X144661904Y-72283390D02*
X144090476Y-72854819D01*
X144090476Y-72854819D02*
X144709523Y-72854819D01*
X145042857Y-71854819D02*
X145661904Y-71854819D01*
X145661904Y-71854819D02*
X145328571Y-72235771D01*
X145328571Y-72235771D02*
X145471428Y-72235771D01*
X145471428Y-72235771D02*
X145566666Y-72283390D01*
X145566666Y-72283390D02*
X145614285Y-72331009D01*
X145614285Y-72331009D02*
X145661904Y-72426247D01*
X145661904Y-72426247D02*
X145661904Y-72664342D01*
X145661904Y-72664342D02*
X145614285Y-72759580D01*
X145614285Y-72759580D02*
X145566666Y-72807200D01*
X145566666Y-72807200D02*
X145471428Y-72854819D01*
X145471428Y-72854819D02*
X145185714Y-72854819D01*
X145185714Y-72854819D02*
X145090476Y-72807200D01*
X145090476Y-72807200D02*
X145042857Y-72759580D01*
X151254819Y-84261904D02*
X151254819Y-83690476D01*
X152254819Y-83976190D02*
X151254819Y-83976190D01*
X152254819Y-83357142D02*
X151254819Y-83357142D01*
X151254819Y-83357142D02*
X151254819Y-82976190D01*
X151254819Y-82976190D02*
X151302438Y-82880952D01*
X151302438Y-82880952D02*
X151350057Y-82833333D01*
X151350057Y-82833333D02*
X151445295Y-82785714D01*
X151445295Y-82785714D02*
X151588152Y-82785714D01*
X151588152Y-82785714D02*
X151683390Y-82833333D01*
X151683390Y-82833333D02*
X151731009Y-82880952D01*
X151731009Y-82880952D02*
X151778628Y-82976190D01*
X151778628Y-82976190D02*
X151778628Y-83357142D01*
X151588152Y-81928571D02*
X152254819Y-81928571D01*
X151207200Y-82166666D02*
X151921485Y-82404761D01*
X151921485Y-82404761D02*
X151921485Y-81785714D01*
X151254819Y-89061904D02*
X151254819Y-88490476D01*
X152254819Y-88776190D02*
X151254819Y-88776190D01*
X152254819Y-88157142D02*
X151254819Y-88157142D01*
X151254819Y-88157142D02*
X151254819Y-87776190D01*
X151254819Y-87776190D02*
X151302438Y-87680952D01*
X151302438Y-87680952D02*
X151350057Y-87633333D01*
X151350057Y-87633333D02*
X151445295Y-87585714D01*
X151445295Y-87585714D02*
X151588152Y-87585714D01*
X151588152Y-87585714D02*
X151683390Y-87633333D01*
X151683390Y-87633333D02*
X151731009Y-87680952D01*
X151731009Y-87680952D02*
X151778628Y-87776190D01*
X151778628Y-87776190D02*
X151778628Y-88157142D01*
X151254819Y-86728571D02*
X151254819Y-86919047D01*
X151254819Y-86919047D02*
X151302438Y-87014285D01*
X151302438Y-87014285D02*
X151350057Y-87061904D01*
X151350057Y-87061904D02*
X151492914Y-87157142D01*
X151492914Y-87157142D02*
X151683390Y-87204761D01*
X151683390Y-87204761D02*
X152064342Y-87204761D01*
X152064342Y-87204761D02*
X152159580Y-87157142D01*
X152159580Y-87157142D02*
X152207200Y-87109523D01*
X152207200Y-87109523D02*
X152254819Y-87014285D01*
X152254819Y-87014285D02*
X152254819Y-86823809D01*
X152254819Y-86823809D02*
X152207200Y-86728571D01*
X152207200Y-86728571D02*
X152159580Y-86680952D01*
X152159580Y-86680952D02*
X152064342Y-86633333D01*
X152064342Y-86633333D02*
X151826247Y-86633333D01*
X151826247Y-86633333D02*
X151731009Y-86680952D01*
X151731009Y-86680952D02*
X151683390Y-86728571D01*
X151683390Y-86728571D02*
X151635771Y-86823809D01*
X151635771Y-86823809D02*
X151635771Y-87014285D01*
X151635771Y-87014285D02*
X151683390Y-87109523D01*
X151683390Y-87109523D02*
X151731009Y-87157142D01*
X151731009Y-87157142D02*
X151826247Y-87204761D01*
D12*
X131369048Y-83876809D02*
X131654762Y-83876809D01*
X131511905Y-84376809D02*
X131511905Y-83876809D01*
X131821428Y-84376809D02*
X131821428Y-83876809D01*
X131821428Y-83876809D02*
X132011904Y-83876809D01*
X132011904Y-83876809D02*
X132059523Y-83900619D01*
X132059523Y-83900619D02*
X132083333Y-83924428D01*
X132083333Y-83924428D02*
X132107142Y-83972047D01*
X132107142Y-83972047D02*
X132107142Y-84043476D01*
X132107142Y-84043476D02*
X132083333Y-84091095D01*
X132083333Y-84091095D02*
X132059523Y-84114904D01*
X132059523Y-84114904D02*
X132011904Y-84138714D01*
X132011904Y-84138714D02*
X131821428Y-84138714D01*
X132345238Y-84376809D02*
X132440476Y-84376809D01*
X132440476Y-84376809D02*
X132488095Y-84353000D01*
X132488095Y-84353000D02*
X132511904Y-84329190D01*
X132511904Y-84329190D02*
X132559523Y-84257761D01*
X132559523Y-84257761D02*
X132583333Y-84162523D01*
X132583333Y-84162523D02*
X132583333Y-83972047D01*
X132583333Y-83972047D02*
X132559523Y-83924428D01*
X132559523Y-83924428D02*
X132535714Y-83900619D01*
X132535714Y-83900619D02*
X132488095Y-83876809D01*
X132488095Y-83876809D02*
X132392857Y-83876809D01*
X132392857Y-83876809D02*
X132345238Y-83900619D01*
X132345238Y-83900619D02*
X132321428Y-83924428D01*
X132321428Y-83924428D02*
X132297619Y-83972047D01*
X132297619Y-83972047D02*
X132297619Y-84091095D01*
X132297619Y-84091095D02*
X132321428Y-84138714D01*
X132321428Y-84138714D02*
X132345238Y-84162523D01*
X132345238Y-84162523D02*
X132392857Y-84186333D01*
X132392857Y-84186333D02*
X132488095Y-84186333D01*
X132488095Y-84186333D02*
X132535714Y-84162523D01*
X132535714Y-84162523D02*
X132559523Y-84138714D01*
X132559523Y-84138714D02*
X132583333Y-84091095D01*
D11*
X137988095Y-48304819D02*
X137988095Y-49114342D01*
X137988095Y-49114342D02*
X138035714Y-49209580D01*
X138035714Y-49209580D02*
X138083333Y-49257200D01*
X138083333Y-49257200D02*
X138178571Y-49304819D01*
X138178571Y-49304819D02*
X138369047Y-49304819D01*
X138369047Y-49304819D02*
X138464285Y-49257200D01*
X138464285Y-49257200D02*
X138511904Y-49209580D01*
X138511904Y-49209580D02*
X138559523Y-49114342D01*
X138559523Y-49114342D02*
X138559523Y-48304819D01*
X138940476Y-48304819D02*
X139607142Y-48304819D01*
X139607142Y-48304819D02*
X139178571Y-49304819D01*
X156357142Y-64254819D02*
X156023809Y-63778628D01*
X155785714Y-64254819D02*
X155785714Y-63254819D01*
X155785714Y-63254819D02*
X156166666Y-63254819D01*
X156166666Y-63254819D02*
X156261904Y-63302438D01*
X156261904Y-63302438D02*
X156309523Y-63350057D01*
X156309523Y-63350057D02*
X156357142Y-63445295D01*
X156357142Y-63445295D02*
X156357142Y-63588152D01*
X156357142Y-63588152D02*
X156309523Y-63683390D01*
X156309523Y-63683390D02*
X156261904Y-63731009D01*
X156261904Y-63731009D02*
X156166666Y-63778628D01*
X156166666Y-63778628D02*
X155785714Y-63778628D01*
X157309523Y-64254819D02*
X156738095Y-64254819D01*
X157023809Y-64254819D02*
X157023809Y-63254819D01*
X157023809Y-63254819D02*
X156928571Y-63397676D01*
X156928571Y-63397676D02*
X156833333Y-63492914D01*
X156833333Y-63492914D02*
X156738095Y-63540533D01*
X157642857Y-63254819D02*
X158261904Y-63254819D01*
X158261904Y-63254819D02*
X157928571Y-63635771D01*
X157928571Y-63635771D02*
X158071428Y-63635771D01*
X158071428Y-63635771D02*
X158166666Y-63683390D01*
X158166666Y-63683390D02*
X158214285Y-63731009D01*
X158214285Y-63731009D02*
X158261904Y-63826247D01*
X158261904Y-63826247D02*
X158261904Y-64064342D01*
X158261904Y-64064342D02*
X158214285Y-64159580D01*
X158214285Y-64159580D02*
X158166666Y-64207200D01*
X158166666Y-64207200D02*
X158071428Y-64254819D01*
X158071428Y-64254819D02*
X157785714Y-64254819D01*
X157785714Y-64254819D02*
X157690476Y-64207200D01*
X157690476Y-64207200D02*
X157642857Y-64159580D01*
D12*
X136969048Y-83876809D02*
X137254762Y-83876809D01*
X137111905Y-84376809D02*
X137111905Y-83876809D01*
X137421428Y-84376809D02*
X137421428Y-83876809D01*
X137421428Y-83876809D02*
X137611904Y-83876809D01*
X137611904Y-83876809D02*
X137659523Y-83900619D01*
X137659523Y-83900619D02*
X137683333Y-83924428D01*
X137683333Y-83924428D02*
X137707142Y-83972047D01*
X137707142Y-83972047D02*
X137707142Y-84043476D01*
X137707142Y-84043476D02*
X137683333Y-84091095D01*
X137683333Y-84091095D02*
X137659523Y-84114904D01*
X137659523Y-84114904D02*
X137611904Y-84138714D01*
X137611904Y-84138714D02*
X137421428Y-84138714D01*
X137992857Y-84091095D02*
X137945238Y-84067285D01*
X137945238Y-84067285D02*
X137921428Y-84043476D01*
X137921428Y-84043476D02*
X137897619Y-83995857D01*
X137897619Y-83995857D02*
X137897619Y-83972047D01*
X137897619Y-83972047D02*
X137921428Y-83924428D01*
X137921428Y-83924428D02*
X137945238Y-83900619D01*
X137945238Y-83900619D02*
X137992857Y-83876809D01*
X137992857Y-83876809D02*
X138088095Y-83876809D01*
X138088095Y-83876809D02*
X138135714Y-83900619D01*
X138135714Y-83900619D02*
X138159523Y-83924428D01*
X138159523Y-83924428D02*
X138183333Y-83972047D01*
X138183333Y-83972047D02*
X138183333Y-83995857D01*
X138183333Y-83995857D02*
X138159523Y-84043476D01*
X138159523Y-84043476D02*
X138135714Y-84067285D01*
X138135714Y-84067285D02*
X138088095Y-84091095D01*
X138088095Y-84091095D02*
X137992857Y-84091095D01*
X137992857Y-84091095D02*
X137945238Y-84114904D01*
X137945238Y-84114904D02*
X137921428Y-84138714D01*
X137921428Y-84138714D02*
X137897619Y-84186333D01*
X137897619Y-84186333D02*
X137897619Y-84281571D01*
X137897619Y-84281571D02*
X137921428Y-84329190D01*
X137921428Y-84329190D02*
X137945238Y-84353000D01*
X137945238Y-84353000D02*
X137992857Y-84376809D01*
X137992857Y-84376809D02*
X138088095Y-84376809D01*
X138088095Y-84376809D02*
X138135714Y-84353000D01*
X138135714Y-84353000D02*
X138159523Y-84329190D01*
X138159523Y-84329190D02*
X138183333Y-84281571D01*
X138183333Y-84281571D02*
X138183333Y-84186333D01*
X138183333Y-84186333D02*
X138159523Y-84138714D01*
X138159523Y-84138714D02*
X138135714Y-84114904D01*
X138135714Y-84114904D02*
X138088095Y-84091095D01*
D11*
X158357142Y-61959580D02*
X158309523Y-62007200D01*
X158309523Y-62007200D02*
X158166666Y-62054819D01*
X158166666Y-62054819D02*
X158071428Y-62054819D01*
X158071428Y-62054819D02*
X157928571Y-62007200D01*
X157928571Y-62007200D02*
X157833333Y-61911961D01*
X157833333Y-61911961D02*
X157785714Y-61816723D01*
X157785714Y-61816723D02*
X157738095Y-61626247D01*
X157738095Y-61626247D02*
X157738095Y-61483390D01*
X157738095Y-61483390D02*
X157785714Y-61292914D01*
X157785714Y-61292914D02*
X157833333Y-61197676D01*
X157833333Y-61197676D02*
X157928571Y-61102438D01*
X157928571Y-61102438D02*
X158071428Y-61054819D01*
X158071428Y-61054819D02*
X158166666Y-61054819D01*
X158166666Y-61054819D02*
X158309523Y-61102438D01*
X158309523Y-61102438D02*
X158357142Y-61150057D01*
X158690476Y-61054819D02*
X159309523Y-61054819D01*
X159309523Y-61054819D02*
X158976190Y-61435771D01*
X158976190Y-61435771D02*
X159119047Y-61435771D01*
X159119047Y-61435771D02*
X159214285Y-61483390D01*
X159214285Y-61483390D02*
X159261904Y-61531009D01*
X159261904Y-61531009D02*
X159309523Y-61626247D01*
X159309523Y-61626247D02*
X159309523Y-61864342D01*
X159309523Y-61864342D02*
X159261904Y-61959580D01*
X159261904Y-61959580D02*
X159214285Y-62007200D01*
X159214285Y-62007200D02*
X159119047Y-62054819D01*
X159119047Y-62054819D02*
X158833333Y-62054819D01*
X158833333Y-62054819D02*
X158738095Y-62007200D01*
X158738095Y-62007200D02*
X158690476Y-61959580D01*
X160166666Y-61388152D02*
X160166666Y-62054819D01*
X159928571Y-61007200D02*
X159690476Y-61721485D01*
X159690476Y-61721485D02*
X160309523Y-61721485D01*
X156233333Y-65754819D02*
X155757143Y-65754819D01*
X155757143Y-65754819D02*
X155757143Y-64754819D01*
X156519048Y-64850057D02*
X156566667Y-64802438D01*
X156566667Y-64802438D02*
X156661905Y-64754819D01*
X156661905Y-64754819D02*
X156900000Y-64754819D01*
X156900000Y-64754819D02*
X156995238Y-64802438D01*
X156995238Y-64802438D02*
X157042857Y-64850057D01*
X157042857Y-64850057D02*
X157090476Y-64945295D01*
X157090476Y-64945295D02*
X157090476Y-65040533D01*
X157090476Y-65040533D02*
X157042857Y-65183390D01*
X157042857Y-65183390D02*
X156471429Y-65754819D01*
X156471429Y-65754819D02*
X157090476Y-65754819D01*
X159783194Y-51083333D02*
X160497479Y-51083333D01*
X160497479Y-51083333D02*
X160640336Y-51130952D01*
X160640336Y-51130952D02*
X160735575Y-51226190D01*
X160735575Y-51226190D02*
X160783194Y-51369047D01*
X160783194Y-51369047D02*
X160783194Y-51464285D01*
X159783194Y-50178571D02*
X159783194Y-50369047D01*
X159783194Y-50369047D02*
X159830813Y-50464285D01*
X159830813Y-50464285D02*
X159878432Y-50511904D01*
X159878432Y-50511904D02*
X160021289Y-50607142D01*
X160021289Y-50607142D02*
X160211765Y-50654761D01*
X160211765Y-50654761D02*
X160592717Y-50654761D01*
X160592717Y-50654761D02*
X160687955Y-50607142D01*
X160687955Y-50607142D02*
X160735575Y-50559523D01*
X160735575Y-50559523D02*
X160783194Y-50464285D01*
X160783194Y-50464285D02*
X160783194Y-50273809D01*
X160783194Y-50273809D02*
X160735575Y-50178571D01*
X160735575Y-50178571D02*
X160687955Y-50130952D01*
X160687955Y-50130952D02*
X160592717Y-50083333D01*
X160592717Y-50083333D02*
X160354622Y-50083333D01*
X160354622Y-50083333D02*
X160259384Y-50130952D01*
X160259384Y-50130952D02*
X160211765Y-50178571D01*
X160211765Y-50178571D02*
X160164146Y-50273809D01*
X160164146Y-50273809D02*
X160164146Y-50464285D01*
X160164146Y-50464285D02*
X160211765Y-50559523D01*
X160211765Y-50559523D02*
X160259384Y-50607142D01*
X160259384Y-50607142D02*
X160354622Y-50654761D01*
X116261905Y-75704819D02*
X116261905Y-76514342D01*
X116261905Y-76514342D02*
X116309524Y-76609580D01*
X116309524Y-76609580D02*
X116357143Y-76657200D01*
X116357143Y-76657200D02*
X116452381Y-76704819D01*
X116452381Y-76704819D02*
X116642857Y-76704819D01*
X116642857Y-76704819D02*
X116738095Y-76657200D01*
X116738095Y-76657200D02*
X116785714Y-76609580D01*
X116785714Y-76609580D02*
X116833333Y-76514342D01*
X116833333Y-76514342D02*
X116833333Y-75704819D01*
X117833333Y-76704819D02*
X117261905Y-76704819D01*
X117547619Y-76704819D02*
X117547619Y-75704819D01*
X117547619Y-75704819D02*
X117452381Y-75847676D01*
X117452381Y-75847676D02*
X117357143Y-75942914D01*
X117357143Y-75942914D02*
X117261905Y-75990533D01*
X118785714Y-76704819D02*
X118214286Y-76704819D01*
X118500000Y-76704819D02*
X118500000Y-75704819D01*
X118500000Y-75704819D02*
X118404762Y-75847676D01*
X118404762Y-75847676D02*
X118309524Y-75942914D01*
X118309524Y-75942914D02*
X118214286Y-75990533D01*
X143957142Y-68959580D02*
X143909523Y-69007200D01*
X143909523Y-69007200D02*
X143766666Y-69054819D01*
X143766666Y-69054819D02*
X143671428Y-69054819D01*
X143671428Y-69054819D02*
X143528571Y-69007200D01*
X143528571Y-69007200D02*
X143433333Y-68911961D01*
X143433333Y-68911961D02*
X143385714Y-68816723D01*
X143385714Y-68816723D02*
X143338095Y-68626247D01*
X143338095Y-68626247D02*
X143338095Y-68483390D01*
X143338095Y-68483390D02*
X143385714Y-68292914D01*
X143385714Y-68292914D02*
X143433333Y-68197676D01*
X143433333Y-68197676D02*
X143528571Y-68102438D01*
X143528571Y-68102438D02*
X143671428Y-68054819D01*
X143671428Y-68054819D02*
X143766666Y-68054819D01*
X143766666Y-68054819D02*
X143909523Y-68102438D01*
X143909523Y-68102438D02*
X143957142Y-68150057D01*
X144909523Y-69054819D02*
X144338095Y-69054819D01*
X144623809Y-69054819D02*
X144623809Y-68054819D01*
X144623809Y-68054819D02*
X144528571Y-68197676D01*
X144528571Y-68197676D02*
X144433333Y-68292914D01*
X144433333Y-68292914D02*
X144338095Y-68340533D01*
X145861904Y-69054819D02*
X145290476Y-69054819D01*
X145576190Y-69054819D02*
X145576190Y-68054819D01*
X145576190Y-68054819D02*
X145480952Y-68197676D01*
X145480952Y-68197676D02*
X145385714Y-68292914D01*
X145385714Y-68292914D02*
X145290476Y-68340533D01*
X114957142Y-80759580D02*
X114909523Y-80807200D01*
X114909523Y-80807200D02*
X114766666Y-80854819D01*
X114766666Y-80854819D02*
X114671428Y-80854819D01*
X114671428Y-80854819D02*
X114528571Y-80807200D01*
X114528571Y-80807200D02*
X114433333Y-80711961D01*
X114433333Y-80711961D02*
X114385714Y-80616723D01*
X114385714Y-80616723D02*
X114338095Y-80426247D01*
X114338095Y-80426247D02*
X114338095Y-80283390D01*
X114338095Y-80283390D02*
X114385714Y-80092914D01*
X114385714Y-80092914D02*
X114433333Y-79997676D01*
X114433333Y-79997676D02*
X114528571Y-79902438D01*
X114528571Y-79902438D02*
X114671428Y-79854819D01*
X114671428Y-79854819D02*
X114766666Y-79854819D01*
X114766666Y-79854819D02*
X114909523Y-79902438D01*
X114909523Y-79902438D02*
X114957142Y-79950057D01*
X115338095Y-79950057D02*
X115385714Y-79902438D01*
X115385714Y-79902438D02*
X115480952Y-79854819D01*
X115480952Y-79854819D02*
X115719047Y-79854819D01*
X115719047Y-79854819D02*
X115814285Y-79902438D01*
X115814285Y-79902438D02*
X115861904Y-79950057D01*
X115861904Y-79950057D02*
X115909523Y-80045295D01*
X115909523Y-80045295D02*
X115909523Y-80140533D01*
X115909523Y-80140533D02*
X115861904Y-80283390D01*
X115861904Y-80283390D02*
X115290476Y-80854819D01*
X115290476Y-80854819D02*
X115909523Y-80854819D01*
X116766666Y-79854819D02*
X116576190Y-79854819D01*
X116576190Y-79854819D02*
X116480952Y-79902438D01*
X116480952Y-79902438D02*
X116433333Y-79950057D01*
X116433333Y-79950057D02*
X116338095Y-80092914D01*
X116338095Y-80092914D02*
X116290476Y-80283390D01*
X116290476Y-80283390D02*
X116290476Y-80664342D01*
X116290476Y-80664342D02*
X116338095Y-80759580D01*
X116338095Y-80759580D02*
X116385714Y-80807200D01*
X116385714Y-80807200D02*
X116480952Y-80854819D01*
X116480952Y-80854819D02*
X116671428Y-80854819D01*
X116671428Y-80854819D02*
X116766666Y-80807200D01*
X116766666Y-80807200D02*
X116814285Y-80759580D01*
X116814285Y-80759580D02*
X116861904Y-80664342D01*
X116861904Y-80664342D02*
X116861904Y-80426247D01*
X116861904Y-80426247D02*
X116814285Y-80331009D01*
X116814285Y-80331009D02*
X116766666Y-80283390D01*
X116766666Y-80283390D02*
X116671428Y-80235771D01*
X116671428Y-80235771D02*
X116480952Y-80235771D01*
X116480952Y-80235771D02*
X116385714Y-80283390D01*
X116385714Y-80283390D02*
X116338095Y-80331009D01*
X116338095Y-80331009D02*
X116290476Y-80426247D01*
X151254819Y-72366666D02*
X150778628Y-72699999D01*
X151254819Y-72938094D02*
X150254819Y-72938094D01*
X150254819Y-72938094D02*
X150254819Y-72557142D01*
X150254819Y-72557142D02*
X150302438Y-72461904D01*
X150302438Y-72461904D02*
X150350057Y-72414285D01*
X150350057Y-72414285D02*
X150445295Y-72366666D01*
X150445295Y-72366666D02*
X150588152Y-72366666D01*
X150588152Y-72366666D02*
X150683390Y-72414285D01*
X150683390Y-72414285D02*
X150731009Y-72461904D01*
X150731009Y-72461904D02*
X150778628Y-72557142D01*
X150778628Y-72557142D02*
X150778628Y-72938094D01*
X151254819Y-71890475D02*
X151254819Y-71699999D01*
X151254819Y-71699999D02*
X151207200Y-71604761D01*
X151207200Y-71604761D02*
X151159580Y-71557142D01*
X151159580Y-71557142D02*
X151016723Y-71461904D01*
X151016723Y-71461904D02*
X150826247Y-71414285D01*
X150826247Y-71414285D02*
X150445295Y-71414285D01*
X150445295Y-71414285D02*
X150350057Y-71461904D01*
X150350057Y-71461904D02*
X150302438Y-71509523D01*
X150302438Y-71509523D02*
X150254819Y-71604761D01*
X150254819Y-71604761D02*
X150254819Y-71795237D01*
X150254819Y-71795237D02*
X150302438Y-71890475D01*
X150302438Y-71890475D02*
X150350057Y-71938094D01*
X150350057Y-71938094D02*
X150445295Y-71985713D01*
X150445295Y-71985713D02*
X150683390Y-71985713D01*
X150683390Y-71985713D02*
X150778628Y-71938094D01*
X150778628Y-71938094D02*
X150826247Y-71890475D01*
X150826247Y-71890475D02*
X150873866Y-71795237D01*
X150873866Y-71795237D02*
X150873866Y-71604761D01*
X150873866Y-71604761D02*
X150826247Y-71509523D01*
X150826247Y-71509523D02*
X150778628Y-71461904D01*
X150778628Y-71461904D02*
X150683390Y-71414285D01*
X146638095Y-77254819D02*
X146638095Y-78064342D01*
X146638095Y-78064342D02*
X146685714Y-78159580D01*
X146685714Y-78159580D02*
X146733333Y-78207200D01*
X146733333Y-78207200D02*
X146828571Y-78254819D01*
X146828571Y-78254819D02*
X147019047Y-78254819D01*
X147019047Y-78254819D02*
X147114285Y-78207200D01*
X147114285Y-78207200D02*
X147161904Y-78159580D01*
X147161904Y-78159580D02*
X147209523Y-78064342D01*
X147209523Y-78064342D02*
X147209523Y-77254819D01*
X148114285Y-77588152D02*
X148114285Y-78254819D01*
X147876190Y-77207200D02*
X147638095Y-77921485D01*
X147638095Y-77921485D02*
X148257142Y-77921485D01*
X122838095Y-63654819D02*
X122838095Y-64464342D01*
X122838095Y-64464342D02*
X122885714Y-64559580D01*
X122885714Y-64559580D02*
X122933333Y-64607200D01*
X122933333Y-64607200D02*
X123028571Y-64654819D01*
X123028571Y-64654819D02*
X123219047Y-64654819D01*
X123219047Y-64654819D02*
X123314285Y-64607200D01*
X123314285Y-64607200D02*
X123361904Y-64559580D01*
X123361904Y-64559580D02*
X123409523Y-64464342D01*
X123409523Y-64464342D02*
X123409523Y-63654819D01*
X124028571Y-64083390D02*
X123933333Y-64035771D01*
X123933333Y-64035771D02*
X123885714Y-63988152D01*
X123885714Y-63988152D02*
X123838095Y-63892914D01*
X123838095Y-63892914D02*
X123838095Y-63845295D01*
X123838095Y-63845295D02*
X123885714Y-63750057D01*
X123885714Y-63750057D02*
X123933333Y-63702438D01*
X123933333Y-63702438D02*
X124028571Y-63654819D01*
X124028571Y-63654819D02*
X124219047Y-63654819D01*
X124219047Y-63654819D02*
X124314285Y-63702438D01*
X124314285Y-63702438D02*
X124361904Y-63750057D01*
X124361904Y-63750057D02*
X124409523Y-63845295D01*
X124409523Y-63845295D02*
X124409523Y-63892914D01*
X124409523Y-63892914D02*
X124361904Y-63988152D01*
X124361904Y-63988152D02*
X124314285Y-64035771D01*
X124314285Y-64035771D02*
X124219047Y-64083390D01*
X124219047Y-64083390D02*
X124028571Y-64083390D01*
X124028571Y-64083390D02*
X123933333Y-64131009D01*
X123933333Y-64131009D02*
X123885714Y-64178628D01*
X123885714Y-64178628D02*
X123838095Y-64273866D01*
X123838095Y-64273866D02*
X123838095Y-64464342D01*
X123838095Y-64464342D02*
X123885714Y-64559580D01*
X123885714Y-64559580D02*
X123933333Y-64607200D01*
X123933333Y-64607200D02*
X124028571Y-64654819D01*
X124028571Y-64654819D02*
X124219047Y-64654819D01*
X124219047Y-64654819D02*
X124314285Y-64607200D01*
X124314285Y-64607200D02*
X124361904Y-64559580D01*
X124361904Y-64559580D02*
X124409523Y-64464342D01*
X124409523Y-64464342D02*
X124409523Y-64273866D01*
X124409523Y-64273866D02*
X124361904Y-64178628D01*
X124361904Y-64178628D02*
X124314285Y-64131009D01*
X124314285Y-64131009D02*
X124219047Y-64083390D01*
X115144642Y-72399580D02*
X115097023Y-72447200D01*
X115097023Y-72447200D02*
X114954166Y-72494819D01*
X114954166Y-72494819D02*
X114858928Y-72494819D01*
X114858928Y-72494819D02*
X114716071Y-72447200D01*
X114716071Y-72447200D02*
X114620833Y-72351961D01*
X114620833Y-72351961D02*
X114573214Y-72256723D01*
X114573214Y-72256723D02*
X114525595Y-72066247D01*
X114525595Y-72066247D02*
X114525595Y-71923390D01*
X114525595Y-71923390D02*
X114573214Y-71732914D01*
X114573214Y-71732914D02*
X114620833Y-71637676D01*
X114620833Y-71637676D02*
X114716071Y-71542438D01*
X114716071Y-71542438D02*
X114858928Y-71494819D01*
X114858928Y-71494819D02*
X114954166Y-71494819D01*
X114954166Y-71494819D02*
X115097023Y-71542438D01*
X115097023Y-71542438D02*
X115144642Y-71590057D01*
X116097023Y-72494819D02*
X115525595Y-72494819D01*
X115811309Y-72494819D02*
X115811309Y-71494819D01*
X115811309Y-71494819D02*
X115716071Y-71637676D01*
X115716071Y-71637676D02*
X115620833Y-71732914D01*
X115620833Y-71732914D02*
X115525595Y-71780533D01*
X116430357Y-71494819D02*
X117097023Y-71494819D01*
X117097023Y-71494819D02*
X116668452Y-72494819D01*
D12*
X159278571Y-70224809D02*
X159111905Y-69986714D01*
X158992857Y-70224809D02*
X158992857Y-69724809D01*
X158992857Y-69724809D02*
X159183333Y-69724809D01*
X159183333Y-69724809D02*
X159230952Y-69748619D01*
X159230952Y-69748619D02*
X159254762Y-69772428D01*
X159254762Y-69772428D02*
X159278571Y-69820047D01*
X159278571Y-69820047D02*
X159278571Y-69891476D01*
X159278571Y-69891476D02*
X159254762Y-69939095D01*
X159254762Y-69939095D02*
X159230952Y-69962904D01*
X159230952Y-69962904D02*
X159183333Y-69986714D01*
X159183333Y-69986714D02*
X158992857Y-69986714D01*
X159754762Y-70224809D02*
X159469048Y-70224809D01*
X159611905Y-70224809D02*
X159611905Y-69724809D01*
X159611905Y-69724809D02*
X159564286Y-69796238D01*
X159564286Y-69796238D02*
X159516667Y-69843857D01*
X159516667Y-69843857D02*
X159469048Y-69867666D01*
X160064285Y-69724809D02*
X160111904Y-69724809D01*
X160111904Y-69724809D02*
X160159523Y-69748619D01*
X160159523Y-69748619D02*
X160183333Y-69772428D01*
X160183333Y-69772428D02*
X160207142Y-69820047D01*
X160207142Y-69820047D02*
X160230952Y-69915285D01*
X160230952Y-69915285D02*
X160230952Y-70034333D01*
X160230952Y-70034333D02*
X160207142Y-70129571D01*
X160207142Y-70129571D02*
X160183333Y-70177190D01*
X160183333Y-70177190D02*
X160159523Y-70201000D01*
X160159523Y-70201000D02*
X160111904Y-70224809D01*
X160111904Y-70224809D02*
X160064285Y-70224809D01*
X160064285Y-70224809D02*
X160016666Y-70201000D01*
X160016666Y-70201000D02*
X159992857Y-70177190D01*
X159992857Y-70177190D02*
X159969047Y-70129571D01*
X159969047Y-70129571D02*
X159945238Y-70034333D01*
X159945238Y-70034333D02*
X159945238Y-69915285D01*
X159945238Y-69915285D02*
X159969047Y-69820047D01*
X159969047Y-69820047D02*
X159992857Y-69772428D01*
X159992857Y-69772428D02*
X160016666Y-69748619D01*
X160016666Y-69748619D02*
X160064285Y-69724809D01*
D11*
X155461905Y-81054819D02*
X155461905Y-80054819D01*
X155461905Y-80054819D02*
X155700000Y-80054819D01*
X155700000Y-80054819D02*
X155842857Y-80102438D01*
X155842857Y-80102438D02*
X155938095Y-80197676D01*
X155938095Y-80197676D02*
X155985714Y-80292914D01*
X155985714Y-80292914D02*
X156033333Y-80483390D01*
X156033333Y-80483390D02*
X156033333Y-80626247D01*
X156033333Y-80626247D02*
X155985714Y-80816723D01*
X155985714Y-80816723D02*
X155938095Y-80911961D01*
X155938095Y-80911961D02*
X155842857Y-81007200D01*
X155842857Y-81007200D02*
X155700000Y-81054819D01*
X155700000Y-81054819D02*
X155461905Y-81054819D01*
X156985714Y-81054819D02*
X156414286Y-81054819D01*
X156700000Y-81054819D02*
X156700000Y-80054819D01*
X156700000Y-80054819D02*
X156604762Y-80197676D01*
X156604762Y-80197676D02*
X156509524Y-80292914D01*
X156509524Y-80292914D02*
X156414286Y-80340533D01*
X153799700Y-80054819D02*
X153799700Y-80292914D01*
X153561605Y-80197676D02*
X153799700Y-80292914D01*
X153799700Y-80292914D02*
X154037795Y-80197676D01*
X153656843Y-80483390D02*
X153799700Y-80292914D01*
X153799700Y-80292914D02*
X153942557Y-80483390D01*
X153799700Y-80054819D02*
X153799700Y-80292914D01*
X153561605Y-80197676D02*
X153799700Y-80292914D01*
X153799700Y-80292914D02*
X154037795Y-80197676D01*
X153656843Y-80483390D02*
X153799700Y-80292914D01*
X153799700Y-80292914D02*
X153942557Y-80483390D01*
X132039580Y-50042857D02*
X132087200Y-50090476D01*
X132087200Y-50090476D02*
X132134819Y-50233333D01*
X132134819Y-50233333D02*
X132134819Y-50328571D01*
X132134819Y-50328571D02*
X132087200Y-50471428D01*
X132087200Y-50471428D02*
X131991961Y-50566666D01*
X131991961Y-50566666D02*
X131896723Y-50614285D01*
X131896723Y-50614285D02*
X131706247Y-50661904D01*
X131706247Y-50661904D02*
X131563390Y-50661904D01*
X131563390Y-50661904D02*
X131372914Y-50614285D01*
X131372914Y-50614285D02*
X131277676Y-50566666D01*
X131277676Y-50566666D02*
X131182438Y-50471428D01*
X131182438Y-50471428D02*
X131134819Y-50328571D01*
X131134819Y-50328571D02*
X131134819Y-50233333D01*
X131134819Y-50233333D02*
X131182438Y-50090476D01*
X131182438Y-50090476D02*
X131230057Y-50042857D01*
X131134819Y-49709523D02*
X131134819Y-49090476D01*
X131134819Y-49090476D02*
X131515771Y-49423809D01*
X131515771Y-49423809D02*
X131515771Y-49280952D01*
X131515771Y-49280952D02*
X131563390Y-49185714D01*
X131563390Y-49185714D02*
X131611009Y-49138095D01*
X131611009Y-49138095D02*
X131706247Y-49090476D01*
X131706247Y-49090476D02*
X131944342Y-49090476D01*
X131944342Y-49090476D02*
X132039580Y-49138095D01*
X132039580Y-49138095D02*
X132087200Y-49185714D01*
X132087200Y-49185714D02*
X132134819Y-49280952D01*
X132134819Y-49280952D02*
X132134819Y-49566666D01*
X132134819Y-49566666D02*
X132087200Y-49661904D01*
X132087200Y-49661904D02*
X132039580Y-49709523D01*
X131134819Y-48471428D02*
X131134819Y-48376190D01*
X131134819Y-48376190D02*
X131182438Y-48280952D01*
X131182438Y-48280952D02*
X131230057Y-48233333D01*
X131230057Y-48233333D02*
X131325295Y-48185714D01*
X131325295Y-48185714D02*
X131515771Y-48138095D01*
X131515771Y-48138095D02*
X131753866Y-48138095D01*
X131753866Y-48138095D02*
X131944342Y-48185714D01*
X131944342Y-48185714D02*
X132039580Y-48233333D01*
X132039580Y-48233333D02*
X132087200Y-48280952D01*
X132087200Y-48280952D02*
X132134819Y-48376190D01*
X132134819Y-48376190D02*
X132134819Y-48471428D01*
X132134819Y-48471428D02*
X132087200Y-48566666D01*
X132087200Y-48566666D02*
X132039580Y-48614285D01*
X132039580Y-48614285D02*
X131944342Y-48661904D01*
X131944342Y-48661904D02*
X131753866Y-48709523D01*
X131753866Y-48709523D02*
X131515771Y-48709523D01*
X131515771Y-48709523D02*
X131325295Y-48661904D01*
X131325295Y-48661904D02*
X131230057Y-48614285D01*
X131230057Y-48614285D02*
X131182438Y-48566666D01*
X131182438Y-48566666D02*
X131134819Y-48471428D01*
X154833333Y-72159580D02*
X154785714Y-72207200D01*
X154785714Y-72207200D02*
X154642857Y-72254819D01*
X154642857Y-72254819D02*
X154547619Y-72254819D01*
X154547619Y-72254819D02*
X154404762Y-72207200D01*
X154404762Y-72207200D02*
X154309524Y-72111961D01*
X154309524Y-72111961D02*
X154261905Y-72016723D01*
X154261905Y-72016723D02*
X154214286Y-71826247D01*
X154214286Y-71826247D02*
X154214286Y-71683390D01*
X154214286Y-71683390D02*
X154261905Y-71492914D01*
X154261905Y-71492914D02*
X154309524Y-71397676D01*
X154309524Y-71397676D02*
X154404762Y-71302438D01*
X154404762Y-71302438D02*
X154547619Y-71254819D01*
X154547619Y-71254819D02*
X154642857Y-71254819D01*
X154642857Y-71254819D02*
X154785714Y-71302438D01*
X154785714Y-71302438D02*
X154833333Y-71350057D01*
X155166667Y-71254819D02*
X155833333Y-71254819D01*
X155833333Y-71254819D02*
X155404762Y-72254819D01*
X128457142Y-89159580D02*
X128409523Y-89207200D01*
X128409523Y-89207200D02*
X128266666Y-89254819D01*
X128266666Y-89254819D02*
X128171428Y-89254819D01*
X128171428Y-89254819D02*
X128028571Y-89207200D01*
X128028571Y-89207200D02*
X127933333Y-89111961D01*
X127933333Y-89111961D02*
X127885714Y-89016723D01*
X127885714Y-89016723D02*
X127838095Y-88826247D01*
X127838095Y-88826247D02*
X127838095Y-88683390D01*
X127838095Y-88683390D02*
X127885714Y-88492914D01*
X127885714Y-88492914D02*
X127933333Y-88397676D01*
X127933333Y-88397676D02*
X128028571Y-88302438D01*
X128028571Y-88302438D02*
X128171428Y-88254819D01*
X128171428Y-88254819D02*
X128266666Y-88254819D01*
X128266666Y-88254819D02*
X128409523Y-88302438D01*
X128409523Y-88302438D02*
X128457142Y-88350057D01*
X128838095Y-88350057D02*
X128885714Y-88302438D01*
X128885714Y-88302438D02*
X128980952Y-88254819D01*
X128980952Y-88254819D02*
X129219047Y-88254819D01*
X129219047Y-88254819D02*
X129314285Y-88302438D01*
X129314285Y-88302438D02*
X129361904Y-88350057D01*
X129361904Y-88350057D02*
X129409523Y-88445295D01*
X129409523Y-88445295D02*
X129409523Y-88540533D01*
X129409523Y-88540533D02*
X129361904Y-88683390D01*
X129361904Y-88683390D02*
X128790476Y-89254819D01*
X128790476Y-89254819D02*
X129409523Y-89254819D01*
X129742857Y-88254819D02*
X130409523Y-88254819D01*
X130409523Y-88254819D02*
X129980952Y-89254819D01*
X125159580Y-53442857D02*
X125207200Y-53490476D01*
X125207200Y-53490476D02*
X125254819Y-53633333D01*
X125254819Y-53633333D02*
X125254819Y-53728571D01*
X125254819Y-53728571D02*
X125207200Y-53871428D01*
X125207200Y-53871428D02*
X125111961Y-53966666D01*
X125111961Y-53966666D02*
X125016723Y-54014285D01*
X125016723Y-54014285D02*
X124826247Y-54061904D01*
X124826247Y-54061904D02*
X124683390Y-54061904D01*
X124683390Y-54061904D02*
X124492914Y-54014285D01*
X124492914Y-54014285D02*
X124397676Y-53966666D01*
X124397676Y-53966666D02*
X124302438Y-53871428D01*
X124302438Y-53871428D02*
X124254819Y-53728571D01*
X124254819Y-53728571D02*
X124254819Y-53633333D01*
X124254819Y-53633333D02*
X124302438Y-53490476D01*
X124302438Y-53490476D02*
X124350057Y-53442857D01*
X124588152Y-52585714D02*
X125254819Y-52585714D01*
X124207200Y-52823809D02*
X124921485Y-53061904D01*
X124921485Y-53061904D02*
X124921485Y-52442857D01*
X124254819Y-52157142D02*
X124254819Y-51538095D01*
X124254819Y-51538095D02*
X124635771Y-51871428D01*
X124635771Y-51871428D02*
X124635771Y-51728571D01*
X124635771Y-51728571D02*
X124683390Y-51633333D01*
X124683390Y-51633333D02*
X124731009Y-51585714D01*
X124731009Y-51585714D02*
X124826247Y-51538095D01*
X124826247Y-51538095D02*
X125064342Y-51538095D01*
X125064342Y-51538095D02*
X125159580Y-51585714D01*
X125159580Y-51585714D02*
X125207200Y-51633333D01*
X125207200Y-51633333D02*
X125254819Y-51728571D01*
X125254819Y-51728571D02*
X125254819Y-52014285D01*
X125254819Y-52014285D02*
X125207200Y-52109523D01*
X125207200Y-52109523D02*
X125159580Y-52157142D01*
X148639580Y-86042857D02*
X148687200Y-86090476D01*
X148687200Y-86090476D02*
X148734819Y-86233333D01*
X148734819Y-86233333D02*
X148734819Y-86328571D01*
X148734819Y-86328571D02*
X148687200Y-86471428D01*
X148687200Y-86471428D02*
X148591961Y-86566666D01*
X148591961Y-86566666D02*
X148496723Y-86614285D01*
X148496723Y-86614285D02*
X148306247Y-86661904D01*
X148306247Y-86661904D02*
X148163390Y-86661904D01*
X148163390Y-86661904D02*
X147972914Y-86614285D01*
X147972914Y-86614285D02*
X147877676Y-86566666D01*
X147877676Y-86566666D02*
X147782438Y-86471428D01*
X147782438Y-86471428D02*
X147734819Y-86328571D01*
X147734819Y-86328571D02*
X147734819Y-86233333D01*
X147734819Y-86233333D02*
X147782438Y-86090476D01*
X147782438Y-86090476D02*
X147830057Y-86042857D01*
X147830057Y-85661904D02*
X147782438Y-85614285D01*
X147782438Y-85614285D02*
X147734819Y-85519047D01*
X147734819Y-85519047D02*
X147734819Y-85280952D01*
X147734819Y-85280952D02*
X147782438Y-85185714D01*
X147782438Y-85185714D02*
X147830057Y-85138095D01*
X147830057Y-85138095D02*
X147925295Y-85090476D01*
X147925295Y-85090476D02*
X148020533Y-85090476D01*
X148020533Y-85090476D02*
X148163390Y-85138095D01*
X148163390Y-85138095D02*
X148734819Y-85709523D01*
X148734819Y-85709523D02*
X148734819Y-85090476D01*
X148163390Y-84519047D02*
X148115771Y-84614285D01*
X148115771Y-84614285D02*
X148068152Y-84661904D01*
X148068152Y-84661904D02*
X147972914Y-84709523D01*
X147972914Y-84709523D02*
X147925295Y-84709523D01*
X147925295Y-84709523D02*
X147830057Y-84661904D01*
X147830057Y-84661904D02*
X147782438Y-84614285D01*
X147782438Y-84614285D02*
X147734819Y-84519047D01*
X147734819Y-84519047D02*
X147734819Y-84328571D01*
X147734819Y-84328571D02*
X147782438Y-84233333D01*
X147782438Y-84233333D02*
X147830057Y-84185714D01*
X147830057Y-84185714D02*
X147925295Y-84138095D01*
X147925295Y-84138095D02*
X147972914Y-84138095D01*
X147972914Y-84138095D02*
X148068152Y-84185714D01*
X148068152Y-84185714D02*
X148115771Y-84233333D01*
X148115771Y-84233333D02*
X148163390Y-84328571D01*
X148163390Y-84328571D02*
X148163390Y-84519047D01*
X148163390Y-84519047D02*
X148211009Y-84614285D01*
X148211009Y-84614285D02*
X148258628Y-84661904D01*
X148258628Y-84661904D02*
X148353866Y-84709523D01*
X148353866Y-84709523D02*
X148544342Y-84709523D01*
X148544342Y-84709523D02*
X148639580Y-84661904D01*
X148639580Y-84661904D02*
X148687200Y-84614285D01*
X148687200Y-84614285D02*
X148734819Y-84519047D01*
X148734819Y-84519047D02*
X148734819Y-84328571D01*
X148734819Y-84328571D02*
X148687200Y-84233333D01*
X148687200Y-84233333D02*
X148639580Y-84185714D01*
X148639580Y-84185714D02*
X148544342Y-84138095D01*
X148544342Y-84138095D02*
X148353866Y-84138095D01*
X148353866Y-84138095D02*
X148258628Y-84185714D01*
X148258628Y-84185714D02*
X148211009Y-84233333D01*
X148211009Y-84233333D02*
X148163390Y-84328571D01*
X149338095Y-60606819D02*
X149909523Y-60606819D01*
X149623809Y-61606819D02*
X149623809Y-60606819D01*
X150242857Y-61606819D02*
X150242857Y-60606819D01*
X150242857Y-60606819D02*
X150623809Y-60606819D01*
X150623809Y-60606819D02*
X150719047Y-60654438D01*
X150719047Y-60654438D02*
X150766666Y-60702057D01*
X150766666Y-60702057D02*
X150814285Y-60797295D01*
X150814285Y-60797295D02*
X150814285Y-60940152D01*
X150814285Y-60940152D02*
X150766666Y-61035390D01*
X150766666Y-61035390D02*
X150719047Y-61083009D01*
X150719047Y-61083009D02*
X150623809Y-61130628D01*
X150623809Y-61130628D02*
X150242857Y-61130628D01*
X151719047Y-60606819D02*
X151242857Y-60606819D01*
X151242857Y-60606819D02*
X151195238Y-61083009D01*
X151195238Y-61083009D02*
X151242857Y-61035390D01*
X151242857Y-61035390D02*
X151338095Y-60987771D01*
X151338095Y-60987771D02*
X151576190Y-60987771D01*
X151576190Y-60987771D02*
X151671428Y-61035390D01*
X151671428Y-61035390D02*
X151719047Y-61083009D01*
X151719047Y-61083009D02*
X151766666Y-61178247D01*
X151766666Y-61178247D02*
X151766666Y-61416342D01*
X151766666Y-61416342D02*
X151719047Y-61511580D01*
X151719047Y-61511580D02*
X151671428Y-61559200D01*
X151671428Y-61559200D02*
X151576190Y-61606819D01*
X151576190Y-61606819D02*
X151338095Y-61606819D01*
X151338095Y-61606819D02*
X151242857Y-61559200D01*
X151242857Y-61559200D02*
X151195238Y-61511580D01*
X128378628Y-50676190D02*
X128854819Y-50676190D01*
X127854819Y-51009523D02*
X128378628Y-50676190D01*
X128378628Y-50676190D02*
X127854819Y-50342857D01*
X128854819Y-49485714D02*
X128854819Y-50057142D01*
X128854819Y-49771428D02*
X127854819Y-49771428D01*
X127854819Y-49771428D02*
X127997676Y-49866666D01*
X127997676Y-49866666D02*
X128092914Y-49961904D01*
X128092914Y-49961904D02*
X128140533Y-50057142D01*
X125011905Y-80179820D02*
X125011905Y-80989343D01*
X125011905Y-80989343D02*
X125059524Y-81084581D01*
X125059524Y-81084581D02*
X125107143Y-81132201D01*
X125107143Y-81132201D02*
X125202381Y-81179820D01*
X125202381Y-81179820D02*
X125392857Y-81179820D01*
X125392857Y-81179820D02*
X125488095Y-81132201D01*
X125488095Y-81132201D02*
X125535714Y-81084581D01*
X125535714Y-81084581D02*
X125583333Y-80989343D01*
X125583333Y-80989343D02*
X125583333Y-80179820D01*
X126583333Y-81179820D02*
X126011905Y-81179820D01*
X126297619Y-81179820D02*
X126297619Y-80179820D01*
X126297619Y-80179820D02*
X126202381Y-80322677D01*
X126202381Y-80322677D02*
X126107143Y-80417915D01*
X126107143Y-80417915D02*
X126011905Y-80465534D01*
X126916667Y-80179820D02*
X127535714Y-80179820D01*
X127535714Y-80179820D02*
X127202381Y-80560772D01*
X127202381Y-80560772D02*
X127345238Y-80560772D01*
X127345238Y-80560772D02*
X127440476Y-80608391D01*
X127440476Y-80608391D02*
X127488095Y-80656010D01*
X127488095Y-80656010D02*
X127535714Y-80751248D01*
X127535714Y-80751248D02*
X127535714Y-80989343D01*
X127535714Y-80989343D02*
X127488095Y-81084581D01*
X127488095Y-81084581D02*
X127440476Y-81132201D01*
X127440476Y-81132201D02*
X127345238Y-81179820D01*
X127345238Y-81179820D02*
X127059524Y-81179820D01*
X127059524Y-81179820D02*
X126964286Y-81132201D01*
X126964286Y-81132201D02*
X126916667Y-81084581D01*
X125163855Y-73204819D02*
X125163855Y-74014342D01*
X125163855Y-74014342D02*
X125211474Y-74109580D01*
X125211474Y-74109580D02*
X125259093Y-74157200D01*
X125259093Y-74157200D02*
X125354331Y-74204819D01*
X125354331Y-74204819D02*
X125544807Y-74204819D01*
X125544807Y-74204819D02*
X125640045Y-74157200D01*
X125640045Y-74157200D02*
X125687664Y-74109580D01*
X125687664Y-74109580D02*
X125735283Y-74014342D01*
X125735283Y-74014342D02*
X125735283Y-73204819D01*
X126735283Y-74204819D02*
X126163855Y-74204819D01*
X126449569Y-74204819D02*
X126449569Y-73204819D01*
X126449569Y-73204819D02*
X126354331Y-73347676D01*
X126354331Y-73347676D02*
X126259093Y-73442914D01*
X126259093Y-73442914D02*
X126163855Y-73490533D01*
X127116236Y-73300057D02*
X127163855Y-73252438D01*
X127163855Y-73252438D02*
X127259093Y-73204819D01*
X127259093Y-73204819D02*
X127497188Y-73204819D01*
X127497188Y-73204819D02*
X127592426Y-73252438D01*
X127592426Y-73252438D02*
X127640045Y-73300057D01*
X127640045Y-73300057D02*
X127687664Y-73395295D01*
X127687664Y-73395295D02*
X127687664Y-73490533D01*
X127687664Y-73490533D02*
X127640045Y-73633390D01*
X127640045Y-73633390D02*
X127068617Y-74204819D01*
X127068617Y-74204819D02*
X127687664Y-74204819D01*
D12*
X157278571Y-70224809D02*
X157111905Y-69986714D01*
X156992857Y-70224809D02*
X156992857Y-69724809D01*
X156992857Y-69724809D02*
X157183333Y-69724809D01*
X157183333Y-69724809D02*
X157230952Y-69748619D01*
X157230952Y-69748619D02*
X157254762Y-69772428D01*
X157254762Y-69772428D02*
X157278571Y-69820047D01*
X157278571Y-69820047D02*
X157278571Y-69891476D01*
X157278571Y-69891476D02*
X157254762Y-69939095D01*
X157254762Y-69939095D02*
X157230952Y-69962904D01*
X157230952Y-69962904D02*
X157183333Y-69986714D01*
X157183333Y-69986714D02*
X156992857Y-69986714D01*
X157754762Y-70224809D02*
X157469048Y-70224809D01*
X157611905Y-70224809D02*
X157611905Y-69724809D01*
X157611905Y-69724809D02*
X157564286Y-69796238D01*
X157564286Y-69796238D02*
X157516667Y-69843857D01*
X157516667Y-69843857D02*
X157469048Y-69867666D01*
X158230952Y-70224809D02*
X157945238Y-70224809D01*
X158088095Y-70224809D02*
X158088095Y-69724809D01*
X158088095Y-69724809D02*
X158040476Y-69796238D01*
X158040476Y-69796238D02*
X157992857Y-69843857D01*
X157992857Y-69843857D02*
X157945238Y-69867666D01*
D11*
X150159580Y-79642857D02*
X150207200Y-79690476D01*
X150207200Y-79690476D02*
X150254819Y-79833333D01*
X150254819Y-79833333D02*
X150254819Y-79928571D01*
X150254819Y-79928571D02*
X150207200Y-80071428D01*
X150207200Y-80071428D02*
X150111961Y-80166666D01*
X150111961Y-80166666D02*
X150016723Y-80214285D01*
X150016723Y-80214285D02*
X149826247Y-80261904D01*
X149826247Y-80261904D02*
X149683390Y-80261904D01*
X149683390Y-80261904D02*
X149492914Y-80214285D01*
X149492914Y-80214285D02*
X149397676Y-80166666D01*
X149397676Y-80166666D02*
X149302438Y-80071428D01*
X149302438Y-80071428D02*
X149254819Y-79928571D01*
X149254819Y-79928571D02*
X149254819Y-79833333D01*
X149254819Y-79833333D02*
X149302438Y-79690476D01*
X149302438Y-79690476D02*
X149350057Y-79642857D01*
X150254819Y-78690476D02*
X150254819Y-79261904D01*
X150254819Y-78976190D02*
X149254819Y-78976190D01*
X149254819Y-78976190D02*
X149397676Y-79071428D01*
X149397676Y-79071428D02*
X149492914Y-79166666D01*
X149492914Y-79166666D02*
X149540533Y-79261904D01*
X149254819Y-78357142D02*
X149254819Y-77738095D01*
X149254819Y-77738095D02*
X149635771Y-78071428D01*
X149635771Y-78071428D02*
X149635771Y-77928571D01*
X149635771Y-77928571D02*
X149683390Y-77833333D01*
X149683390Y-77833333D02*
X149731009Y-77785714D01*
X149731009Y-77785714D02*
X149826247Y-77738095D01*
X149826247Y-77738095D02*
X150064342Y-77738095D01*
X150064342Y-77738095D02*
X150159580Y-77785714D01*
X150159580Y-77785714D02*
X150207200Y-77833333D01*
X150207200Y-77833333D02*
X150254819Y-77928571D01*
X150254819Y-77928571D02*
X150254819Y-78214285D01*
X150254819Y-78214285D02*
X150207200Y-78309523D01*
X150207200Y-78309523D02*
X150159580Y-78357142D01*
X125157142Y-60759580D02*
X125109523Y-60807200D01*
X125109523Y-60807200D02*
X124966666Y-60854819D01*
X124966666Y-60854819D02*
X124871428Y-60854819D01*
X124871428Y-60854819D02*
X124728571Y-60807200D01*
X124728571Y-60807200D02*
X124633333Y-60711961D01*
X124633333Y-60711961D02*
X124585714Y-60616723D01*
X124585714Y-60616723D02*
X124538095Y-60426247D01*
X124538095Y-60426247D02*
X124538095Y-60283390D01*
X124538095Y-60283390D02*
X124585714Y-60092914D01*
X124585714Y-60092914D02*
X124633333Y-59997676D01*
X124633333Y-59997676D02*
X124728571Y-59902438D01*
X124728571Y-59902438D02*
X124871428Y-59854819D01*
X124871428Y-59854819D02*
X124966666Y-59854819D01*
X124966666Y-59854819D02*
X125109523Y-59902438D01*
X125109523Y-59902438D02*
X125157142Y-59950057D01*
X126109523Y-60854819D02*
X125538095Y-60854819D01*
X125823809Y-60854819D02*
X125823809Y-59854819D01*
X125823809Y-59854819D02*
X125728571Y-59997676D01*
X125728571Y-59997676D02*
X125633333Y-60092914D01*
X125633333Y-60092914D02*
X125538095Y-60140533D01*
X126728571Y-59854819D02*
X126823809Y-59854819D01*
X126823809Y-59854819D02*
X126919047Y-59902438D01*
X126919047Y-59902438D02*
X126966666Y-59950057D01*
X126966666Y-59950057D02*
X127014285Y-60045295D01*
X127014285Y-60045295D02*
X127061904Y-60235771D01*
X127061904Y-60235771D02*
X127061904Y-60473866D01*
X127061904Y-60473866D02*
X127014285Y-60664342D01*
X127014285Y-60664342D02*
X126966666Y-60759580D01*
X126966666Y-60759580D02*
X126919047Y-60807200D01*
X126919047Y-60807200D02*
X126823809Y-60854819D01*
X126823809Y-60854819D02*
X126728571Y-60854819D01*
X126728571Y-60854819D02*
X126633333Y-60807200D01*
X126633333Y-60807200D02*
X126585714Y-60759580D01*
X126585714Y-60759580D02*
X126538095Y-60664342D01*
X126538095Y-60664342D02*
X126490476Y-60473866D01*
X126490476Y-60473866D02*
X126490476Y-60235771D01*
X126490476Y-60235771D02*
X126538095Y-60045295D01*
X126538095Y-60045295D02*
X126585714Y-59950057D01*
X126585714Y-59950057D02*
X126633333Y-59902438D01*
X126633333Y-59902438D02*
X126728571Y-59854819D01*
X137938095Y-65074819D02*
X137938095Y-65884342D01*
X137938095Y-65884342D02*
X137985714Y-65979580D01*
X137985714Y-65979580D02*
X138033333Y-66027200D01*
X138033333Y-66027200D02*
X138128571Y-66074819D01*
X138128571Y-66074819D02*
X138319047Y-66074819D01*
X138319047Y-66074819D02*
X138414285Y-66027200D01*
X138414285Y-66027200D02*
X138461904Y-65979580D01*
X138461904Y-65979580D02*
X138509523Y-65884342D01*
X138509523Y-65884342D02*
X138509523Y-65074819D01*
X139509523Y-66074819D02*
X138938095Y-66074819D01*
X139223809Y-66074819D02*
X139223809Y-65074819D01*
X139223809Y-65074819D02*
X139128571Y-65217676D01*
X139128571Y-65217676D02*
X139033333Y-65312914D01*
X139033333Y-65312914D02*
X138938095Y-65360533D01*
D12*
X142330953Y-83924809D02*
X142616667Y-83924809D01*
X142473810Y-84424809D02*
X142473810Y-83924809D01*
X142783333Y-84424809D02*
X142783333Y-83924809D01*
X142783333Y-83924809D02*
X142973809Y-83924809D01*
X142973809Y-83924809D02*
X143021428Y-83948619D01*
X143021428Y-83948619D02*
X143045238Y-83972428D01*
X143045238Y-83972428D02*
X143069047Y-84020047D01*
X143069047Y-84020047D02*
X143069047Y-84091476D01*
X143069047Y-84091476D02*
X143045238Y-84139095D01*
X143045238Y-84139095D02*
X143021428Y-84162904D01*
X143021428Y-84162904D02*
X142973809Y-84186714D01*
X142973809Y-84186714D02*
X142783333Y-84186714D01*
X143545238Y-84424809D02*
X143259524Y-84424809D01*
X143402381Y-84424809D02*
X143402381Y-83924809D01*
X143402381Y-83924809D02*
X143354762Y-83996238D01*
X143354762Y-83996238D02*
X143307143Y-84043857D01*
X143307143Y-84043857D02*
X143259524Y-84067666D01*
X143854761Y-83924809D02*
X143902380Y-83924809D01*
X143902380Y-83924809D02*
X143949999Y-83948619D01*
X143949999Y-83948619D02*
X143973809Y-83972428D01*
X143973809Y-83972428D02*
X143997618Y-84020047D01*
X143997618Y-84020047D02*
X144021428Y-84115285D01*
X144021428Y-84115285D02*
X144021428Y-84234333D01*
X144021428Y-84234333D02*
X143997618Y-84329571D01*
X143997618Y-84329571D02*
X143973809Y-84377190D01*
X143973809Y-84377190D02*
X143949999Y-84401000D01*
X143949999Y-84401000D02*
X143902380Y-84424809D01*
X143902380Y-84424809D02*
X143854761Y-84424809D01*
X143854761Y-84424809D02*
X143807142Y-84401000D01*
X143807142Y-84401000D02*
X143783333Y-84377190D01*
X143783333Y-84377190D02*
X143759523Y-84329571D01*
X143759523Y-84329571D02*
X143735714Y-84234333D01*
X143735714Y-84234333D02*
X143735714Y-84115285D01*
X143735714Y-84115285D02*
X143759523Y-84020047D01*
X143759523Y-84020047D02*
X143783333Y-83972428D01*
X143783333Y-83972428D02*
X143807142Y-83948619D01*
X143807142Y-83948619D02*
X143854761Y-83924809D01*
X125878571Y-69977190D02*
X125854762Y-70001000D01*
X125854762Y-70001000D02*
X125783333Y-70024809D01*
X125783333Y-70024809D02*
X125735714Y-70024809D01*
X125735714Y-70024809D02*
X125664286Y-70001000D01*
X125664286Y-70001000D02*
X125616667Y-69953380D01*
X125616667Y-69953380D02*
X125592857Y-69905761D01*
X125592857Y-69905761D02*
X125569048Y-69810523D01*
X125569048Y-69810523D02*
X125569048Y-69739095D01*
X125569048Y-69739095D02*
X125592857Y-69643857D01*
X125592857Y-69643857D02*
X125616667Y-69596238D01*
X125616667Y-69596238D02*
X125664286Y-69548619D01*
X125664286Y-69548619D02*
X125735714Y-69524809D01*
X125735714Y-69524809D02*
X125783333Y-69524809D01*
X125783333Y-69524809D02*
X125854762Y-69548619D01*
X125854762Y-69548619D02*
X125878571Y-69572428D01*
X126069048Y-69572428D02*
X126092857Y-69548619D01*
X126092857Y-69548619D02*
X126140476Y-69524809D01*
X126140476Y-69524809D02*
X126259524Y-69524809D01*
X126259524Y-69524809D02*
X126307143Y-69548619D01*
X126307143Y-69548619D02*
X126330952Y-69572428D01*
X126330952Y-69572428D02*
X126354762Y-69620047D01*
X126354762Y-69620047D02*
X126354762Y-69667666D01*
X126354762Y-69667666D02*
X126330952Y-69739095D01*
X126330952Y-69739095D02*
X126045238Y-70024809D01*
X126045238Y-70024809D02*
X126354762Y-70024809D01*
X126545238Y-69572428D02*
X126569047Y-69548619D01*
X126569047Y-69548619D02*
X126616666Y-69524809D01*
X126616666Y-69524809D02*
X126735714Y-69524809D01*
X126735714Y-69524809D02*
X126783333Y-69548619D01*
X126783333Y-69548619D02*
X126807142Y-69572428D01*
X126807142Y-69572428D02*
X126830952Y-69620047D01*
X126830952Y-69620047D02*
X126830952Y-69667666D01*
X126830952Y-69667666D02*
X126807142Y-69739095D01*
X126807142Y-69739095D02*
X126521428Y-70024809D01*
X126521428Y-70024809D02*
X126830952Y-70024809D01*
D11*
X144633333Y-66959580D02*
X144585714Y-67007200D01*
X144585714Y-67007200D02*
X144442857Y-67054819D01*
X144442857Y-67054819D02*
X144347619Y-67054819D01*
X144347619Y-67054819D02*
X144204762Y-67007200D01*
X144204762Y-67007200D02*
X144109524Y-66911961D01*
X144109524Y-66911961D02*
X144061905Y-66816723D01*
X144061905Y-66816723D02*
X144014286Y-66626247D01*
X144014286Y-66626247D02*
X144014286Y-66483390D01*
X144014286Y-66483390D02*
X144061905Y-66292914D01*
X144061905Y-66292914D02*
X144109524Y-66197676D01*
X144109524Y-66197676D02*
X144204762Y-66102438D01*
X144204762Y-66102438D02*
X144347619Y-66054819D01*
X144347619Y-66054819D02*
X144442857Y-66054819D01*
X144442857Y-66054819D02*
X144585714Y-66102438D01*
X144585714Y-66102438D02*
X144633333Y-66150057D01*
X145109524Y-67054819D02*
X145300000Y-67054819D01*
X145300000Y-67054819D02*
X145395238Y-67007200D01*
X145395238Y-67007200D02*
X145442857Y-66959580D01*
X145442857Y-66959580D02*
X145538095Y-66816723D01*
X145538095Y-66816723D02*
X145585714Y-66626247D01*
X145585714Y-66626247D02*
X145585714Y-66245295D01*
X145585714Y-66245295D02*
X145538095Y-66150057D01*
X145538095Y-66150057D02*
X145490476Y-66102438D01*
X145490476Y-66102438D02*
X145395238Y-66054819D01*
X145395238Y-66054819D02*
X145204762Y-66054819D01*
X145204762Y-66054819D02*
X145109524Y-66102438D01*
X145109524Y-66102438D02*
X145061905Y-66150057D01*
X145061905Y-66150057D02*
X145014286Y-66245295D01*
X145014286Y-66245295D02*
X145014286Y-66483390D01*
X145014286Y-66483390D02*
X145061905Y-66578628D01*
X145061905Y-66578628D02*
X145109524Y-66626247D01*
X145109524Y-66626247D02*
X145204762Y-66673866D01*
X145204762Y-66673866D02*
X145395238Y-66673866D01*
X145395238Y-66673866D02*
X145490476Y-66626247D01*
X145490476Y-66626247D02*
X145538095Y-66578628D01*
X145538095Y-66578628D02*
X145585714Y-66483390D01*
X124654819Y-39063904D02*
X124654819Y-38492476D01*
X125654819Y-38778190D02*
X124654819Y-38778190D01*
X125654819Y-38159142D02*
X124654819Y-38159142D01*
X124654819Y-38159142D02*
X124654819Y-37778190D01*
X124654819Y-37778190D02*
X124702438Y-37682952D01*
X124702438Y-37682952D02*
X124750057Y-37635333D01*
X124750057Y-37635333D02*
X124845295Y-37587714D01*
X124845295Y-37587714D02*
X124988152Y-37587714D01*
X124988152Y-37587714D02*
X125083390Y-37635333D01*
X125083390Y-37635333D02*
X125131009Y-37682952D01*
X125131009Y-37682952D02*
X125178628Y-37778190D01*
X125178628Y-37778190D02*
X125178628Y-38159142D01*
X125654819Y-36635333D02*
X125654819Y-37206761D01*
X125654819Y-36921047D02*
X124654819Y-36921047D01*
X124654819Y-36921047D02*
X124797676Y-37016285D01*
X124797676Y-37016285D02*
X124892914Y-37111523D01*
X124892914Y-37111523D02*
X124940533Y-37206761D01*
X143833333Y-78959580D02*
X143785714Y-79007200D01*
X143785714Y-79007200D02*
X143642857Y-79054819D01*
X143642857Y-79054819D02*
X143547619Y-79054819D01*
X143547619Y-79054819D02*
X143404762Y-79007200D01*
X143404762Y-79007200D02*
X143309524Y-78911961D01*
X143309524Y-78911961D02*
X143261905Y-78816723D01*
X143261905Y-78816723D02*
X143214286Y-78626247D01*
X143214286Y-78626247D02*
X143214286Y-78483390D01*
X143214286Y-78483390D02*
X143261905Y-78292914D01*
X143261905Y-78292914D02*
X143309524Y-78197676D01*
X143309524Y-78197676D02*
X143404762Y-78102438D01*
X143404762Y-78102438D02*
X143547619Y-78054819D01*
X143547619Y-78054819D02*
X143642857Y-78054819D01*
X143642857Y-78054819D02*
X143785714Y-78102438D01*
X143785714Y-78102438D02*
X143833333Y-78150057D01*
X144785714Y-79054819D02*
X144214286Y-79054819D01*
X144500000Y-79054819D02*
X144500000Y-78054819D01*
X144500000Y-78054819D02*
X144404762Y-78197676D01*
X144404762Y-78197676D02*
X144309524Y-78292914D01*
X144309524Y-78292914D02*
X144214286Y-78340533D01*
X148254819Y-39061904D02*
X148254819Y-38490476D01*
X149254819Y-38776190D02*
X148254819Y-38776190D01*
X149254819Y-38157142D02*
X148254819Y-38157142D01*
X148254819Y-38157142D02*
X148254819Y-37776190D01*
X148254819Y-37776190D02*
X148302438Y-37680952D01*
X148302438Y-37680952D02*
X148350057Y-37633333D01*
X148350057Y-37633333D02*
X148445295Y-37585714D01*
X148445295Y-37585714D02*
X148588152Y-37585714D01*
X148588152Y-37585714D02*
X148683390Y-37633333D01*
X148683390Y-37633333D02*
X148731009Y-37680952D01*
X148731009Y-37680952D02*
X148778628Y-37776190D01*
X148778628Y-37776190D02*
X148778628Y-38157142D01*
X148350057Y-37204761D02*
X148302438Y-37157142D01*
X148302438Y-37157142D02*
X148254819Y-37061904D01*
X148254819Y-37061904D02*
X148254819Y-36823809D01*
X148254819Y-36823809D02*
X148302438Y-36728571D01*
X148302438Y-36728571D02*
X148350057Y-36680952D01*
X148350057Y-36680952D02*
X148445295Y-36633333D01*
X148445295Y-36633333D02*
X148540533Y-36633333D01*
X148540533Y-36633333D02*
X148683390Y-36680952D01*
X148683390Y-36680952D02*
X149254819Y-37252380D01*
X149254819Y-37252380D02*
X149254819Y-36633333D01*
X143757142Y-71254819D02*
X143423809Y-70778628D01*
X143185714Y-71254819D02*
X143185714Y-70254819D01*
X143185714Y-70254819D02*
X143566666Y-70254819D01*
X143566666Y-70254819D02*
X143661904Y-70302438D01*
X143661904Y-70302438D02*
X143709523Y-70350057D01*
X143709523Y-70350057D02*
X143757142Y-70445295D01*
X143757142Y-70445295D02*
X143757142Y-70588152D01*
X143757142Y-70588152D02*
X143709523Y-70683390D01*
X143709523Y-70683390D02*
X143661904Y-70731009D01*
X143661904Y-70731009D02*
X143566666Y-70778628D01*
X143566666Y-70778628D02*
X143185714Y-70778628D01*
X144138095Y-70350057D02*
X144185714Y-70302438D01*
X144185714Y-70302438D02*
X144280952Y-70254819D01*
X144280952Y-70254819D02*
X144519047Y-70254819D01*
X144519047Y-70254819D02*
X144614285Y-70302438D01*
X144614285Y-70302438D02*
X144661904Y-70350057D01*
X144661904Y-70350057D02*
X144709523Y-70445295D01*
X144709523Y-70445295D02*
X144709523Y-70540533D01*
X144709523Y-70540533D02*
X144661904Y-70683390D01*
X144661904Y-70683390D02*
X144090476Y-71254819D01*
X144090476Y-71254819D02*
X144709523Y-71254819D01*
X145566666Y-70588152D02*
X145566666Y-71254819D01*
X145328571Y-70207200D02*
X145090476Y-70921485D01*
X145090476Y-70921485D02*
X145709523Y-70921485D01*
X158638095Y-78454819D02*
X158638095Y-79264342D01*
X158638095Y-79264342D02*
X158685714Y-79359580D01*
X158685714Y-79359580D02*
X158733333Y-79407200D01*
X158733333Y-79407200D02*
X158828571Y-79454819D01*
X158828571Y-79454819D02*
X159019047Y-79454819D01*
X159019047Y-79454819D02*
X159114285Y-79407200D01*
X159114285Y-79407200D02*
X159161904Y-79359580D01*
X159161904Y-79359580D02*
X159209523Y-79264342D01*
X159209523Y-79264342D02*
X159209523Y-78454819D01*
X160161904Y-78454819D02*
X159685714Y-78454819D01*
X159685714Y-78454819D02*
X159638095Y-78931009D01*
X159638095Y-78931009D02*
X159685714Y-78883390D01*
X159685714Y-78883390D02*
X159780952Y-78835771D01*
X159780952Y-78835771D02*
X160019047Y-78835771D01*
X160019047Y-78835771D02*
X160114285Y-78883390D01*
X160114285Y-78883390D02*
X160161904Y-78931009D01*
X160161904Y-78931009D02*
X160209523Y-79026247D01*
X160209523Y-79026247D02*
X160209523Y-79264342D01*
X160209523Y-79264342D02*
X160161904Y-79359580D01*
X160161904Y-79359580D02*
X160114285Y-79407200D01*
X160114285Y-79407200D02*
X160019047Y-79454819D01*
X160019047Y-79454819D02*
X159780952Y-79454819D01*
X159780952Y-79454819D02*
X159685714Y-79407200D01*
X159685714Y-79407200D02*
X159638095Y-79359580D01*
D12*
X154478571Y-75377190D02*
X154454762Y-75401000D01*
X154454762Y-75401000D02*
X154383333Y-75424809D01*
X154383333Y-75424809D02*
X154335714Y-75424809D01*
X154335714Y-75424809D02*
X154264286Y-75401000D01*
X154264286Y-75401000D02*
X154216667Y-75353380D01*
X154216667Y-75353380D02*
X154192857Y-75305761D01*
X154192857Y-75305761D02*
X154169048Y-75210523D01*
X154169048Y-75210523D02*
X154169048Y-75139095D01*
X154169048Y-75139095D02*
X154192857Y-75043857D01*
X154192857Y-75043857D02*
X154216667Y-74996238D01*
X154216667Y-74996238D02*
X154264286Y-74948619D01*
X154264286Y-74948619D02*
X154335714Y-74924809D01*
X154335714Y-74924809D02*
X154383333Y-74924809D01*
X154383333Y-74924809D02*
X154454762Y-74948619D01*
X154454762Y-74948619D02*
X154478571Y-74972428D01*
X154954762Y-75424809D02*
X154669048Y-75424809D01*
X154811905Y-75424809D02*
X154811905Y-74924809D01*
X154811905Y-74924809D02*
X154764286Y-74996238D01*
X154764286Y-74996238D02*
X154716667Y-75043857D01*
X154716667Y-75043857D02*
X154669048Y-75067666D01*
X155145238Y-74972428D02*
X155169047Y-74948619D01*
X155169047Y-74948619D02*
X155216666Y-74924809D01*
X155216666Y-74924809D02*
X155335714Y-74924809D01*
X155335714Y-74924809D02*
X155383333Y-74948619D01*
X155383333Y-74948619D02*
X155407142Y-74972428D01*
X155407142Y-74972428D02*
X155430952Y-75020047D01*
X155430952Y-75020047D02*
X155430952Y-75067666D01*
X155430952Y-75067666D02*
X155407142Y-75139095D01*
X155407142Y-75139095D02*
X155121428Y-75424809D01*
X155121428Y-75424809D02*
X155430952Y-75424809D01*
D11*
X116083333Y-70454819D02*
X115750000Y-69978628D01*
X115511905Y-70454819D02*
X115511905Y-69454819D01*
X115511905Y-69454819D02*
X115892857Y-69454819D01*
X115892857Y-69454819D02*
X115988095Y-69502438D01*
X115988095Y-69502438D02*
X116035714Y-69550057D01*
X116035714Y-69550057D02*
X116083333Y-69645295D01*
X116083333Y-69645295D02*
X116083333Y-69788152D01*
X116083333Y-69788152D02*
X116035714Y-69883390D01*
X116035714Y-69883390D02*
X115988095Y-69931009D01*
X115988095Y-69931009D02*
X115892857Y-69978628D01*
X115892857Y-69978628D02*
X115511905Y-69978628D01*
X116416667Y-69454819D02*
X117083333Y-69454819D01*
X117083333Y-69454819D02*
X116654762Y-70454819D01*
X141566666Y-47454819D02*
X141566666Y-48169104D01*
X141566666Y-48169104D02*
X141519047Y-48311961D01*
X141519047Y-48311961D02*
X141423809Y-48407200D01*
X141423809Y-48407200D02*
X141280952Y-48454819D01*
X141280952Y-48454819D02*
X141185714Y-48454819D01*
X142042857Y-48454819D02*
X142042857Y-47454819D01*
X142042857Y-47454819D02*
X142423809Y-47454819D01*
X142423809Y-47454819D02*
X142519047Y-47502438D01*
X142519047Y-47502438D02*
X142566666Y-47550057D01*
X142566666Y-47550057D02*
X142614285Y-47645295D01*
X142614285Y-47645295D02*
X142614285Y-47788152D01*
X142614285Y-47788152D02*
X142566666Y-47883390D01*
X142566666Y-47883390D02*
X142519047Y-47931009D01*
X142519047Y-47931009D02*
X142423809Y-47978628D01*
X142423809Y-47978628D02*
X142042857Y-47978628D01*
X143566666Y-48454819D02*
X142995238Y-48454819D01*
X143280952Y-48454819D02*
X143280952Y-47454819D01*
X143280952Y-47454819D02*
X143185714Y-47597676D01*
X143185714Y-47597676D02*
X143090476Y-47692914D01*
X143090476Y-47692914D02*
X142995238Y-47740533D01*
X144959580Y-80566666D02*
X145007200Y-80614285D01*
X145007200Y-80614285D02*
X145054819Y-80757142D01*
X145054819Y-80757142D02*
X145054819Y-80852380D01*
X145054819Y-80852380D02*
X145007200Y-80995237D01*
X145007200Y-80995237D02*
X144911961Y-81090475D01*
X144911961Y-81090475D02*
X144816723Y-81138094D01*
X144816723Y-81138094D02*
X144626247Y-81185713D01*
X144626247Y-81185713D02*
X144483390Y-81185713D01*
X144483390Y-81185713D02*
X144292914Y-81138094D01*
X144292914Y-81138094D02*
X144197676Y-81090475D01*
X144197676Y-81090475D02*
X144102438Y-80995237D01*
X144102438Y-80995237D02*
X144054819Y-80852380D01*
X144054819Y-80852380D02*
X144054819Y-80757142D01*
X144054819Y-80757142D02*
X144102438Y-80614285D01*
X144102438Y-80614285D02*
X144150057Y-80566666D01*
X144150057Y-80185713D02*
X144102438Y-80138094D01*
X144102438Y-80138094D02*
X144054819Y-80042856D01*
X144054819Y-80042856D02*
X144054819Y-79804761D01*
X144054819Y-79804761D02*
X144102438Y-79709523D01*
X144102438Y-79709523D02*
X144150057Y-79661904D01*
X144150057Y-79661904D02*
X144245295Y-79614285D01*
X144245295Y-79614285D02*
X144340533Y-79614285D01*
X144340533Y-79614285D02*
X144483390Y-79661904D01*
X144483390Y-79661904D02*
X145054819Y-80233332D01*
X145054819Y-80233332D02*
X145054819Y-79614285D01*
X119254819Y-51933333D02*
X119969104Y-51933333D01*
X119969104Y-51933333D02*
X120111961Y-51980952D01*
X120111961Y-51980952D02*
X120207200Y-52076190D01*
X120207200Y-52076190D02*
X120254819Y-52219047D01*
X120254819Y-52219047D02*
X120254819Y-52314285D01*
X119254819Y-51552380D02*
X119254819Y-50885714D01*
X119254819Y-50885714D02*
X120254819Y-51314285D01*
X151725595Y-65654819D02*
X151725595Y-66464342D01*
X151725595Y-66464342D02*
X151773214Y-66559580D01*
X151773214Y-66559580D02*
X151820833Y-66607200D01*
X151820833Y-66607200D02*
X151916071Y-66654819D01*
X151916071Y-66654819D02*
X152106547Y-66654819D01*
X152106547Y-66654819D02*
X152201785Y-66607200D01*
X152201785Y-66607200D02*
X152249404Y-66559580D01*
X152249404Y-66559580D02*
X152297023Y-66464342D01*
X152297023Y-66464342D02*
X152297023Y-65654819D01*
X153201785Y-65654819D02*
X153011309Y-65654819D01*
X153011309Y-65654819D02*
X152916071Y-65702438D01*
X152916071Y-65702438D02*
X152868452Y-65750057D01*
X152868452Y-65750057D02*
X152773214Y-65892914D01*
X152773214Y-65892914D02*
X152725595Y-66083390D01*
X152725595Y-66083390D02*
X152725595Y-66464342D01*
X152725595Y-66464342D02*
X152773214Y-66559580D01*
X152773214Y-66559580D02*
X152820833Y-66607200D01*
X152820833Y-66607200D02*
X152916071Y-66654819D01*
X152916071Y-66654819D02*
X153106547Y-66654819D01*
X153106547Y-66654819D02*
X153201785Y-66607200D01*
X153201785Y-66607200D02*
X153249404Y-66559580D01*
X153249404Y-66559580D02*
X153297023Y-66464342D01*
X153297023Y-66464342D02*
X153297023Y-66226247D01*
X153297023Y-66226247D02*
X153249404Y-66131009D01*
X153249404Y-66131009D02*
X153201785Y-66083390D01*
X153201785Y-66083390D02*
X153106547Y-66035771D01*
X153106547Y-66035771D02*
X152916071Y-66035771D01*
X152916071Y-66035771D02*
X152820833Y-66083390D01*
X152820833Y-66083390D02*
X152773214Y-66131009D01*
X152773214Y-66131009D02*
X152725595Y-66226247D01*
D13*
%TO.C,C29*%
X145238748Y-63515000D02*
X145761252Y-63515000D01*
X145238748Y-64985000D02*
X145761252Y-64985000D01*
%TO.C,U14*%
X123900748Y-45790000D02*
X125235000Y-45790000D01*
X125235000Y-48010000D02*
X123765000Y-48010000D01*
X123610000Y-45780000D02*
X123470000Y-45590000D01*
X123750000Y-45590000D01*
X123610000Y-45780000D01*
G36*
X123610000Y-45780000D02*
G01*
X123470000Y-45590000D01*
X123750000Y-45590000D01*
X123610000Y-45780000D01*
G37*
%TO.C,C18*%
X119511252Y-67265000D02*
X118988748Y-67265000D01*
X119511252Y-68735000D02*
X118988748Y-68735000D01*
%TO.C,TP11*%
X141500000Y-85600000D02*
G75*
G02*
X140100000Y-85600000I-700000J0D01*
G01*
X140100000Y-85600000D02*
G75*
G02*
X141500000Y-85600000I700000J0D01*
G01*
%TO.C,D5*%
X121011520Y-58042156D02*
X121824693Y-57228982D01*
X121061018Y-56465307D02*
X120247844Y-57278480D01*
X121824693Y-57228982D02*
X121061018Y-56465307D01*
X121011520Y-58042156D02*
G75*
G02*
X120247844Y-57278480I-3761520J-2997844D01*
G01*
%TO.C,TP7*%
X135500000Y-85600000D02*
G75*
G02*
X134100000Y-85600000I-700000J0D01*
G01*
X134100000Y-85600000D02*
G75*
G02*
X135500000Y-85600000I700000J0D01*
G01*
%TO.C,C31*%
X127538748Y-56065000D02*
X128061252Y-56065000D01*
X127538748Y-57535000D02*
X128061252Y-57535000D01*
%TO.C,R14*%
X135772936Y-45465000D02*
X136227064Y-45465000D01*
X135772936Y-46935000D02*
X136227064Y-46935000D01*
%TO.C,R23*%
X147572936Y-71865000D02*
X148027064Y-71865000D01*
X147572936Y-73335000D02*
X148027064Y-73335000D01*
%TO.C,TP4*%
X149050000Y-82650000D02*
X150950000Y-82650000D01*
X149050000Y-84550000D02*
X149050000Y-82650000D01*
X150950000Y-82650000D02*
X150950000Y-84550000D01*
X150950000Y-84550000D02*
X149050000Y-84550000D01*
%TO.C,TP6*%
X148850000Y-86850000D02*
X150750000Y-86850000D01*
X148850000Y-88750000D02*
X148850000Y-86850000D01*
X150750000Y-86850000D02*
X150750000Y-88750000D01*
X150750000Y-88750000D02*
X148850000Y-88750000D01*
%TO.C,TP9*%
X132700000Y-85600000D02*
G75*
G02*
X131300000Y-85600000I-700000J0D01*
G01*
X131300000Y-85600000D02*
G75*
G02*
X132700000Y-85600000I700000J0D01*
G01*
%TO.C,U7*%
X133640000Y-51140000D02*
X134590000Y-51140000D01*
X133640000Y-52090000D02*
X133640000Y-51140000D01*
X133640000Y-61360000D02*
X133640000Y-60410000D01*
X134590000Y-61360000D02*
X133640000Y-61360000D01*
X142910000Y-51140000D02*
X143860000Y-51140000D01*
X143860000Y-51140000D02*
X143860000Y-52090000D01*
X143860000Y-60410000D02*
X143860000Y-61360000D01*
X143860000Y-61360000D02*
X142910000Y-61360000D01*
X133000000Y-52090000D02*
X132660000Y-51620000D01*
X133340000Y-51620000D01*
X133000000Y-52090000D01*
G36*
X133000000Y-52090000D02*
G01*
X132660000Y-51620000D01*
X133340000Y-51620000D01*
X133000000Y-52090000D01*
G37*
%TO.C,R13*%
X158515000Y-63572936D02*
X158515000Y-64027064D01*
X159985000Y-63572936D02*
X159985000Y-64027064D01*
%TO.C,TP8*%
X138300000Y-85600000D02*
G75*
G02*
X136900000Y-85600000I-700000J0D01*
G01*
X136900000Y-85600000D02*
G75*
G02*
X138300000Y-85600000I700000J0D01*
G01*
%TO.C,C34*%
X158465000Y-58938748D02*
X158465000Y-59461252D01*
X159935000Y-58938748D02*
X159935000Y-59461252D01*
%TO.C,L2*%
X155564758Y-66290000D02*
X157235242Y-66290000D01*
X155564758Y-68110000D02*
X157235242Y-68110000D01*
%TO.C,J6*%
X149878375Y-49420000D02*
X149878375Y-52080000D01*
X149938375Y-49420000D02*
X149878375Y-49420000D01*
X149938375Y-52080000D02*
X149878375Y-52080000D01*
X158828375Y-52080000D02*
X158828375Y-53540000D01*
X158888375Y-49420000D02*
X158828375Y-49420000D01*
X158888375Y-49420000D02*
X158888375Y-52080000D01*
X158888375Y-52080000D02*
X158828375Y-52080000D01*
%TO.C,U11*%
X115440000Y-73690000D02*
X119560000Y-73690000D01*
X115440000Y-73785000D02*
X115440000Y-73690000D01*
X115440000Y-78810000D02*
X115440000Y-78715000D01*
X119560000Y-73690000D02*
X119560000Y-73785000D01*
X119560000Y-78715000D02*
X119560000Y-78810000D01*
X119560000Y-78810000D02*
X115440000Y-78810000D01*
X114900000Y-73780000D02*
X114660000Y-73450000D01*
X115140000Y-73450000D01*
X114900000Y-73780000D01*
G36*
X114900000Y-73780000D02*
G01*
X114660000Y-73450000D01*
X115140000Y-73450000D01*
X114900000Y-73780000D01*
G37*
%TO.C,C11*%
X148061252Y-67865000D02*
X147538748Y-67865000D01*
X148061252Y-69335000D02*
X147538748Y-69335000D01*
%TO.C,C26*%
X118526248Y-79515000D02*
X119048752Y-79515000D01*
X118526248Y-80985000D02*
X119048752Y-80985000D01*
%TO.C,R9*%
X151665000Y-72227064D02*
X151665000Y-71772936D01*
X153135000Y-72227064D02*
X153135000Y-71772936D01*
%TO.C,U4*%
X146490000Y-73840000D02*
X148310000Y-73840000D01*
X146490000Y-73890000D02*
X146490000Y-73840000D01*
X146490000Y-76960000D02*
X146490000Y-76910000D01*
X148310000Y-73840000D02*
X148310000Y-73890000D01*
X148310000Y-75010000D02*
X148310000Y-75790000D01*
X148310000Y-76910000D02*
X148310000Y-76960000D01*
X148310000Y-76960000D02*
X146490000Y-76960000D01*
X145950000Y-73890000D02*
X145710000Y-73560000D01*
X146190000Y-73560000D01*
X145950000Y-73890000D01*
G36*
X145950000Y-73890000D02*
G01*
X145710000Y-73560000D01*
X146190000Y-73560000D01*
X145950000Y-73890000D01*
G37*
%TO.C,U8*%
X125900000Y-66610000D02*
X127700000Y-66610000D01*
X126900000Y-63390000D02*
X126100000Y-63390000D01*
X126900000Y-63390000D02*
X127700000Y-63390000D01*
X125600000Y-63440000D02*
X125360000Y-63110000D01*
X125840000Y-63110000D01*
X125600000Y-63440000D01*
G36*
X125600000Y-63440000D02*
G01*
X125360000Y-63110000D01*
X125840000Y-63110000D01*
X125600000Y-63440000D01*
G37*
%TO.C,C17*%
X119511252Y-71265000D02*
X118988748Y-71265000D01*
X119511252Y-72735000D02*
X118988748Y-72735000D01*
%TO.C,R10*%
X158865000Y-71972936D02*
X158865000Y-72427064D01*
X160335000Y-71972936D02*
X160335000Y-72427064D01*
D14*
%TO.C,D1*%
X154777600Y-81527100D02*
X157622400Y-81527100D01*
X157622400Y-79672900D02*
X154777600Y-79672900D01*
D13*
%TO.C,C30*%
X129265000Y-49138748D02*
X129265000Y-49661252D01*
X130735000Y-49138748D02*
X130735000Y-49661252D01*
%TO.C,C7*%
X153640000Y-71088748D02*
X153640000Y-72511252D01*
X156360000Y-71088748D02*
X156360000Y-72511252D01*
%TO.C,C27*%
X124540000Y-85688748D02*
X124540000Y-87111252D01*
X127260000Y-85688748D02*
X127260000Y-87111252D01*
%TO.C,C43*%
X125738748Y-49665000D02*
X126261252Y-49665000D01*
X125738748Y-51135000D02*
X126261252Y-51135000D01*
%TO.C,C28*%
X145865000Y-85138748D02*
X145865000Y-85661252D01*
X147335000Y-85138748D02*
X147335000Y-85661252D01*
%TO.C,TP5*%
X149650000Y-61850000D02*
X151550000Y-61850000D01*
X149650000Y-63750000D02*
X149650000Y-61850000D01*
X151550000Y-61850000D02*
X151550000Y-63750000D01*
X151550000Y-63750000D02*
X149650000Y-63750000D01*
%TO.C,Y1*%
X126140000Y-55660000D02*
X129560000Y-55660000D01*
X129560000Y-55660000D02*
X129560000Y-51540000D01*
D14*
%TO.C,U13*%
X124245476Y-83404701D02*
X128254524Y-83404701D01*
X128254524Y-78045301D02*
X124245476Y-78045301D01*
D15*
G36*
X130314000Y-82540502D02*
G01*
X130060000Y-82540502D01*
X130060000Y-82159502D01*
X130314000Y-82159502D01*
X130314000Y-82540502D01*
G37*
D14*
%TO.C,U12*%
X124219686Y-77179000D02*
X128584201Y-77179000D01*
X128584214Y-70321000D02*
X124219699Y-70321000D01*
D15*
G36*
X122591950Y-76865498D02*
G01*
X122337950Y-76865498D01*
X122337950Y-76484498D01*
X122591950Y-76484498D01*
X122591950Y-76865498D01*
G37*
G36*
X130465950Y-71015502D02*
G01*
X130211950Y-71015502D01*
X130211950Y-70634502D01*
X130465950Y-70634502D01*
X130465950Y-71015502D01*
G37*
D13*
%TO.C,R11*%
X156865000Y-72427064D02*
X156865000Y-71972936D01*
X158335000Y-72427064D02*
X158335000Y-71972936D01*
%TO.C,C13*%
X150640000Y-78111252D02*
X150640000Y-76688748D01*
X153360000Y-78111252D02*
X153360000Y-76688748D01*
%TO.C,C10*%
X126861252Y-61265000D02*
X126338748Y-61265000D01*
X126861252Y-62735000D02*
X126338748Y-62735000D01*
%TO.C,U1*%
X135090000Y-66840000D02*
X135565000Y-66840000D01*
X135090000Y-67315000D02*
X135090000Y-66840000D01*
X135090000Y-74060000D02*
X135090000Y-73585000D01*
X135565000Y-74060000D02*
X135090000Y-74060000D01*
X141835000Y-66840000D02*
X142310000Y-66840000D01*
X142310000Y-66840000D02*
X142310000Y-67315000D01*
X142310000Y-73585000D02*
X142310000Y-74060000D01*
X142310000Y-74060000D02*
X141835000Y-74060000D01*
X134560000Y-67700000D02*
X134230000Y-67940000D01*
X134230000Y-67460000D01*
X134560000Y-67700000D01*
G36*
X134560000Y-67700000D02*
G01*
X134230000Y-67940000D01*
X134230000Y-67460000D01*
X134560000Y-67700000D01*
G37*
%TO.C,TP10*%
X143900000Y-85600000D02*
G75*
G02*
X142500000Y-85600000I-700000J0D01*
G01*
X142500000Y-85600000D02*
G75*
G02*
X143900000Y-85600000I700000J0D01*
G01*
D15*
%TO.C,G\u002A\u002A\u002A*%
G36*
X140347195Y-78731576D02*
G01*
X140340000Y-78963054D01*
X140271182Y-78970972D01*
X140202364Y-78978891D01*
X140202364Y-78739494D01*
X140202364Y-78500098D01*
X140278377Y-78500098D01*
X140354390Y-78500098D01*
X140347195Y-78731576D01*
G37*
G36*
X136231044Y-76269602D02*
G01*
X136257641Y-76368385D01*
X136268582Y-76428555D01*
X136261742Y-76459684D01*
X136234998Y-76471343D01*
X136186229Y-76473103D01*
X136185911Y-76473103D01*
X136128029Y-76468386D01*
X136099161Y-76456789D01*
X136098422Y-76454335D01*
X136104836Y-76422234D01*
X136121510Y-76356602D01*
X136143555Y-76276236D01*
X136188590Y-76116905D01*
X136231044Y-76269602D01*
G37*
G36*
X140553298Y-76032821D02*
G01*
X140609594Y-76058451D01*
X140613483Y-76061984D01*
X140645885Y-76099319D01*
X140647604Y-76131248D01*
X140626902Y-76174453D01*
X140594767Y-76207177D01*
X140535618Y-76221243D01*
X140489267Y-76222857D01*
X140377537Y-76222857D01*
X140377537Y-76122758D01*
X140379976Y-76058687D01*
X140396756Y-76030217D01*
X140442065Y-76022900D01*
X140475848Y-76022660D01*
X140553298Y-76032821D01*
G37*
G36*
X135141051Y-76056351D02*
G01*
X135210572Y-76076613D01*
X135259797Y-76106670D01*
X135264364Y-76111983D01*
X135297156Y-76187604D01*
X135313773Y-76290399D01*
X135314214Y-76401973D01*
X135298473Y-76503932D01*
X135266549Y-76577882D01*
X135264446Y-76580618D01*
X135221368Y-76609253D01*
X135153633Y-76631648D01*
X135141133Y-76634109D01*
X135047290Y-76650543D01*
X135047290Y-76345840D01*
X135047290Y-76041136D01*
X135141051Y-76056351D01*
G37*
G36*
X138908371Y-79560964D02*
G01*
X138919993Y-79596493D01*
X138925248Y-79666770D01*
X138926108Y-79738817D01*
X138924142Y-79837816D01*
X138917036Y-79895927D01*
X138902981Y-79922202D01*
X138888571Y-79926502D01*
X138868771Y-79916671D01*
X138857149Y-79881142D01*
X138851894Y-79810865D01*
X138851034Y-79738817D01*
X138853000Y-79639819D01*
X138860106Y-79581708D01*
X138874161Y-79555433D01*
X138888571Y-79551133D01*
X138908371Y-79560964D01*
G37*
G36*
X139909356Y-79560964D02*
G01*
X139920978Y-79596493D01*
X139926233Y-79666770D01*
X139927093Y-79738817D01*
X139925127Y-79837816D01*
X139918021Y-79895927D01*
X139903966Y-79922202D01*
X139889556Y-79926502D01*
X139869757Y-79916671D01*
X139858134Y-79881142D01*
X139852879Y-79810865D01*
X139852019Y-79738817D01*
X139853986Y-79639819D01*
X139861091Y-79581708D01*
X139875147Y-79555433D01*
X139889556Y-79551133D01*
X139909356Y-79560964D01*
G37*
G36*
X138035346Y-80914819D02*
G01*
X138047000Y-80958178D01*
X138050246Y-81040098D01*
X138051507Y-81118782D01*
X138059768Y-81159737D01*
X138081750Y-81175281D01*
X138124172Y-81177733D01*
X138125320Y-81177734D01*
X138184921Y-81188925D01*
X138200394Y-81215271D01*
X138185656Y-81240012D01*
X138135546Y-81251281D01*
X138087783Y-81252807D01*
X137975172Y-81252807D01*
X137975172Y-81077635D01*
X137977380Y-80982461D01*
X137985317Y-80927990D01*
X138000957Y-80905017D01*
X138012709Y-80902463D01*
X138035346Y-80914819D01*
G37*
G36*
X136865534Y-77851109D02*
G01*
X136883813Y-77862311D01*
X136893855Y-77892441D01*
X136898127Y-77950872D01*
X136899097Y-78046979D01*
X136899113Y-78087192D01*
X136898678Y-78197325D01*
X136895730Y-78266785D01*
X136887802Y-78304945D01*
X136872425Y-78321180D01*
X136847134Y-78324866D01*
X136836551Y-78324926D01*
X136807569Y-78323275D01*
X136789290Y-78312072D01*
X136779248Y-78281943D01*
X136774976Y-78223512D01*
X136774006Y-78127405D01*
X136773990Y-78087192D01*
X136774424Y-77977058D01*
X136777372Y-77907599D01*
X136785301Y-77869439D01*
X136800678Y-77853204D01*
X136825969Y-77849518D01*
X136836551Y-77849458D01*
X136865534Y-77851109D01*
G37*
G36*
X138041692Y-77851109D02*
G01*
X138059970Y-77862311D01*
X138070012Y-77892441D01*
X138074285Y-77950872D01*
X138075255Y-78046979D01*
X138075271Y-78087192D01*
X138074836Y-78197325D01*
X138071888Y-78266785D01*
X138063959Y-78304945D01*
X138048583Y-78321180D01*
X138023291Y-78324866D01*
X138012709Y-78324926D01*
X137983726Y-78323275D01*
X137965448Y-78312072D01*
X137955406Y-78281943D01*
X137951133Y-78223512D01*
X137950163Y-78127405D01*
X137950147Y-78087192D01*
X137950582Y-77977058D01*
X137953530Y-77907599D01*
X137961459Y-77869439D01*
X137976835Y-77853204D01*
X138002127Y-77849518D01*
X138012709Y-77849458D01*
X138041692Y-77851109D01*
G37*
G36*
X138692332Y-77851109D02*
G01*
X138710611Y-77862311D01*
X138720653Y-77892441D01*
X138724925Y-77950872D01*
X138725895Y-78046979D01*
X138725911Y-78087192D01*
X138725476Y-78197325D01*
X138722528Y-78266785D01*
X138714600Y-78304945D01*
X138699223Y-78321180D01*
X138673932Y-78324866D01*
X138663349Y-78324926D01*
X138634367Y-78323275D01*
X138616088Y-78312072D01*
X138606046Y-78281943D01*
X138601774Y-78223512D01*
X138600804Y-78127405D01*
X138600788Y-78087192D01*
X138601222Y-77977058D01*
X138604170Y-77907599D01*
X138612099Y-77869439D01*
X138627476Y-77853204D01*
X138652767Y-77849518D01*
X138663349Y-77849458D01*
X138692332Y-77851109D01*
G37*
G36*
X139242874Y-78501749D02*
G01*
X139261153Y-78512952D01*
X139271195Y-78543081D01*
X139275467Y-78601512D01*
X139276437Y-78697619D01*
X139276453Y-78737832D01*
X139276018Y-78847966D01*
X139273070Y-78917425D01*
X139265142Y-78955585D01*
X139249765Y-78971820D01*
X139224474Y-78975506D01*
X139213891Y-78975566D01*
X139184909Y-78973915D01*
X139166630Y-78962713D01*
X139156588Y-78932583D01*
X139152315Y-78874152D01*
X139151345Y-78778045D01*
X139151330Y-78737832D01*
X139151764Y-78627698D01*
X139154712Y-78558239D01*
X139162641Y-78520079D01*
X139178017Y-78503844D01*
X139203309Y-78500158D01*
X139213891Y-78500098D01*
X139242874Y-78501749D01*
G37*
G36*
X139371699Y-77852034D02*
G01*
X139390406Y-77867032D01*
X139399028Y-77905359D01*
X139401462Y-77977920D01*
X139401576Y-78024630D01*
X139401576Y-78199803D01*
X139515927Y-78199803D01*
X139585652Y-78202187D01*
X139617603Y-78213647D01*
X139623989Y-78240647D01*
X139622282Y-78256108D01*
X139613365Y-78286366D01*
X139589669Y-78304253D01*
X139539657Y-78313922D01*
X139451794Y-78319528D01*
X139445369Y-78319813D01*
X139276453Y-78327212D01*
X139276453Y-78088335D01*
X139276882Y-77977884D01*
X139279802Y-77908131D01*
X139287663Y-77869721D01*
X139302915Y-77853303D01*
X139328005Y-77849525D01*
X139339014Y-77849458D01*
X139371699Y-77852034D01*
G37*
G36*
X140347660Y-77852034D02*
G01*
X140366366Y-77867032D01*
X140374989Y-77905359D01*
X140377423Y-77977920D01*
X140377537Y-78024630D01*
X140377537Y-78199803D01*
X140477635Y-78199803D01*
X140542127Y-78203217D01*
X140570791Y-78219324D01*
X140577698Y-78256916D01*
X140577734Y-78262364D01*
X140574881Y-78295995D01*
X140558786Y-78314726D01*
X140518142Y-78322908D01*
X140441640Y-78324890D01*
X140415074Y-78324926D01*
X140252413Y-78324926D01*
X140252413Y-78087192D01*
X140252848Y-77977058D01*
X140255796Y-77907599D01*
X140263725Y-77869439D01*
X140279101Y-77853204D01*
X140304393Y-77849518D01*
X140314975Y-77849458D01*
X140347660Y-77852034D01*
G37*
G36*
X140082144Y-80105473D02*
G01*
X140136366Y-80115398D01*
X140152315Y-80126699D01*
X140131356Y-80147031D01*
X140102266Y-80151724D01*
X140075180Y-80156793D01*
X140060079Y-80179375D01*
X140053560Y-80230528D01*
X140052216Y-80314384D01*
X140049548Y-80406374D01*
X140040224Y-80457393D01*
X140022265Y-80476296D01*
X140015874Y-80477044D01*
X139993940Y-80462812D01*
X139980155Y-80414831D01*
X139972301Y-80325174D01*
X139972080Y-80320640D01*
X139966133Y-80234245D01*
X139955617Y-80185908D01*
X139935880Y-80163638D01*
X139908325Y-80156239D01*
X139857785Y-80143301D01*
X139850946Y-80127943D01*
X139881810Y-80113651D01*
X139944379Y-80103914D01*
X140002167Y-80101674D01*
X140082144Y-80105473D01*
G37*
G36*
X141233939Y-79555761D02*
G01*
X141287166Y-79567330D01*
X141306904Y-79582362D01*
X141287077Y-79597380D01*
X141248680Y-79605698D01*
X141218847Y-79614319D01*
X141203234Y-79637075D01*
X141198306Y-79686002D01*
X141200401Y-79770098D01*
X141201744Y-79858123D01*
X141195197Y-79906456D01*
X141178735Y-79925109D01*
X141168777Y-79926502D01*
X141146241Y-79914207D01*
X141132249Y-79871365D01*
X141124197Y-79789041D01*
X141123213Y-79770098D01*
X141117266Y-79683703D01*
X141106750Y-79635366D01*
X141087013Y-79613096D01*
X141059458Y-79605698D01*
X141008918Y-79592760D01*
X141002079Y-79577401D01*
X141032943Y-79563109D01*
X141095512Y-79553372D01*
X141153300Y-79551133D01*
X141233939Y-79555761D01*
G37*
G36*
X139704289Y-79563023D02*
G01*
X139760412Y-79603217D01*
X139786033Y-79678499D01*
X139789458Y-79738817D01*
X139778166Y-79836819D01*
X139739995Y-79895917D01*
X139668504Y-79922895D01*
X139611221Y-79926502D01*
X139501674Y-79926502D01*
X139501674Y-79738817D01*
X139576748Y-79738817D01*
X139578973Y-79818458D01*
X139588458Y-79859945D01*
X139609420Y-79875079D01*
X139625917Y-79876453D01*
X139676571Y-79856295D01*
X139700991Y-79828049D01*
X139725522Y-79742228D01*
X139707354Y-79666095D01*
X139687572Y-79640506D01*
X139635529Y-79601560D01*
X139600608Y-79607564D01*
X139581511Y-79659668D01*
X139576748Y-79738817D01*
X139501674Y-79738817D01*
X139501674Y-79551133D01*
X139611221Y-79551133D01*
X139704289Y-79563023D01*
G37*
G36*
X139210742Y-79567962D02*
G01*
X139272894Y-79619227D01*
X139300003Y-79706092D01*
X139301477Y-79738817D01*
X139284521Y-79836447D01*
X139232868Y-79898133D01*
X139145346Y-79925038D01*
X139112374Y-79926502D01*
X139001182Y-79926502D01*
X139001182Y-79738817D01*
X139076256Y-79738817D01*
X139078769Y-79819113D01*
X139088795Y-79860906D01*
X139110067Y-79875600D01*
X139121300Y-79876453D01*
X139176810Y-79860609D01*
X139196374Y-79846423D01*
X139224440Y-79789138D01*
X139221844Y-79719319D01*
X139194439Y-79653976D01*
X139148077Y-79610121D01*
X139112005Y-79601182D01*
X139090120Y-79615434D01*
X139078949Y-79663759D01*
X139076256Y-79738817D01*
X139001182Y-79738817D01*
X139001182Y-79551133D01*
X139112374Y-79551133D01*
X139210742Y-79567962D01*
G37*
G36*
X137816741Y-80886364D02*
G01*
X137878557Y-80925333D01*
X137917190Y-80968855D01*
X137913476Y-80993883D01*
X137873913Y-80992835D01*
X137834983Y-80976170D01*
X137785596Y-80955180D01*
X137755046Y-80965193D01*
X137734923Y-80989257D01*
X137703756Y-81049777D01*
X137712570Y-81104986D01*
X137745130Y-81152970D01*
X137780286Y-81190016D01*
X137806650Y-81189512D01*
X137830928Y-81168255D01*
X137876886Y-81135167D01*
X137913133Y-81129604D01*
X137925123Y-81148830D01*
X137904613Y-81187569D01*
X137856582Y-81226424D01*
X137801272Y-81250570D01*
X137783139Y-81252807D01*
X137727269Y-81235070D01*
X137691267Y-81207044D01*
X137657348Y-81137123D01*
X137651574Y-81049208D01*
X137673238Y-80966204D01*
X137699901Y-80927487D01*
X137759168Y-80884897D01*
X137816741Y-80886364D01*
G37*
G36*
X138412022Y-79553068D02*
G01*
X138421773Y-79565118D01*
X138418740Y-79596648D01*
X138402019Y-79657021D01*
X138370707Y-79755603D01*
X138370640Y-79755810D01*
X138331667Y-79860838D01*
X138296279Y-79917355D01*
X138261933Y-79925149D01*
X138226082Y-79884008D01*
X138186182Y-79793719D01*
X138166838Y-79738817D01*
X138136198Y-79645301D01*
X138121373Y-79589382D01*
X138121488Y-79561470D01*
X138135672Y-79551977D01*
X138149751Y-79551133D01*
X138182734Y-79565643D01*
X138209526Y-79615041D01*
X138227837Y-79676256D01*
X138248675Y-79746889D01*
X138267313Y-79792259D01*
X138275468Y-79801379D01*
X138289889Y-79779387D01*
X138309977Y-79723027D01*
X138323099Y-79676256D01*
X138349701Y-79598044D01*
X138378397Y-79555837D01*
X138390391Y-79551133D01*
X138412022Y-79553068D01*
G37*
G36*
X138911506Y-78502887D02*
G01*
X138965691Y-78514937D01*
X139003528Y-78541776D01*
X139024390Y-78566034D01*
X139067770Y-78655478D01*
X139077644Y-78758057D01*
X139054524Y-78855137D01*
X139014832Y-78914142D01*
X138967103Y-78951801D01*
X138909542Y-78970312D01*
X138823016Y-78975545D01*
X138814635Y-78975566D01*
X138675862Y-78975566D01*
X138675862Y-78808651D01*
X138805428Y-78808651D01*
X138824050Y-78862857D01*
X138860185Y-78872257D01*
X138911808Y-78836143D01*
X138946337Y-78770138D01*
X138943208Y-78694145D01*
X138910691Y-78638404D01*
X138862344Y-78607479D01*
X138827855Y-78624293D01*
X138808082Y-78688252D01*
X138805573Y-78711117D01*
X138805428Y-78808651D01*
X138675862Y-78808651D01*
X138675862Y-78737832D01*
X138675862Y-78500098D01*
X138824193Y-78500098D01*
X138911506Y-78502887D01*
G37*
G36*
X140051407Y-78500765D02*
G01*
X140110860Y-78504892D01*
X140140687Y-78515672D01*
X140151100Y-78536294D01*
X140152315Y-78562660D01*
X140141979Y-78610282D01*
X140101282Y-78624957D01*
X140089753Y-78625221D01*
X140057068Y-78627797D01*
X140038362Y-78642796D01*
X140029739Y-78681122D01*
X140027306Y-78753684D01*
X140027192Y-78800394D01*
X140027192Y-78975566D01*
X139952118Y-78975566D01*
X139877044Y-78975566D01*
X139877044Y-78800394D01*
X139876124Y-78708876D01*
X139870767Y-78656498D01*
X139857079Y-78632355D01*
X139831165Y-78625540D01*
X139814482Y-78625221D01*
X139766860Y-78614885D01*
X139752185Y-78574189D01*
X139751921Y-78562660D01*
X139754054Y-78531632D01*
X139767262Y-78513053D01*
X139801756Y-78503732D01*
X139867747Y-78500478D01*
X139952118Y-78500098D01*
X140051407Y-78500765D01*
G37*
G36*
X141074528Y-80906964D02*
G01*
X141119832Y-80918473D01*
X141128275Y-80927487D01*
X141106277Y-80944028D01*
X141052184Y-80952296D01*
X141040689Y-80952512D01*
X140975909Y-80960652D01*
X140953261Y-80986630D01*
X140953103Y-80990049D01*
X140975486Y-81019850D01*
X141028177Y-81027586D01*
X141087779Y-81038777D01*
X141103251Y-81065123D01*
X141080868Y-81094924D01*
X141028177Y-81102660D01*
X140968575Y-81113851D01*
X140953103Y-81140197D01*
X140972096Y-81167960D01*
X141032712Y-81177666D01*
X141040689Y-81177734D01*
X141105469Y-81185873D01*
X141128117Y-81211852D01*
X141128275Y-81215271D01*
X141114881Y-81238876D01*
X141068504Y-81250405D01*
X141003152Y-81252807D01*
X140878029Y-81252807D01*
X140878029Y-81077635D01*
X140878029Y-80902463D01*
X141003152Y-80902463D01*
X141074528Y-80906964D01*
G37*
G36*
X141277685Y-80107079D02*
G01*
X141320474Y-80120177D01*
X141322257Y-80136294D01*
X141279834Y-80150757D01*
X141234630Y-80156469D01*
X141163297Y-80172778D01*
X141137553Y-80199603D01*
X141157229Y-80227178D01*
X141222159Y-80245735D01*
X141236181Y-80247169D01*
X141301662Y-80261279D01*
X141321209Y-80282962D01*
X141296114Y-80303214D01*
X141227667Y-80313033D01*
X141226734Y-80313049D01*
X141166889Y-80320008D01*
X141143189Y-80343563D01*
X141140788Y-80364433D01*
X141151557Y-80399382D01*
X141192241Y-80416956D01*
X141234630Y-80422249D01*
X141303692Y-80433676D01*
X141326721Y-80449422D01*
X141306919Y-80464815D01*
X141247488Y-80475178D01*
X141197093Y-80477044D01*
X141065714Y-80477044D01*
X141065714Y-80289359D01*
X141065714Y-80101674D01*
X141197093Y-80101674D01*
X141277685Y-80107079D01*
G37*
G36*
X137849724Y-80104216D02*
G01*
X137889708Y-80116456D01*
X137909181Y-80145321D01*
X137915819Y-80168109D01*
X137916880Y-80248293D01*
X137875188Y-80303030D01*
X137809836Y-80327015D01*
X137753974Y-80348325D01*
X137731295Y-80395816D01*
X137729520Y-80408345D01*
X137712090Y-80459725D01*
X137685727Y-80477044D01*
X137666602Y-80465776D01*
X137655392Y-80426300D01*
X137650469Y-80350110D01*
X137649852Y-80289359D01*
X137649852Y-80214285D01*
X137724926Y-80214285D01*
X137732643Y-80262099D01*
X137764108Y-80274006D01*
X137781231Y-80272331D01*
X137828310Y-80247471D01*
X137837537Y-80214285D01*
X137817091Y-80169534D01*
X137781231Y-80156239D01*
X137739532Y-80159369D01*
X137725571Y-80194293D01*
X137724926Y-80214285D01*
X137649852Y-80214285D01*
X137649852Y-80101674D01*
X137774498Y-80101674D01*
X137849724Y-80104216D01*
G37*
G36*
X138253927Y-80124488D02*
G01*
X138293721Y-80169864D01*
X138310730Y-80232384D01*
X138313005Y-80286254D01*
X138300742Y-80385711D01*
X138259702Y-80449534D01*
X138183507Y-80486849D01*
X138170372Y-80490306D01*
X138111533Y-80492573D01*
X138057606Y-80460624D01*
X138038993Y-80443041D01*
X137985605Y-80358364D01*
X137978059Y-80289359D01*
X138050246Y-80289359D01*
X138064852Y-80370091D01*
X138102950Y-80416165D01*
X138155958Y-80422337D01*
X138211119Y-80387670D01*
X138242799Y-80328377D01*
X138243417Y-80259220D01*
X138217886Y-80196741D01*
X138171117Y-80157479D01*
X138141050Y-80151724D01*
X138088926Y-80174097D01*
X138056917Y-80234072D01*
X138050246Y-80289359D01*
X137978059Y-80289359D01*
X137975246Y-80263639D01*
X138008029Y-80173231D01*
X138036596Y-80138074D01*
X138110374Y-80086608D01*
X138183364Y-80084343D01*
X138253927Y-80124488D01*
G37*
G36*
X138668885Y-79537774D02*
G01*
X138731466Y-79576182D01*
X138777456Y-79647058D01*
X138795985Y-79732275D01*
X138796365Y-79808210D01*
X138779617Y-79856144D01*
X138738166Y-79897203D01*
X138736305Y-79898673D01*
X138655295Y-79944057D01*
X138584206Y-79942007D01*
X138526350Y-79902114D01*
X138470437Y-79815866D01*
X138464917Y-79744090D01*
X138532099Y-79744090D01*
X138551402Y-79798703D01*
X138560278Y-79812866D01*
X138611159Y-79866430D01*
X138662000Y-79870372D01*
X138695881Y-79846423D01*
X138720083Y-79793796D01*
X138724095Y-79721690D01*
X138708732Y-79655062D01*
X138688693Y-79626471D01*
X138634422Y-79607126D01*
X138582171Y-79633882D01*
X138546972Y-79687041D01*
X138532099Y-79744090D01*
X138464917Y-79744090D01*
X138462827Y-79716912D01*
X138483663Y-79645662D01*
X138534777Y-79569683D01*
X138599920Y-79534664D01*
X138668885Y-79537774D01*
G37*
G36*
X138985625Y-80106249D02*
G01*
X138998156Y-80127282D01*
X139000600Y-80175615D01*
X138995151Y-80262126D01*
X138994595Y-80269099D01*
X138981337Y-80374928D01*
X138960538Y-80440077D01*
X138936337Y-80469296D01*
X138860513Y-80499989D01*
X138786865Y-80480847D01*
X138750936Y-80452019D01*
X138723118Y-80403135D01*
X138705017Y-80331144D01*
X138697150Y-80250528D01*
X138700035Y-80175769D01*
X138714189Y-80121348D01*
X138738423Y-80101674D01*
X138760170Y-80113159D01*
X138771873Y-80153895D01*
X138775877Y-80233304D01*
X138775960Y-80252608D01*
X138784021Y-80357408D01*
X138808193Y-80414860D01*
X138848464Y-80424946D01*
X138890930Y-80400012D01*
X138915495Y-80361476D01*
X138923766Y-80293468D01*
X138921892Y-80234518D01*
X138919197Y-80156842D01*
X138925993Y-80116909D01*
X138945781Y-80102772D01*
X138960815Y-80101640D01*
X138985625Y-80106249D01*
G37*
G36*
X137586473Y-80108693D02*
G01*
X137581423Y-80136590D01*
X137551104Y-80192591D01*
X137497462Y-80283508D01*
X137561499Y-80380276D01*
X137598744Y-80438924D01*
X137609120Y-80467325D01*
X137594262Y-80476371D01*
X137576013Y-80477044D01*
X137525530Y-80456855D01*
X137499704Y-80426995D01*
X137463895Y-80383050D01*
X137432125Y-80387689D01*
X137412975Y-80424293D01*
X137389664Y-80456026D01*
X137351223Y-80482822D01*
X137315291Y-80495342D01*
X137299507Y-80484365D01*
X137310701Y-80456509D01*
X137338865Y-80401787D01*
X137353122Y-80375951D01*
X137406737Y-80280555D01*
X137353966Y-80191115D01*
X137322122Y-80134697D01*
X137315638Y-80109004D01*
X137333915Y-80101968D01*
X137349520Y-80101674D01*
X137398352Y-80121867D01*
X137425938Y-80154168D01*
X137454031Y-80206661D01*
X137490799Y-80154168D01*
X137532836Y-80113945D01*
X137566156Y-80101674D01*
X137586473Y-80108693D01*
G37*
G36*
X140924903Y-79573093D02*
G01*
X140931032Y-79579111D01*
X140964452Y-79621051D01*
X140959212Y-79646630D01*
X140951998Y-79651914D01*
X140909155Y-79652950D01*
X140884696Y-79636448D01*
X140839918Y-79604343D01*
X140801020Y-79615077D01*
X140782936Y-79631211D01*
X140758589Y-79684209D01*
X140754834Y-79756638D01*
X140770768Y-79823487D01*
X140790912Y-79851818D01*
X140827877Y-79869450D01*
X140867108Y-79848628D01*
X140874213Y-79842370D01*
X140925144Y-79808765D01*
X140964265Y-79804002D01*
X140978128Y-79826404D01*
X140958026Y-79869523D01*
X140910572Y-79914766D01*
X140855039Y-79946070D01*
X140827980Y-79951527D01*
X140773503Y-79934542D01*
X140727881Y-79901477D01*
X140685555Y-79827884D01*
X140674492Y-79736641D01*
X140693735Y-79647227D01*
X140742328Y-79579123D01*
X140743768Y-79577974D01*
X140812650Y-79535110D01*
X140868019Y-79533453D01*
X140924903Y-79573093D01*
G37*
G36*
X137195710Y-80106176D02*
G01*
X137241014Y-80117685D01*
X137249458Y-80126699D01*
X137227459Y-80143240D01*
X137173366Y-80151508D01*
X137161872Y-80151724D01*
X137101505Y-80157322D01*
X137077148Y-80179179D01*
X137074285Y-80201773D01*
X137083815Y-80235952D01*
X137121259Y-80249986D01*
X137163957Y-80251822D01*
X137227231Y-80258885D01*
X137243907Y-80280460D01*
X137243182Y-80283103D01*
X137212143Y-80303941D01*
X137153511Y-80306242D01*
X137098599Y-80305457D01*
X137077335Y-80326127D01*
X137074285Y-80362547D01*
X137079462Y-80404024D01*
X137104415Y-80422461D01*
X137163278Y-80426959D01*
X137174384Y-80426995D01*
X137237066Y-80432545D01*
X137271930Y-80446410D01*
X137274482Y-80452019D01*
X137251856Y-80465724D01*
X137193490Y-80474813D01*
X137136847Y-80477044D01*
X136999211Y-80477044D01*
X136999211Y-80289359D01*
X136999211Y-80101674D01*
X137124335Y-80101674D01*
X137195710Y-80106176D01*
G37*
G36*
X138397123Y-80908305D02*
G01*
X138434540Y-80961092D01*
X138475136Y-81063546D01*
X138476197Y-81066721D01*
X138503872Y-81162586D01*
X138513780Y-81226793D01*
X138506257Y-81254848D01*
X138481640Y-81242256D01*
X138464604Y-81221487D01*
X138422807Y-81190335D01*
X138368997Y-81178102D01*
X138321978Y-81185498D01*
X138300554Y-81213238D01*
X138300492Y-81215271D01*
X138280257Y-81247814D01*
X138260278Y-81252807D01*
X138231732Y-81237838D01*
X138232034Y-81221527D01*
X138245647Y-81181929D01*
X138268557Y-81111638D01*
X138287340Y-81052610D01*
X138350541Y-81052610D01*
X138365201Y-81093194D01*
X138385736Y-81102660D01*
X138410326Y-81084266D01*
X138407842Y-81052610D01*
X138388034Y-81012042D01*
X138372647Y-81002561D01*
X138354679Y-81023546D01*
X138350541Y-81052610D01*
X138287340Y-81052610D01*
X138289331Y-81046354D01*
X138325979Y-80951095D01*
X138361423Y-80905026D01*
X138397123Y-80908305D01*
G37*
G36*
X139639610Y-80105788D02*
G01*
X139689602Y-80116400D01*
X139701872Y-80126699D01*
X139679671Y-80142370D01*
X139624211Y-80151086D01*
X139601773Y-80151724D01*
X139536285Y-80155921D01*
X139507342Y-80172885D01*
X139501674Y-80201773D01*
X139511204Y-80235952D01*
X139548649Y-80249986D01*
X139591346Y-80251822D01*
X139654620Y-80258885D01*
X139671296Y-80280460D01*
X139670571Y-80283103D01*
X139639532Y-80303941D01*
X139580900Y-80306242D01*
X139525988Y-80305457D01*
X139504724Y-80326127D01*
X139501674Y-80362547D01*
X139506851Y-80404024D01*
X139531804Y-80422461D01*
X139590667Y-80426959D01*
X139601773Y-80426995D01*
X139664455Y-80432545D01*
X139699319Y-80446410D01*
X139701872Y-80452019D01*
X139679245Y-80465724D01*
X139620879Y-80474813D01*
X139564236Y-80477044D01*
X139426601Y-80477044D01*
X139426601Y-80289359D01*
X139426601Y-80101674D01*
X139564236Y-80101674D01*
X139639610Y-80105788D01*
G37*
G36*
X140386289Y-80090455D02*
G01*
X140453547Y-80129888D01*
X140496113Y-80198798D01*
X140513095Y-80282817D01*
X140503603Y-80367574D01*
X140466746Y-80438699D01*
X140410373Y-80478831D01*
X140350791Y-80497982D01*
X140308971Y-80494338D01*
X140260535Y-80463609D01*
X140242019Y-80449215D01*
X140199631Y-80408023D01*
X140182195Y-80360649D01*
X140182135Y-80287418D01*
X140252413Y-80287418D01*
X140266293Y-80369555D01*
X140301988Y-80415689D01*
X140350581Y-80421728D01*
X140403155Y-80383582D01*
X140418046Y-80363408D01*
X140445071Y-80305552D01*
X140437263Y-80251461D01*
X140431352Y-80237583D01*
X140385833Y-80175894D01*
X140333996Y-80157749D01*
X140287378Y-80179934D01*
X140257517Y-80239236D01*
X140252413Y-80287418D01*
X140182135Y-80287418D01*
X140182134Y-80285964D01*
X140182339Y-80282816D01*
X140206081Y-80182362D01*
X140257801Y-80114629D01*
X140331023Y-80085726D01*
X140386289Y-80090455D01*
G37*
G36*
X140565521Y-79555246D02*
G01*
X140615514Y-79565859D01*
X140627783Y-79576157D01*
X140605582Y-79591828D01*
X140550122Y-79600544D01*
X140527684Y-79601182D01*
X140462196Y-79605379D01*
X140433253Y-79622343D01*
X140427586Y-79651231D01*
X140437115Y-79685411D01*
X140474560Y-79699444D01*
X140517257Y-79701280D01*
X140580531Y-79708343D01*
X140597207Y-79729918D01*
X140596483Y-79732561D01*
X140565443Y-79753399D01*
X140506811Y-79755700D01*
X140451899Y-79754915D01*
X140430635Y-79775585D01*
X140427586Y-79812005D01*
X140432763Y-79853482D01*
X140457716Y-79871919D01*
X140516578Y-79876417D01*
X140527684Y-79876453D01*
X140590366Y-79882003D01*
X140625230Y-79895868D01*
X140627783Y-79901477D01*
X140605157Y-79915182D01*
X140546790Y-79924271D01*
X140490147Y-79926502D01*
X140352512Y-79926502D01*
X140352512Y-79738817D01*
X140352512Y-79551133D01*
X140490147Y-79551133D01*
X140565521Y-79555246D01*
G37*
G36*
X140746525Y-78520234D02*
G01*
X140813286Y-78579407D01*
X140848068Y-78675760D01*
X140853005Y-78742344D01*
X140843420Y-78830807D01*
X140809206Y-78894900D01*
X140791580Y-78914142D01*
X140711924Y-78963621D01*
X140619317Y-78977244D01*
X140531381Y-78954720D01*
X140483852Y-78919261D01*
X140424045Y-78821698D01*
X140414204Y-78732381D01*
X140557418Y-78732381D01*
X140561819Y-78803186D01*
X140579090Y-78839565D01*
X140619213Y-78871989D01*
X140660022Y-78861135D01*
X140688557Y-78836143D01*
X140723425Y-78769167D01*
X140718846Y-78689656D01*
X140691810Y-78636260D01*
X140655595Y-78603445D01*
X140615399Y-78612334D01*
X140610480Y-78615233D01*
X140574745Y-78661816D01*
X140557418Y-78732381D01*
X140414204Y-78732381D01*
X140411748Y-78710086D01*
X140427211Y-78638870D01*
X140466275Y-78560769D01*
X140526505Y-78517057D01*
X140619119Y-78500725D01*
X140649346Y-78500098D01*
X140746525Y-78520234D01*
G37*
G36*
X138759420Y-80905779D02*
G01*
X138796544Y-80944269D01*
X138800985Y-80965905D01*
X138794791Y-80997096D01*
X138768917Y-80995902D01*
X138726196Y-80971907D01*
X138677840Y-80954428D01*
X138649158Y-80969206D01*
X138643148Y-80992550D01*
X138679200Y-81015290D01*
X138709899Y-81026431D01*
X138786161Y-81068734D01*
X138817874Y-81128037D01*
X138802609Y-81199690D01*
X138801491Y-81201813D01*
X138755522Y-81241073D01*
X138687956Y-81252478D01*
X138619523Y-81234884D01*
X138590063Y-81213483D01*
X138558476Y-81172459D01*
X138550739Y-81150921D01*
X138567051Y-81129099D01*
X138605465Y-81137660D01*
X138640836Y-81164158D01*
X138684076Y-81185748D01*
X138728112Y-81181515D01*
X138750711Y-81154246D01*
X138750936Y-81150367D01*
X138730127Y-81127469D01*
X138678585Y-81098462D01*
X138663349Y-81091760D01*
X138598389Y-81047193D01*
X138572316Y-80991591D01*
X138586902Y-80937047D01*
X138635159Y-80899352D01*
X138699557Y-80888371D01*
X138759420Y-80905779D01*
G37*
G36*
X140746482Y-80901063D02*
G01*
X140767068Y-80913755D01*
X140810297Y-80950614D01*
X140810254Y-80979550D01*
X140805630Y-80984871D01*
X140771205Y-80998490D01*
X140747901Y-80982541D01*
X140705550Y-80956925D01*
X140667210Y-80956095D01*
X140652807Y-80977201D01*
X140673659Y-81001858D01*
X140725291Y-81031805D01*
X140740394Y-81038485D01*
X140803609Y-81075078D01*
X140827109Y-81120029D01*
X140827980Y-81133915D01*
X140808714Y-81206758D01*
X140752709Y-81246218D01*
X140702857Y-81252807D01*
X140641830Y-81241883D01*
X140607763Y-81222778D01*
X140583623Y-81183132D01*
X140578657Y-81144176D01*
X140594532Y-81127684D01*
X140624180Y-81142673D01*
X140655516Y-81167673D01*
X140699480Y-81192553D01*
X140726304Y-81191220D01*
X140751797Y-81156180D01*
X140731024Y-81115844D01*
X140671034Y-81077635D01*
X140605800Y-81031328D01*
X140580664Y-80977938D01*
X140597561Y-80927790D01*
X140637561Y-80899155D01*
X140693558Y-80883853D01*
X140746482Y-80901063D01*
G37*
G36*
X139406455Y-80906798D02*
G01*
X139447934Y-80923190D01*
X139463111Y-80966350D01*
X139464138Y-80994134D01*
X139469587Y-81055244D01*
X139482712Y-81091948D01*
X139482906Y-81092147D01*
X139500680Y-81140999D01*
X139475587Y-81198678D01*
X139462350Y-81213483D01*
X139399414Y-81248915D01*
X139334500Y-81242428D01*
X139306482Y-81222778D01*
X139280136Y-81185989D01*
X139276453Y-81172729D01*
X139293900Y-81154119D01*
X139329003Y-81157218D01*
X139355907Y-81179003D01*
X139357174Y-81182164D01*
X139378831Y-81198658D01*
X139407693Y-81183296D01*
X139425830Y-81147499D01*
X139426601Y-81137934D01*
X139406335Y-81097768D01*
X139387983Y-81086270D01*
X139363048Y-81070593D01*
X139374004Y-81044996D01*
X139389613Y-81026978D01*
X139410232Y-80983910D01*
X139394130Y-80959333D01*
X139354370Y-80966549D01*
X139340146Y-80976597D01*
X139303919Y-80990339D01*
X139291469Y-80981587D01*
X139293850Y-80948339D01*
X139329932Y-80919614D01*
X139383712Y-80905822D01*
X139406455Y-80906798D01*
G37*
G36*
X139732300Y-80906214D02*
G01*
X139774107Y-80915698D01*
X139780044Y-80921231D01*
X139789602Y-81009742D01*
X139791474Y-81100104D01*
X139786063Y-81175472D01*
X139773774Y-81219002D01*
X139772886Y-81220162D01*
X139731772Y-81241399D01*
X139664613Y-81252388D01*
X139648758Y-81252807D01*
X139551724Y-81252807D01*
X139551724Y-81140197D01*
X139601773Y-81140197D01*
X139617742Y-81170310D01*
X139665113Y-81173140D01*
X139712567Y-81158712D01*
X139728452Y-81140197D01*
X139706951Y-81118760D01*
X139665113Y-81107254D01*
X139615339Y-81111333D01*
X139601773Y-81140197D01*
X139551724Y-81140197D01*
X139551724Y-81077635D01*
X139551724Y-80990049D01*
X139601773Y-80990049D01*
X139623527Y-81020239D01*
X139664335Y-81027586D01*
X139714651Y-81014533D01*
X139726896Y-80990049D01*
X139705142Y-80959859D01*
X139664335Y-80952512D01*
X139614018Y-80965564D01*
X139601773Y-80990049D01*
X139551724Y-80990049D01*
X139551724Y-80902463D01*
X139664335Y-80902463D01*
X139732300Y-80906214D01*
G37*
G36*
X141556847Y-80118231D02*
G01*
X141597184Y-80168168D01*
X141641617Y-80267603D01*
X141643900Y-80273637D01*
X141674177Y-80357207D01*
X141695726Y-80422469D01*
X141703842Y-80455066D01*
X141687334Y-80475945D01*
X141652864Y-80471656D01*
X141623018Y-80446378D01*
X141619719Y-80439507D01*
X141585195Y-80411367D01*
X141529455Y-80401970D01*
X141469510Y-80412926D01*
X141453596Y-80439507D01*
X141433564Y-80472684D01*
X141416059Y-80477044D01*
X141383687Y-80460370D01*
X141380009Y-80445763D01*
X141388947Y-80407101D01*
X141410729Y-80337700D01*
X141425465Y-80295615D01*
X141504028Y-80295615D01*
X141524008Y-80322770D01*
X141543859Y-80326896D01*
X141572123Y-80311972D01*
X141568884Y-80287313D01*
X141555033Y-80235388D01*
X141553311Y-80218495D01*
X141544947Y-80208654D01*
X141527310Y-80229375D01*
X141510389Y-80265025D01*
X141504028Y-80295615D01*
X141425465Y-80295615D01*
X141436418Y-80264335D01*
X141478862Y-80166422D01*
X141518206Y-80117685D01*
X141556847Y-80118231D01*
G37*
G36*
X137560756Y-77852754D02*
G01*
X137586991Y-77870259D01*
X137605844Y-77913394D01*
X137625526Y-77993580D01*
X137626866Y-77999606D01*
X137646847Y-78078161D01*
X137665553Y-78132509D01*
X137677341Y-78149753D01*
X137691873Y-78127546D01*
X137712107Y-78069923D01*
X137729486Y-78005862D01*
X137751713Y-77924344D01*
X137773512Y-77879762D01*
X137803471Y-77859819D01*
X137835725Y-77853719D01*
X137886290Y-77854553D01*
X137895747Y-77875569D01*
X137894698Y-77878744D01*
X137881584Y-77916634D01*
X137857265Y-77988820D01*
X137826191Y-78082057D01*
X137814127Y-78118473D01*
X137780081Y-78218080D01*
X137754433Y-78279184D01*
X137730884Y-78311122D01*
X137703134Y-78323234D01*
X137674876Y-78324926D01*
X137639581Y-78321728D01*
X137613346Y-78305909D01*
X137589872Y-78268131D01*
X137562860Y-78199053D01*
X137535626Y-78118473D01*
X137503322Y-78021198D01*
X137476283Y-77940489D01*
X137458902Y-77889435D01*
X137455820Y-77880739D01*
X137467440Y-77856734D01*
X137518928Y-77849458D01*
X137560756Y-77852754D01*
G37*
G36*
X138015287Y-79610779D02*
G01*
X138059425Y-79702874D01*
X138076166Y-79745074D01*
X138110303Y-79836081D01*
X138126950Y-79890176D01*
X138127258Y-79916893D01*
X138112377Y-79925770D01*
X138098049Y-79926502D01*
X138058728Y-79910246D01*
X138050246Y-79888965D01*
X138028104Y-79859303D01*
X137974387Y-79851428D01*
X137913012Y-79863168D01*
X137884123Y-79888965D01*
X137858403Y-79916944D01*
X137823278Y-79927086D01*
X137801260Y-79914344D01*
X137800415Y-79907734D01*
X137808649Y-79876347D01*
X137829864Y-79811897D01*
X137856471Y-79736771D01*
X137934958Y-79736771D01*
X137937281Y-79770228D01*
X137959982Y-79776354D01*
X137994698Y-79760554D01*
X137999813Y-79745074D01*
X137991458Y-79709068D01*
X137973823Y-79674594D01*
X137956899Y-79657282D01*
X137950531Y-79667953D01*
X137941670Y-79716390D01*
X137934958Y-79736771D01*
X137856471Y-79736771D01*
X137859507Y-79728198D01*
X137860198Y-79726305D01*
X137902371Y-79625413D01*
X137940071Y-79572336D01*
X137976606Y-79567362D01*
X138015287Y-79610779D01*
G37*
G36*
X139059716Y-80905779D02*
G01*
X139096840Y-80944269D01*
X139101280Y-80965905D01*
X139085982Y-80998810D01*
X139054248Y-80994821D01*
X139038719Y-80977537D01*
X139007123Y-80957694D01*
X138962794Y-80953543D01*
X138930313Y-80965452D01*
X138926108Y-80975850D01*
X138946984Y-81000317D01*
X138982413Y-81016347D01*
X139051664Y-81049593D01*
X139104940Y-81096196D01*
X139126305Y-81142205D01*
X139126305Y-81142288D01*
X139104579Y-81194017D01*
X139052020Y-81235921D01*
X138988670Y-81252807D01*
X138924670Y-81236528D01*
X138890359Y-81213483D01*
X138858772Y-81172459D01*
X138851034Y-81150921D01*
X138867347Y-81129099D01*
X138905761Y-81137660D01*
X138941132Y-81164158D01*
X138984371Y-81185748D01*
X139028407Y-81181515D01*
X139051006Y-81154246D01*
X139051231Y-81150367D01*
X139030422Y-81127469D01*
X138978881Y-81098462D01*
X138963645Y-81091760D01*
X138898684Y-81047193D01*
X138872611Y-80991591D01*
X138887198Y-80937047D01*
X138935455Y-80899352D01*
X138999853Y-80888371D01*
X139059716Y-80905779D01*
G37*
G36*
X138563251Y-80097121D02*
G01*
X138607782Y-80130453D01*
X138625211Y-80168554D01*
X138611931Y-80196335D01*
X138588275Y-80201773D01*
X138554973Y-80188260D01*
X138550739Y-80176748D01*
X138531204Y-80156618D01*
X138489015Y-80152980D01*
X138448795Y-80165905D01*
X138438320Y-80176437D01*
X138449669Y-80199500D01*
X138496059Y-80229055D01*
X138524658Y-80241807D01*
X138605986Y-80289803D01*
X138645492Y-80347907D01*
X138640613Y-80408995D01*
X138601788Y-80456241D01*
X138523554Y-80497182D01*
X138450353Y-80488458D01*
X138400591Y-80452019D01*
X138359115Y-80395439D01*
X138357309Y-80359192D01*
X138387464Y-80351876D01*
X138441866Y-80382085D01*
X138453994Y-80392493D01*
X138502006Y-80416546D01*
X138548966Y-80414315D01*
X138574870Y-80387886D01*
X138575763Y-80379792D01*
X138555329Y-80355055D01*
X138504171Y-80321740D01*
X138481921Y-80310189D01*
X138410445Y-80259148D01*
X138376934Y-80200401D01*
X138383531Y-80143954D01*
X138432375Y-80099813D01*
X138436486Y-80097869D01*
X138506260Y-80081332D01*
X138563251Y-80097121D01*
G37*
G36*
X141294628Y-80907348D02*
G01*
X141388030Y-80924163D01*
X141439596Y-80957663D01*
X141446615Y-81004741D01*
X141418771Y-81049614D01*
X141388880Y-81090161D01*
X141393226Y-81124883D01*
X141413567Y-81156745D01*
X141448182Y-81216334D01*
X141446199Y-81246631D01*
X141421454Y-81252807D01*
X141388183Y-81233120D01*
X141349404Y-81184993D01*
X141344966Y-81177734D01*
X141309094Y-81127391D01*
X141279715Y-81103069D01*
X141277008Y-81102660D01*
X141260429Y-81124411D01*
X141253400Y-81176818D01*
X141253399Y-81177734D01*
X141242207Y-81237335D01*
X141215862Y-81252807D01*
X141195535Y-81242561D01*
X141183868Y-81205696D01*
X141178905Y-81133023D01*
X141178325Y-81076264D01*
X141178325Y-81002561D01*
X141253399Y-81002561D01*
X141269429Y-81044451D01*
X141312803Y-81048006D01*
X141350447Y-81030000D01*
X141371646Y-80998036D01*
X141353731Y-80967362D01*
X141305833Y-80952575D01*
X141301971Y-80952512D01*
X141261199Y-80970922D01*
X141253399Y-81002561D01*
X141178325Y-81002561D01*
X141178325Y-80899720D01*
X141294628Y-80907348D01*
G37*
G36*
X139944078Y-77850808D02*
G01*
X139996817Y-77856897D01*
X140020938Y-77870783D01*
X140027143Y-77895523D01*
X140027192Y-77899507D01*
X140019824Y-77930784D01*
X139989229Y-77945574D01*
X139922671Y-77949537D01*
X139914581Y-77949556D01*
X139840358Y-77954469D01*
X139806549Y-77971172D01*
X139801970Y-77987093D01*
X139818499Y-78013194D01*
X139873291Y-78023949D01*
X139902069Y-78024630D01*
X139967557Y-78028827D01*
X139996500Y-78045791D01*
X140002167Y-78074679D01*
X139993773Y-78107423D01*
X139959845Y-78121895D01*
X139902069Y-78124729D01*
X139832467Y-78130927D01*
X139803787Y-78151474D01*
X139801970Y-78162266D01*
X139816707Y-78187007D01*
X139866818Y-78198276D01*
X139914581Y-78199803D01*
X139984071Y-78202396D01*
X140016994Y-78215141D01*
X140026762Y-78245490D01*
X140027192Y-78262364D01*
X140024616Y-78295049D01*
X140009617Y-78313755D01*
X139971291Y-78322378D01*
X139898729Y-78324812D01*
X139852019Y-78324926D01*
X139676847Y-78324926D01*
X139676847Y-78087192D01*
X139676847Y-77849458D01*
X139852019Y-77849458D01*
X139944078Y-77850808D01*
G37*
G36*
X141795900Y-77850808D02*
G01*
X141848639Y-77856897D01*
X141872761Y-77870783D01*
X141878966Y-77895523D01*
X141879014Y-77899507D01*
X141871646Y-77930784D01*
X141841051Y-77945574D01*
X141774493Y-77949537D01*
X141766404Y-77949556D01*
X141692180Y-77954469D01*
X141658372Y-77971172D01*
X141653793Y-77987093D01*
X141670322Y-78013194D01*
X141725114Y-78023949D01*
X141753891Y-78024630D01*
X141819379Y-78028827D01*
X141848323Y-78045791D01*
X141853990Y-78074679D01*
X141845596Y-78107423D01*
X141811668Y-78121895D01*
X141753891Y-78124729D01*
X141684290Y-78130927D01*
X141655609Y-78151474D01*
X141653793Y-78162266D01*
X141668530Y-78187007D01*
X141718641Y-78198276D01*
X141766404Y-78199803D01*
X141835893Y-78202396D01*
X141868817Y-78215141D01*
X141878584Y-78245490D01*
X141879014Y-78262364D01*
X141876438Y-78295049D01*
X141861440Y-78313755D01*
X141823113Y-78322378D01*
X141750552Y-78324812D01*
X141703842Y-78324926D01*
X141528670Y-78324926D01*
X141528670Y-78087192D01*
X141528670Y-77849458D01*
X141703842Y-77849458D01*
X141795900Y-77850808D01*
G37*
G36*
X139078762Y-77851242D02*
G01*
X139131640Y-77859385D01*
X139161164Y-77878071D01*
X139179663Y-77909288D01*
X139193111Y-77981313D01*
X139181698Y-78014192D01*
X139171655Y-78068728D01*
X139192103Y-78113644D01*
X139214642Y-78179766D01*
X139203964Y-78230541D01*
X139172297Y-78278669D01*
X139115746Y-78308093D01*
X139025161Y-78322135D01*
X138944876Y-78324584D01*
X138826009Y-78324926D01*
X138826009Y-78175638D01*
X138950142Y-78175638D01*
X138968681Y-78209009D01*
X139010001Y-78221653D01*
X139052812Y-78201299D01*
X139071547Y-78168234D01*
X139064379Y-78134901D01*
X139018926Y-78124749D01*
X139015529Y-78124729D01*
X138964890Y-78139806D01*
X138950142Y-78175638D01*
X138826009Y-78175638D01*
X138826009Y-78087192D01*
X138826009Y-77987093D01*
X138951133Y-77987093D01*
X138968406Y-78018067D01*
X139007438Y-78020114D01*
X139051446Y-78004405D01*
X139063743Y-77987093D01*
X139042460Y-77964511D01*
X139007438Y-77954072D01*
X138961552Y-77960139D01*
X138951133Y-77987093D01*
X138826009Y-77987093D01*
X138826009Y-77849458D01*
X138989206Y-77849458D01*
X139078762Y-77851242D01*
G37*
G36*
X140133546Y-79556081D02*
G01*
X140210148Y-79562183D01*
X140250110Y-79574748D01*
X140266797Y-79602323D01*
X140272780Y-79645147D01*
X140267745Y-79714766D01*
X140243476Y-79740908D01*
X140223258Y-79756656D01*
X140228473Y-79787873D01*
X140257492Y-79841903D01*
X140291195Y-79904073D01*
X140295961Y-79933203D01*
X140271340Y-79937400D01*
X140252413Y-79933744D01*
X140215057Y-79907550D01*
X140175010Y-79855473D01*
X140172247Y-79850764D01*
X140127681Y-79793794D01*
X140087443Y-79775029D01*
X140060951Y-79794413D01*
X140057554Y-79851428D01*
X140057355Y-79909528D01*
X140035370Y-79926502D01*
X140017280Y-79912110D01*
X140006707Y-79864240D01*
X140002416Y-79775851D01*
X140002167Y-79737510D01*
X140002167Y-79657487D01*
X140056980Y-79657487D01*
X140062127Y-79688710D01*
X140101402Y-79700498D01*
X140127290Y-79701280D01*
X140182237Y-79695074D01*
X140198981Y-79671969D01*
X140197600Y-79657487D01*
X140167822Y-79621356D01*
X140127290Y-79613694D01*
X140073130Y-79629845D01*
X140056980Y-79657487D01*
X140002167Y-79657487D01*
X140002167Y-79548517D01*
X140133546Y-79556081D01*
G37*
G36*
X141295631Y-78501902D02*
G01*
X141313510Y-78513564D01*
X141323332Y-78544457D01*
X141327511Y-78603955D01*
X141328458Y-78701432D01*
X141328473Y-78737832D01*
X141327972Y-78847983D01*
X141324905Y-78917456D01*
X141316922Y-78955622D01*
X141301673Y-78971852D01*
X141276810Y-78975515D01*
X141268872Y-78975566D01*
X141220767Y-78960516D01*
X141169680Y-78910452D01*
X141131531Y-78856699D01*
X141053790Y-78737832D01*
X141053496Y-78856699D01*
X141051020Y-78928608D01*
X141039444Y-78963611D01*
X141011844Y-78974805D01*
X140990640Y-78975566D01*
X140961657Y-78973915D01*
X140943379Y-78962713D01*
X140933337Y-78932583D01*
X140929064Y-78874152D01*
X140928094Y-78778045D01*
X140928078Y-78737832D01*
X140928565Y-78627686D01*
X140931608Y-78558218D01*
X140939579Y-78520054D01*
X140954851Y-78503822D01*
X140979796Y-78500152D01*
X140988262Y-78500098D01*
X141034299Y-78513383D01*
X141080087Y-78558972D01*
X141119641Y-78618965D01*
X141190837Y-78737832D01*
X141198464Y-78618965D01*
X141205762Y-78546807D01*
X141220476Y-78511709D01*
X141250126Y-78500680D01*
X141267282Y-78500098D01*
X141295631Y-78501902D01*
G37*
G36*
X137366026Y-77851109D02*
G01*
X137384305Y-77862311D01*
X137394347Y-77892441D01*
X137398620Y-77950872D01*
X137399590Y-78046979D01*
X137399606Y-78087192D01*
X137399126Y-78197335D01*
X137396096Y-78266802D01*
X137388131Y-78304965D01*
X137372846Y-78321197D01*
X137347857Y-78324871D01*
X137339110Y-78324926D01*
X137296228Y-78313491D01*
X137253980Y-78273275D01*
X137203114Y-78195410D01*
X137202026Y-78193546D01*
X137125439Y-78062167D01*
X137124887Y-78193546D01*
X137122737Y-78270124D01*
X137113118Y-78309188D01*
X137090016Y-78323253D01*
X137061773Y-78324926D01*
X137032790Y-78323275D01*
X137014512Y-78312072D01*
X137004470Y-78281943D01*
X137000197Y-78223512D01*
X136999227Y-78127405D01*
X136999211Y-78087192D01*
X136999647Y-77977058D01*
X137002597Y-77907599D01*
X137010526Y-77869439D01*
X137025901Y-77853203D01*
X137051185Y-77849518D01*
X137061727Y-77849458D01*
X137108645Y-77861851D01*
X137154923Y-77904947D01*
X137198887Y-77968325D01*
X137273531Y-78087192D01*
X137274007Y-77968325D01*
X137276600Y-77896411D01*
X137288251Y-77861407D01*
X137315904Y-77850216D01*
X137337044Y-77849458D01*
X137366026Y-77851109D01*
G37*
G36*
X140923790Y-80112888D02*
G01*
X140977750Y-80145690D01*
X140987265Y-80198820D01*
X140972417Y-80237468D01*
X140958807Y-80280511D01*
X140974539Y-80296505D01*
X140998486Y-80327832D01*
X141000911Y-80386919D01*
X140987963Y-80437460D01*
X140962741Y-80462480D01*
X140905249Y-80474702D01*
X140837815Y-80477044D01*
X140702857Y-80477044D01*
X140702857Y-80370689D01*
X140782527Y-80370689D01*
X140785700Y-80412577D01*
X140820979Y-80426423D01*
X140839537Y-80426995D01*
X140893689Y-80413694D01*
X140919443Y-80388378D01*
X140926621Y-80349503D01*
X140901788Y-80329815D01*
X140851540Y-80321180D01*
X140802542Y-80327322D01*
X140782941Y-80367950D01*
X140782527Y-80370689D01*
X140702857Y-80370689D01*
X140702857Y-80289359D01*
X140702857Y-80201773D01*
X140777931Y-80201773D01*
X140787294Y-80239859D01*
X140824875Y-80249038D01*
X140846748Y-80247228D01*
X140899629Y-80228927D01*
X140915566Y-80201773D01*
X140893168Y-80170352D01*
X140846748Y-80156318D01*
X140796252Y-80157769D01*
X140778843Y-80184914D01*
X140777931Y-80201773D01*
X140702857Y-80201773D01*
X140702857Y-80101674D01*
X140826736Y-80101674D01*
X140923790Y-80112888D01*
G37*
G36*
X139195123Y-80106682D02*
G01*
X139276159Y-80112196D01*
X139319896Y-80122864D01*
X139339031Y-80146134D01*
X139346262Y-80189452D01*
X139346869Y-80195689D01*
X139341834Y-80265308D01*
X139317564Y-80291450D01*
X139297347Y-80307197D01*
X139302561Y-80338415D01*
X139331581Y-80392445D01*
X139365287Y-80454576D01*
X139370003Y-80483668D01*
X139345150Y-80487883D01*
X139325111Y-80484052D01*
X139286510Y-80457794D01*
X139245261Y-80405856D01*
X139242366Y-80401072D01*
X139197197Y-80344003D01*
X139158046Y-80326079D01*
X139133588Y-80347229D01*
X139131643Y-80401970D01*
X139133415Y-80455879D01*
X139112565Y-80475707D01*
X139096946Y-80477044D01*
X139073510Y-80471408D01*
X139059720Y-80447736D01*
X139053119Y-80395880D01*
X139051254Y-80305691D01*
X139051231Y-80288110D01*
X139051231Y-80208029D01*
X139131069Y-80208029D01*
X139136216Y-80239252D01*
X139175491Y-80251039D01*
X139201379Y-80251822D01*
X139256325Y-80245616D01*
X139273070Y-80222511D01*
X139271689Y-80208029D01*
X139241911Y-80171898D01*
X139201379Y-80164236D01*
X139147218Y-80180387D01*
X139131069Y-80208029D01*
X139051231Y-80208029D01*
X139051231Y-80099177D01*
X139195123Y-80106682D01*
G37*
G36*
X139555471Y-78504957D02*
G01*
X139592020Y-78512210D01*
X139619738Y-78531370D01*
X139645035Y-78571955D01*
X139674322Y-78643479D01*
X139703099Y-78724117D01*
X139735979Y-78820394D01*
X139761327Y-78898615D01*
X139775345Y-78946879D01*
X139776945Y-78955595D01*
X139757399Y-78973475D01*
X139713113Y-78974951D01*
X139665614Y-78962702D01*
X139636429Y-78939409D01*
X139635847Y-78938029D01*
X139602410Y-78910148D01*
X139551724Y-78900492D01*
X139495240Y-78912735D01*
X139467600Y-78938029D01*
X139434393Y-78966154D01*
X139387172Y-78975566D01*
X139339084Y-78966037D01*
X139332667Y-78944285D01*
X139345396Y-78907410D01*
X139369414Y-78836026D01*
X139387674Y-78781207D01*
X139511058Y-78781207D01*
X139531125Y-78798960D01*
X139551724Y-78800394D01*
X139586650Y-78792657D01*
X139591934Y-78759833D01*
X139586217Y-78731576D01*
X139571313Y-78678050D01*
X139560716Y-78652331D01*
X139544734Y-78651431D01*
X139527853Y-78691170D01*
X139517230Y-78731576D01*
X139511058Y-78781207D01*
X139387674Y-78781207D01*
X139400347Y-78743163D01*
X139412939Y-78705154D01*
X139446686Y-78605607D01*
X139471541Y-78544774D01*
X139493876Y-78513706D01*
X139520063Y-78503452D01*
X139555471Y-78504957D01*
G37*
G36*
X140833182Y-77854171D02*
G01*
X140834641Y-77854316D01*
X140872318Y-77861051D01*
X140900120Y-77878706D01*
X140924495Y-77916858D01*
X140951895Y-77985085D01*
X140982268Y-78073548D01*
X141013909Y-78170027D01*
X141038278Y-78248335D01*
X141051705Y-78296498D01*
X141053202Y-78305025D01*
X141033656Y-78322867D01*
X140989371Y-78324312D01*
X140941873Y-78312051D01*
X140912689Y-78288776D01*
X140912103Y-78287389D01*
X140878666Y-78259507D01*
X140827980Y-78249852D01*
X140771497Y-78262094D01*
X140743856Y-78287389D01*
X140710649Y-78315513D01*
X140663428Y-78324926D01*
X140615340Y-78315397D01*
X140608923Y-78293645D01*
X140621652Y-78256769D01*
X140645670Y-78185386D01*
X140669078Y-78115114D01*
X140791750Y-78115114D01*
X140798718Y-78137174D01*
X140829587Y-78144280D01*
X140853785Y-78126367D01*
X140854881Y-78117847D01*
X140853311Y-78079926D01*
X140853005Y-78049655D01*
X140843735Y-78008972D01*
X140830897Y-77999606D01*
X140811110Y-78020564D01*
X140796160Y-78067191D01*
X140791750Y-78115114D01*
X140669078Y-78115114D01*
X140676603Y-78092522D01*
X140689195Y-78054513D01*
X140722855Y-77955013D01*
X140747584Y-77894176D01*
X140769881Y-77863055D01*
X140796247Y-77852703D01*
X140833182Y-77854171D01*
G37*
G36*
X142202336Y-77854088D02*
G01*
X142271084Y-77866296D01*
X142299428Y-77879487D01*
X142324865Y-77933910D01*
X142325977Y-78003794D01*
X142303586Y-78062686D01*
X142293404Y-78073449D01*
X142273054Y-78099599D01*
X142279185Y-78134690D01*
X142305822Y-78182868D01*
X142345665Y-78259593D01*
X142350117Y-78304410D01*
X142318583Y-78321388D01*
X142285665Y-78320332D01*
X142226321Y-78297073D01*
X142176611Y-78236190D01*
X142166798Y-78218639D01*
X142125399Y-78150483D01*
X142098156Y-78129912D01*
X142083344Y-78157047D01*
X142079211Y-78224827D01*
X142075797Y-78289319D01*
X142059690Y-78317983D01*
X142022098Y-78324890D01*
X142016650Y-78324926D01*
X141987667Y-78323275D01*
X141969389Y-78312072D01*
X141959346Y-78281943D01*
X141955074Y-78223512D01*
X141954104Y-78127405D01*
X141954088Y-78087192D01*
X141954088Y-77982922D01*
X142079211Y-77982922D01*
X142089689Y-78024804D01*
X142095014Y-78032091D01*
X142125898Y-78035951D01*
X142165163Y-78017379D01*
X142191189Y-77989606D01*
X142191046Y-77973325D01*
X142157483Y-77952402D01*
X142112978Y-77952536D01*
X142082190Y-77971612D01*
X142079211Y-77982922D01*
X141954088Y-77982922D01*
X141954088Y-77849458D01*
X142111743Y-77849458D01*
X142202336Y-77854088D01*
G37*
G36*
X138416011Y-77853600D02*
G01*
X138480588Y-77891451D01*
X138520059Y-77937633D01*
X138513428Y-77964682D01*
X138460020Y-77974476D01*
X138450640Y-77974581D01*
X138397937Y-77966804D01*
X138375572Y-77948065D01*
X138375566Y-77947721D01*
X138356120Y-77928527D01*
X138336707Y-77928953D01*
X138303094Y-77947063D01*
X138314250Y-77974701D01*
X138366864Y-78007497D01*
X138409656Y-78025194D01*
X138475662Y-78054186D01*
X138507553Y-78087649D01*
X138519737Y-78142303D01*
X138520827Y-78154195D01*
X138518152Y-78225217D01*
X138489526Y-78270816D01*
X138471465Y-78285011D01*
X138387928Y-78319114D01*
X138296319Y-78320243D01*
X138217350Y-78289172D01*
X138200394Y-78274876D01*
X138157897Y-78216721D01*
X138155601Y-78172888D01*
X138192911Y-78150944D01*
X138210229Y-78149753D01*
X138262126Y-78163731D01*
X138284517Y-78187290D01*
X138314137Y-78216233D01*
X138357714Y-78223703D01*
X138392857Y-78209325D01*
X138400591Y-78189231D01*
X138379107Y-78158953D01*
X138326046Y-78129476D01*
X138312118Y-78124436D01*
X138241149Y-78088253D01*
X138187239Y-78039393D01*
X138184117Y-78034909D01*
X138158860Y-77986999D01*
X138164330Y-77947876D01*
X138185580Y-77912019D01*
X138246195Y-77860745D01*
X138328944Y-77840858D01*
X138416011Y-77853600D01*
G37*
G36*
X141343893Y-77853600D02*
G01*
X141408470Y-77891451D01*
X141447941Y-77937633D01*
X141441310Y-77964682D01*
X141387901Y-77974476D01*
X141378522Y-77974581D01*
X141325818Y-77966804D01*
X141303454Y-77948065D01*
X141303448Y-77947721D01*
X141284002Y-77928527D01*
X141264589Y-77928953D01*
X141230976Y-77947063D01*
X141242132Y-77974701D01*
X141294746Y-78007497D01*
X141337538Y-78025194D01*
X141403544Y-78054186D01*
X141435434Y-78087649D01*
X141447619Y-78142303D01*
X141448708Y-78154195D01*
X141446033Y-78225217D01*
X141417407Y-78270816D01*
X141399347Y-78285011D01*
X141315810Y-78319114D01*
X141224201Y-78320243D01*
X141145232Y-78289172D01*
X141128275Y-78274876D01*
X141085779Y-78216721D01*
X141083483Y-78172888D01*
X141120793Y-78150944D01*
X141138110Y-78149753D01*
X141190007Y-78163731D01*
X141212399Y-78187290D01*
X141242019Y-78216233D01*
X141285595Y-78223703D01*
X141320739Y-78209325D01*
X141328473Y-78189231D01*
X141306989Y-78158953D01*
X141253927Y-78129476D01*
X141240000Y-78124436D01*
X141169031Y-78088253D01*
X141115121Y-78039393D01*
X141111999Y-78034909D01*
X141086741Y-77986999D01*
X141092212Y-77947876D01*
X141113462Y-77912019D01*
X141174076Y-77860745D01*
X141256826Y-77840858D01*
X141343893Y-77853600D01*
G37*
G36*
X142074256Y-80104199D02*
G01*
X142092457Y-80118795D01*
X142101236Y-80156000D01*
X142104019Y-80226348D01*
X142104236Y-80289359D01*
X142102270Y-80388358D01*
X142095164Y-80446469D01*
X142081109Y-80472744D01*
X142066699Y-80477044D01*
X142041841Y-80461769D01*
X142028936Y-80410382D01*
X142025716Y-80358177D01*
X142022270Y-80239310D01*
X141996498Y-80358177D01*
X141973353Y-80436711D01*
X141945393Y-80472679D01*
X141927577Y-80477044D01*
X141895719Y-80460554D01*
X141871267Y-80405920D01*
X141859655Y-80358177D01*
X141834882Y-80239310D01*
X141831923Y-80358177D01*
X141825237Y-80435368D01*
X141808260Y-80471523D01*
X141791428Y-80477044D01*
X141771628Y-80467212D01*
X141760006Y-80431684D01*
X141754751Y-80361407D01*
X141753891Y-80289359D01*
X141754712Y-80193875D01*
X141759458Y-80137901D01*
X141771556Y-80110902D01*
X141794431Y-80102343D01*
X141814919Y-80101674D01*
X141853882Y-80108198D01*
X141876085Y-80136458D01*
X141890545Y-80199486D01*
X141892835Y-80214285D01*
X141906708Y-80281303D01*
X141922434Y-80321621D01*
X141929064Y-80326896D01*
X141943913Y-80304634D01*
X141959289Y-80248280D01*
X141965293Y-80214285D01*
X141979339Y-80144196D01*
X141999625Y-80111047D01*
X142035168Y-80101805D01*
X142043208Y-80101674D01*
X142074256Y-80104199D01*
G37*
G36*
X140041400Y-80924833D02*
G01*
X140051179Y-80993314D01*
X140052216Y-81040098D01*
X140053515Y-81118787D01*
X140061800Y-81159745D01*
X140083659Y-81175288D01*
X140125677Y-81177734D01*
X140125813Y-81177734D01*
X140184765Y-81187053D01*
X140217952Y-81207735D01*
X140234762Y-81202656D01*
X140260470Y-81155553D01*
X140290364Y-81076356D01*
X140295530Y-81063076D01*
X140362347Y-81063076D01*
X140364670Y-81096533D01*
X140387372Y-81102660D01*
X140422183Y-81093100D01*
X140427203Y-81083891D01*
X140417845Y-81055324D01*
X140398681Y-81022062D01*
X140381852Y-81003108D01*
X140377920Y-81006771D01*
X140369563Y-81042397D01*
X140362347Y-81063076D01*
X140295530Y-81063076D01*
X140330629Y-80972850D01*
X140367279Y-80918513D01*
X140402548Y-80912810D01*
X140438671Y-80955202D01*
X140473162Y-81032453D01*
X140504196Y-81114157D01*
X140530075Y-81181672D01*
X140540719Y-81209014D01*
X140542586Y-81245508D01*
X140520527Y-81252807D01*
X140479480Y-81232575D01*
X140468586Y-81215271D01*
X140435459Y-81186931D01*
X140381760Y-81178754D01*
X140331970Y-81191250D01*
X140312755Y-81212032D01*
X140279025Y-81235218D01*
X140198732Y-81247613D01*
X140150880Y-81249692D01*
X140071922Y-81250497D01*
X140017623Y-81249182D01*
X140001205Y-81246674D01*
X139999999Y-81220418D01*
X139997759Y-81157677D01*
X139994969Y-81071996D01*
X139994949Y-81071364D01*
X139995022Y-80973369D01*
X140003472Y-80919013D01*
X140020936Y-80902447D01*
X140041400Y-80924833D01*
G37*
G36*
X138023222Y-78504728D02*
G01*
X138091971Y-78516936D01*
X138120315Y-78530128D01*
X138145880Y-78584926D01*
X138146656Y-78655126D01*
X138123564Y-78714240D01*
X138113548Y-78724705D01*
X138093842Y-78749404D01*
X138095993Y-78783715D01*
X138121872Y-78842682D01*
X138130261Y-78859148D01*
X138183769Y-78963054D01*
X138259396Y-78733149D01*
X138377983Y-78733149D01*
X138383459Y-78780327D01*
X138414992Y-78800382D01*
X138416022Y-78800394D01*
X138444281Y-78787155D01*
X138441388Y-78744088D01*
X138429041Y-78689076D01*
X138425574Y-78662758D01*
X138414640Y-78658294D01*
X138400591Y-78675271D01*
X138377983Y-78733149D01*
X138259396Y-78733149D01*
X138259913Y-78731576D01*
X138295611Y-78625231D01*
X138321912Y-78557740D01*
X138344649Y-78520280D01*
X138369654Y-78504028D01*
X138402757Y-78500163D01*
X138412917Y-78500098D01*
X138448532Y-78502186D01*
X138474838Y-78514251D01*
X138497516Y-78544995D01*
X138522245Y-78603120D01*
X138554705Y-78697329D01*
X138568086Y-78737832D01*
X138646394Y-78975566D01*
X138573542Y-78975566D01*
X138515578Y-78964089D01*
X138500689Y-78938029D01*
X138481696Y-78910266D01*
X138421080Y-78900560D01*
X138413103Y-78900492D01*
X138348323Y-78908632D01*
X138325675Y-78934610D01*
X138325517Y-78938029D01*
X138313801Y-78960019D01*
X138272364Y-78971715D01*
X138191767Y-78975524D01*
X138178405Y-78975566D01*
X138095120Y-78973813D01*
X138047269Y-78964493D01*
X138020258Y-78941515D01*
X138000540Y-78901322D01*
X137967960Y-78839412D01*
X137934943Y-78798159D01*
X137912855Y-78787895D01*
X137902544Y-78811251D01*
X137900098Y-78872403D01*
X137896916Y-78938142D01*
X137881748Y-78967863D01*
X137846162Y-78975471D01*
X137837537Y-78975566D01*
X137808554Y-78973915D01*
X137790275Y-78962713D01*
X137780233Y-78932583D01*
X137775961Y-78874152D01*
X137774991Y-78778045D01*
X137774975Y-78737832D01*
X137774975Y-78650246D01*
X137900098Y-78650246D01*
X137916388Y-78691321D01*
X137954578Y-78697006D01*
X137996915Y-78666712D01*
X138011820Y-78626981D01*
X137981786Y-78603984D01*
X137945977Y-78600197D01*
X137907295Y-78619762D01*
X137900098Y-78650246D01*
X137774975Y-78650246D01*
X137774975Y-78500098D01*
X137932630Y-78500098D01*
X138023222Y-78504728D01*
G37*
G36*
X142454581Y-76347980D02*
G01*
X142454581Y-77449064D01*
X137800000Y-77449064D01*
X133145418Y-77449064D01*
X133145418Y-76364429D01*
X133526318Y-76364429D01*
X133539503Y-76435172D01*
X133575756Y-76522270D01*
X133581715Y-76534564D01*
X133660672Y-76650828D01*
X133779284Y-76756880D01*
X133938377Y-76852871D01*
X134138776Y-76938949D01*
X134381305Y-77015264D01*
X134666791Y-77081966D01*
X134996059Y-77139205D01*
X135369934Y-77187129D01*
X135789241Y-77225888D01*
X136254807Y-77255633D01*
X136767456Y-77276512D01*
X137328014Y-77288675D01*
X137762463Y-77292122D01*
X137980015Y-77291679D01*
X138219447Y-77289419D01*
X138464180Y-77285616D01*
X138697638Y-77280545D01*
X138903243Y-77274480D01*
X138963645Y-77272249D01*
X139316740Y-77256531D01*
X139629196Y-77238524D01*
X139910402Y-77217478D01*
X140169744Y-77192645D01*
X140416609Y-77163275D01*
X140540197Y-77146384D01*
X140886426Y-77089427D01*
X141184847Y-77023712D01*
X141437040Y-76948585D01*
X141644586Y-76863393D01*
X141809063Y-76767481D01*
X141932054Y-76660195D01*
X142015138Y-76540881D01*
X142018285Y-76534564D01*
X142066406Y-76389915D01*
X142065648Y-76253612D01*
X142016550Y-76126085D01*
X141919652Y-76007766D01*
X141775495Y-75899086D01*
X141584618Y-75800476D01*
X141347562Y-75712366D01*
X141064866Y-75635189D01*
X140830329Y-75586064D01*
X140638700Y-75554517D01*
X140403939Y-75523095D01*
X140132962Y-75492590D01*
X139832680Y-75463792D01*
X139576748Y-75442573D01*
X139441787Y-75434539D01*
X139263421Y-75427644D01*
X139048281Y-75421889D01*
X138802997Y-75417274D01*
X138534202Y-75413801D01*
X138248525Y-75411470D01*
X137952599Y-75410282D01*
X137653054Y-75410238D01*
X137356521Y-75411339D01*
X137069632Y-75413586D01*
X136799016Y-75416979D01*
X136551307Y-75421520D01*
X136333134Y-75427208D01*
X136151129Y-75434046D01*
X136011922Y-75442034D01*
X136010739Y-75442122D01*
X135560866Y-75481150D01*
X135159337Y-75527809D01*
X134804971Y-75582499D01*
X134496589Y-75645625D01*
X134233009Y-75717588D01*
X134013051Y-75798791D01*
X133835535Y-75889637D01*
X133699278Y-75990529D01*
X133603102Y-76101869D01*
X133545826Y-76224059D01*
X133531660Y-76287633D01*
X133526318Y-76364429D01*
X133145418Y-76364429D01*
X133145418Y-76347980D01*
X133145418Y-75246896D01*
X137800000Y-75246896D01*
X142454581Y-75246896D01*
X142454581Y-76347980D01*
G37*
G36*
X142632309Y-74953356D02*
G01*
X142656922Y-74968535D01*
X142679089Y-74981202D01*
X142698936Y-74993914D01*
X142716592Y-75009228D01*
X142732182Y-75029703D01*
X142745836Y-75057894D01*
X142757680Y-75096362D01*
X142767842Y-75147662D01*
X142776450Y-75214353D01*
X142783631Y-75298993D01*
X142789512Y-75404138D01*
X142794221Y-75532347D01*
X142797886Y-75686178D01*
X142800634Y-75868187D01*
X142802593Y-76080933D01*
X142803889Y-76326973D01*
X142804652Y-76608865D01*
X142805007Y-76929167D01*
X142805083Y-77290436D01*
X142805007Y-77695229D01*
X142804906Y-78146106D01*
X142804887Y-78415067D01*
X142804926Y-81645800D01*
X142748121Y-81730831D01*
X142687175Y-81799430D01*
X142613182Y-81854838D01*
X142604230Y-81859616D01*
X142591679Y-81864913D01*
X142574599Y-81869765D01*
X142550860Y-81874193D01*
X142518332Y-81878216D01*
X142474884Y-81881853D01*
X142418386Y-81885124D01*
X142346707Y-81888047D01*
X142257718Y-81890643D01*
X142149288Y-81892930D01*
X142019286Y-81894928D01*
X141865582Y-81896657D01*
X141686046Y-81898135D01*
X141478547Y-81899382D01*
X141240956Y-81900417D01*
X140971141Y-81901260D01*
X140666973Y-81901931D01*
X140326320Y-81902447D01*
X139947053Y-81902830D01*
X139527042Y-81903097D01*
X139064156Y-81903270D01*
X138556264Y-81903366D01*
X138001236Y-81903405D01*
X137784932Y-81903409D01*
X133052721Y-81903448D01*
X132967690Y-81846644D01*
X132943077Y-81831464D01*
X132920910Y-81818797D01*
X132901063Y-81806085D01*
X132883408Y-81790771D01*
X132867817Y-81770297D01*
X132854163Y-81742105D01*
X132842319Y-81703637D01*
X132832157Y-81652337D01*
X132823549Y-81585646D01*
X132816368Y-81501006D01*
X132810487Y-81395861D01*
X132805778Y-81267652D01*
X132802113Y-81113821D01*
X132799365Y-80931812D01*
X132797406Y-80719066D01*
X132796110Y-80473026D01*
X132795348Y-80191134D01*
X132794993Y-79870832D01*
X132794918Y-79509563D01*
X132794994Y-79104770D01*
X132795093Y-78653894D01*
X132795112Y-78384932D01*
X132795100Y-77397520D01*
X132845017Y-77397520D01*
X132845062Y-77815482D01*
X132845119Y-78280336D01*
X132845123Y-78400000D01*
X132845175Y-78873670D01*
X132845352Y-79299813D01*
X132845683Y-79680950D01*
X132846195Y-80019601D01*
X132846919Y-80318288D01*
X132847883Y-80579532D01*
X132849115Y-80805855D01*
X132850646Y-80999778D01*
X132852503Y-81163821D01*
X132854715Y-81300508D01*
X132857312Y-81412357D01*
X132860322Y-81501892D01*
X132863775Y-81571634D01*
X132867698Y-81624102D01*
X132872122Y-81661820D01*
X132877074Y-81687308D01*
X132882584Y-81703087D01*
X132882974Y-81703859D01*
X132890829Y-81721522D01*
X132896745Y-81737722D01*
X132902816Y-81752523D01*
X132911136Y-81765988D01*
X132923800Y-81778181D01*
X132942902Y-81789164D01*
X132970536Y-81799001D01*
X133008797Y-81807756D01*
X133059778Y-81815492D01*
X133125575Y-81822271D01*
X133208281Y-81828159D01*
X133309990Y-81833216D01*
X133432798Y-81837508D01*
X133578798Y-81841098D01*
X133750084Y-81844048D01*
X133948752Y-81846422D01*
X134176894Y-81848284D01*
X134436606Y-81849696D01*
X134729982Y-81850722D01*
X135059115Y-81851426D01*
X135426102Y-81851871D01*
X135833034Y-81852119D01*
X136282008Y-81852235D01*
X136775117Y-81852282D01*
X137314455Y-81852323D01*
X137794986Y-81852397D01*
X138372589Y-81852486D01*
X138902216Y-81852487D01*
X139385940Y-81852386D01*
X139825834Y-81852165D01*
X140223971Y-81851808D01*
X140582424Y-81851301D01*
X140903266Y-81850627D01*
X141188571Y-81849770D01*
X141440411Y-81848713D01*
X141660859Y-81847442D01*
X141851989Y-81845941D01*
X142015873Y-81844192D01*
X142154584Y-81842181D01*
X142270197Y-81839892D01*
X142364783Y-81837308D01*
X142440416Y-81834414D01*
X142499168Y-81831193D01*
X142543114Y-81827630D01*
X142574326Y-81823709D01*
X142594876Y-81819414D01*
X142605548Y-81815438D01*
X142626867Y-81805398D01*
X142646062Y-81796768D01*
X142663243Y-81787008D01*
X142678521Y-81773574D01*
X142692008Y-81753924D01*
X142703815Y-81725516D01*
X142714053Y-81685807D01*
X142722833Y-81632256D01*
X142730266Y-81562320D01*
X142736464Y-81473456D01*
X142741537Y-81363123D01*
X142745597Y-81228778D01*
X142748755Y-81067879D01*
X142751122Y-80877883D01*
X142752809Y-80656249D01*
X142753927Y-80400434D01*
X142754588Y-80107895D01*
X142754903Y-79776091D01*
X142754982Y-79402479D01*
X142754937Y-78984517D01*
X142754880Y-78519663D01*
X142754876Y-78400000D01*
X142754920Y-77923431D01*
X142754978Y-77494369D01*
X142754939Y-77110272D01*
X142754692Y-76768597D01*
X142754125Y-76466802D01*
X142753127Y-76202345D01*
X142751588Y-75972683D01*
X142749395Y-75775274D01*
X142746439Y-75607577D01*
X142742607Y-75467047D01*
X142737789Y-75351144D01*
X142731873Y-75257325D01*
X142724749Y-75183047D01*
X142716304Y-75125769D01*
X142706429Y-75082948D01*
X142695011Y-75052042D01*
X142681941Y-75030508D01*
X142667105Y-75015805D01*
X142650394Y-75005390D01*
X142631696Y-74996720D01*
X142610901Y-74987253D01*
X142605548Y-74984561D01*
X142570986Y-74979526D01*
X142489378Y-74974802D01*
X142363724Y-74970390D01*
X142197027Y-74966289D01*
X141992288Y-74962499D01*
X141752509Y-74959020D01*
X141480691Y-74955853D01*
X141179835Y-74952997D01*
X140852944Y-74950453D01*
X140503019Y-74948219D01*
X140133061Y-74946297D01*
X139746072Y-74944687D01*
X139345054Y-74943387D01*
X138933008Y-74942399D01*
X138512936Y-74941722D01*
X138087839Y-74941357D01*
X137660719Y-74941303D01*
X137234578Y-74941560D01*
X136812417Y-74942128D01*
X136397237Y-74943008D01*
X135992041Y-74944199D01*
X135599830Y-74945701D01*
X135223605Y-74947515D01*
X134866368Y-74949640D01*
X134531120Y-74952076D01*
X134220864Y-74954824D01*
X133938600Y-74957883D01*
X133687331Y-74961253D01*
X133470057Y-74964935D01*
X133289781Y-74968927D01*
X133149504Y-74973231D01*
X133052228Y-74977847D01*
X133000954Y-74982774D01*
X132994451Y-74984561D01*
X132973132Y-74994601D01*
X132953937Y-75003231D01*
X132936757Y-75012991D01*
X132921478Y-75026425D01*
X132907991Y-75046075D01*
X132896184Y-75074484D01*
X132885946Y-75114192D01*
X132877166Y-75167743D01*
X132869733Y-75237680D01*
X132863535Y-75326543D01*
X132858462Y-75436876D01*
X132854402Y-75571221D01*
X132851244Y-75732120D01*
X132848877Y-75922116D01*
X132847190Y-76143750D01*
X132846072Y-76399565D01*
X132845411Y-76692104D01*
X132845096Y-77023908D01*
X132845017Y-77397520D01*
X132795100Y-77397520D01*
X132795074Y-75154199D01*
X132851878Y-75069168D01*
X132912824Y-75000570D01*
X132986817Y-74945161D01*
X132995769Y-74940383D01*
X133008321Y-74935087D01*
X133025400Y-74930234D01*
X133049139Y-74925806D01*
X133081667Y-74921783D01*
X133125115Y-74918146D01*
X133181614Y-74914875D01*
X133253292Y-74911952D01*
X133342281Y-74909356D01*
X133450712Y-74907069D01*
X133580714Y-74905071D01*
X133734417Y-74903343D01*
X133913953Y-74901865D01*
X134121452Y-74900617D01*
X134359043Y-74899582D01*
X134628858Y-74898739D01*
X134933027Y-74898069D01*
X135273679Y-74897552D01*
X135652946Y-74897169D01*
X136072957Y-74896902D01*
X136535844Y-74896730D01*
X137043736Y-74896634D01*
X137598763Y-74896594D01*
X137815067Y-74896590D01*
X142547278Y-74896551D01*
X142632309Y-74953356D01*
G37*
G36*
X138621421Y-75514666D02*
G01*
X139145151Y-75531768D01*
X139626476Y-75558483D01*
X140064671Y-75594704D01*
X140459010Y-75640326D01*
X140808766Y-75695242D01*
X141113213Y-75759347D01*
X141371624Y-75832535D01*
X141583274Y-75914700D01*
X141747435Y-76005737D01*
X141863383Y-76105539D01*
X141903051Y-76158697D01*
X141944376Y-76265998D01*
X141954088Y-76357749D01*
X141929473Y-76477004D01*
X141855689Y-76587366D01*
X141732827Y-76688793D01*
X141560977Y-76781241D01*
X141340233Y-76864668D01*
X141070684Y-76939031D01*
X140752422Y-77004289D01*
X140477635Y-77047822D01*
X140314720Y-77069772D01*
X140155538Y-77088636D01*
X139994695Y-77104661D01*
X139826797Y-77118093D01*
X139646449Y-77129176D01*
X139448257Y-77138156D01*
X139226827Y-77145280D01*
X138976766Y-77150793D01*
X138692678Y-77154939D01*
X138369170Y-77157966D01*
X138012709Y-77160064D01*
X137741830Y-77161155D01*
X137481308Y-77161885D01*
X137236278Y-77162259D01*
X137011874Y-77162286D01*
X136813234Y-77161972D01*
X136645490Y-77161323D01*
X136513779Y-77160347D01*
X136423236Y-77159050D01*
X136386108Y-77157906D01*
X135900181Y-77127215D01*
X135460546Y-77086911D01*
X135067587Y-77037077D01*
X134721687Y-76977799D01*
X134423230Y-76909160D01*
X134172600Y-76831244D01*
X133970181Y-76744136D01*
X133816356Y-76647920D01*
X133739753Y-76577382D01*
X133683305Y-76508059D01*
X133655246Y-76449289D01*
X133646272Y-76378696D01*
X133645911Y-76351662D01*
X133665590Y-76230536D01*
X133725979Y-76121766D01*
X133829103Y-76023653D01*
X133976987Y-75934501D01*
X134171657Y-75852610D01*
X134287504Y-75813752D01*
X134301263Y-75809950D01*
X134744791Y-75809950D01*
X134745360Y-76341724D01*
X134745553Y-76499725D01*
X134745769Y-76640231D01*
X134745993Y-76755746D01*
X134746209Y-76838771D01*
X134746404Y-76881810D01*
X134746462Y-76886009D01*
X134769924Y-76894904D01*
X134831639Y-76899656D01*
X134920019Y-76900676D01*
X135023475Y-76898374D01*
X135130418Y-76893164D01*
X135229261Y-76885454D01*
X135265574Y-76880960D01*
X135672906Y-76880960D01*
X135695623Y-76890236D01*
X135754836Y-76894602D01*
X135827814Y-76893460D01*
X135913006Y-76888063D01*
X135961406Y-76877811D01*
X135986238Y-76856029D01*
X136000728Y-76816042D01*
X136003702Y-76804679D01*
X136017023Y-76760715D01*
X136036862Y-76736389D01*
X136076151Y-76725888D01*
X136147824Y-76723402D01*
X136184686Y-76723349D01*
X136344690Y-76723349D01*
X136373596Y-76810936D01*
X136402502Y-76898522D01*
X136565306Y-76898522D01*
X136849064Y-76898522D01*
X137000726Y-76898522D01*
X137152389Y-76898522D01*
X137144618Y-76610139D01*
X137141413Y-76492778D01*
X137141516Y-76413185D01*
X137148516Y-76372164D01*
X137165996Y-76370516D01*
X137197545Y-76409043D01*
X137246749Y-76488548D01*
X137317194Y-76609835D01*
X137343031Y-76654532D01*
X137484266Y-76898522D01*
X137629621Y-76898522D01*
X137774975Y-76898522D01*
X137774975Y-76347980D01*
X137774975Y-76298096D01*
X137927257Y-76298096D01*
X137928985Y-76430575D01*
X137944716Y-76551317D01*
X137952116Y-76581821D01*
X138006154Y-76695431D01*
X138095003Y-76797742D01*
X138203651Y-76872699D01*
X138237931Y-76887478D01*
X138373961Y-76914385D01*
X138526576Y-76906484D01*
X138678457Y-76865785D01*
X138761604Y-76826698D01*
X138888571Y-76755030D01*
X138895713Y-76500505D01*
X138902855Y-76245980D01*
X138670491Y-76253187D01*
X138438128Y-76260394D01*
X138430500Y-76379261D01*
X138422873Y-76498128D01*
X138524343Y-76498128D01*
X138590211Y-76502099D01*
X138619602Y-76518479D01*
X138625812Y-76549454D01*
X138604222Y-76597242D01*
X138536756Y-76637989D01*
X138535897Y-76638349D01*
X138432511Y-76661707D01*
X138347462Y-76640758D01*
X138283703Y-76578822D01*
X138244183Y-76479217D01*
X138231855Y-76345264D01*
X138233910Y-76298741D01*
X138243923Y-76203962D01*
X138260972Y-76142987D01*
X138290840Y-76099585D01*
X138311955Y-76079776D01*
X138392666Y-76034381D01*
X138472859Y-76029037D01*
X138540193Y-76061683D01*
X138580570Y-76124665D01*
X138608052Y-76137118D01*
X138666611Y-76138664D01*
X138738890Y-76131007D01*
X138807531Y-76115849D01*
X138850281Y-76098199D01*
X138873356Y-76059397D01*
X138862647Y-76002118D01*
X138825491Y-75936416D01*
X138769224Y-75872346D01*
X138701183Y-75819963D01*
X138677500Y-75809950D01*
X139099103Y-75809950D01*
X139099659Y-76341724D01*
X139099848Y-76499725D01*
X139100060Y-76640231D01*
X139100281Y-76755746D01*
X139100496Y-76838771D01*
X139100689Y-76881810D01*
X139100748Y-76886009D01*
X139124565Y-76890228D01*
X139190053Y-76893840D01*
X139288836Y-76896584D01*
X139412537Y-76898200D01*
X139502982Y-76898522D01*
X139904684Y-76898522D01*
X140077241Y-76898522D01*
X140227389Y-76898522D01*
X140377537Y-76898522D01*
X140377537Y-76673300D01*
X140379391Y-76560456D01*
X140385683Y-76490257D01*
X140397500Y-76455410D01*
X140411195Y-76448078D01*
X140449872Y-76461969D01*
X140491872Y-76507248D01*
X140541051Y-76589329D01*
X140601264Y-76713625D01*
X140602841Y-76717093D01*
X140685241Y-76898522D01*
X140856709Y-76898522D01*
X140942035Y-76897163D01*
X141003442Y-76893593D01*
X141028134Y-76888571D01*
X141028177Y-76888342D01*
X141016541Y-76848112D01*
X140986303Y-76778488D01*
X140944471Y-76693077D01*
X140898048Y-76605487D01*
X140854042Y-76529325D01*
X140819458Y-76478200D01*
X140813463Y-76471299D01*
X140752072Y-76406933D01*
X140812714Y-76374478D01*
X140887444Y-76308366D01*
X140933996Y-76213885D01*
X140950823Y-76105040D01*
X140936379Y-75995838D01*
X140889119Y-75900285D01*
X140867761Y-75875823D01*
X140840110Y-75850053D01*
X140811204Y-75831836D01*
X140772017Y-75819610D01*
X140713521Y-75811817D01*
X140626688Y-75806896D01*
X140502492Y-75803289D01*
X140439600Y-75801848D01*
X140077241Y-75793746D01*
X140077241Y-76346134D01*
X140077241Y-76898522D01*
X139904684Y-76898522D01*
X139897120Y-76769836D01*
X139889556Y-76641151D01*
X139645566Y-76646180D01*
X139401576Y-76651209D01*
X139401576Y-76537131D01*
X139401576Y-76423054D01*
X139626798Y-76423054D01*
X139852019Y-76423054D01*
X139852019Y-76346134D01*
X139852019Y-76310443D01*
X139852019Y-76197832D01*
X139626798Y-76197832D01*
X139401576Y-76197832D01*
X139401576Y-76123664D01*
X139401576Y-76049497D01*
X139645566Y-76042334D01*
X139889556Y-76035172D01*
X139897209Y-75915678D01*
X139904862Y-75796185D01*
X139501983Y-75803068D01*
X139099103Y-75809950D01*
X138677500Y-75809950D01*
X138628705Y-75789320D01*
X138624188Y-75788355D01*
X138439134Y-75770466D01*
X138276596Y-75793979D01*
X138139732Y-75857506D01*
X138031702Y-75959662D01*
X137963928Y-76078161D01*
X137939062Y-76173939D01*
X137927257Y-76298096D01*
X137774975Y-76298096D01*
X137774975Y-75797438D01*
X137622674Y-75797438D01*
X137470373Y-75797438D01*
X137478782Y-76085254D01*
X137481823Y-76198536D01*
X137483789Y-76290826D01*
X137484506Y-76352254D01*
X137483881Y-76373037D01*
X137470635Y-76352809D01*
X137436659Y-76297408D01*
X137386735Y-76214718D01*
X137325644Y-76112624D01*
X137309322Y-76085221D01*
X137138075Y-75797438D01*
X136993569Y-75797438D01*
X136849064Y-75797438D01*
X136849064Y-76347980D01*
X136849064Y-76898522D01*
X136565306Y-76898522D01*
X136657114Y-76895760D01*
X136705478Y-76886598D01*
X136716745Y-76869716D01*
X136715957Y-76867241D01*
X136704890Y-76835104D01*
X136680755Y-76762757D01*
X136645986Y-76657578D01*
X136603019Y-76526944D01*
X136554290Y-76378232D01*
X136544401Y-76347980D01*
X136534176Y-76316699D01*
X136364550Y-75797438D01*
X136195981Y-75797438D01*
X136027413Y-75797438D01*
X135850159Y-76329224D01*
X135798923Y-76483796D01*
X135753494Y-76622485D01*
X135716136Y-76738244D01*
X135689113Y-76824026D01*
X135674690Y-76872785D01*
X135672906Y-76880960D01*
X135265574Y-76880960D01*
X135308415Y-76875658D01*
X135355814Y-76864388D01*
X135454273Y-76800060D01*
X135539606Y-76701633D01*
X135598044Y-76585056D01*
X135598707Y-76583064D01*
X135617153Y-76482959D01*
X135620539Y-76355777D01*
X135610289Y-76220783D01*
X135587824Y-76097243D01*
X135556212Y-76007546D01*
X135502888Y-75929990D01*
X135435462Y-75862945D01*
X135421952Y-75853012D01*
X135382119Y-75828598D01*
X135341083Y-75812712D01*
X135287793Y-75803898D01*
X135211195Y-75800705D01*
X135100237Y-75801677D01*
X135041402Y-75802962D01*
X134744791Y-75809950D01*
X134301263Y-75809950D01*
X134514213Y-75751105D01*
X134770724Y-75696207D01*
X135059624Y-75648811D01*
X135383498Y-75608667D01*
X135744933Y-75575526D01*
X136146516Y-75549141D01*
X136590832Y-75529263D01*
X137080469Y-75515642D01*
X137449655Y-75509720D01*
X138056014Y-75507281D01*
X138621421Y-75514666D01*
G37*
G36*
X134822801Y-77880694D02*
G01*
X134832589Y-77903496D01*
X134839414Y-77949140D01*
X134843768Y-78023877D01*
X134846145Y-78133958D01*
X134847039Y-78285635D01*
X134847093Y-78349950D01*
X134848203Y-78498008D01*
X134851293Y-78627259D01*
X134856003Y-78730017D01*
X134861975Y-78798597D01*
X134868850Y-78825314D01*
X134869317Y-78825418D01*
X134884585Y-78802798D01*
X134907126Y-78742113D01*
X134933219Y-78654122D01*
X134947192Y-78600197D01*
X134980707Y-78479851D01*
X135011173Y-78405820D01*
X135040702Y-78374638D01*
X135071407Y-78382837D01*
X135076688Y-78387690D01*
X135076288Y-78415884D01*
X135064508Y-78480644D01*
X135043629Y-78570389D01*
X135031388Y-78617660D01*
X135006754Y-78714719D01*
X134989622Y-78791749D01*
X134982415Y-78837353D01*
X134983150Y-78844693D01*
X134999840Y-78828222D01*
X135038652Y-78770609D01*
X135097853Y-78674712D01*
X135175709Y-78543388D01*
X135270487Y-78379493D01*
X135347852Y-78243596D01*
X135413510Y-78135595D01*
X135464009Y-78071811D01*
X135502034Y-78049702D01*
X135530276Y-78066725D01*
X135532025Y-78069429D01*
X135523909Y-78096340D01*
X135493880Y-78158944D01*
X135445751Y-78250002D01*
X135383337Y-78362277D01*
X135317754Y-78476079D01*
X135243871Y-78603111D01*
X135178599Y-78716913D01*
X135126290Y-78809768D01*
X135091296Y-78873962D01*
X135078324Y-78900492D01*
X135089236Y-78899944D01*
X135128796Y-78869388D01*
X135190395Y-78814338D01*
X135251201Y-78756270D01*
X135338983Y-78672814D01*
X135399410Y-78622102D01*
X135438722Y-78599780D01*
X135463157Y-78601496D01*
X135467704Y-78605202D01*
X135474791Y-78626883D01*
X135458729Y-78661701D01*
X135415111Y-78715896D01*
X135339530Y-78795706D01*
X135317262Y-78818241D01*
X135243876Y-78893532D01*
X135187905Y-78953696D01*
X135155985Y-78991420D01*
X135151760Y-79000591D01*
X135177445Y-78988720D01*
X135239315Y-78955731D01*
X135330229Y-78905564D01*
X135443046Y-78842157D01*
X135563785Y-78773369D01*
X135691477Y-78700665D01*
X135804715Y-78637123D01*
X135896168Y-78586780D01*
X135958502Y-78553676D01*
X135983973Y-78541891D01*
X136009281Y-78558181D01*
X136016320Y-78576115D01*
X136002912Y-78600924D01*
X135953309Y-78641554D01*
X135865081Y-78699647D01*
X135735797Y-78776848D01*
X135629925Y-78837303D01*
X135484859Y-78919073D01*
X135377810Y-78979555D01*
X135303266Y-79022169D01*
X135255718Y-79050334D01*
X135229658Y-79067470D01*
X135219574Y-79076997D01*
X135219958Y-79082335D01*
X135225300Y-79086902D01*
X135226290Y-79087834D01*
X135254566Y-79086971D01*
X135320929Y-79074051D01*
X135415537Y-79051432D01*
X135528547Y-79021471D01*
X135650119Y-78986526D01*
X135654138Y-78985323D01*
X135689713Y-78988469D01*
X135697931Y-79021129D01*
X135690394Y-79046530D01*
X135662039Y-79068271D01*
X135604247Y-79090353D01*
X135508402Y-79116778D01*
X135472709Y-79125714D01*
X135374626Y-79152181D01*
X135298154Y-79177065D01*
X135254055Y-79196644D01*
X135247487Y-79203588D01*
X135272119Y-79206407D01*
X135344441Y-79209095D01*
X135462096Y-79211637D01*
X135622725Y-79214018D01*
X135823970Y-79216225D01*
X136063473Y-79218241D01*
X136338875Y-79220052D01*
X136647818Y-79221644D01*
X136987944Y-79223001D01*
X137356895Y-79224109D01*
X137752311Y-79224953D01*
X138171836Y-79225518D01*
X138613110Y-79225789D01*
X138787687Y-79225812D01*
X139282755Y-79225856D01*
X139730118Y-79226002D01*
X140132122Y-79226277D01*
X140491112Y-79226705D01*
X140809432Y-79227312D01*
X141089429Y-79228121D01*
X141333446Y-79229159D01*
X141543828Y-79230449D01*
X141722922Y-79232018D01*
X141873071Y-79233890D01*
X141996620Y-79236090D01*
X142095915Y-79238642D01*
X142173301Y-79241573D01*
X142231123Y-79244906D01*
X142271725Y-79248668D01*
X142297452Y-79252882D01*
X142310650Y-79257574D01*
X142313664Y-79262768D01*
X142313483Y-79263349D01*
X142307217Y-79268614D01*
X142291083Y-79273372D01*
X142262714Y-79277646D01*
X142219744Y-79281463D01*
X142159805Y-79284847D01*
X142080531Y-79287823D01*
X141979554Y-79290417D01*
X141854509Y-79292654D01*
X141703027Y-79294559D01*
X141522742Y-79296156D01*
X141311287Y-79297471D01*
X141066295Y-79298529D01*
X140785400Y-79299356D01*
X140466234Y-79299975D01*
X140106431Y-79300413D01*
X139703623Y-79300694D01*
X139255443Y-79300843D01*
X138771806Y-79300886D01*
X138322061Y-79301041D01*
X137893760Y-79301496D01*
X137489219Y-79302235D01*
X137110758Y-79303245D01*
X136760692Y-79304511D01*
X136441340Y-79306018D01*
X136155020Y-79307752D01*
X135904050Y-79309697D01*
X135690746Y-79311840D01*
X135517427Y-79314165D01*
X135386410Y-79316659D01*
X135300013Y-79319305D01*
X135260554Y-79322091D01*
X135258246Y-79323074D01*
X135290060Y-79342261D01*
X135349634Y-79359745D01*
X135357857Y-79361376D01*
X135482430Y-79389161D01*
X135586135Y-79420756D01*
X135660232Y-79452868D01*
X135695982Y-79482203D01*
X135697931Y-79489541D01*
X135693828Y-79511529D01*
X135676135Y-79521777D01*
X135636769Y-79519578D01*
X135567651Y-79504224D01*
X135460698Y-79475006D01*
X135428916Y-79465971D01*
X135336227Y-79441489D01*
X135265087Y-79426447D01*
X135226406Y-79422988D01*
X135222463Y-79425436D01*
X135243134Y-79443298D01*
X135300312Y-79480960D01*
X135386739Y-79533940D01*
X135495158Y-79597753D01*
X135579064Y-79645793D01*
X135733180Y-79733422D01*
X135848459Y-79800226D01*
X135929799Y-79849711D01*
X135982097Y-79885389D01*
X136010251Y-79910767D01*
X136019158Y-79929355D01*
X136013716Y-79944662D01*
X136006954Y-79952375D01*
X135985493Y-79956925D01*
X135942306Y-79944432D01*
X135872732Y-79912676D01*
X135772114Y-79859442D01*
X135635791Y-79782511D01*
X135569023Y-79743910D01*
X135440801Y-79670072D01*
X135328115Y-79606441D01*
X135237783Y-79556764D01*
X135176625Y-79524788D01*
X135151458Y-79514258D01*
X135151271Y-79514358D01*
X135164515Y-79533748D01*
X135207137Y-79579407D01*
X135271743Y-79643650D01*
X135321387Y-79691134D01*
X135402825Y-79769253D01*
X135452174Y-79821587D01*
X135474559Y-79855821D01*
X135475104Y-79879638D01*
X135460292Y-79899384D01*
X135438803Y-79914883D01*
X135414077Y-79913160D01*
X135378114Y-79889138D01*
X135322915Y-79837736D01*
X135255489Y-79769333D01*
X135183552Y-79697183D01*
X135125421Y-79642350D01*
X135089117Y-79612214D01*
X135081248Y-79608932D01*
X135090353Y-79632354D01*
X135121236Y-79692011D01*
X135170149Y-79781085D01*
X135233347Y-79892760D01*
X135307081Y-80020218D01*
X135310899Y-80026750D01*
X135398874Y-80179345D01*
X135461836Y-80294010D01*
X135501806Y-80374936D01*
X135520802Y-80426314D01*
X135520842Y-80452336D01*
X135517526Y-80455783D01*
X135481359Y-80474046D01*
X135472709Y-80475945D01*
X135457088Y-80455111D01*
X135421059Y-80397312D01*
X135368626Y-80309274D01*
X135303790Y-80197724D01*
X135230556Y-80069389D01*
X135226230Y-80061740D01*
X135152861Y-79933561D01*
X135087691Y-79822748D01*
X135034678Y-79735785D01*
X134997779Y-79679155D01*
X134980954Y-79659341D01*
X134980632Y-79659499D01*
X134981760Y-79687088D01*
X134994395Y-79751530D01*
X135016161Y-79841593D01*
X135030922Y-79897100D01*
X135059208Y-80004007D01*
X135073819Y-80072445D01*
X135075653Y-80111823D01*
X135065612Y-80131553D01*
X135053972Y-80137986D01*
X135017455Y-80147473D01*
X135009508Y-80146057D01*
X135001142Y-80120451D01*
X134983436Y-80057622D01*
X134959516Y-79968821D01*
X134946737Y-79920246D01*
X134919266Y-79823790D01*
X134893620Y-79749018D01*
X134873740Y-79706796D01*
X134867352Y-79701280D01*
X134860526Y-79725024D01*
X134854897Y-79791143D01*
X134850775Y-79891972D01*
X134848471Y-80019847D01*
X134848296Y-80167101D01*
X134848319Y-80170492D01*
X134848994Y-80336479D01*
X134848112Y-80458982D01*
X134845173Y-80544555D01*
X134839673Y-80599752D01*
X134831110Y-80631127D01*
X134818983Y-80645234D01*
X134811757Y-80647795D01*
X134798048Y-80645869D01*
X134787867Y-80629586D01*
X134780704Y-80592746D01*
X134776049Y-80529147D01*
X134773393Y-80432588D01*
X134772225Y-80296870D01*
X134772019Y-80164594D01*
X134771026Y-80014982D01*
X134768256Y-79885021D01*
X134764025Y-79782013D01*
X134758647Y-79713259D01*
X134752438Y-79686060D01*
X134751368Y-79686065D01*
X134736566Y-79714877D01*
X134715450Y-79780196D01*
X134691914Y-79869536D01*
X134685115Y-79898491D01*
X134655750Y-80020203D01*
X134632142Y-80098506D01*
X134611410Y-80139291D01*
X134590672Y-80148445D01*
X134569642Y-80134529D01*
X134557703Y-80106616D01*
X134560087Y-80054489D01*
X134577773Y-79969249D01*
X134595236Y-79901839D01*
X134619503Y-79806127D01*
X134636244Y-79728696D01*
X134642800Y-79682322D01*
X134642252Y-79675941D01*
X134628046Y-79689388D01*
X134593150Y-79740186D01*
X134541487Y-79822104D01*
X134476976Y-79928911D01*
X134403537Y-80054378D01*
X134397274Y-80065244D01*
X134322240Y-80193800D01*
X134254839Y-80305962D01*
X134199263Y-80395020D01*
X134159704Y-80454265D01*
X134140356Y-80476987D01*
X134139986Y-80477044D01*
X134116398Y-80466841D01*
X134113201Y-80433671D01*
X134131907Y-80373692D01*
X134174028Y-80283064D01*
X134241076Y-80157944D01*
X134320298Y-80019016D01*
X134392878Y-79892937D01*
X134455818Y-79781643D01*
X134505109Y-79692386D01*
X134536741Y-79632417D01*
X134546798Y-79609390D01*
X134530492Y-79617423D01*
X134486536Y-79654585D01*
X134422369Y-79714314D01*
X134371916Y-79763553D01*
X134287320Y-79844916D01*
X134229521Y-79893253D01*
X134192135Y-79913004D01*
X134168778Y-79908611D01*
X134166423Y-79906482D01*
X134159019Y-79884281D01*
X134175423Y-79848959D01*
X134220114Y-79793995D01*
X134297576Y-79712866D01*
X134303768Y-79706617D01*
X134376206Y-79631986D01*
X134432952Y-79570414D01*
X134466232Y-79530501D01*
X134471724Y-79520762D01*
X134451246Y-79527445D01*
X134394222Y-79555913D01*
X134307262Y-79602610D01*
X134196980Y-79663979D01*
X134069986Y-79736463D01*
X134059723Y-79742392D01*
X133903216Y-79831502D01*
X133784421Y-79895490D01*
X133698846Y-79936144D01*
X133642000Y-79955249D01*
X133609395Y-79954590D01*
X133596539Y-79935955D01*
X133595862Y-79926891D01*
X133616559Y-79908186D01*
X133674098Y-79869310D01*
X133761646Y-79814542D01*
X133872373Y-79748157D01*
X133995755Y-79676542D01*
X134123881Y-79602342D01*
X134236886Y-79535126D01*
X134327552Y-79479330D01*
X134388660Y-79439393D01*
X134412767Y-79420177D01*
X134411869Y-79403548D01*
X134381987Y-79410952D01*
X134335120Y-79426419D01*
X134256064Y-79450034D01*
X134160970Y-79476989D01*
X134149923Y-79480034D01*
X134045761Y-79505816D01*
X133979710Y-79514466D01*
X133943193Y-79506884D01*
X133937423Y-79502310D01*
X133923555Y-79480013D01*
X133935210Y-79460047D01*
X133978629Y-79439149D01*
X134060051Y-79414056D01*
X134152535Y-79389831D01*
X134243755Y-79364807D01*
X134316261Y-79341289D01*
X134355920Y-79323919D01*
X134357862Y-79322414D01*
X134341871Y-79315603D01*
X134282485Y-79309733D01*
X134186352Y-79305114D01*
X134060123Y-79302062D01*
X133910446Y-79300890D01*
X133901162Y-79300886D01*
X133732405Y-79300403D01*
X133607470Y-79298628D01*
X133520136Y-79295077D01*
X133464181Y-79289263D01*
X133433384Y-79280699D01*
X133421525Y-79268901D01*
X133420689Y-79263349D01*
X133426901Y-79250104D01*
X133449703Y-79240316D01*
X133495347Y-79233492D01*
X133570084Y-79229138D01*
X133680165Y-79226761D01*
X133831842Y-79225866D01*
X133896157Y-79225812D01*
X134044215Y-79224729D01*
X134173466Y-79221712D01*
X134276224Y-79217112D01*
X134344804Y-79211280D01*
X134371521Y-79204568D01*
X134371625Y-79204111D01*
X134349059Y-79188853D01*
X134288507Y-79165878D01*
X134200691Y-79138983D01*
X134146404Y-79124345D01*
X134027445Y-79090208D01*
X133954213Y-79059985D01*
X133922788Y-79031264D01*
X133929250Y-79001631D01*
X133935593Y-78994521D01*
X133964434Y-78994446D01*
X134029918Y-79006163D01*
X134120646Y-79027419D01*
X134175890Y-79042007D01*
X134275011Y-79067799D01*
X134354465Y-79085895D01*
X134403066Y-79093879D01*
X134412555Y-79093126D01*
X134395298Y-79078072D01*
X134340839Y-79042563D01*
X134255669Y-78990558D01*
X134146277Y-78926011D01*
X134019154Y-78852882D01*
X134009731Y-78847528D01*
X133880797Y-78773693D01*
X133768294Y-78708057D01*
X133678931Y-78654634D01*
X133619413Y-78617436D01*
X133596448Y-78600476D01*
X133596379Y-78600197D01*
X133608224Y-78570600D01*
X133617060Y-78555482D01*
X133636556Y-78550428D01*
X133680461Y-78563936D01*
X133752916Y-78598007D01*
X133858062Y-78654640D01*
X134000042Y-78735833D01*
X134044733Y-78761935D01*
X134173146Y-78836731D01*
X134286580Y-78901931D01*
X134378059Y-78953597D01*
X134440610Y-78987792D01*
X134467260Y-79000579D01*
X134467434Y-79000591D01*
X134457815Y-78984266D01*
X134419404Y-78940331D01*
X134359018Y-78876345D01*
X134313658Y-78830048D01*
X134227364Y-78738711D01*
X134176903Y-78673879D01*
X134158932Y-78630906D01*
X134160602Y-78617338D01*
X134177345Y-78581712D01*
X134183363Y-78575172D01*
X134202534Y-78591790D01*
X134249024Y-78636623D01*
X134315120Y-78702146D01*
X134368371Y-78755732D01*
X134442200Y-78827939D01*
X134501141Y-78880820D01*
X134537989Y-78908204D01*
X134546798Y-78908517D01*
X134534665Y-78879027D01*
X134500932Y-78813823D01*
X134449596Y-78720196D01*
X134384654Y-78605440D01*
X134311606Y-78479412D01*
X134226630Y-78332872D01*
X134166099Y-78223576D01*
X134128124Y-78146209D01*
X134110813Y-78095454D01*
X134112278Y-78065995D01*
X134130628Y-78052518D01*
X134158810Y-78049655D01*
X134173289Y-78070260D01*
X134208530Y-78127557D01*
X134260494Y-78214764D01*
X134325139Y-78325103D01*
X134397423Y-78450049D01*
X134471222Y-78576710D01*
X134537223Y-78686884D01*
X134591200Y-78773765D01*
X134628926Y-78830551D01*
X134646066Y-78850443D01*
X134647966Y-78828369D01*
X134637247Y-78769467D01*
X134616098Y-78684719D01*
X134605604Y-78647411D01*
X134572398Y-78528822D01*
X134554068Y-78450048D01*
X134549959Y-78403324D01*
X134559413Y-78380889D01*
X134581773Y-78374978D01*
X134582559Y-78374975D01*
X134609062Y-78398258D01*
X134640169Y-78462370D01*
X134672671Y-78558702D01*
X134703355Y-78678650D01*
X134713154Y-78725031D01*
X134730398Y-78793557D01*
X134744717Y-78812369D01*
X134756071Y-78781720D01*
X134764421Y-78701861D01*
X134769727Y-78573044D01*
X134771948Y-78395521D01*
X134772019Y-78351427D01*
X134772508Y-78183364D01*
X134774300Y-78059102D01*
X134777888Y-77972397D01*
X134783763Y-77917008D01*
X134792416Y-77886693D01*
X134804338Y-77875209D01*
X134809556Y-77874482D01*
X134822801Y-77880694D01*
G37*
D13*
%TO.C,C22*%
X127011252Y-67765000D02*
X126488748Y-67765000D01*
X127011252Y-69235000D02*
X126488748Y-69235000D01*
%TO.C,C9*%
X148061252Y-65865000D02*
X147538748Y-65865000D01*
X148061252Y-67335000D02*
X147538748Y-67335000D01*
%TO.C,TP1*%
X126650000Y-36850000D02*
X128550000Y-36850000D01*
X126650000Y-38750000D02*
X126650000Y-36850000D01*
X128550000Y-36850000D02*
X128550000Y-38750000D01*
X128550000Y-38750000D02*
X126650000Y-38750000D01*
%TO.C,C1*%
X143265000Y-75738748D02*
X143265000Y-76261252D01*
X144735000Y-75738748D02*
X144735000Y-76261252D01*
%TO.C,TP2*%
X145450000Y-36850000D02*
X147350000Y-36850000D01*
X145450000Y-38750000D02*
X145450000Y-36850000D01*
X147350000Y-36850000D02*
X147350000Y-38750000D01*
X147350000Y-38750000D02*
X145450000Y-38750000D01*
%TO.C,R24*%
X148027064Y-69865000D02*
X147572936Y-69865000D01*
X148027064Y-71335000D02*
X147572936Y-71335000D01*
%TO.C,U5*%
X157090000Y-74840000D02*
X158910000Y-74840000D01*
X157090000Y-74890000D02*
X157090000Y-74840000D01*
X157090000Y-76790000D02*
X157090000Y-76010000D01*
X157090000Y-77960000D02*
X157090000Y-77910000D01*
X158910000Y-74840000D02*
X158910000Y-74890000D01*
X158910000Y-77910000D02*
X158910000Y-77960000D01*
X158910000Y-77960000D02*
X157090000Y-77960000D01*
X159690000Y-78240000D02*
X159210000Y-78240000D01*
X159450000Y-77910000D01*
X159690000Y-78240000D01*
G36*
X159690000Y-78240000D02*
G01*
X159210000Y-78240000D01*
X159450000Y-77910000D01*
X159690000Y-78240000D01*
G37*
%TO.C,C12*%
X154065000Y-77661252D02*
X154065000Y-77138748D01*
X155535000Y-77661252D02*
X155535000Y-77138748D01*
%TO.C,R7*%
X119022936Y-69265000D02*
X119477064Y-69265000D01*
X119022936Y-70735000D02*
X119477064Y-70735000D01*
%TO.C,JP1*%
X138350000Y-46500000D02*
X138350000Y-45900000D01*
X139000000Y-45200000D02*
X141800000Y-45200000D01*
X141600000Y-45000000D02*
X141300000Y-44700000D01*
X141600000Y-45000000D02*
X141900000Y-44700000D01*
X141800000Y-47200000D02*
X139000000Y-47200000D01*
X141900000Y-44700000D02*
X141300000Y-44700000D01*
X142450000Y-45900000D02*
X142450000Y-46500000D01*
X138350000Y-45900000D02*
G75*
G02*
X139050000Y-45200000I700000J0D01*
G01*
X139050000Y-47200000D02*
G75*
G02*
X138350000Y-46500000I0J700000D01*
G01*
X141750000Y-45200000D02*
G75*
G02*
X142450000Y-45900000I1J-699999D01*
G01*
X142450000Y-46500000D02*
G75*
G02*
X141750000Y-47200000I-699999J-1D01*
G01*
%TO.C,C2*%
X147461252Y-78465000D02*
X146938748Y-78465000D01*
X147461252Y-79935000D02*
X146938748Y-79935000D01*
%TO.C,J7*%
X120895000Y-51620000D02*
X120895000Y-54220000D01*
X120895000Y-51620000D02*
X123555000Y-51620000D01*
X120895000Y-54220000D02*
X123555000Y-54220000D01*
X122225000Y-49020000D02*
X123555000Y-49020000D01*
X123555000Y-49020000D02*
X123555000Y-50350000D01*
X123555000Y-51620000D02*
X123555000Y-54220000D01*
%TO.C,U6*%
X152061932Y-67065000D02*
X153197500Y-67065000D01*
X153197500Y-68935000D02*
X151777500Y-68935000D01*
X151767500Y-67060000D02*
X151627500Y-66870000D01*
X151907500Y-66870000D01*
X151767500Y-67060000D01*
G36*
X151767500Y-67060000D02*
G01*
X151627500Y-66870000D01*
X151907500Y-66870000D01*
X151767500Y-67060000D01*
G37*
%TD*%
M02*
