%TF.GenerationSoftware,KiCad,Pcbnew,9.0.7*%
%TF.CreationDate,2026-03-16T10:51:19-04:00*%
%TF.ProjectId,FPGA-Lockin,46504741-2d4c-46f6-936b-696e2e6b6963,rev?*%
%TF.SameCoordinates,Original*%
%TF.FileFunction,Legend,Bot*%
%TF.FilePolarity,Positive*%
%FSLAX46Y46*%
G04 Gerber Fmt 4.6, Leading zero omitted, Abs format (unit mm)*
G04 Created by KiCad (PCBNEW 9.0.7) date 2026-03-16 10:51:19*
%MOMM*%
%LPD*%
G01*
G04 APERTURE LIST*
%ADD10C,0.150000*%
%ADD11C,0.125000*%
%ADD12C,0.098425*%
%ADD13C,0.120000*%
%ADD14C,0.200000*%
%ADD15C,0.400000*%
%ADD16C,0.000000*%
%ADD17C,0.152400*%
%ADD18C,0.127000*%
G04 APERTURE END LIST*
D10*
X115346428Y-76589164D02*
X114917857Y-76589164D01*
X115132142Y-77339164D02*
X115132142Y-76589164D01*
X114667856Y-77339164D02*
X114667856Y-76589164D01*
X114667856Y-76589164D02*
X114382142Y-76589164D01*
X114382142Y-76589164D02*
X114310713Y-76624878D01*
X114310713Y-76624878D02*
X114274999Y-76660592D01*
X114274999Y-76660592D02*
X114239285Y-76732021D01*
X114239285Y-76732021D02*
X114239285Y-76839164D01*
X114239285Y-76839164D02*
X114274999Y-76910592D01*
X114274999Y-76910592D02*
X114310713Y-76946307D01*
X114310713Y-76946307D02*
X114382142Y-76982021D01*
X114382142Y-76982021D02*
X114667856Y-76982021D01*
X113989285Y-76589164D02*
X113524999Y-76589164D01*
X113524999Y-76589164D02*
X113774999Y-76874878D01*
X113774999Y-76874878D02*
X113667856Y-76874878D01*
X113667856Y-76874878D02*
X113596428Y-76910592D01*
X113596428Y-76910592D02*
X113560713Y-76946307D01*
X113560713Y-76946307D02*
X113524999Y-77017735D01*
X113524999Y-77017735D02*
X113524999Y-77196307D01*
X113524999Y-77196307D02*
X113560713Y-77267735D01*
X113560713Y-77267735D02*
X113596428Y-77303450D01*
X113596428Y-77303450D02*
X113667856Y-77339164D01*
X113667856Y-77339164D02*
X113882142Y-77339164D01*
X113882142Y-77339164D02*
X113953570Y-77303450D01*
X113953570Y-77303450D02*
X113989285Y-77267735D01*
X148079580Y-79233333D02*
X148127200Y-79185714D01*
X148127200Y-79185714D02*
X148174819Y-79042857D01*
X148174819Y-79042857D02*
X148174819Y-78947619D01*
X148174819Y-78947619D02*
X148127200Y-78804762D01*
X148127200Y-78804762D02*
X148031961Y-78709524D01*
X148031961Y-78709524D02*
X147936723Y-78661905D01*
X147936723Y-78661905D02*
X147746247Y-78614286D01*
X147746247Y-78614286D02*
X147603390Y-78614286D01*
X147603390Y-78614286D02*
X147412914Y-78661905D01*
X147412914Y-78661905D02*
X147317676Y-78709524D01*
X147317676Y-78709524D02*
X147222438Y-78804762D01*
X147222438Y-78804762D02*
X147174819Y-78947619D01*
X147174819Y-78947619D02*
X147174819Y-79042857D01*
X147174819Y-79042857D02*
X147222438Y-79185714D01*
X147222438Y-79185714D02*
X147270057Y-79233333D01*
X147174819Y-80138095D02*
X147174819Y-79661905D01*
X147174819Y-79661905D02*
X147651009Y-79614286D01*
X147651009Y-79614286D02*
X147603390Y-79661905D01*
X147603390Y-79661905D02*
X147555771Y-79757143D01*
X147555771Y-79757143D02*
X147555771Y-79995238D01*
X147555771Y-79995238D02*
X147603390Y-80090476D01*
X147603390Y-80090476D02*
X147651009Y-80138095D01*
X147651009Y-80138095D02*
X147746247Y-80185714D01*
X147746247Y-80185714D02*
X147984342Y-80185714D01*
X147984342Y-80185714D02*
X148079580Y-80138095D01*
X148079580Y-80138095D02*
X148127200Y-80090476D01*
X148127200Y-80090476D02*
X148174819Y-79995238D01*
X148174819Y-79995238D02*
X148174819Y-79757143D01*
X148174819Y-79757143D02*
X148127200Y-79661905D01*
X148127200Y-79661905D02*
X148079580Y-79614286D01*
X132654819Y-78157142D02*
X132178628Y-77823809D01*
X132654819Y-77585714D02*
X131654819Y-77585714D01*
X131654819Y-77585714D02*
X131654819Y-77966666D01*
X131654819Y-77966666D02*
X131702438Y-78061904D01*
X131702438Y-78061904D02*
X131750057Y-78109523D01*
X131750057Y-78109523D02*
X131845295Y-78157142D01*
X131845295Y-78157142D02*
X131988152Y-78157142D01*
X131988152Y-78157142D02*
X132083390Y-78109523D01*
X132083390Y-78109523D02*
X132131009Y-78061904D01*
X132131009Y-78061904D02*
X132178628Y-77966666D01*
X132178628Y-77966666D02*
X132178628Y-77585714D01*
X131750057Y-78538095D02*
X131702438Y-78585714D01*
X131702438Y-78585714D02*
X131654819Y-78680952D01*
X131654819Y-78680952D02*
X131654819Y-78919047D01*
X131654819Y-78919047D02*
X131702438Y-79014285D01*
X131702438Y-79014285D02*
X131750057Y-79061904D01*
X131750057Y-79061904D02*
X131845295Y-79109523D01*
X131845295Y-79109523D02*
X131940533Y-79109523D01*
X131940533Y-79109523D02*
X132083390Y-79061904D01*
X132083390Y-79061904D02*
X132654819Y-78490476D01*
X132654819Y-78490476D02*
X132654819Y-79109523D01*
X131750057Y-79490476D02*
X131702438Y-79538095D01*
X131702438Y-79538095D02*
X131654819Y-79633333D01*
X131654819Y-79633333D02*
X131654819Y-79871428D01*
X131654819Y-79871428D02*
X131702438Y-79966666D01*
X131702438Y-79966666D02*
X131750057Y-80014285D01*
X131750057Y-80014285D02*
X131845295Y-80061904D01*
X131845295Y-80061904D02*
X131940533Y-80061904D01*
X131940533Y-80061904D02*
X132083390Y-80014285D01*
X132083390Y-80014285D02*
X132654819Y-79442857D01*
X132654819Y-79442857D02*
X132654819Y-80061904D01*
X143854819Y-74438095D02*
X144664342Y-74438095D01*
X144664342Y-74438095D02*
X144759580Y-74485714D01*
X144759580Y-74485714D02*
X144807200Y-74533333D01*
X144807200Y-74533333D02*
X144854819Y-74628571D01*
X144854819Y-74628571D02*
X144854819Y-74819047D01*
X144854819Y-74819047D02*
X144807200Y-74914285D01*
X144807200Y-74914285D02*
X144759580Y-74961904D01*
X144759580Y-74961904D02*
X144664342Y-75009523D01*
X144664342Y-75009523D02*
X143854819Y-75009523D01*
X143854819Y-75390476D02*
X143854819Y-76009523D01*
X143854819Y-76009523D02*
X144235771Y-75676190D01*
X144235771Y-75676190D02*
X144235771Y-75819047D01*
X144235771Y-75819047D02*
X144283390Y-75914285D01*
X144283390Y-75914285D02*
X144331009Y-75961904D01*
X144331009Y-75961904D02*
X144426247Y-76009523D01*
X144426247Y-76009523D02*
X144664342Y-76009523D01*
X144664342Y-76009523D02*
X144759580Y-75961904D01*
X144759580Y-75961904D02*
X144807200Y-75914285D01*
X144807200Y-75914285D02*
X144854819Y-75819047D01*
X144854819Y-75819047D02*
X144854819Y-75533333D01*
X144854819Y-75533333D02*
X144807200Y-75438095D01*
X144807200Y-75438095D02*
X144759580Y-75390476D01*
X123454819Y-79833333D02*
X122978628Y-79500000D01*
X123454819Y-79261905D02*
X122454819Y-79261905D01*
X122454819Y-79261905D02*
X122454819Y-79642857D01*
X122454819Y-79642857D02*
X122502438Y-79738095D01*
X122502438Y-79738095D02*
X122550057Y-79785714D01*
X122550057Y-79785714D02*
X122645295Y-79833333D01*
X122645295Y-79833333D02*
X122788152Y-79833333D01*
X122788152Y-79833333D02*
X122883390Y-79785714D01*
X122883390Y-79785714D02*
X122931009Y-79738095D01*
X122931009Y-79738095D02*
X122978628Y-79642857D01*
X122978628Y-79642857D02*
X122978628Y-79261905D01*
X122788152Y-80690476D02*
X123454819Y-80690476D01*
X122407200Y-80452381D02*
X123121485Y-80214286D01*
X123121485Y-80214286D02*
X123121485Y-80833333D01*
X126433333Y-44854819D02*
X126433333Y-45569104D01*
X126433333Y-45569104D02*
X126480952Y-45711961D01*
X126480952Y-45711961D02*
X126576190Y-45807200D01*
X126576190Y-45807200D02*
X126719047Y-45854819D01*
X126719047Y-45854819D02*
X126814285Y-45854819D01*
X125957142Y-45854819D02*
X125957142Y-44854819D01*
X125957142Y-44854819D02*
X125576190Y-44854819D01*
X125576190Y-44854819D02*
X125480952Y-44902438D01*
X125480952Y-44902438D02*
X125433333Y-44950057D01*
X125433333Y-44950057D02*
X125385714Y-45045295D01*
X125385714Y-45045295D02*
X125385714Y-45188152D01*
X125385714Y-45188152D02*
X125433333Y-45283390D01*
X125433333Y-45283390D02*
X125480952Y-45331009D01*
X125480952Y-45331009D02*
X125576190Y-45378628D01*
X125576190Y-45378628D02*
X125957142Y-45378628D01*
X125004761Y-44950057D02*
X124957142Y-44902438D01*
X124957142Y-44902438D02*
X124861904Y-44854819D01*
X124861904Y-44854819D02*
X124623809Y-44854819D01*
X124623809Y-44854819D02*
X124528571Y-44902438D01*
X124528571Y-44902438D02*
X124480952Y-44950057D01*
X124480952Y-44950057D02*
X124433333Y-45045295D01*
X124433333Y-45045295D02*
X124433333Y-45140533D01*
X124433333Y-45140533D02*
X124480952Y-45283390D01*
X124480952Y-45283390D02*
X125052380Y-45854819D01*
X125052380Y-45854819D02*
X124433333Y-45854819D01*
X142959580Y-61157142D02*
X143007200Y-61109523D01*
X143007200Y-61109523D02*
X143054819Y-60966666D01*
X143054819Y-60966666D02*
X143054819Y-60871428D01*
X143054819Y-60871428D02*
X143007200Y-60728571D01*
X143007200Y-60728571D02*
X142911961Y-60633333D01*
X142911961Y-60633333D02*
X142816723Y-60585714D01*
X142816723Y-60585714D02*
X142626247Y-60538095D01*
X142626247Y-60538095D02*
X142483390Y-60538095D01*
X142483390Y-60538095D02*
X142292914Y-60585714D01*
X142292914Y-60585714D02*
X142197676Y-60633333D01*
X142197676Y-60633333D02*
X142102438Y-60728571D01*
X142102438Y-60728571D02*
X142054819Y-60871428D01*
X142054819Y-60871428D02*
X142054819Y-60966666D01*
X142054819Y-60966666D02*
X142102438Y-61109523D01*
X142102438Y-61109523D02*
X142150057Y-61157142D01*
X142054819Y-61490476D02*
X142054819Y-62109523D01*
X142054819Y-62109523D02*
X142435771Y-61776190D01*
X142435771Y-61776190D02*
X142435771Y-61919047D01*
X142435771Y-61919047D02*
X142483390Y-62014285D01*
X142483390Y-62014285D02*
X142531009Y-62061904D01*
X142531009Y-62061904D02*
X142626247Y-62109523D01*
X142626247Y-62109523D02*
X142864342Y-62109523D01*
X142864342Y-62109523D02*
X142959580Y-62061904D01*
X142959580Y-62061904D02*
X143007200Y-62014285D01*
X143007200Y-62014285D02*
X143054819Y-61919047D01*
X143054819Y-61919047D02*
X143054819Y-61633333D01*
X143054819Y-61633333D02*
X143007200Y-61538095D01*
X143007200Y-61538095D02*
X142959580Y-61490476D01*
X142054819Y-62966666D02*
X142054819Y-62776190D01*
X142054819Y-62776190D02*
X142102438Y-62680952D01*
X142102438Y-62680952D02*
X142150057Y-62633333D01*
X142150057Y-62633333D02*
X142292914Y-62538095D01*
X142292914Y-62538095D02*
X142483390Y-62490476D01*
X142483390Y-62490476D02*
X142864342Y-62490476D01*
X142864342Y-62490476D02*
X142959580Y-62538095D01*
X142959580Y-62538095D02*
X143007200Y-62585714D01*
X143007200Y-62585714D02*
X143054819Y-62680952D01*
X143054819Y-62680952D02*
X143054819Y-62871428D01*
X143054819Y-62871428D02*
X143007200Y-62966666D01*
X143007200Y-62966666D02*
X142959580Y-63014285D01*
X142959580Y-63014285D02*
X142864342Y-63061904D01*
X142864342Y-63061904D02*
X142626247Y-63061904D01*
X142626247Y-63061904D02*
X142531009Y-63014285D01*
X142531009Y-63014285D02*
X142483390Y-62966666D01*
X142483390Y-62966666D02*
X142435771Y-62871428D01*
X142435771Y-62871428D02*
X142435771Y-62680952D01*
X142435771Y-62680952D02*
X142483390Y-62585714D01*
X142483390Y-62585714D02*
X142531009Y-62538095D01*
X142531009Y-62538095D02*
X142626247Y-62490476D01*
X118642857Y-71559580D02*
X118690476Y-71607200D01*
X118690476Y-71607200D02*
X118833333Y-71654819D01*
X118833333Y-71654819D02*
X118928571Y-71654819D01*
X118928571Y-71654819D02*
X119071428Y-71607200D01*
X119071428Y-71607200D02*
X119166666Y-71511961D01*
X119166666Y-71511961D02*
X119214285Y-71416723D01*
X119214285Y-71416723D02*
X119261904Y-71226247D01*
X119261904Y-71226247D02*
X119261904Y-71083390D01*
X119261904Y-71083390D02*
X119214285Y-70892914D01*
X119214285Y-70892914D02*
X119166666Y-70797676D01*
X119166666Y-70797676D02*
X119071428Y-70702438D01*
X119071428Y-70702438D02*
X118928571Y-70654819D01*
X118928571Y-70654819D02*
X118833333Y-70654819D01*
X118833333Y-70654819D02*
X118690476Y-70702438D01*
X118690476Y-70702438D02*
X118642857Y-70750057D01*
X118261904Y-70750057D02*
X118214285Y-70702438D01*
X118214285Y-70702438D02*
X118119047Y-70654819D01*
X118119047Y-70654819D02*
X117880952Y-70654819D01*
X117880952Y-70654819D02*
X117785714Y-70702438D01*
X117785714Y-70702438D02*
X117738095Y-70750057D01*
X117738095Y-70750057D02*
X117690476Y-70845295D01*
X117690476Y-70845295D02*
X117690476Y-70940533D01*
X117690476Y-70940533D02*
X117738095Y-71083390D01*
X117738095Y-71083390D02*
X118309523Y-71654819D01*
X118309523Y-71654819D02*
X117690476Y-71654819D01*
X117357142Y-70654819D02*
X116738095Y-70654819D01*
X116738095Y-70654819D02*
X117071428Y-71035771D01*
X117071428Y-71035771D02*
X116928571Y-71035771D01*
X116928571Y-71035771D02*
X116833333Y-71083390D01*
X116833333Y-71083390D02*
X116785714Y-71131009D01*
X116785714Y-71131009D02*
X116738095Y-71226247D01*
X116738095Y-71226247D02*
X116738095Y-71464342D01*
X116738095Y-71464342D02*
X116785714Y-71559580D01*
X116785714Y-71559580D02*
X116833333Y-71607200D01*
X116833333Y-71607200D02*
X116928571Y-71654819D01*
X116928571Y-71654819D02*
X117214285Y-71654819D01*
X117214285Y-71654819D02*
X117309523Y-71607200D01*
X117309523Y-71607200D02*
X117357142Y-71559580D01*
X153759580Y-79233333D02*
X153807200Y-79185714D01*
X153807200Y-79185714D02*
X153854819Y-79042857D01*
X153854819Y-79042857D02*
X153854819Y-78947619D01*
X153854819Y-78947619D02*
X153807200Y-78804762D01*
X153807200Y-78804762D02*
X153711961Y-78709524D01*
X153711961Y-78709524D02*
X153616723Y-78661905D01*
X153616723Y-78661905D02*
X153426247Y-78614286D01*
X153426247Y-78614286D02*
X153283390Y-78614286D01*
X153283390Y-78614286D02*
X153092914Y-78661905D01*
X153092914Y-78661905D02*
X152997676Y-78709524D01*
X152997676Y-78709524D02*
X152902438Y-78804762D01*
X152902438Y-78804762D02*
X152854819Y-78947619D01*
X152854819Y-78947619D02*
X152854819Y-79042857D01*
X152854819Y-79042857D02*
X152902438Y-79185714D01*
X152902438Y-79185714D02*
X152950057Y-79233333D01*
X152854819Y-79566667D02*
X152854819Y-80185714D01*
X152854819Y-80185714D02*
X153235771Y-79852381D01*
X153235771Y-79852381D02*
X153235771Y-79995238D01*
X153235771Y-79995238D02*
X153283390Y-80090476D01*
X153283390Y-80090476D02*
X153331009Y-80138095D01*
X153331009Y-80138095D02*
X153426247Y-80185714D01*
X153426247Y-80185714D02*
X153664342Y-80185714D01*
X153664342Y-80185714D02*
X153759580Y-80138095D01*
X153759580Y-80138095D02*
X153807200Y-80090476D01*
X153807200Y-80090476D02*
X153854819Y-79995238D01*
X153854819Y-79995238D02*
X153854819Y-79709524D01*
X153854819Y-79709524D02*
X153807200Y-79614286D01*
X153807200Y-79614286D02*
X153759580Y-79566667D01*
X150525000Y-47739164D02*
X150775000Y-47382021D01*
X150953571Y-47739164D02*
X150953571Y-46989164D01*
X150953571Y-46989164D02*
X150667857Y-46989164D01*
X150667857Y-46989164D02*
X150596428Y-47024878D01*
X150596428Y-47024878D02*
X150560714Y-47060592D01*
X150560714Y-47060592D02*
X150525000Y-47132021D01*
X150525000Y-47132021D02*
X150525000Y-47239164D01*
X150525000Y-47239164D02*
X150560714Y-47310592D01*
X150560714Y-47310592D02*
X150596428Y-47346307D01*
X150596428Y-47346307D02*
X150667857Y-47382021D01*
X150667857Y-47382021D02*
X150953571Y-47382021D01*
X150275000Y-46989164D02*
X149810714Y-46989164D01*
X149810714Y-46989164D02*
X150060714Y-47274878D01*
X150060714Y-47274878D02*
X149953571Y-47274878D01*
X149953571Y-47274878D02*
X149882143Y-47310592D01*
X149882143Y-47310592D02*
X149846428Y-47346307D01*
X149846428Y-47346307D02*
X149810714Y-47417735D01*
X149810714Y-47417735D02*
X149810714Y-47596307D01*
X149810714Y-47596307D02*
X149846428Y-47667735D01*
X149846428Y-47667735D02*
X149882143Y-47703450D01*
X149882143Y-47703450D02*
X149953571Y-47739164D01*
X149953571Y-47739164D02*
X150167857Y-47739164D01*
X150167857Y-47739164D02*
X150239285Y-47703450D01*
X150239285Y-47703450D02*
X150275000Y-47667735D01*
X141392857Y-72454819D02*
X141726190Y-71978628D01*
X141964285Y-72454819D02*
X141964285Y-71454819D01*
X141964285Y-71454819D02*
X141583333Y-71454819D01*
X141583333Y-71454819D02*
X141488095Y-71502438D01*
X141488095Y-71502438D02*
X141440476Y-71550057D01*
X141440476Y-71550057D02*
X141392857Y-71645295D01*
X141392857Y-71645295D02*
X141392857Y-71788152D01*
X141392857Y-71788152D02*
X141440476Y-71883390D01*
X141440476Y-71883390D02*
X141488095Y-71931009D01*
X141488095Y-71931009D02*
X141583333Y-71978628D01*
X141583333Y-71978628D02*
X141964285Y-71978628D01*
X140440476Y-72454819D02*
X141011904Y-72454819D01*
X140726190Y-72454819D02*
X140726190Y-71454819D01*
X140726190Y-71454819D02*
X140821428Y-71597676D01*
X140821428Y-71597676D02*
X140916666Y-71692914D01*
X140916666Y-71692914D02*
X141011904Y-71740533D01*
X140107142Y-71454819D02*
X139440476Y-71454819D01*
X139440476Y-71454819D02*
X139869047Y-72454819D01*
D11*
X127019047Y-74524809D02*
X127019047Y-74929571D01*
X127019047Y-74929571D02*
X126995237Y-74977190D01*
X126995237Y-74977190D02*
X126971428Y-75001000D01*
X126971428Y-75001000D02*
X126923809Y-75024809D01*
X126923809Y-75024809D02*
X126828571Y-75024809D01*
X126828571Y-75024809D02*
X126780952Y-75001000D01*
X126780952Y-75001000D02*
X126757142Y-74977190D01*
X126757142Y-74977190D02*
X126733333Y-74929571D01*
X126733333Y-74929571D02*
X126733333Y-74524809D01*
X126233332Y-75024809D02*
X126519046Y-75024809D01*
X126376189Y-75024809D02*
X126376189Y-74524809D01*
X126376189Y-74524809D02*
X126423808Y-74596238D01*
X126423808Y-74596238D02*
X126471427Y-74643857D01*
X126471427Y-74643857D02*
X126519046Y-74667666D01*
X125923809Y-74524809D02*
X125876190Y-74524809D01*
X125876190Y-74524809D02*
X125828571Y-74548619D01*
X125828571Y-74548619D02*
X125804761Y-74572428D01*
X125804761Y-74572428D02*
X125780952Y-74620047D01*
X125780952Y-74620047D02*
X125757142Y-74715285D01*
X125757142Y-74715285D02*
X125757142Y-74834333D01*
X125757142Y-74834333D02*
X125780952Y-74929571D01*
X125780952Y-74929571D02*
X125804761Y-74977190D01*
X125804761Y-74977190D02*
X125828571Y-75001000D01*
X125828571Y-75001000D02*
X125876190Y-75024809D01*
X125876190Y-75024809D02*
X125923809Y-75024809D01*
X125923809Y-75024809D02*
X125971428Y-75001000D01*
X125971428Y-75001000D02*
X125995237Y-74977190D01*
X125995237Y-74977190D02*
X126019047Y-74929571D01*
X126019047Y-74929571D02*
X126042856Y-74834333D01*
X126042856Y-74834333D02*
X126042856Y-74715285D01*
X126042856Y-74715285D02*
X126019047Y-74620047D01*
X126019047Y-74620047D02*
X125995237Y-74572428D01*
X125995237Y-74572428D02*
X125971428Y-74548619D01*
X125971428Y-74548619D02*
X125923809Y-74524809D01*
X158169047Y-47824809D02*
X158169047Y-47324809D01*
X158169047Y-47324809D02*
X158049999Y-47324809D01*
X158049999Y-47324809D02*
X157978571Y-47348619D01*
X157978571Y-47348619D02*
X157930952Y-47396238D01*
X157930952Y-47396238D02*
X157907142Y-47443857D01*
X157907142Y-47443857D02*
X157883333Y-47539095D01*
X157883333Y-47539095D02*
X157883333Y-47610523D01*
X157883333Y-47610523D02*
X157907142Y-47705761D01*
X157907142Y-47705761D02*
X157930952Y-47753380D01*
X157930952Y-47753380D02*
X157978571Y-47801000D01*
X157978571Y-47801000D02*
X158049999Y-47824809D01*
X158049999Y-47824809D02*
X158169047Y-47824809D01*
X157716666Y-47324809D02*
X157407142Y-47324809D01*
X157407142Y-47324809D02*
X157573809Y-47515285D01*
X157573809Y-47515285D02*
X157502380Y-47515285D01*
X157502380Y-47515285D02*
X157454761Y-47539095D01*
X157454761Y-47539095D02*
X157430952Y-47562904D01*
X157430952Y-47562904D02*
X157407142Y-47610523D01*
X157407142Y-47610523D02*
X157407142Y-47729571D01*
X157407142Y-47729571D02*
X157430952Y-47777190D01*
X157430952Y-47777190D02*
X157454761Y-47801000D01*
X157454761Y-47801000D02*
X157502380Y-47824809D01*
X157502380Y-47824809D02*
X157645237Y-47824809D01*
X157645237Y-47824809D02*
X157692856Y-47801000D01*
X157692856Y-47801000D02*
X157716666Y-47777190D01*
D10*
X129042857Y-61759580D02*
X129090476Y-61807200D01*
X129090476Y-61807200D02*
X129233333Y-61854819D01*
X129233333Y-61854819D02*
X129328571Y-61854819D01*
X129328571Y-61854819D02*
X129471428Y-61807200D01*
X129471428Y-61807200D02*
X129566666Y-61711961D01*
X129566666Y-61711961D02*
X129614285Y-61616723D01*
X129614285Y-61616723D02*
X129661904Y-61426247D01*
X129661904Y-61426247D02*
X129661904Y-61283390D01*
X129661904Y-61283390D02*
X129614285Y-61092914D01*
X129614285Y-61092914D02*
X129566666Y-60997676D01*
X129566666Y-60997676D02*
X129471428Y-60902438D01*
X129471428Y-60902438D02*
X129328571Y-60854819D01*
X129328571Y-60854819D02*
X129233333Y-60854819D01*
X129233333Y-60854819D02*
X129090476Y-60902438D01*
X129090476Y-60902438D02*
X129042857Y-60950057D01*
X128185714Y-61188152D02*
X128185714Y-61854819D01*
X128423809Y-60807200D02*
X128661904Y-61521485D01*
X128661904Y-61521485D02*
X128042857Y-61521485D01*
X127471428Y-60854819D02*
X127376190Y-60854819D01*
X127376190Y-60854819D02*
X127280952Y-60902438D01*
X127280952Y-60902438D02*
X127233333Y-60950057D01*
X127233333Y-60950057D02*
X127185714Y-61045295D01*
X127185714Y-61045295D02*
X127138095Y-61235771D01*
X127138095Y-61235771D02*
X127138095Y-61473866D01*
X127138095Y-61473866D02*
X127185714Y-61664342D01*
X127185714Y-61664342D02*
X127233333Y-61759580D01*
X127233333Y-61759580D02*
X127280952Y-61807200D01*
X127280952Y-61807200D02*
X127376190Y-61854819D01*
X127376190Y-61854819D02*
X127471428Y-61854819D01*
X127471428Y-61854819D02*
X127566666Y-61807200D01*
X127566666Y-61807200D02*
X127614285Y-61759580D01*
X127614285Y-61759580D02*
X127661904Y-61664342D01*
X127661904Y-61664342D02*
X127709523Y-61473866D01*
X127709523Y-61473866D02*
X127709523Y-61235771D01*
X127709523Y-61235771D02*
X127661904Y-61045295D01*
X127661904Y-61045295D02*
X127614285Y-60950057D01*
X127614285Y-60950057D02*
X127566666Y-60902438D01*
X127566666Y-60902438D02*
X127471428Y-60854819D01*
X160338094Y-43654819D02*
X160338094Y-42654819D01*
X160338094Y-42654819D02*
X160099999Y-42654819D01*
X160099999Y-42654819D02*
X159957142Y-42702438D01*
X159957142Y-42702438D02*
X159861904Y-42797676D01*
X159861904Y-42797676D02*
X159814285Y-42892914D01*
X159814285Y-42892914D02*
X159766666Y-43083390D01*
X159766666Y-43083390D02*
X159766666Y-43226247D01*
X159766666Y-43226247D02*
X159814285Y-43416723D01*
X159814285Y-43416723D02*
X159861904Y-43511961D01*
X159861904Y-43511961D02*
X159957142Y-43607200D01*
X159957142Y-43607200D02*
X160099999Y-43654819D01*
X160099999Y-43654819D02*
X160338094Y-43654819D01*
X158909523Y-42988152D02*
X158909523Y-43654819D01*
X159147618Y-42607200D02*
X159385713Y-43321485D01*
X159385713Y-43321485D02*
X158766666Y-43321485D01*
X144679580Y-79270833D02*
X144727200Y-79223214D01*
X144727200Y-79223214D02*
X144774819Y-79080357D01*
X144774819Y-79080357D02*
X144774819Y-78985119D01*
X144774819Y-78985119D02*
X144727200Y-78842262D01*
X144727200Y-78842262D02*
X144631961Y-78747024D01*
X144631961Y-78747024D02*
X144536723Y-78699405D01*
X144536723Y-78699405D02*
X144346247Y-78651786D01*
X144346247Y-78651786D02*
X144203390Y-78651786D01*
X144203390Y-78651786D02*
X144012914Y-78699405D01*
X144012914Y-78699405D02*
X143917676Y-78747024D01*
X143917676Y-78747024D02*
X143822438Y-78842262D01*
X143822438Y-78842262D02*
X143774819Y-78985119D01*
X143774819Y-78985119D02*
X143774819Y-79080357D01*
X143774819Y-79080357D02*
X143822438Y-79223214D01*
X143822438Y-79223214D02*
X143870057Y-79270833D01*
X143774819Y-80127976D02*
X143774819Y-79937500D01*
X143774819Y-79937500D02*
X143822438Y-79842262D01*
X143822438Y-79842262D02*
X143870057Y-79794643D01*
X143870057Y-79794643D02*
X144012914Y-79699405D01*
X144012914Y-79699405D02*
X144203390Y-79651786D01*
X144203390Y-79651786D02*
X144584342Y-79651786D01*
X144584342Y-79651786D02*
X144679580Y-79699405D01*
X144679580Y-79699405D02*
X144727200Y-79747024D01*
X144727200Y-79747024D02*
X144774819Y-79842262D01*
X144774819Y-79842262D02*
X144774819Y-80032738D01*
X144774819Y-80032738D02*
X144727200Y-80127976D01*
X144727200Y-80127976D02*
X144679580Y-80175595D01*
X144679580Y-80175595D02*
X144584342Y-80223214D01*
X144584342Y-80223214D02*
X144346247Y-80223214D01*
X144346247Y-80223214D02*
X144251009Y-80175595D01*
X144251009Y-80175595D02*
X144203390Y-80127976D01*
X144203390Y-80127976D02*
X144155771Y-80032738D01*
X144155771Y-80032738D02*
X144155771Y-79842262D01*
X144155771Y-79842262D02*
X144203390Y-79747024D01*
X144203390Y-79747024D02*
X144251009Y-79699405D01*
X144251009Y-79699405D02*
X144346247Y-79651786D01*
D11*
X146469046Y-87076809D02*
X146183332Y-87076809D01*
X146326189Y-87576809D02*
X146326189Y-87076809D01*
X146016666Y-87576809D02*
X146016666Y-87076809D01*
X146016666Y-87076809D02*
X145826190Y-87076809D01*
X145826190Y-87076809D02*
X145778571Y-87100619D01*
X145778571Y-87100619D02*
X145754761Y-87124428D01*
X145754761Y-87124428D02*
X145730952Y-87172047D01*
X145730952Y-87172047D02*
X145730952Y-87243476D01*
X145730952Y-87243476D02*
X145754761Y-87291095D01*
X145754761Y-87291095D02*
X145778571Y-87314904D01*
X145778571Y-87314904D02*
X145826190Y-87338714D01*
X145826190Y-87338714D02*
X146016666Y-87338714D01*
X145254761Y-87576809D02*
X145540475Y-87576809D01*
X145397618Y-87576809D02*
X145397618Y-87076809D01*
X145397618Y-87076809D02*
X145445237Y-87148238D01*
X145445237Y-87148238D02*
X145492856Y-87195857D01*
X145492856Y-87195857D02*
X145540475Y-87219666D01*
X145088095Y-87076809D02*
X144778571Y-87076809D01*
X144778571Y-87076809D02*
X144945238Y-87267285D01*
X144945238Y-87267285D02*
X144873809Y-87267285D01*
X144873809Y-87267285D02*
X144826190Y-87291095D01*
X144826190Y-87291095D02*
X144802381Y-87314904D01*
X144802381Y-87314904D02*
X144778571Y-87362523D01*
X144778571Y-87362523D02*
X144778571Y-87481571D01*
X144778571Y-87481571D02*
X144802381Y-87529190D01*
X144802381Y-87529190D02*
X144826190Y-87553000D01*
X144826190Y-87553000D02*
X144873809Y-87576809D01*
X144873809Y-87576809D02*
X145016666Y-87576809D01*
X145016666Y-87576809D02*
X145064285Y-87553000D01*
X145064285Y-87553000D02*
X145088095Y-87529190D01*
D10*
X139261904Y-85454819D02*
X139261904Y-86264342D01*
X139261904Y-86264342D02*
X139214285Y-86359580D01*
X139214285Y-86359580D02*
X139166666Y-86407200D01*
X139166666Y-86407200D02*
X139071428Y-86454819D01*
X139071428Y-86454819D02*
X138880952Y-86454819D01*
X138880952Y-86454819D02*
X138785714Y-86407200D01*
X138785714Y-86407200D02*
X138738095Y-86359580D01*
X138738095Y-86359580D02*
X138690476Y-86264342D01*
X138690476Y-86264342D02*
X138690476Y-85454819D01*
X138166666Y-86454819D02*
X137976190Y-86454819D01*
X137976190Y-86454819D02*
X137880952Y-86407200D01*
X137880952Y-86407200D02*
X137833333Y-86359580D01*
X137833333Y-86359580D02*
X137738095Y-86216723D01*
X137738095Y-86216723D02*
X137690476Y-86026247D01*
X137690476Y-86026247D02*
X137690476Y-85645295D01*
X137690476Y-85645295D02*
X137738095Y-85550057D01*
X137738095Y-85550057D02*
X137785714Y-85502438D01*
X137785714Y-85502438D02*
X137880952Y-85454819D01*
X137880952Y-85454819D02*
X138071428Y-85454819D01*
X138071428Y-85454819D02*
X138166666Y-85502438D01*
X138166666Y-85502438D02*
X138214285Y-85550057D01*
X138214285Y-85550057D02*
X138261904Y-85645295D01*
X138261904Y-85645295D02*
X138261904Y-85883390D01*
X138261904Y-85883390D02*
X138214285Y-85978628D01*
X138214285Y-85978628D02*
X138166666Y-86026247D01*
X138166666Y-86026247D02*
X138071428Y-86073866D01*
X138071428Y-86073866D02*
X137880952Y-86073866D01*
X137880952Y-86073866D02*
X137785714Y-86026247D01*
X137785714Y-86026247D02*
X137738095Y-85978628D01*
X137738095Y-85978628D02*
X137690476Y-85883390D01*
X152566666Y-43854819D02*
X152899999Y-43378628D01*
X153138094Y-43854819D02*
X153138094Y-42854819D01*
X153138094Y-42854819D02*
X152757142Y-42854819D01*
X152757142Y-42854819D02*
X152661904Y-42902438D01*
X152661904Y-42902438D02*
X152614285Y-42950057D01*
X152614285Y-42950057D02*
X152566666Y-43045295D01*
X152566666Y-43045295D02*
X152566666Y-43188152D01*
X152566666Y-43188152D02*
X152614285Y-43283390D01*
X152614285Y-43283390D02*
X152661904Y-43331009D01*
X152661904Y-43331009D02*
X152757142Y-43378628D01*
X152757142Y-43378628D02*
X153138094Y-43378628D01*
X151614285Y-43854819D02*
X152185713Y-43854819D01*
X151899999Y-43854819D02*
X151899999Y-42854819D01*
X151899999Y-42854819D02*
X151995237Y-42997676D01*
X151995237Y-42997676D02*
X152090475Y-43092914D01*
X152090475Y-43092914D02*
X152185713Y-43140533D01*
X149839580Y-50157142D02*
X149887200Y-50109523D01*
X149887200Y-50109523D02*
X149934819Y-49966666D01*
X149934819Y-49966666D02*
X149934819Y-49871428D01*
X149934819Y-49871428D02*
X149887200Y-49728571D01*
X149887200Y-49728571D02*
X149791961Y-49633333D01*
X149791961Y-49633333D02*
X149696723Y-49585714D01*
X149696723Y-49585714D02*
X149506247Y-49538095D01*
X149506247Y-49538095D02*
X149363390Y-49538095D01*
X149363390Y-49538095D02*
X149172914Y-49585714D01*
X149172914Y-49585714D02*
X149077676Y-49633333D01*
X149077676Y-49633333D02*
X148982438Y-49728571D01*
X148982438Y-49728571D02*
X148934819Y-49871428D01*
X148934819Y-49871428D02*
X148934819Y-49966666D01*
X148934819Y-49966666D02*
X148982438Y-50109523D01*
X148982438Y-50109523D02*
X149030057Y-50157142D01*
X148934819Y-50490476D02*
X148934819Y-51109523D01*
X148934819Y-51109523D02*
X149315771Y-50776190D01*
X149315771Y-50776190D02*
X149315771Y-50919047D01*
X149315771Y-50919047D02*
X149363390Y-51014285D01*
X149363390Y-51014285D02*
X149411009Y-51061904D01*
X149411009Y-51061904D02*
X149506247Y-51109523D01*
X149506247Y-51109523D02*
X149744342Y-51109523D01*
X149744342Y-51109523D02*
X149839580Y-51061904D01*
X149839580Y-51061904D02*
X149887200Y-51014285D01*
X149887200Y-51014285D02*
X149934819Y-50919047D01*
X149934819Y-50919047D02*
X149934819Y-50633333D01*
X149934819Y-50633333D02*
X149887200Y-50538095D01*
X149887200Y-50538095D02*
X149839580Y-50490476D01*
X148934819Y-52014285D02*
X148934819Y-51538095D01*
X148934819Y-51538095D02*
X149411009Y-51490476D01*
X149411009Y-51490476D02*
X149363390Y-51538095D01*
X149363390Y-51538095D02*
X149315771Y-51633333D01*
X149315771Y-51633333D02*
X149315771Y-51871428D01*
X149315771Y-51871428D02*
X149363390Y-51966666D01*
X149363390Y-51966666D02*
X149411009Y-52014285D01*
X149411009Y-52014285D02*
X149506247Y-52061904D01*
X149506247Y-52061904D02*
X149744342Y-52061904D01*
X149744342Y-52061904D02*
X149839580Y-52014285D01*
X149839580Y-52014285D02*
X149887200Y-51966666D01*
X149887200Y-51966666D02*
X149934819Y-51871428D01*
X149934819Y-51871428D02*
X149934819Y-51633333D01*
X149934819Y-51633333D02*
X149887200Y-51538095D01*
X149887200Y-51538095D02*
X149839580Y-51490476D01*
X126242857Y-64879580D02*
X126290476Y-64927200D01*
X126290476Y-64927200D02*
X126433333Y-64974819D01*
X126433333Y-64974819D02*
X126528571Y-64974819D01*
X126528571Y-64974819D02*
X126671428Y-64927200D01*
X126671428Y-64927200D02*
X126766666Y-64831961D01*
X126766666Y-64831961D02*
X126814285Y-64736723D01*
X126814285Y-64736723D02*
X126861904Y-64546247D01*
X126861904Y-64546247D02*
X126861904Y-64403390D01*
X126861904Y-64403390D02*
X126814285Y-64212914D01*
X126814285Y-64212914D02*
X126766666Y-64117676D01*
X126766666Y-64117676D02*
X126671428Y-64022438D01*
X126671428Y-64022438D02*
X126528571Y-63974819D01*
X126528571Y-63974819D02*
X126433333Y-63974819D01*
X126433333Y-63974819D02*
X126290476Y-64022438D01*
X126290476Y-64022438D02*
X126242857Y-64070057D01*
X125861904Y-64070057D02*
X125814285Y-64022438D01*
X125814285Y-64022438D02*
X125719047Y-63974819D01*
X125719047Y-63974819D02*
X125480952Y-63974819D01*
X125480952Y-63974819D02*
X125385714Y-64022438D01*
X125385714Y-64022438D02*
X125338095Y-64070057D01*
X125338095Y-64070057D02*
X125290476Y-64165295D01*
X125290476Y-64165295D02*
X125290476Y-64260533D01*
X125290476Y-64260533D02*
X125338095Y-64403390D01*
X125338095Y-64403390D02*
X125909523Y-64974819D01*
X125909523Y-64974819D02*
X125290476Y-64974819D01*
X124671428Y-63974819D02*
X124576190Y-63974819D01*
X124576190Y-63974819D02*
X124480952Y-64022438D01*
X124480952Y-64022438D02*
X124433333Y-64070057D01*
X124433333Y-64070057D02*
X124385714Y-64165295D01*
X124385714Y-64165295D02*
X124338095Y-64355771D01*
X124338095Y-64355771D02*
X124338095Y-64593866D01*
X124338095Y-64593866D02*
X124385714Y-64784342D01*
X124385714Y-64784342D02*
X124433333Y-64879580D01*
X124433333Y-64879580D02*
X124480952Y-64927200D01*
X124480952Y-64927200D02*
X124576190Y-64974819D01*
X124576190Y-64974819D02*
X124671428Y-64974819D01*
X124671428Y-64974819D02*
X124766666Y-64927200D01*
X124766666Y-64927200D02*
X124814285Y-64879580D01*
X124814285Y-64879580D02*
X124861904Y-64784342D01*
X124861904Y-64784342D02*
X124909523Y-64593866D01*
X124909523Y-64593866D02*
X124909523Y-64355771D01*
X124909523Y-64355771D02*
X124861904Y-64165295D01*
X124861904Y-64165295D02*
X124814285Y-64070057D01*
X124814285Y-64070057D02*
X124766666Y-64022438D01*
X124766666Y-64022438D02*
X124671428Y-63974819D01*
X141142857Y-70454819D02*
X141476190Y-69978628D01*
X141714285Y-70454819D02*
X141714285Y-69454819D01*
X141714285Y-69454819D02*
X141333333Y-69454819D01*
X141333333Y-69454819D02*
X141238095Y-69502438D01*
X141238095Y-69502438D02*
X141190476Y-69550057D01*
X141190476Y-69550057D02*
X141142857Y-69645295D01*
X141142857Y-69645295D02*
X141142857Y-69788152D01*
X141142857Y-69788152D02*
X141190476Y-69883390D01*
X141190476Y-69883390D02*
X141238095Y-69931009D01*
X141238095Y-69931009D02*
X141333333Y-69978628D01*
X141333333Y-69978628D02*
X141714285Y-69978628D01*
X140190476Y-70454819D02*
X140761904Y-70454819D01*
X140476190Y-70454819D02*
X140476190Y-69454819D01*
X140476190Y-69454819D02*
X140571428Y-69597676D01*
X140571428Y-69597676D02*
X140666666Y-69692914D01*
X140666666Y-69692914D02*
X140761904Y-69740533D01*
X139333333Y-69454819D02*
X139523809Y-69454819D01*
X139523809Y-69454819D02*
X139619047Y-69502438D01*
X139619047Y-69502438D02*
X139666666Y-69550057D01*
X139666666Y-69550057D02*
X139761904Y-69692914D01*
X139761904Y-69692914D02*
X139809523Y-69883390D01*
X139809523Y-69883390D02*
X139809523Y-70264342D01*
X139809523Y-70264342D02*
X139761904Y-70359580D01*
X139761904Y-70359580D02*
X139714285Y-70407200D01*
X139714285Y-70407200D02*
X139619047Y-70454819D01*
X139619047Y-70454819D02*
X139428571Y-70454819D01*
X139428571Y-70454819D02*
X139333333Y-70407200D01*
X139333333Y-70407200D02*
X139285714Y-70359580D01*
X139285714Y-70359580D02*
X139238095Y-70264342D01*
X139238095Y-70264342D02*
X139238095Y-70026247D01*
X139238095Y-70026247D02*
X139285714Y-69931009D01*
X139285714Y-69931009D02*
X139333333Y-69883390D01*
X139333333Y-69883390D02*
X139428571Y-69835771D01*
X139428571Y-69835771D02*
X139619047Y-69835771D01*
X139619047Y-69835771D02*
X139714285Y-69883390D01*
X139714285Y-69883390D02*
X139761904Y-69931009D01*
X139761904Y-69931009D02*
X139809523Y-70026247D01*
X151566666Y-75559580D02*
X151614285Y-75607200D01*
X151614285Y-75607200D02*
X151757142Y-75654819D01*
X151757142Y-75654819D02*
X151852380Y-75654819D01*
X151852380Y-75654819D02*
X151995237Y-75607200D01*
X151995237Y-75607200D02*
X152090475Y-75511961D01*
X152090475Y-75511961D02*
X152138094Y-75416723D01*
X152138094Y-75416723D02*
X152185713Y-75226247D01*
X152185713Y-75226247D02*
X152185713Y-75083390D01*
X152185713Y-75083390D02*
X152138094Y-74892914D01*
X152138094Y-74892914D02*
X152090475Y-74797676D01*
X152090475Y-74797676D02*
X151995237Y-74702438D01*
X151995237Y-74702438D02*
X151852380Y-74654819D01*
X151852380Y-74654819D02*
X151757142Y-74654819D01*
X151757142Y-74654819D02*
X151614285Y-74702438D01*
X151614285Y-74702438D02*
X151566666Y-74750057D01*
X150709523Y-74988152D02*
X150709523Y-75654819D01*
X150947618Y-74607200D02*
X151185713Y-75321485D01*
X151185713Y-75321485D02*
X150566666Y-75321485D01*
X126333333Y-85854819D02*
X126333333Y-86569104D01*
X126333333Y-86569104D02*
X126380952Y-86711961D01*
X126380952Y-86711961D02*
X126476190Y-86807200D01*
X126476190Y-86807200D02*
X126619047Y-86854819D01*
X126619047Y-86854819D02*
X126714285Y-86854819D01*
X125428571Y-86188152D02*
X125428571Y-86854819D01*
X125666666Y-85807200D02*
X125904761Y-86521485D01*
X125904761Y-86521485D02*
X125285714Y-86521485D01*
X131439580Y-71557142D02*
X131487200Y-71509523D01*
X131487200Y-71509523D02*
X131534819Y-71366666D01*
X131534819Y-71366666D02*
X131534819Y-71271428D01*
X131534819Y-71271428D02*
X131487200Y-71128571D01*
X131487200Y-71128571D02*
X131391961Y-71033333D01*
X131391961Y-71033333D02*
X131296723Y-70985714D01*
X131296723Y-70985714D02*
X131106247Y-70938095D01*
X131106247Y-70938095D02*
X130963390Y-70938095D01*
X130963390Y-70938095D02*
X130772914Y-70985714D01*
X130772914Y-70985714D02*
X130677676Y-71033333D01*
X130677676Y-71033333D02*
X130582438Y-71128571D01*
X130582438Y-71128571D02*
X130534819Y-71271428D01*
X130534819Y-71271428D02*
X130534819Y-71366666D01*
X130534819Y-71366666D02*
X130582438Y-71509523D01*
X130582438Y-71509523D02*
X130630057Y-71557142D01*
X131534819Y-72509523D02*
X131534819Y-71938095D01*
X131534819Y-72223809D02*
X130534819Y-72223809D01*
X130534819Y-72223809D02*
X130677676Y-72128571D01*
X130677676Y-72128571D02*
X130772914Y-72033333D01*
X130772914Y-72033333D02*
X130820533Y-71938095D01*
X130534819Y-73414285D02*
X130534819Y-72938095D01*
X130534819Y-72938095D02*
X131011009Y-72890476D01*
X131011009Y-72890476D02*
X130963390Y-72938095D01*
X130963390Y-72938095D02*
X130915771Y-73033333D01*
X130915771Y-73033333D02*
X130915771Y-73271428D01*
X130915771Y-73271428D02*
X130963390Y-73366666D01*
X130963390Y-73366666D02*
X131011009Y-73414285D01*
X131011009Y-73414285D02*
X131106247Y-73461904D01*
X131106247Y-73461904D02*
X131344342Y-73461904D01*
X131344342Y-73461904D02*
X131439580Y-73414285D01*
X131439580Y-73414285D02*
X131487200Y-73366666D01*
X131487200Y-73366666D02*
X131534819Y-73271428D01*
X131534819Y-73271428D02*
X131534819Y-73033333D01*
X131534819Y-73033333D02*
X131487200Y-72938095D01*
X131487200Y-72938095D02*
X131439580Y-72890476D01*
X116254819Y-73161905D02*
X117064342Y-73161905D01*
X117064342Y-73161905D02*
X117159580Y-73209524D01*
X117159580Y-73209524D02*
X117207200Y-73257143D01*
X117207200Y-73257143D02*
X117254819Y-73352381D01*
X117254819Y-73352381D02*
X117254819Y-73542857D01*
X117254819Y-73542857D02*
X117207200Y-73638095D01*
X117207200Y-73638095D02*
X117159580Y-73685714D01*
X117159580Y-73685714D02*
X117064342Y-73733333D01*
X117064342Y-73733333D02*
X116254819Y-73733333D01*
X117254819Y-74733333D02*
X117254819Y-74161905D01*
X117254819Y-74447619D02*
X116254819Y-74447619D01*
X116254819Y-74447619D02*
X116397676Y-74352381D01*
X116397676Y-74352381D02*
X116492914Y-74257143D01*
X116492914Y-74257143D02*
X116540533Y-74161905D01*
X116254819Y-75590476D02*
X116254819Y-75400000D01*
X116254819Y-75400000D02*
X116302438Y-75304762D01*
X116302438Y-75304762D02*
X116350057Y-75257143D01*
X116350057Y-75257143D02*
X116492914Y-75161905D01*
X116492914Y-75161905D02*
X116683390Y-75114286D01*
X116683390Y-75114286D02*
X117064342Y-75114286D01*
X117064342Y-75114286D02*
X117159580Y-75161905D01*
X117159580Y-75161905D02*
X117207200Y-75209524D01*
X117207200Y-75209524D02*
X117254819Y-75304762D01*
X117254819Y-75304762D02*
X117254819Y-75495238D01*
X117254819Y-75495238D02*
X117207200Y-75590476D01*
X117207200Y-75590476D02*
X117159580Y-75638095D01*
X117159580Y-75638095D02*
X117064342Y-75685714D01*
X117064342Y-75685714D02*
X116826247Y-75685714D01*
X116826247Y-75685714D02*
X116731009Y-75638095D01*
X116731009Y-75638095D02*
X116683390Y-75590476D01*
X116683390Y-75590476D02*
X116635771Y-75495238D01*
X116635771Y-75495238D02*
X116635771Y-75304762D01*
X116635771Y-75304762D02*
X116683390Y-75209524D01*
X116683390Y-75209524D02*
X116731009Y-75161905D01*
X116731009Y-75161905D02*
X116826247Y-75114286D01*
X126205357Y-56959580D02*
X126252976Y-57007200D01*
X126252976Y-57007200D02*
X126395833Y-57054819D01*
X126395833Y-57054819D02*
X126491071Y-57054819D01*
X126491071Y-57054819D02*
X126633928Y-57007200D01*
X126633928Y-57007200D02*
X126729166Y-56911961D01*
X126729166Y-56911961D02*
X126776785Y-56816723D01*
X126776785Y-56816723D02*
X126824404Y-56626247D01*
X126824404Y-56626247D02*
X126824404Y-56483390D01*
X126824404Y-56483390D02*
X126776785Y-56292914D01*
X126776785Y-56292914D02*
X126729166Y-56197676D01*
X126729166Y-56197676D02*
X126633928Y-56102438D01*
X126633928Y-56102438D02*
X126491071Y-56054819D01*
X126491071Y-56054819D02*
X126395833Y-56054819D01*
X126395833Y-56054819D02*
X126252976Y-56102438D01*
X126252976Y-56102438D02*
X126205357Y-56150057D01*
X125348214Y-56388152D02*
X125348214Y-57054819D01*
X125586309Y-56007200D02*
X125824404Y-56721485D01*
X125824404Y-56721485D02*
X125205357Y-56721485D01*
X124872023Y-56150057D02*
X124824404Y-56102438D01*
X124824404Y-56102438D02*
X124729166Y-56054819D01*
X124729166Y-56054819D02*
X124491071Y-56054819D01*
X124491071Y-56054819D02*
X124395833Y-56102438D01*
X124395833Y-56102438D02*
X124348214Y-56150057D01*
X124348214Y-56150057D02*
X124300595Y-56245295D01*
X124300595Y-56245295D02*
X124300595Y-56340533D01*
X124300595Y-56340533D02*
X124348214Y-56483390D01*
X124348214Y-56483390D02*
X124919642Y-57054819D01*
X124919642Y-57054819D02*
X124300595Y-57054819D01*
X125609580Y-79894642D02*
X125657200Y-79847023D01*
X125657200Y-79847023D02*
X125704819Y-79704166D01*
X125704819Y-79704166D02*
X125704819Y-79608928D01*
X125704819Y-79608928D02*
X125657200Y-79466071D01*
X125657200Y-79466071D02*
X125561961Y-79370833D01*
X125561961Y-79370833D02*
X125466723Y-79323214D01*
X125466723Y-79323214D02*
X125276247Y-79275595D01*
X125276247Y-79275595D02*
X125133390Y-79275595D01*
X125133390Y-79275595D02*
X124942914Y-79323214D01*
X124942914Y-79323214D02*
X124847676Y-79370833D01*
X124847676Y-79370833D02*
X124752438Y-79466071D01*
X124752438Y-79466071D02*
X124704819Y-79608928D01*
X124704819Y-79608928D02*
X124704819Y-79704166D01*
X124704819Y-79704166D02*
X124752438Y-79847023D01*
X124752438Y-79847023D02*
X124800057Y-79894642D01*
X125704819Y-80847023D02*
X125704819Y-80275595D01*
X125704819Y-80561309D02*
X124704819Y-80561309D01*
X124704819Y-80561309D02*
X124847676Y-80466071D01*
X124847676Y-80466071D02*
X124942914Y-80370833D01*
X124942914Y-80370833D02*
X124990533Y-80275595D01*
X125038152Y-81704166D02*
X125704819Y-81704166D01*
X124657200Y-81466071D02*
X125371485Y-81227976D01*
X125371485Y-81227976D02*
X125371485Y-81847023D01*
X117004819Y-79157142D02*
X116528628Y-78823809D01*
X117004819Y-78585714D02*
X116004819Y-78585714D01*
X116004819Y-78585714D02*
X116004819Y-78966666D01*
X116004819Y-78966666D02*
X116052438Y-79061904D01*
X116052438Y-79061904D02*
X116100057Y-79109523D01*
X116100057Y-79109523D02*
X116195295Y-79157142D01*
X116195295Y-79157142D02*
X116338152Y-79157142D01*
X116338152Y-79157142D02*
X116433390Y-79109523D01*
X116433390Y-79109523D02*
X116481009Y-79061904D01*
X116481009Y-79061904D02*
X116528628Y-78966666D01*
X116528628Y-78966666D02*
X116528628Y-78585714D01*
X117004819Y-80109523D02*
X117004819Y-79538095D01*
X117004819Y-79823809D02*
X116004819Y-79823809D01*
X116004819Y-79823809D02*
X116147676Y-79728571D01*
X116147676Y-79728571D02*
X116242914Y-79633333D01*
X116242914Y-79633333D02*
X116290533Y-79538095D01*
X116004819Y-81014285D02*
X116004819Y-80538095D01*
X116004819Y-80538095D02*
X116481009Y-80490476D01*
X116481009Y-80490476D02*
X116433390Y-80538095D01*
X116433390Y-80538095D02*
X116385771Y-80633333D01*
X116385771Y-80633333D02*
X116385771Y-80871428D01*
X116385771Y-80871428D02*
X116433390Y-80966666D01*
X116433390Y-80966666D02*
X116481009Y-81014285D01*
X116481009Y-81014285D02*
X116576247Y-81061904D01*
X116576247Y-81061904D02*
X116814342Y-81061904D01*
X116814342Y-81061904D02*
X116909580Y-81014285D01*
X116909580Y-81014285D02*
X116957200Y-80966666D01*
X116957200Y-80966666D02*
X117004819Y-80871428D01*
X117004819Y-80871428D02*
X117004819Y-80633333D01*
X117004819Y-80633333D02*
X116957200Y-80538095D01*
X116957200Y-80538095D02*
X116909580Y-80490476D01*
D11*
X148869046Y-87076809D02*
X148583332Y-87076809D01*
X148726189Y-87576809D02*
X148726189Y-87076809D01*
X148416666Y-87576809D02*
X148416666Y-87076809D01*
X148416666Y-87076809D02*
X148226190Y-87076809D01*
X148226190Y-87076809D02*
X148178571Y-87100619D01*
X148178571Y-87100619D02*
X148154761Y-87124428D01*
X148154761Y-87124428D02*
X148130952Y-87172047D01*
X148130952Y-87172047D02*
X148130952Y-87243476D01*
X148130952Y-87243476D02*
X148154761Y-87291095D01*
X148154761Y-87291095D02*
X148178571Y-87314904D01*
X148178571Y-87314904D02*
X148226190Y-87338714D01*
X148226190Y-87338714D02*
X148416666Y-87338714D01*
X147654761Y-87576809D02*
X147940475Y-87576809D01*
X147797618Y-87576809D02*
X147797618Y-87076809D01*
X147797618Y-87076809D02*
X147845237Y-87148238D01*
X147845237Y-87148238D02*
X147892856Y-87195857D01*
X147892856Y-87195857D02*
X147940475Y-87219666D01*
X147464285Y-87124428D02*
X147440476Y-87100619D01*
X147440476Y-87100619D02*
X147392857Y-87076809D01*
X147392857Y-87076809D02*
X147273809Y-87076809D01*
X147273809Y-87076809D02*
X147226190Y-87100619D01*
X147226190Y-87100619D02*
X147202381Y-87124428D01*
X147202381Y-87124428D02*
X147178571Y-87172047D01*
X147178571Y-87172047D02*
X147178571Y-87219666D01*
X147178571Y-87219666D02*
X147202381Y-87291095D01*
X147202381Y-87291095D02*
X147488095Y-87576809D01*
X147488095Y-87576809D02*
X147178571Y-87576809D01*
D10*
X134854819Y-77357142D02*
X134378628Y-77023809D01*
X134854819Y-76785714D02*
X133854819Y-76785714D01*
X133854819Y-76785714D02*
X133854819Y-77166666D01*
X133854819Y-77166666D02*
X133902438Y-77261904D01*
X133902438Y-77261904D02*
X133950057Y-77309523D01*
X133950057Y-77309523D02*
X134045295Y-77357142D01*
X134045295Y-77357142D02*
X134188152Y-77357142D01*
X134188152Y-77357142D02*
X134283390Y-77309523D01*
X134283390Y-77309523D02*
X134331009Y-77261904D01*
X134331009Y-77261904D02*
X134378628Y-77166666D01*
X134378628Y-77166666D02*
X134378628Y-76785714D01*
X133950057Y-77738095D02*
X133902438Y-77785714D01*
X133902438Y-77785714D02*
X133854819Y-77880952D01*
X133854819Y-77880952D02*
X133854819Y-78119047D01*
X133854819Y-78119047D02*
X133902438Y-78214285D01*
X133902438Y-78214285D02*
X133950057Y-78261904D01*
X133950057Y-78261904D02*
X134045295Y-78309523D01*
X134045295Y-78309523D02*
X134140533Y-78309523D01*
X134140533Y-78309523D02*
X134283390Y-78261904D01*
X134283390Y-78261904D02*
X134854819Y-77690476D01*
X134854819Y-77690476D02*
X134854819Y-78309523D01*
X133854819Y-78928571D02*
X133854819Y-79023809D01*
X133854819Y-79023809D02*
X133902438Y-79119047D01*
X133902438Y-79119047D02*
X133950057Y-79166666D01*
X133950057Y-79166666D02*
X134045295Y-79214285D01*
X134045295Y-79214285D02*
X134235771Y-79261904D01*
X134235771Y-79261904D02*
X134473866Y-79261904D01*
X134473866Y-79261904D02*
X134664342Y-79214285D01*
X134664342Y-79214285D02*
X134759580Y-79166666D01*
X134759580Y-79166666D02*
X134807200Y-79119047D01*
X134807200Y-79119047D02*
X134854819Y-79023809D01*
X134854819Y-79023809D02*
X134854819Y-78928571D01*
X134854819Y-78928571D02*
X134807200Y-78833333D01*
X134807200Y-78833333D02*
X134759580Y-78785714D01*
X134759580Y-78785714D02*
X134664342Y-78738095D01*
X134664342Y-78738095D02*
X134473866Y-78690476D01*
X134473866Y-78690476D02*
X134235771Y-78690476D01*
X134235771Y-78690476D02*
X134045295Y-78738095D01*
X134045295Y-78738095D02*
X133950057Y-78785714D01*
X133950057Y-78785714D02*
X133902438Y-78833333D01*
X133902438Y-78833333D02*
X133854819Y-78928571D01*
D11*
X140669046Y-53924809D02*
X140383332Y-53924809D01*
X140526189Y-54424809D02*
X140526189Y-53924809D01*
X140216666Y-54424809D02*
X140216666Y-53924809D01*
X140216666Y-53924809D02*
X140026190Y-53924809D01*
X140026190Y-53924809D02*
X139978571Y-53948619D01*
X139978571Y-53948619D02*
X139954761Y-53972428D01*
X139954761Y-53972428D02*
X139930952Y-54020047D01*
X139930952Y-54020047D02*
X139930952Y-54091476D01*
X139930952Y-54091476D02*
X139954761Y-54139095D01*
X139954761Y-54139095D02*
X139978571Y-54162904D01*
X139978571Y-54162904D02*
X140026190Y-54186714D01*
X140026190Y-54186714D02*
X140216666Y-54186714D01*
X139454761Y-54424809D02*
X139740475Y-54424809D01*
X139597618Y-54424809D02*
X139597618Y-53924809D01*
X139597618Y-53924809D02*
X139645237Y-53996238D01*
X139645237Y-53996238D02*
X139692856Y-54043857D01*
X139692856Y-54043857D02*
X139740475Y-54067666D01*
X139026190Y-54091476D02*
X139026190Y-54424809D01*
X139145238Y-53901000D02*
X139264285Y-54258142D01*
X139264285Y-54258142D02*
X138954762Y-54258142D01*
D10*
X141966666Y-57959580D02*
X142014285Y-58007200D01*
X142014285Y-58007200D02*
X142157142Y-58054819D01*
X142157142Y-58054819D02*
X142252380Y-58054819D01*
X142252380Y-58054819D02*
X142395237Y-58007200D01*
X142395237Y-58007200D02*
X142490475Y-57911961D01*
X142490475Y-57911961D02*
X142538094Y-57816723D01*
X142538094Y-57816723D02*
X142585713Y-57626247D01*
X142585713Y-57626247D02*
X142585713Y-57483390D01*
X142585713Y-57483390D02*
X142538094Y-57292914D01*
X142538094Y-57292914D02*
X142490475Y-57197676D01*
X142490475Y-57197676D02*
X142395237Y-57102438D01*
X142395237Y-57102438D02*
X142252380Y-57054819D01*
X142252380Y-57054819D02*
X142157142Y-57054819D01*
X142157142Y-57054819D02*
X142014285Y-57102438D01*
X142014285Y-57102438D02*
X141966666Y-57150057D01*
X141395237Y-57483390D02*
X141490475Y-57435771D01*
X141490475Y-57435771D02*
X141538094Y-57388152D01*
X141538094Y-57388152D02*
X141585713Y-57292914D01*
X141585713Y-57292914D02*
X141585713Y-57245295D01*
X141585713Y-57245295D02*
X141538094Y-57150057D01*
X141538094Y-57150057D02*
X141490475Y-57102438D01*
X141490475Y-57102438D02*
X141395237Y-57054819D01*
X141395237Y-57054819D02*
X141204761Y-57054819D01*
X141204761Y-57054819D02*
X141109523Y-57102438D01*
X141109523Y-57102438D02*
X141061904Y-57150057D01*
X141061904Y-57150057D02*
X141014285Y-57245295D01*
X141014285Y-57245295D02*
X141014285Y-57292914D01*
X141014285Y-57292914D02*
X141061904Y-57388152D01*
X141061904Y-57388152D02*
X141109523Y-57435771D01*
X141109523Y-57435771D02*
X141204761Y-57483390D01*
X141204761Y-57483390D02*
X141395237Y-57483390D01*
X141395237Y-57483390D02*
X141490475Y-57531009D01*
X141490475Y-57531009D02*
X141538094Y-57578628D01*
X141538094Y-57578628D02*
X141585713Y-57673866D01*
X141585713Y-57673866D02*
X141585713Y-57864342D01*
X141585713Y-57864342D02*
X141538094Y-57959580D01*
X141538094Y-57959580D02*
X141490475Y-58007200D01*
X141490475Y-58007200D02*
X141395237Y-58054819D01*
X141395237Y-58054819D02*
X141204761Y-58054819D01*
X141204761Y-58054819D02*
X141109523Y-58007200D01*
X141109523Y-58007200D02*
X141061904Y-57959580D01*
X141061904Y-57959580D02*
X141014285Y-57864342D01*
X141014285Y-57864342D02*
X141014285Y-57673866D01*
X141014285Y-57673866D02*
X141061904Y-57578628D01*
X141061904Y-57578628D02*
X141109523Y-57531009D01*
X141109523Y-57531009D02*
X141204761Y-57483390D01*
X127242857Y-47559580D02*
X127290476Y-47607200D01*
X127290476Y-47607200D02*
X127433333Y-47654819D01*
X127433333Y-47654819D02*
X127528571Y-47654819D01*
X127528571Y-47654819D02*
X127671428Y-47607200D01*
X127671428Y-47607200D02*
X127766666Y-47511961D01*
X127766666Y-47511961D02*
X127814285Y-47416723D01*
X127814285Y-47416723D02*
X127861904Y-47226247D01*
X127861904Y-47226247D02*
X127861904Y-47083390D01*
X127861904Y-47083390D02*
X127814285Y-46892914D01*
X127814285Y-46892914D02*
X127766666Y-46797676D01*
X127766666Y-46797676D02*
X127671428Y-46702438D01*
X127671428Y-46702438D02*
X127528571Y-46654819D01*
X127528571Y-46654819D02*
X127433333Y-46654819D01*
X127433333Y-46654819D02*
X127290476Y-46702438D01*
X127290476Y-46702438D02*
X127242857Y-46750057D01*
X126909523Y-46654819D02*
X126290476Y-46654819D01*
X126290476Y-46654819D02*
X126623809Y-47035771D01*
X126623809Y-47035771D02*
X126480952Y-47035771D01*
X126480952Y-47035771D02*
X126385714Y-47083390D01*
X126385714Y-47083390D02*
X126338095Y-47131009D01*
X126338095Y-47131009D02*
X126290476Y-47226247D01*
X126290476Y-47226247D02*
X126290476Y-47464342D01*
X126290476Y-47464342D02*
X126338095Y-47559580D01*
X126338095Y-47559580D02*
X126385714Y-47607200D01*
X126385714Y-47607200D02*
X126480952Y-47654819D01*
X126480952Y-47654819D02*
X126766666Y-47654819D01*
X126766666Y-47654819D02*
X126861904Y-47607200D01*
X126861904Y-47607200D02*
X126909523Y-47559580D01*
X125957142Y-46654819D02*
X125338095Y-46654819D01*
X125338095Y-46654819D02*
X125671428Y-47035771D01*
X125671428Y-47035771D02*
X125528571Y-47035771D01*
X125528571Y-47035771D02*
X125433333Y-47083390D01*
X125433333Y-47083390D02*
X125385714Y-47131009D01*
X125385714Y-47131009D02*
X125338095Y-47226247D01*
X125338095Y-47226247D02*
X125338095Y-47464342D01*
X125338095Y-47464342D02*
X125385714Y-47559580D01*
X125385714Y-47559580D02*
X125433333Y-47607200D01*
X125433333Y-47607200D02*
X125528571Y-47654819D01*
X125528571Y-47654819D02*
X125814285Y-47654819D01*
X125814285Y-47654819D02*
X125909523Y-47607200D01*
X125909523Y-47607200D02*
X125957142Y-47559580D01*
X128044819Y-79963333D02*
X127568628Y-79630000D01*
X128044819Y-79391905D02*
X127044819Y-79391905D01*
X127044819Y-79391905D02*
X127044819Y-79772857D01*
X127044819Y-79772857D02*
X127092438Y-79868095D01*
X127092438Y-79868095D02*
X127140057Y-79915714D01*
X127140057Y-79915714D02*
X127235295Y-79963333D01*
X127235295Y-79963333D02*
X127378152Y-79963333D01*
X127378152Y-79963333D02*
X127473390Y-79915714D01*
X127473390Y-79915714D02*
X127521009Y-79868095D01*
X127521009Y-79868095D02*
X127568628Y-79772857D01*
X127568628Y-79772857D02*
X127568628Y-79391905D01*
X127044819Y-80868095D02*
X127044819Y-80391905D01*
X127044819Y-80391905D02*
X127521009Y-80344286D01*
X127521009Y-80344286D02*
X127473390Y-80391905D01*
X127473390Y-80391905D02*
X127425771Y-80487143D01*
X127425771Y-80487143D02*
X127425771Y-80725238D01*
X127425771Y-80725238D02*
X127473390Y-80820476D01*
X127473390Y-80820476D02*
X127521009Y-80868095D01*
X127521009Y-80868095D02*
X127616247Y-80915714D01*
X127616247Y-80915714D02*
X127854342Y-80915714D01*
X127854342Y-80915714D02*
X127949580Y-80868095D01*
X127949580Y-80868095D02*
X127997200Y-80820476D01*
X127997200Y-80820476D02*
X128044819Y-80725238D01*
X128044819Y-80725238D02*
X128044819Y-80487143D01*
X128044819Y-80487143D02*
X127997200Y-80391905D01*
X127997200Y-80391905D02*
X127949580Y-80344286D01*
D11*
X125683333Y-67824809D02*
X125849999Y-67586714D01*
X125969047Y-67824809D02*
X125969047Y-67324809D01*
X125969047Y-67324809D02*
X125778571Y-67324809D01*
X125778571Y-67324809D02*
X125730952Y-67348619D01*
X125730952Y-67348619D02*
X125707142Y-67372428D01*
X125707142Y-67372428D02*
X125683333Y-67420047D01*
X125683333Y-67420047D02*
X125683333Y-67491476D01*
X125683333Y-67491476D02*
X125707142Y-67539095D01*
X125707142Y-67539095D02*
X125730952Y-67562904D01*
X125730952Y-67562904D02*
X125778571Y-67586714D01*
X125778571Y-67586714D02*
X125969047Y-67586714D01*
X125254761Y-67324809D02*
X125349999Y-67324809D01*
X125349999Y-67324809D02*
X125397618Y-67348619D01*
X125397618Y-67348619D02*
X125421428Y-67372428D01*
X125421428Y-67372428D02*
X125469047Y-67443857D01*
X125469047Y-67443857D02*
X125492856Y-67539095D01*
X125492856Y-67539095D02*
X125492856Y-67729571D01*
X125492856Y-67729571D02*
X125469047Y-67777190D01*
X125469047Y-67777190D02*
X125445237Y-67801000D01*
X125445237Y-67801000D02*
X125397618Y-67824809D01*
X125397618Y-67824809D02*
X125302380Y-67824809D01*
X125302380Y-67824809D02*
X125254761Y-67801000D01*
X125254761Y-67801000D02*
X125230952Y-67777190D01*
X125230952Y-67777190D02*
X125207142Y-67729571D01*
X125207142Y-67729571D02*
X125207142Y-67610523D01*
X125207142Y-67610523D02*
X125230952Y-67562904D01*
X125230952Y-67562904D02*
X125254761Y-67539095D01*
X125254761Y-67539095D02*
X125302380Y-67515285D01*
X125302380Y-67515285D02*
X125397618Y-67515285D01*
X125397618Y-67515285D02*
X125445237Y-67539095D01*
X125445237Y-67539095D02*
X125469047Y-67562904D01*
X125469047Y-67562904D02*
X125492856Y-67610523D01*
D10*
X129042857Y-63559580D02*
X129090476Y-63607200D01*
X129090476Y-63607200D02*
X129233333Y-63654819D01*
X129233333Y-63654819D02*
X129328571Y-63654819D01*
X129328571Y-63654819D02*
X129471428Y-63607200D01*
X129471428Y-63607200D02*
X129566666Y-63511961D01*
X129566666Y-63511961D02*
X129614285Y-63416723D01*
X129614285Y-63416723D02*
X129661904Y-63226247D01*
X129661904Y-63226247D02*
X129661904Y-63083390D01*
X129661904Y-63083390D02*
X129614285Y-62892914D01*
X129614285Y-62892914D02*
X129566666Y-62797676D01*
X129566666Y-62797676D02*
X129471428Y-62702438D01*
X129471428Y-62702438D02*
X129328571Y-62654819D01*
X129328571Y-62654819D02*
X129233333Y-62654819D01*
X129233333Y-62654819D02*
X129090476Y-62702438D01*
X129090476Y-62702438D02*
X129042857Y-62750057D01*
X128185714Y-62988152D02*
X128185714Y-63654819D01*
X128423809Y-62607200D02*
X128661904Y-63321485D01*
X128661904Y-63321485D02*
X128042857Y-63321485D01*
X127138095Y-63654819D02*
X127709523Y-63654819D01*
X127423809Y-63654819D02*
X127423809Y-62654819D01*
X127423809Y-62654819D02*
X127519047Y-62797676D01*
X127519047Y-62797676D02*
X127614285Y-62892914D01*
X127614285Y-62892914D02*
X127709523Y-62940533D01*
D11*
X139230950Y-56724809D02*
X138945236Y-56724809D01*
X139088093Y-57224809D02*
X139088093Y-56724809D01*
X138778570Y-57224809D02*
X138778570Y-56724809D01*
X138778570Y-56724809D02*
X138588094Y-56724809D01*
X138588094Y-56724809D02*
X138540475Y-56748619D01*
X138540475Y-56748619D02*
X138516665Y-56772428D01*
X138516665Y-56772428D02*
X138492856Y-56820047D01*
X138492856Y-56820047D02*
X138492856Y-56891476D01*
X138492856Y-56891476D02*
X138516665Y-56939095D01*
X138516665Y-56939095D02*
X138540475Y-56962904D01*
X138540475Y-56962904D02*
X138588094Y-56986714D01*
X138588094Y-56986714D02*
X138778570Y-56986714D01*
X138302379Y-57201000D02*
X138230951Y-57224809D01*
X138230951Y-57224809D02*
X138111903Y-57224809D01*
X138111903Y-57224809D02*
X138064284Y-57201000D01*
X138064284Y-57201000D02*
X138040475Y-57177190D01*
X138040475Y-57177190D02*
X138016665Y-57129571D01*
X138016665Y-57129571D02*
X138016665Y-57081952D01*
X138016665Y-57081952D02*
X138040475Y-57034333D01*
X138040475Y-57034333D02*
X138064284Y-57010523D01*
X138064284Y-57010523D02*
X138111903Y-56986714D01*
X138111903Y-56986714D02*
X138207141Y-56962904D01*
X138207141Y-56962904D02*
X138254760Y-56939095D01*
X138254760Y-56939095D02*
X138278570Y-56915285D01*
X138278570Y-56915285D02*
X138302379Y-56867666D01*
X138302379Y-56867666D02*
X138302379Y-56820047D01*
X138302379Y-56820047D02*
X138278570Y-56772428D01*
X138278570Y-56772428D02*
X138254760Y-56748619D01*
X138254760Y-56748619D02*
X138207141Y-56724809D01*
X138207141Y-56724809D02*
X138088094Y-56724809D01*
X138088094Y-56724809D02*
X138016665Y-56748619D01*
X137540475Y-57224809D02*
X137826189Y-57224809D01*
X137683332Y-57224809D02*
X137683332Y-56724809D01*
X137683332Y-56724809D02*
X137730951Y-56796238D01*
X137730951Y-56796238D02*
X137778570Y-56843857D01*
X137778570Y-56843857D02*
X137826189Y-56867666D01*
X137445238Y-57272428D02*
X137064285Y-57272428D01*
X136945238Y-57224809D02*
X136945238Y-56891476D01*
X136945238Y-56939095D02*
X136921428Y-56915285D01*
X136921428Y-56915285D02*
X136873809Y-56891476D01*
X136873809Y-56891476D02*
X136802381Y-56891476D01*
X136802381Y-56891476D02*
X136754762Y-56915285D01*
X136754762Y-56915285D02*
X136730952Y-56962904D01*
X136730952Y-56962904D02*
X136730952Y-57224809D01*
X136730952Y-56962904D02*
X136707143Y-56915285D01*
X136707143Y-56915285D02*
X136659524Y-56891476D01*
X136659524Y-56891476D02*
X136588095Y-56891476D01*
X136588095Y-56891476D02*
X136540476Y-56915285D01*
X136540476Y-56915285D02*
X136516666Y-56962904D01*
X136516666Y-56962904D02*
X136516666Y-57224809D01*
X136016666Y-57224809D02*
X136302380Y-57224809D01*
X136159523Y-57224809D02*
X136159523Y-56724809D01*
X136159523Y-56724809D02*
X136207142Y-56796238D01*
X136207142Y-56796238D02*
X136254761Y-56843857D01*
X136254761Y-56843857D02*
X136302380Y-56867666D01*
D10*
X130392857Y-48859580D02*
X130440476Y-48907200D01*
X130440476Y-48907200D02*
X130583333Y-48954819D01*
X130583333Y-48954819D02*
X130678571Y-48954819D01*
X130678571Y-48954819D02*
X130821428Y-48907200D01*
X130821428Y-48907200D02*
X130916666Y-48811961D01*
X130916666Y-48811961D02*
X130964285Y-48716723D01*
X130964285Y-48716723D02*
X131011904Y-48526247D01*
X131011904Y-48526247D02*
X131011904Y-48383390D01*
X131011904Y-48383390D02*
X130964285Y-48192914D01*
X130964285Y-48192914D02*
X130916666Y-48097676D01*
X130916666Y-48097676D02*
X130821428Y-48002438D01*
X130821428Y-48002438D02*
X130678571Y-47954819D01*
X130678571Y-47954819D02*
X130583333Y-47954819D01*
X130583333Y-47954819D02*
X130440476Y-48002438D01*
X130440476Y-48002438D02*
X130392857Y-48050057D01*
X130059523Y-47954819D02*
X129440476Y-47954819D01*
X129440476Y-47954819D02*
X129773809Y-48335771D01*
X129773809Y-48335771D02*
X129630952Y-48335771D01*
X129630952Y-48335771D02*
X129535714Y-48383390D01*
X129535714Y-48383390D02*
X129488095Y-48431009D01*
X129488095Y-48431009D02*
X129440476Y-48526247D01*
X129440476Y-48526247D02*
X129440476Y-48764342D01*
X129440476Y-48764342D02*
X129488095Y-48859580D01*
X129488095Y-48859580D02*
X129535714Y-48907200D01*
X129535714Y-48907200D02*
X129630952Y-48954819D01*
X129630952Y-48954819D02*
X129916666Y-48954819D01*
X129916666Y-48954819D02*
X130011904Y-48907200D01*
X130011904Y-48907200D02*
X130059523Y-48859580D01*
X128869047Y-48383390D02*
X128964285Y-48335771D01*
X128964285Y-48335771D02*
X129011904Y-48288152D01*
X129011904Y-48288152D02*
X129059523Y-48192914D01*
X129059523Y-48192914D02*
X129059523Y-48145295D01*
X129059523Y-48145295D02*
X129011904Y-48050057D01*
X129011904Y-48050057D02*
X128964285Y-48002438D01*
X128964285Y-48002438D02*
X128869047Y-47954819D01*
X128869047Y-47954819D02*
X128678571Y-47954819D01*
X128678571Y-47954819D02*
X128583333Y-48002438D01*
X128583333Y-48002438D02*
X128535714Y-48050057D01*
X128535714Y-48050057D02*
X128488095Y-48145295D01*
X128488095Y-48145295D02*
X128488095Y-48192914D01*
X128488095Y-48192914D02*
X128535714Y-48288152D01*
X128535714Y-48288152D02*
X128583333Y-48335771D01*
X128583333Y-48335771D02*
X128678571Y-48383390D01*
X128678571Y-48383390D02*
X128869047Y-48383390D01*
X128869047Y-48383390D02*
X128964285Y-48431009D01*
X128964285Y-48431009D02*
X129011904Y-48478628D01*
X129011904Y-48478628D02*
X129059523Y-48573866D01*
X129059523Y-48573866D02*
X129059523Y-48764342D01*
X129059523Y-48764342D02*
X129011904Y-48859580D01*
X129011904Y-48859580D02*
X128964285Y-48907200D01*
X128964285Y-48907200D02*
X128869047Y-48954819D01*
X128869047Y-48954819D02*
X128678571Y-48954819D01*
X128678571Y-48954819D02*
X128583333Y-48907200D01*
X128583333Y-48907200D02*
X128535714Y-48859580D01*
X128535714Y-48859580D02*
X128488095Y-48764342D01*
X128488095Y-48764342D02*
X128488095Y-48573866D01*
X128488095Y-48573866D02*
X128535714Y-48478628D01*
X128535714Y-48478628D02*
X128583333Y-48431009D01*
X128583333Y-48431009D02*
X128678571Y-48383390D01*
X143133333Y-45731009D02*
X143466666Y-45731009D01*
X143466666Y-46254819D02*
X143466666Y-45254819D01*
X143466666Y-45254819D02*
X142990476Y-45254819D01*
X142085714Y-46254819D02*
X142657142Y-46254819D01*
X142371428Y-46254819D02*
X142371428Y-45254819D01*
X142371428Y-45254819D02*
X142466666Y-45397676D01*
X142466666Y-45397676D02*
X142561904Y-45492914D01*
X142561904Y-45492914D02*
X142657142Y-45540533D01*
X137642857Y-54159580D02*
X137690476Y-54207200D01*
X137690476Y-54207200D02*
X137833333Y-54254819D01*
X137833333Y-54254819D02*
X137928571Y-54254819D01*
X137928571Y-54254819D02*
X138071428Y-54207200D01*
X138071428Y-54207200D02*
X138166666Y-54111961D01*
X138166666Y-54111961D02*
X138214285Y-54016723D01*
X138214285Y-54016723D02*
X138261904Y-53826247D01*
X138261904Y-53826247D02*
X138261904Y-53683390D01*
X138261904Y-53683390D02*
X138214285Y-53492914D01*
X138214285Y-53492914D02*
X138166666Y-53397676D01*
X138166666Y-53397676D02*
X138071428Y-53302438D01*
X138071428Y-53302438D02*
X137928571Y-53254819D01*
X137928571Y-53254819D02*
X137833333Y-53254819D01*
X137833333Y-53254819D02*
X137690476Y-53302438D01*
X137690476Y-53302438D02*
X137642857Y-53350057D01*
X137309523Y-53254819D02*
X136690476Y-53254819D01*
X136690476Y-53254819D02*
X137023809Y-53635771D01*
X137023809Y-53635771D02*
X136880952Y-53635771D01*
X136880952Y-53635771D02*
X136785714Y-53683390D01*
X136785714Y-53683390D02*
X136738095Y-53731009D01*
X136738095Y-53731009D02*
X136690476Y-53826247D01*
X136690476Y-53826247D02*
X136690476Y-54064342D01*
X136690476Y-54064342D02*
X136738095Y-54159580D01*
X136738095Y-54159580D02*
X136785714Y-54207200D01*
X136785714Y-54207200D02*
X136880952Y-54254819D01*
X136880952Y-54254819D02*
X137166666Y-54254819D01*
X137166666Y-54254819D02*
X137261904Y-54207200D01*
X137261904Y-54207200D02*
X137309523Y-54159580D01*
X136309523Y-53350057D02*
X136261904Y-53302438D01*
X136261904Y-53302438D02*
X136166666Y-53254819D01*
X136166666Y-53254819D02*
X135928571Y-53254819D01*
X135928571Y-53254819D02*
X135833333Y-53302438D01*
X135833333Y-53302438D02*
X135785714Y-53350057D01*
X135785714Y-53350057D02*
X135738095Y-53445295D01*
X135738095Y-53445295D02*
X135738095Y-53540533D01*
X135738095Y-53540533D02*
X135785714Y-53683390D01*
X135785714Y-53683390D02*
X136357142Y-54254819D01*
X136357142Y-54254819D02*
X135738095Y-54254819D01*
X141392857Y-74454819D02*
X141726190Y-73978628D01*
X141964285Y-74454819D02*
X141964285Y-73454819D01*
X141964285Y-73454819D02*
X141583333Y-73454819D01*
X141583333Y-73454819D02*
X141488095Y-73502438D01*
X141488095Y-73502438D02*
X141440476Y-73550057D01*
X141440476Y-73550057D02*
X141392857Y-73645295D01*
X141392857Y-73645295D02*
X141392857Y-73788152D01*
X141392857Y-73788152D02*
X141440476Y-73883390D01*
X141440476Y-73883390D02*
X141488095Y-73931009D01*
X141488095Y-73931009D02*
X141583333Y-73978628D01*
X141583333Y-73978628D02*
X141964285Y-73978628D01*
X140440476Y-74454819D02*
X141011904Y-74454819D01*
X140726190Y-74454819D02*
X140726190Y-73454819D01*
X140726190Y-73454819D02*
X140821428Y-73597676D01*
X140821428Y-73597676D02*
X140916666Y-73692914D01*
X140916666Y-73692914D02*
X141011904Y-73740533D01*
X139869047Y-73883390D02*
X139964285Y-73835771D01*
X139964285Y-73835771D02*
X140011904Y-73788152D01*
X140011904Y-73788152D02*
X140059523Y-73692914D01*
X140059523Y-73692914D02*
X140059523Y-73645295D01*
X140059523Y-73645295D02*
X140011904Y-73550057D01*
X140011904Y-73550057D02*
X139964285Y-73502438D01*
X139964285Y-73502438D02*
X139869047Y-73454819D01*
X139869047Y-73454819D02*
X139678571Y-73454819D01*
X139678571Y-73454819D02*
X139583333Y-73502438D01*
X139583333Y-73502438D02*
X139535714Y-73550057D01*
X139535714Y-73550057D02*
X139488095Y-73645295D01*
X139488095Y-73645295D02*
X139488095Y-73692914D01*
X139488095Y-73692914D02*
X139535714Y-73788152D01*
X139535714Y-73788152D02*
X139583333Y-73835771D01*
X139583333Y-73835771D02*
X139678571Y-73883390D01*
X139678571Y-73883390D02*
X139869047Y-73883390D01*
X139869047Y-73883390D02*
X139964285Y-73931009D01*
X139964285Y-73931009D02*
X140011904Y-73978628D01*
X140011904Y-73978628D02*
X140059523Y-74073866D01*
X140059523Y-74073866D02*
X140059523Y-74264342D01*
X140059523Y-74264342D02*
X140011904Y-74359580D01*
X140011904Y-74359580D02*
X139964285Y-74407200D01*
X139964285Y-74407200D02*
X139869047Y-74454819D01*
X139869047Y-74454819D02*
X139678571Y-74454819D01*
X139678571Y-74454819D02*
X139583333Y-74407200D01*
X139583333Y-74407200D02*
X139535714Y-74359580D01*
X139535714Y-74359580D02*
X139488095Y-74264342D01*
X139488095Y-74264342D02*
X139488095Y-74073866D01*
X139488095Y-74073866D02*
X139535714Y-73978628D01*
X139535714Y-73978628D02*
X139583333Y-73931009D01*
X139583333Y-73931009D02*
X139678571Y-73883390D01*
D12*
X124440790Y-73909412D02*
X124440790Y-73778178D01*
X124647014Y-73778178D02*
X124253313Y-73778178D01*
X124253313Y-73778178D02*
X124253313Y-73965655D01*
X124647014Y-74303113D02*
X124647014Y-74115636D01*
X124647014Y-74115636D02*
X124253313Y-74115636D01*
X124647014Y-74640570D02*
X124647014Y-74415598D01*
X124647014Y-74528084D02*
X124253313Y-74528084D01*
X124253313Y-74528084D02*
X124309556Y-74490589D01*
X124309556Y-74490589D02*
X124347052Y-74453094D01*
X124347052Y-74453094D02*
X124365799Y-74415598D01*
D10*
X151442857Y-83654819D02*
X151776190Y-83178628D01*
X152014285Y-83654819D02*
X152014285Y-82654819D01*
X152014285Y-82654819D02*
X151633333Y-82654819D01*
X151633333Y-82654819D02*
X151538095Y-82702438D01*
X151538095Y-82702438D02*
X151490476Y-82750057D01*
X151490476Y-82750057D02*
X151442857Y-82845295D01*
X151442857Y-82845295D02*
X151442857Y-82988152D01*
X151442857Y-82988152D02*
X151490476Y-83083390D01*
X151490476Y-83083390D02*
X151538095Y-83131009D01*
X151538095Y-83131009D02*
X151633333Y-83178628D01*
X151633333Y-83178628D02*
X152014285Y-83178628D01*
X151061904Y-82750057D02*
X151014285Y-82702438D01*
X151014285Y-82702438D02*
X150919047Y-82654819D01*
X150919047Y-82654819D02*
X150680952Y-82654819D01*
X150680952Y-82654819D02*
X150585714Y-82702438D01*
X150585714Y-82702438D02*
X150538095Y-82750057D01*
X150538095Y-82750057D02*
X150490476Y-82845295D01*
X150490476Y-82845295D02*
X150490476Y-82940533D01*
X150490476Y-82940533D02*
X150538095Y-83083390D01*
X150538095Y-83083390D02*
X151109523Y-83654819D01*
X151109523Y-83654819D02*
X150490476Y-83654819D01*
X149538095Y-83654819D02*
X150109523Y-83654819D01*
X149823809Y-83654819D02*
X149823809Y-82654819D01*
X149823809Y-82654819D02*
X149919047Y-82797676D01*
X149919047Y-82797676D02*
X150014285Y-82892914D01*
X150014285Y-82892914D02*
X150109523Y-82940533D01*
X118642857Y-68759580D02*
X118690476Y-68807200D01*
X118690476Y-68807200D02*
X118833333Y-68854819D01*
X118833333Y-68854819D02*
X118928571Y-68854819D01*
X118928571Y-68854819D02*
X119071428Y-68807200D01*
X119071428Y-68807200D02*
X119166666Y-68711961D01*
X119166666Y-68711961D02*
X119214285Y-68616723D01*
X119214285Y-68616723D02*
X119261904Y-68426247D01*
X119261904Y-68426247D02*
X119261904Y-68283390D01*
X119261904Y-68283390D02*
X119214285Y-68092914D01*
X119214285Y-68092914D02*
X119166666Y-67997676D01*
X119166666Y-67997676D02*
X119071428Y-67902438D01*
X119071428Y-67902438D02*
X118928571Y-67854819D01*
X118928571Y-67854819D02*
X118833333Y-67854819D01*
X118833333Y-67854819D02*
X118690476Y-67902438D01*
X118690476Y-67902438D02*
X118642857Y-67950057D01*
X117690476Y-68854819D02*
X118261904Y-68854819D01*
X117976190Y-68854819D02*
X117976190Y-67854819D01*
X117976190Y-67854819D02*
X118071428Y-67997676D01*
X118071428Y-67997676D02*
X118166666Y-68092914D01*
X118166666Y-68092914D02*
X118261904Y-68140533D01*
X117214285Y-68854819D02*
X117023809Y-68854819D01*
X117023809Y-68854819D02*
X116928571Y-68807200D01*
X116928571Y-68807200D02*
X116880952Y-68759580D01*
X116880952Y-68759580D02*
X116785714Y-68616723D01*
X116785714Y-68616723D02*
X116738095Y-68426247D01*
X116738095Y-68426247D02*
X116738095Y-68045295D01*
X116738095Y-68045295D02*
X116785714Y-67950057D01*
X116785714Y-67950057D02*
X116833333Y-67902438D01*
X116833333Y-67902438D02*
X116928571Y-67854819D01*
X116928571Y-67854819D02*
X117119047Y-67854819D01*
X117119047Y-67854819D02*
X117214285Y-67902438D01*
X117214285Y-67902438D02*
X117261904Y-67950057D01*
X117261904Y-67950057D02*
X117309523Y-68045295D01*
X117309523Y-68045295D02*
X117309523Y-68283390D01*
X117309523Y-68283390D02*
X117261904Y-68378628D01*
X117261904Y-68378628D02*
X117214285Y-68426247D01*
X117214285Y-68426247D02*
X117119047Y-68473866D01*
X117119047Y-68473866D02*
X116928571Y-68473866D01*
X116928571Y-68473866D02*
X116833333Y-68426247D01*
X116833333Y-68426247D02*
X116785714Y-68378628D01*
X116785714Y-68378628D02*
X116738095Y-68283390D01*
X120654819Y-54266666D02*
X121369104Y-54266666D01*
X121369104Y-54266666D02*
X121511961Y-54219047D01*
X121511961Y-54219047D02*
X121607200Y-54123809D01*
X121607200Y-54123809D02*
X121654819Y-53980952D01*
X121654819Y-53980952D02*
X121654819Y-53885714D01*
X120654819Y-54647619D02*
X120654819Y-55266666D01*
X120654819Y-55266666D02*
X121035771Y-54933333D01*
X121035771Y-54933333D02*
X121035771Y-55076190D01*
X121035771Y-55076190D02*
X121083390Y-55171428D01*
X121083390Y-55171428D02*
X121131009Y-55219047D01*
X121131009Y-55219047D02*
X121226247Y-55266666D01*
X121226247Y-55266666D02*
X121464342Y-55266666D01*
X121464342Y-55266666D02*
X121559580Y-55219047D01*
X121559580Y-55219047D02*
X121607200Y-55171428D01*
X121607200Y-55171428D02*
X121654819Y-55076190D01*
X121654819Y-55076190D02*
X121654819Y-54790476D01*
X121654819Y-54790476D02*
X121607200Y-54695238D01*
X121607200Y-54695238D02*
X121559580Y-54647619D01*
X133775000Y-69939164D02*
X134025000Y-69582021D01*
X134203571Y-69939164D02*
X134203571Y-69189164D01*
X134203571Y-69189164D02*
X133917857Y-69189164D01*
X133917857Y-69189164D02*
X133846428Y-69224878D01*
X133846428Y-69224878D02*
X133810714Y-69260592D01*
X133810714Y-69260592D02*
X133775000Y-69332021D01*
X133775000Y-69332021D02*
X133775000Y-69439164D01*
X133775000Y-69439164D02*
X133810714Y-69510592D01*
X133810714Y-69510592D02*
X133846428Y-69546307D01*
X133846428Y-69546307D02*
X133917857Y-69582021D01*
X133917857Y-69582021D02*
X134203571Y-69582021D01*
X133346428Y-69510592D02*
X133417857Y-69474878D01*
X133417857Y-69474878D02*
X133453571Y-69439164D01*
X133453571Y-69439164D02*
X133489285Y-69367735D01*
X133489285Y-69367735D02*
X133489285Y-69332021D01*
X133489285Y-69332021D02*
X133453571Y-69260592D01*
X133453571Y-69260592D02*
X133417857Y-69224878D01*
X133417857Y-69224878D02*
X133346428Y-69189164D01*
X133346428Y-69189164D02*
X133203571Y-69189164D01*
X133203571Y-69189164D02*
X133132143Y-69224878D01*
X133132143Y-69224878D02*
X133096428Y-69260592D01*
X133096428Y-69260592D02*
X133060714Y-69332021D01*
X133060714Y-69332021D02*
X133060714Y-69367735D01*
X133060714Y-69367735D02*
X133096428Y-69439164D01*
X133096428Y-69439164D02*
X133132143Y-69474878D01*
X133132143Y-69474878D02*
X133203571Y-69510592D01*
X133203571Y-69510592D02*
X133346428Y-69510592D01*
X133346428Y-69510592D02*
X133417857Y-69546307D01*
X133417857Y-69546307D02*
X133453571Y-69582021D01*
X133453571Y-69582021D02*
X133489285Y-69653450D01*
X133489285Y-69653450D02*
X133489285Y-69796307D01*
X133489285Y-69796307D02*
X133453571Y-69867735D01*
X133453571Y-69867735D02*
X133417857Y-69903450D01*
X133417857Y-69903450D02*
X133346428Y-69939164D01*
X133346428Y-69939164D02*
X133203571Y-69939164D01*
X133203571Y-69939164D02*
X133132143Y-69903450D01*
X133132143Y-69903450D02*
X133096428Y-69867735D01*
X133096428Y-69867735D02*
X133060714Y-69796307D01*
X133060714Y-69796307D02*
X133060714Y-69653450D01*
X133060714Y-69653450D02*
X133096428Y-69582021D01*
X133096428Y-69582021D02*
X133132143Y-69546307D01*
X133132143Y-69546307D02*
X133203571Y-69510592D01*
X146082143Y-48739164D02*
X146332143Y-48382021D01*
X146510714Y-48739164D02*
X146510714Y-47989164D01*
X146510714Y-47989164D02*
X146225000Y-47989164D01*
X146225000Y-47989164D02*
X146153571Y-48024878D01*
X146153571Y-48024878D02*
X146117857Y-48060592D01*
X146117857Y-48060592D02*
X146082143Y-48132021D01*
X146082143Y-48132021D02*
X146082143Y-48239164D01*
X146082143Y-48239164D02*
X146117857Y-48310592D01*
X146117857Y-48310592D02*
X146153571Y-48346307D01*
X146153571Y-48346307D02*
X146225000Y-48382021D01*
X146225000Y-48382021D02*
X146510714Y-48382021D01*
X145367857Y-48739164D02*
X145796428Y-48739164D01*
X145582143Y-48739164D02*
X145582143Y-47989164D01*
X145582143Y-47989164D02*
X145653571Y-48096307D01*
X145653571Y-48096307D02*
X145725000Y-48167735D01*
X145725000Y-48167735D02*
X145796428Y-48203450D01*
X145082142Y-48060592D02*
X145046428Y-48024878D01*
X145046428Y-48024878D02*
X144975000Y-47989164D01*
X144975000Y-47989164D02*
X144796428Y-47989164D01*
X144796428Y-47989164D02*
X144725000Y-48024878D01*
X144725000Y-48024878D02*
X144689285Y-48060592D01*
X144689285Y-48060592D02*
X144653571Y-48132021D01*
X144653571Y-48132021D02*
X144653571Y-48203450D01*
X144653571Y-48203450D02*
X144689285Y-48310592D01*
X144689285Y-48310592D02*
X145117857Y-48739164D01*
X145117857Y-48739164D02*
X144653571Y-48739164D01*
X158538094Y-52484819D02*
X158538094Y-51484819D01*
X158538094Y-51484819D02*
X158299999Y-51484819D01*
X158299999Y-51484819D02*
X158157142Y-51532438D01*
X158157142Y-51532438D02*
X158061904Y-51627676D01*
X158061904Y-51627676D02*
X158014285Y-51722914D01*
X158014285Y-51722914D02*
X157966666Y-51913390D01*
X157966666Y-51913390D02*
X157966666Y-52056247D01*
X157966666Y-52056247D02*
X158014285Y-52246723D01*
X158014285Y-52246723D02*
X158061904Y-52341961D01*
X158061904Y-52341961D02*
X158157142Y-52437200D01*
X158157142Y-52437200D02*
X158299999Y-52484819D01*
X158299999Y-52484819D02*
X158538094Y-52484819D01*
X157585713Y-51580057D02*
X157538094Y-51532438D01*
X157538094Y-51532438D02*
X157442856Y-51484819D01*
X157442856Y-51484819D02*
X157204761Y-51484819D01*
X157204761Y-51484819D02*
X157109523Y-51532438D01*
X157109523Y-51532438D02*
X157061904Y-51580057D01*
X157061904Y-51580057D02*
X157014285Y-51675295D01*
X157014285Y-51675295D02*
X157014285Y-51770533D01*
X157014285Y-51770533D02*
X157061904Y-51913390D01*
X157061904Y-51913390D02*
X157633332Y-52484819D01*
X157633332Y-52484819D02*
X157014285Y-52484819D01*
X151254819Y-58866666D02*
X151969104Y-58866666D01*
X151969104Y-58866666D02*
X152111961Y-58819047D01*
X152111961Y-58819047D02*
X152207200Y-58723809D01*
X152207200Y-58723809D02*
X152254819Y-58580952D01*
X152254819Y-58580952D02*
X152254819Y-58485714D01*
X151254819Y-59819047D02*
X151254819Y-59342857D01*
X151254819Y-59342857D02*
X151731009Y-59295238D01*
X151731009Y-59295238D02*
X151683390Y-59342857D01*
X151683390Y-59342857D02*
X151635771Y-59438095D01*
X151635771Y-59438095D02*
X151635771Y-59676190D01*
X151635771Y-59676190D02*
X151683390Y-59771428D01*
X151683390Y-59771428D02*
X151731009Y-59819047D01*
X151731009Y-59819047D02*
X151826247Y-59866666D01*
X151826247Y-59866666D02*
X152064342Y-59866666D01*
X152064342Y-59866666D02*
X152159580Y-59819047D01*
X152159580Y-59819047D02*
X152207200Y-59771428D01*
X152207200Y-59771428D02*
X152254819Y-59676190D01*
X152254819Y-59676190D02*
X152254819Y-59438095D01*
X152254819Y-59438095D02*
X152207200Y-59342857D01*
X152207200Y-59342857D02*
X152159580Y-59295238D01*
X157512466Y-75454819D02*
X157988656Y-75454819D01*
X157988656Y-75454819D02*
X157988656Y-74454819D01*
X156655323Y-75454819D02*
X157226751Y-75454819D01*
X156941037Y-75454819D02*
X156941037Y-74454819D01*
X156941037Y-74454819D02*
X157036275Y-74597676D01*
X157036275Y-74597676D02*
X157131513Y-74692914D01*
X157131513Y-74692914D02*
X157226751Y-74740533D01*
X141392857Y-76454819D02*
X141726190Y-75978628D01*
X141964285Y-76454819D02*
X141964285Y-75454819D01*
X141964285Y-75454819D02*
X141583333Y-75454819D01*
X141583333Y-75454819D02*
X141488095Y-75502438D01*
X141488095Y-75502438D02*
X141440476Y-75550057D01*
X141440476Y-75550057D02*
X141392857Y-75645295D01*
X141392857Y-75645295D02*
X141392857Y-75788152D01*
X141392857Y-75788152D02*
X141440476Y-75883390D01*
X141440476Y-75883390D02*
X141488095Y-75931009D01*
X141488095Y-75931009D02*
X141583333Y-75978628D01*
X141583333Y-75978628D02*
X141964285Y-75978628D01*
X140440476Y-76454819D02*
X141011904Y-76454819D01*
X140726190Y-76454819D02*
X140726190Y-75454819D01*
X140726190Y-75454819D02*
X140821428Y-75597676D01*
X140821428Y-75597676D02*
X140916666Y-75692914D01*
X140916666Y-75692914D02*
X141011904Y-75740533D01*
X139964285Y-76454819D02*
X139773809Y-76454819D01*
X139773809Y-76454819D02*
X139678571Y-76407200D01*
X139678571Y-76407200D02*
X139630952Y-76359580D01*
X139630952Y-76359580D02*
X139535714Y-76216723D01*
X139535714Y-76216723D02*
X139488095Y-76026247D01*
X139488095Y-76026247D02*
X139488095Y-75645295D01*
X139488095Y-75645295D02*
X139535714Y-75550057D01*
X139535714Y-75550057D02*
X139583333Y-75502438D01*
X139583333Y-75502438D02*
X139678571Y-75454819D01*
X139678571Y-75454819D02*
X139869047Y-75454819D01*
X139869047Y-75454819D02*
X139964285Y-75502438D01*
X139964285Y-75502438D02*
X140011904Y-75550057D01*
X140011904Y-75550057D02*
X140059523Y-75645295D01*
X140059523Y-75645295D02*
X140059523Y-75883390D01*
X140059523Y-75883390D02*
X140011904Y-75978628D01*
X140011904Y-75978628D02*
X139964285Y-76026247D01*
X139964285Y-76026247D02*
X139869047Y-76073866D01*
X139869047Y-76073866D02*
X139678571Y-76073866D01*
X139678571Y-76073866D02*
X139583333Y-76026247D01*
X139583333Y-76026247D02*
X139535714Y-75978628D01*
X139535714Y-75978628D02*
X139488095Y-75883390D01*
X129682143Y-69867735D02*
X129717857Y-69903450D01*
X129717857Y-69903450D02*
X129825000Y-69939164D01*
X129825000Y-69939164D02*
X129896428Y-69939164D01*
X129896428Y-69939164D02*
X130003571Y-69903450D01*
X130003571Y-69903450D02*
X130075000Y-69832021D01*
X130075000Y-69832021D02*
X130110714Y-69760592D01*
X130110714Y-69760592D02*
X130146428Y-69617735D01*
X130146428Y-69617735D02*
X130146428Y-69510592D01*
X130146428Y-69510592D02*
X130110714Y-69367735D01*
X130110714Y-69367735D02*
X130075000Y-69296307D01*
X130075000Y-69296307D02*
X130003571Y-69224878D01*
X130003571Y-69224878D02*
X129896428Y-69189164D01*
X129896428Y-69189164D02*
X129825000Y-69189164D01*
X129825000Y-69189164D02*
X129717857Y-69224878D01*
X129717857Y-69224878D02*
X129682143Y-69260592D01*
X129396428Y-69260592D02*
X129360714Y-69224878D01*
X129360714Y-69224878D02*
X129289286Y-69189164D01*
X129289286Y-69189164D02*
X129110714Y-69189164D01*
X129110714Y-69189164D02*
X129039286Y-69224878D01*
X129039286Y-69224878D02*
X129003571Y-69260592D01*
X129003571Y-69260592D02*
X128967857Y-69332021D01*
X128967857Y-69332021D02*
X128967857Y-69403450D01*
X128967857Y-69403450D02*
X129003571Y-69510592D01*
X129003571Y-69510592D02*
X129432143Y-69939164D01*
X129432143Y-69939164D02*
X128967857Y-69939164D01*
X128325000Y-69439164D02*
X128325000Y-69939164D01*
X128503571Y-69153450D02*
X128682142Y-69689164D01*
X128682142Y-69689164D02*
X128217857Y-69689164D01*
X139854819Y-49838095D02*
X140664342Y-49838095D01*
X140664342Y-49838095D02*
X140759580Y-49885714D01*
X140759580Y-49885714D02*
X140807200Y-49933333D01*
X140807200Y-49933333D02*
X140854819Y-50028571D01*
X140854819Y-50028571D02*
X140854819Y-50219047D01*
X140854819Y-50219047D02*
X140807200Y-50314285D01*
X140807200Y-50314285D02*
X140759580Y-50361904D01*
X140759580Y-50361904D02*
X140664342Y-50409523D01*
X140664342Y-50409523D02*
X139854819Y-50409523D01*
X139950057Y-50838095D02*
X139902438Y-50885714D01*
X139902438Y-50885714D02*
X139854819Y-50980952D01*
X139854819Y-50980952D02*
X139854819Y-51219047D01*
X139854819Y-51219047D02*
X139902438Y-51314285D01*
X139902438Y-51314285D02*
X139950057Y-51361904D01*
X139950057Y-51361904D02*
X140045295Y-51409523D01*
X140045295Y-51409523D02*
X140140533Y-51409523D01*
X140140533Y-51409523D02*
X140283390Y-51361904D01*
X140283390Y-51361904D02*
X140854819Y-50790476D01*
X140854819Y-50790476D02*
X140854819Y-51409523D01*
X121242857Y-81559580D02*
X121290476Y-81607200D01*
X121290476Y-81607200D02*
X121433333Y-81654819D01*
X121433333Y-81654819D02*
X121528571Y-81654819D01*
X121528571Y-81654819D02*
X121671428Y-81607200D01*
X121671428Y-81607200D02*
X121766666Y-81511961D01*
X121766666Y-81511961D02*
X121814285Y-81416723D01*
X121814285Y-81416723D02*
X121861904Y-81226247D01*
X121861904Y-81226247D02*
X121861904Y-81083390D01*
X121861904Y-81083390D02*
X121814285Y-80892914D01*
X121814285Y-80892914D02*
X121766666Y-80797676D01*
X121766666Y-80797676D02*
X121671428Y-80702438D01*
X121671428Y-80702438D02*
X121528571Y-80654819D01*
X121528571Y-80654819D02*
X121433333Y-80654819D01*
X121433333Y-80654819D02*
X121290476Y-80702438D01*
X121290476Y-80702438D02*
X121242857Y-80750057D01*
X120385714Y-80988152D02*
X120385714Y-81654819D01*
X120623809Y-80607200D02*
X120861904Y-81321485D01*
X120861904Y-81321485D02*
X120242857Y-81321485D01*
X119433333Y-80988152D02*
X119433333Y-81654819D01*
X119671428Y-80607200D02*
X119909523Y-81321485D01*
X119909523Y-81321485D02*
X119290476Y-81321485D01*
X132054819Y-89066666D02*
X132769104Y-89066666D01*
X132769104Y-89066666D02*
X132911961Y-89019047D01*
X132911961Y-89019047D02*
X133007200Y-88923809D01*
X133007200Y-88923809D02*
X133054819Y-88780952D01*
X133054819Y-88780952D02*
X133054819Y-88685714D01*
X133054819Y-90066666D02*
X133054819Y-89495238D01*
X133054819Y-89780952D02*
X132054819Y-89780952D01*
X132054819Y-89780952D02*
X132197676Y-89685714D01*
X132197676Y-89685714D02*
X132292914Y-89590476D01*
X132292914Y-89590476D02*
X132340533Y-89495238D01*
X146609580Y-54107142D02*
X146657200Y-54059523D01*
X146657200Y-54059523D02*
X146704819Y-53916666D01*
X146704819Y-53916666D02*
X146704819Y-53821428D01*
X146704819Y-53821428D02*
X146657200Y-53678571D01*
X146657200Y-53678571D02*
X146561961Y-53583333D01*
X146561961Y-53583333D02*
X146466723Y-53535714D01*
X146466723Y-53535714D02*
X146276247Y-53488095D01*
X146276247Y-53488095D02*
X146133390Y-53488095D01*
X146133390Y-53488095D02*
X145942914Y-53535714D01*
X145942914Y-53535714D02*
X145847676Y-53583333D01*
X145847676Y-53583333D02*
X145752438Y-53678571D01*
X145752438Y-53678571D02*
X145704819Y-53821428D01*
X145704819Y-53821428D02*
X145704819Y-53916666D01*
X145704819Y-53916666D02*
X145752438Y-54059523D01*
X145752438Y-54059523D02*
X145800057Y-54107142D01*
X145704819Y-54440476D02*
X145704819Y-55059523D01*
X145704819Y-55059523D02*
X146085771Y-54726190D01*
X146085771Y-54726190D02*
X146085771Y-54869047D01*
X146085771Y-54869047D02*
X146133390Y-54964285D01*
X146133390Y-54964285D02*
X146181009Y-55011904D01*
X146181009Y-55011904D02*
X146276247Y-55059523D01*
X146276247Y-55059523D02*
X146514342Y-55059523D01*
X146514342Y-55059523D02*
X146609580Y-55011904D01*
X146609580Y-55011904D02*
X146657200Y-54964285D01*
X146657200Y-54964285D02*
X146704819Y-54869047D01*
X146704819Y-54869047D02*
X146704819Y-54583333D01*
X146704819Y-54583333D02*
X146657200Y-54488095D01*
X146657200Y-54488095D02*
X146609580Y-54440476D01*
X146704819Y-55535714D02*
X146704819Y-55726190D01*
X146704819Y-55726190D02*
X146657200Y-55821428D01*
X146657200Y-55821428D02*
X146609580Y-55869047D01*
X146609580Y-55869047D02*
X146466723Y-55964285D01*
X146466723Y-55964285D02*
X146276247Y-56011904D01*
X146276247Y-56011904D02*
X145895295Y-56011904D01*
X145895295Y-56011904D02*
X145800057Y-55964285D01*
X145800057Y-55964285D02*
X145752438Y-55916666D01*
X145752438Y-55916666D02*
X145704819Y-55821428D01*
X145704819Y-55821428D02*
X145704819Y-55630952D01*
X145704819Y-55630952D02*
X145752438Y-55535714D01*
X145752438Y-55535714D02*
X145800057Y-55488095D01*
X145800057Y-55488095D02*
X145895295Y-55440476D01*
X145895295Y-55440476D02*
X146133390Y-55440476D01*
X146133390Y-55440476D02*
X146228628Y-55488095D01*
X146228628Y-55488095D02*
X146276247Y-55535714D01*
X146276247Y-55535714D02*
X146323866Y-55630952D01*
X146323866Y-55630952D02*
X146323866Y-55821428D01*
X146323866Y-55821428D02*
X146276247Y-55916666D01*
X146276247Y-55916666D02*
X146228628Y-55964285D01*
X146228628Y-55964285D02*
X146133390Y-56011904D01*
X130392857Y-54609580D02*
X130440476Y-54657200D01*
X130440476Y-54657200D02*
X130583333Y-54704819D01*
X130583333Y-54704819D02*
X130678571Y-54704819D01*
X130678571Y-54704819D02*
X130821428Y-54657200D01*
X130821428Y-54657200D02*
X130916666Y-54561961D01*
X130916666Y-54561961D02*
X130964285Y-54466723D01*
X130964285Y-54466723D02*
X131011904Y-54276247D01*
X131011904Y-54276247D02*
X131011904Y-54133390D01*
X131011904Y-54133390D02*
X130964285Y-53942914D01*
X130964285Y-53942914D02*
X130916666Y-53847676D01*
X130916666Y-53847676D02*
X130821428Y-53752438D01*
X130821428Y-53752438D02*
X130678571Y-53704819D01*
X130678571Y-53704819D02*
X130583333Y-53704819D01*
X130583333Y-53704819D02*
X130440476Y-53752438D01*
X130440476Y-53752438D02*
X130392857Y-53800057D01*
X130059523Y-53704819D02*
X129440476Y-53704819D01*
X129440476Y-53704819D02*
X129773809Y-54085771D01*
X129773809Y-54085771D02*
X129630952Y-54085771D01*
X129630952Y-54085771D02*
X129535714Y-54133390D01*
X129535714Y-54133390D02*
X129488095Y-54181009D01*
X129488095Y-54181009D02*
X129440476Y-54276247D01*
X129440476Y-54276247D02*
X129440476Y-54514342D01*
X129440476Y-54514342D02*
X129488095Y-54609580D01*
X129488095Y-54609580D02*
X129535714Y-54657200D01*
X129535714Y-54657200D02*
X129630952Y-54704819D01*
X129630952Y-54704819D02*
X129916666Y-54704819D01*
X129916666Y-54704819D02*
X130011904Y-54657200D01*
X130011904Y-54657200D02*
X130059523Y-54609580D01*
X129107142Y-53704819D02*
X128440476Y-53704819D01*
X128440476Y-53704819D02*
X128869047Y-54704819D01*
X131882143Y-69867735D02*
X131917857Y-69903450D01*
X131917857Y-69903450D02*
X132025000Y-69939164D01*
X132025000Y-69939164D02*
X132096428Y-69939164D01*
X132096428Y-69939164D02*
X132203571Y-69903450D01*
X132203571Y-69903450D02*
X132275000Y-69832021D01*
X132275000Y-69832021D02*
X132310714Y-69760592D01*
X132310714Y-69760592D02*
X132346428Y-69617735D01*
X132346428Y-69617735D02*
X132346428Y-69510592D01*
X132346428Y-69510592D02*
X132310714Y-69367735D01*
X132310714Y-69367735D02*
X132275000Y-69296307D01*
X132275000Y-69296307D02*
X132203571Y-69224878D01*
X132203571Y-69224878D02*
X132096428Y-69189164D01*
X132096428Y-69189164D02*
X132025000Y-69189164D01*
X132025000Y-69189164D02*
X131917857Y-69224878D01*
X131917857Y-69224878D02*
X131882143Y-69260592D01*
X131596428Y-69260592D02*
X131560714Y-69224878D01*
X131560714Y-69224878D02*
X131489286Y-69189164D01*
X131489286Y-69189164D02*
X131310714Y-69189164D01*
X131310714Y-69189164D02*
X131239286Y-69224878D01*
X131239286Y-69224878D02*
X131203571Y-69260592D01*
X131203571Y-69260592D02*
X131167857Y-69332021D01*
X131167857Y-69332021D02*
X131167857Y-69403450D01*
X131167857Y-69403450D02*
X131203571Y-69510592D01*
X131203571Y-69510592D02*
X131632143Y-69939164D01*
X131632143Y-69939164D02*
X131167857Y-69939164D01*
X130489285Y-69189164D02*
X130846428Y-69189164D01*
X130846428Y-69189164D02*
X130882142Y-69546307D01*
X130882142Y-69546307D02*
X130846428Y-69510592D01*
X130846428Y-69510592D02*
X130775000Y-69474878D01*
X130775000Y-69474878D02*
X130596428Y-69474878D01*
X130596428Y-69474878D02*
X130525000Y-69510592D01*
X130525000Y-69510592D02*
X130489285Y-69546307D01*
X130489285Y-69546307D02*
X130453571Y-69617735D01*
X130453571Y-69617735D02*
X130453571Y-69796307D01*
X130453571Y-69796307D02*
X130489285Y-69867735D01*
X130489285Y-69867735D02*
X130525000Y-69903450D01*
X130525000Y-69903450D02*
X130596428Y-69939164D01*
X130596428Y-69939164D02*
X130775000Y-69939164D01*
X130775000Y-69939164D02*
X130846428Y-69903450D01*
X130846428Y-69903450D02*
X130882142Y-69867735D01*
X137579819Y-47666905D02*
X138389342Y-47666905D01*
X138389342Y-47666905D02*
X138484580Y-47714524D01*
X138484580Y-47714524D02*
X138532200Y-47762143D01*
X138532200Y-47762143D02*
X138579819Y-47857381D01*
X138579819Y-47857381D02*
X138579819Y-48047857D01*
X138579819Y-48047857D02*
X138532200Y-48143095D01*
X138532200Y-48143095D02*
X138484580Y-48190714D01*
X138484580Y-48190714D02*
X138389342Y-48238333D01*
X138389342Y-48238333D02*
X137579819Y-48238333D01*
X138579819Y-49238333D02*
X138579819Y-48666905D01*
X138579819Y-48952619D02*
X137579819Y-48952619D01*
X137579819Y-48952619D02*
X137722676Y-48857381D01*
X137722676Y-48857381D02*
X137817914Y-48762143D01*
X137817914Y-48762143D02*
X137865533Y-48666905D01*
X137579819Y-50143095D02*
X137579819Y-49666905D01*
X137579819Y-49666905D02*
X138056009Y-49619286D01*
X138056009Y-49619286D02*
X138008390Y-49666905D01*
X138008390Y-49666905D02*
X137960771Y-49762143D01*
X137960771Y-49762143D02*
X137960771Y-50000238D01*
X137960771Y-50000238D02*
X138008390Y-50095476D01*
X138008390Y-50095476D02*
X138056009Y-50143095D01*
X138056009Y-50143095D02*
X138151247Y-50190714D01*
X138151247Y-50190714D02*
X138389342Y-50190714D01*
X138389342Y-50190714D02*
X138484580Y-50143095D01*
X138484580Y-50143095D02*
X138532200Y-50095476D01*
X138532200Y-50095476D02*
X138579819Y-50000238D01*
X138579819Y-50000238D02*
X138579819Y-49762143D01*
X138579819Y-49762143D02*
X138532200Y-49666905D01*
X138532200Y-49666905D02*
X138484580Y-49619286D01*
X153166666Y-51654819D02*
X153499999Y-51178628D01*
X153738094Y-51654819D02*
X153738094Y-50654819D01*
X153738094Y-50654819D02*
X153357142Y-50654819D01*
X153357142Y-50654819D02*
X153261904Y-50702438D01*
X153261904Y-50702438D02*
X153214285Y-50750057D01*
X153214285Y-50750057D02*
X153166666Y-50845295D01*
X153166666Y-50845295D02*
X153166666Y-50988152D01*
X153166666Y-50988152D02*
X153214285Y-51083390D01*
X153214285Y-51083390D02*
X153261904Y-51131009D01*
X153261904Y-51131009D02*
X153357142Y-51178628D01*
X153357142Y-51178628D02*
X153738094Y-51178628D01*
X152785713Y-50750057D02*
X152738094Y-50702438D01*
X152738094Y-50702438D02*
X152642856Y-50654819D01*
X152642856Y-50654819D02*
X152404761Y-50654819D01*
X152404761Y-50654819D02*
X152309523Y-50702438D01*
X152309523Y-50702438D02*
X152261904Y-50750057D01*
X152261904Y-50750057D02*
X152214285Y-50845295D01*
X152214285Y-50845295D02*
X152214285Y-50940533D01*
X152214285Y-50940533D02*
X152261904Y-51083390D01*
X152261904Y-51083390D02*
X152833332Y-51654819D01*
X152833332Y-51654819D02*
X152214285Y-51654819D01*
X136658333Y-37884819D02*
X136658333Y-38599104D01*
X136658333Y-38599104D02*
X136705952Y-38741961D01*
X136705952Y-38741961D02*
X136801190Y-38837200D01*
X136801190Y-38837200D02*
X136944047Y-38884819D01*
X136944047Y-38884819D02*
X137039285Y-38884819D01*
X136229761Y-37980057D02*
X136182142Y-37932438D01*
X136182142Y-37932438D02*
X136086904Y-37884819D01*
X136086904Y-37884819D02*
X135848809Y-37884819D01*
X135848809Y-37884819D02*
X135753571Y-37932438D01*
X135753571Y-37932438D02*
X135705952Y-37980057D01*
X135705952Y-37980057D02*
X135658333Y-38075295D01*
X135658333Y-38075295D02*
X135658333Y-38170533D01*
X135658333Y-38170533D02*
X135705952Y-38313390D01*
X135705952Y-38313390D02*
X136277380Y-38884819D01*
X136277380Y-38884819D02*
X135658333Y-38884819D01*
D11*
X152069046Y-87076809D02*
X151783332Y-87076809D01*
X151926189Y-87576809D02*
X151926189Y-87076809D01*
X151616666Y-87576809D02*
X151616666Y-87076809D01*
X151616666Y-87076809D02*
X151426190Y-87076809D01*
X151426190Y-87076809D02*
X151378571Y-87100619D01*
X151378571Y-87100619D02*
X151354761Y-87124428D01*
X151354761Y-87124428D02*
X151330952Y-87172047D01*
X151330952Y-87172047D02*
X151330952Y-87243476D01*
X151330952Y-87243476D02*
X151354761Y-87291095D01*
X151354761Y-87291095D02*
X151378571Y-87314904D01*
X151378571Y-87314904D02*
X151426190Y-87338714D01*
X151426190Y-87338714D02*
X151616666Y-87338714D01*
X150854761Y-87576809D02*
X151140475Y-87576809D01*
X150997618Y-87576809D02*
X150997618Y-87076809D01*
X150997618Y-87076809D02*
X151045237Y-87148238D01*
X151045237Y-87148238D02*
X151092856Y-87195857D01*
X151092856Y-87195857D02*
X151140475Y-87219666D01*
X150402381Y-87076809D02*
X150640476Y-87076809D01*
X150640476Y-87076809D02*
X150664285Y-87314904D01*
X150664285Y-87314904D02*
X150640476Y-87291095D01*
X150640476Y-87291095D02*
X150592857Y-87267285D01*
X150592857Y-87267285D02*
X150473809Y-87267285D01*
X150473809Y-87267285D02*
X150426190Y-87291095D01*
X150426190Y-87291095D02*
X150402381Y-87314904D01*
X150402381Y-87314904D02*
X150378571Y-87362523D01*
X150378571Y-87362523D02*
X150378571Y-87481571D01*
X150378571Y-87481571D02*
X150402381Y-87529190D01*
X150402381Y-87529190D02*
X150426190Y-87553000D01*
X150426190Y-87553000D02*
X150473809Y-87576809D01*
X150473809Y-87576809D02*
X150592857Y-87576809D01*
X150592857Y-87576809D02*
X150640476Y-87553000D01*
X150640476Y-87553000D02*
X150664285Y-87529190D01*
D10*
X121642857Y-68559580D02*
X121690476Y-68607200D01*
X121690476Y-68607200D02*
X121833333Y-68654819D01*
X121833333Y-68654819D02*
X121928571Y-68654819D01*
X121928571Y-68654819D02*
X122071428Y-68607200D01*
X122071428Y-68607200D02*
X122166666Y-68511961D01*
X122166666Y-68511961D02*
X122214285Y-68416723D01*
X122214285Y-68416723D02*
X122261904Y-68226247D01*
X122261904Y-68226247D02*
X122261904Y-68083390D01*
X122261904Y-68083390D02*
X122214285Y-67892914D01*
X122214285Y-67892914D02*
X122166666Y-67797676D01*
X122166666Y-67797676D02*
X122071428Y-67702438D01*
X122071428Y-67702438D02*
X121928571Y-67654819D01*
X121928571Y-67654819D02*
X121833333Y-67654819D01*
X121833333Y-67654819D02*
X121690476Y-67702438D01*
X121690476Y-67702438D02*
X121642857Y-67750057D01*
X120690476Y-68654819D02*
X121261904Y-68654819D01*
X120976190Y-68654819D02*
X120976190Y-67654819D01*
X120976190Y-67654819D02*
X121071428Y-67797676D01*
X121071428Y-67797676D02*
X121166666Y-67892914D01*
X121166666Y-67892914D02*
X121261904Y-67940533D01*
X119833333Y-67654819D02*
X120023809Y-67654819D01*
X120023809Y-67654819D02*
X120119047Y-67702438D01*
X120119047Y-67702438D02*
X120166666Y-67750057D01*
X120166666Y-67750057D02*
X120261904Y-67892914D01*
X120261904Y-67892914D02*
X120309523Y-68083390D01*
X120309523Y-68083390D02*
X120309523Y-68464342D01*
X120309523Y-68464342D02*
X120261904Y-68559580D01*
X120261904Y-68559580D02*
X120214285Y-68607200D01*
X120214285Y-68607200D02*
X120119047Y-68654819D01*
X120119047Y-68654819D02*
X119928571Y-68654819D01*
X119928571Y-68654819D02*
X119833333Y-68607200D01*
X119833333Y-68607200D02*
X119785714Y-68559580D01*
X119785714Y-68559580D02*
X119738095Y-68464342D01*
X119738095Y-68464342D02*
X119738095Y-68226247D01*
X119738095Y-68226247D02*
X119785714Y-68131009D01*
X119785714Y-68131009D02*
X119833333Y-68083390D01*
X119833333Y-68083390D02*
X119928571Y-68035771D01*
X119928571Y-68035771D02*
X120119047Y-68035771D01*
X120119047Y-68035771D02*
X120214285Y-68083390D01*
X120214285Y-68083390D02*
X120261904Y-68131009D01*
X120261904Y-68131009D02*
X120309523Y-68226247D01*
D13*
%TO.C,TP3*%
X113250000Y-74250000D02*
X113250000Y-76150000D01*
X113250000Y-76150000D02*
X115150000Y-76150000D01*
X115150000Y-74250000D02*
X113250000Y-74250000D01*
X115150000Y-76150000D02*
X115150000Y-74250000D01*
%TO.C,C5*%
X148665000Y-79138748D02*
X148665000Y-79661252D01*
X150135000Y-79138748D02*
X150135000Y-79661252D01*
%TO.C,R22*%
X131465000Y-82172936D02*
X131465000Y-82627064D01*
X132935000Y-82172936D02*
X132935000Y-82627064D01*
%TO.C,U3*%
X145240000Y-74290000D02*
X145240000Y-76110000D01*
X145240000Y-76110000D02*
X145290000Y-76110000D01*
X145290000Y-74290000D02*
X145240000Y-74290000D01*
X146410000Y-76110000D02*
X147190000Y-76110000D01*
X148310000Y-76110000D02*
X148360000Y-76110000D01*
X148360000Y-74290000D02*
X148310000Y-74290000D01*
X148360000Y-76110000D02*
X148360000Y-74290000D01*
X145290000Y-73750000D02*
X144960000Y-73990000D01*
X144960000Y-73510000D01*
X145290000Y-73750000D01*
G36*
X145290000Y-73750000D02*
G01*
X144960000Y-73990000D01*
X144960000Y-73510000D01*
X145290000Y-73750000D01*
G37*
%TO.C,R4*%
X122265000Y-77227064D02*
X122265000Y-76772936D01*
X123735000Y-77227064D02*
X123735000Y-76772936D01*
%TO.C,JP2*%
X121200000Y-46100000D02*
X121200000Y-46700000D01*
X121900000Y-47400000D02*
X123300000Y-47400000D01*
X123300000Y-45400000D02*
X121900000Y-45400000D01*
X124000000Y-46700000D02*
X124000000Y-46100000D01*
X121200000Y-46100000D02*
G75*
G02*
X121900000Y-45400000I700000J0D01*
G01*
X121900000Y-47400000D02*
G75*
G02*
X121200000Y-46700000I0J700000D01*
G01*
X123300000Y-45400000D02*
G75*
G02*
X124000000Y-46100000I1J-699999D01*
G01*
X124000000Y-46700000D02*
G75*
G02*
X123300000Y-47400000I-699999J-1D01*
G01*
%TO.C,C36*%
X143765000Y-61738748D02*
X143765000Y-62261252D01*
X145235000Y-61738748D02*
X145235000Y-62261252D01*
%TO.C,C23*%
X114338748Y-70465000D02*
X114861252Y-70465000D01*
X114338748Y-71935000D02*
X114861252Y-71935000D01*
%TO.C,C3*%
X150865000Y-79138748D02*
X150865000Y-79661252D01*
X152335000Y-79138748D02*
X152335000Y-79661252D01*
%TO.C,R3*%
X153427064Y-46665000D02*
X152972936Y-46665000D01*
X153427064Y-48135000D02*
X152972936Y-48135000D01*
%TO.C,R17*%
X137477064Y-71265000D02*
X137022936Y-71265000D01*
X137477064Y-72735000D02*
X137022936Y-72735000D01*
%TO.C,U10*%
X124690000Y-71340000D02*
X124690000Y-73160000D01*
X124690000Y-73160000D02*
X124740000Y-73160000D01*
X124740000Y-71340000D02*
X124690000Y-71340000D01*
X126640000Y-71340000D02*
X125860000Y-71340000D01*
X127760000Y-73160000D02*
X127810000Y-73160000D01*
X127810000Y-71340000D02*
X127760000Y-71340000D01*
X127810000Y-73160000D02*
X127810000Y-71340000D01*
X128090000Y-73940000D02*
X127760000Y-73700000D01*
X128090000Y-73460000D01*
X128090000Y-73940000D01*
G36*
X128090000Y-73940000D02*
G01*
X127760000Y-73700000D01*
X128090000Y-73460000D01*
X128090000Y-73940000D01*
G37*
%TO.C,D3*%
X155340000Y-46465000D02*
X159400000Y-46465000D01*
X155340000Y-48735000D02*
X155340000Y-46465000D01*
X159400000Y-48735000D02*
X155340000Y-48735000D01*
%TO.C,C40*%
X132011252Y-61265000D02*
X131488748Y-61265000D01*
X132011252Y-62735000D02*
X131488748Y-62735000D01*
%TO.C,D4*%
X155340000Y-44065000D02*
X159400000Y-44065000D01*
X155340000Y-46335000D02*
X155340000Y-44065000D01*
X159400000Y-46335000D02*
X155340000Y-46335000D01*
%TO.C,C6*%
X145265000Y-79176248D02*
X145265000Y-79698752D01*
X146735000Y-79176248D02*
X146735000Y-79698752D01*
%TO.C,TP13*%
X146300000Y-88800000D02*
G75*
G02*
X144900000Y-88800000I-700000J0D01*
G01*
X144900000Y-88800000D02*
G75*
G02*
X146300000Y-88800000I700000J0D01*
G01*
%TO.C,U9*%
X135740000Y-79640000D02*
X135740000Y-79910000D01*
X135740000Y-84890000D02*
X135740000Y-85160000D01*
X135740000Y-85160000D02*
X141260000Y-85160000D01*
X141260000Y-79640000D02*
X135740000Y-79640000D01*
X141260000Y-79910000D02*
X141260000Y-79640000D01*
X141260000Y-85160000D02*
X141260000Y-84890000D01*
X135250000Y-85370000D02*
X134570000Y-85370000D01*
X134910000Y-84900000D01*
X135250000Y-85370000D01*
G36*
X135250000Y-85370000D02*
G01*
X134570000Y-85370000D01*
X134910000Y-84900000D01*
X135250000Y-85370000D01*
G37*
%TO.C,R1*%
X153427064Y-44465000D02*
X152972936Y-44465000D01*
X153427064Y-45935000D02*
X152972936Y-45935000D01*
%TO.C,C35*%
X147065000Y-51061252D02*
X147065000Y-50538748D01*
X148535000Y-51061252D02*
X148535000Y-50538748D01*
%TO.C,C20*%
X126461252Y-65465000D02*
X125938748Y-65465000D01*
X126461252Y-66935000D02*
X125938748Y-66935000D01*
%TO.C,R16*%
X137477064Y-69265000D02*
X137022936Y-69265000D01*
X137477064Y-70735000D02*
X137022936Y-70735000D01*
%TO.C,C4*%
X151138748Y-72665000D02*
X151661252Y-72665000D01*
X151138748Y-74135000D02*
X151661252Y-74135000D01*
D14*
%TO.C,J4*%
X120800000Y-82300000D02*
X120800000Y-90000000D01*
X120800000Y-90000000D02*
X131000000Y-90000000D01*
X131000000Y-82300000D02*
X120800000Y-82300000D01*
X131000000Y-90000000D02*
X131000000Y-82300000D01*
D15*
X122600000Y-87800000D02*
G75*
G02*
X122400000Y-87800000I-100000J0D01*
G01*
X122400000Y-87800000D02*
G75*
G02*
X122600000Y-87800000I100000J0D01*
G01*
D13*
%TO.C,C15*%
X128665000Y-72461252D02*
X128665000Y-71938748D01*
X130135000Y-72461252D02*
X130135000Y-71938748D01*
%TO.C,U16*%
X117640000Y-73490000D02*
X117640000Y-75310000D01*
X117640000Y-75310000D02*
X117690000Y-75310000D01*
X117690000Y-73490000D02*
X117640000Y-73490000D01*
X118810000Y-75310000D02*
X119590000Y-75310000D01*
X120710000Y-75310000D02*
X120760000Y-75310000D01*
X120760000Y-73490000D02*
X120710000Y-73490000D01*
X120760000Y-75310000D02*
X120760000Y-73490000D01*
X117690000Y-72950000D02*
X117360000Y-73190000D01*
X117360000Y-72710000D01*
X117690000Y-72950000D01*
G36*
X117690000Y-72950000D02*
G01*
X117360000Y-73190000D01*
X117360000Y-72710000D01*
X117690000Y-72950000D01*
G37*
%TO.C,C42*%
X130223752Y-55265000D02*
X129701248Y-55265000D01*
X130223752Y-56735000D02*
X129701248Y-56735000D01*
%TO.C,C14*%
X124515000Y-76776248D02*
X124515000Y-77298752D01*
X125985000Y-76776248D02*
X125985000Y-77298752D01*
%TO.C,R15*%
X117465000Y-79572936D02*
X117465000Y-80027064D01*
X118935000Y-79572936D02*
X118935000Y-80027064D01*
%TO.C,TP12*%
X148700000Y-88800000D02*
G75*
G02*
X147300000Y-88800000I-700000J0D01*
G01*
X147300000Y-88800000D02*
G75*
G02*
X148700000Y-88800000I700000J0D01*
G01*
D16*
%TO.C,G\u002A\u002A\u002A*%
G36*
X116370972Y-63071182D02*
G01*
X116363054Y-63140000D01*
X116131576Y-63147195D01*
X115900098Y-63154390D01*
X115900098Y-63078377D01*
X115900098Y-63002364D01*
X116139494Y-63002364D01*
X116378891Y-63002364D01*
X116370972Y-63071182D01*
G37*
G36*
X113856789Y-58899161D02*
G01*
X113868386Y-58928029D01*
X113873103Y-58985911D01*
X113873103Y-58986229D01*
X113871343Y-59034998D01*
X113859684Y-59061742D01*
X113828555Y-59068582D01*
X113768385Y-59057641D01*
X113669602Y-59031044D01*
X113516905Y-58988590D01*
X113676236Y-58943555D01*
X113756602Y-58921510D01*
X113822234Y-58904836D01*
X113854335Y-58898422D01*
X113856789Y-58899161D01*
G37*
G36*
X113622857Y-63289267D02*
G01*
X113621243Y-63335618D01*
X113607177Y-63394767D01*
X113574453Y-63426902D01*
X113531248Y-63447604D01*
X113499319Y-63445885D01*
X113461984Y-63413483D01*
X113458451Y-63409594D01*
X113432821Y-63353298D01*
X113422660Y-63275848D01*
X113422900Y-63242065D01*
X113430217Y-63196756D01*
X113458687Y-63179976D01*
X113522758Y-63177537D01*
X113622857Y-63177537D01*
X113622857Y-63289267D01*
G37*
G36*
X114034109Y-57941133D02*
G01*
X114031648Y-57953633D01*
X114009253Y-58021368D01*
X113980618Y-58064446D01*
X113977882Y-58066549D01*
X113903932Y-58098473D01*
X113801973Y-58114214D01*
X113690399Y-58113773D01*
X113587604Y-58097156D01*
X113511983Y-58064364D01*
X113506670Y-58059797D01*
X113476613Y-58010572D01*
X113456351Y-57941051D01*
X113441136Y-57847290D01*
X113745840Y-57847290D01*
X114050543Y-57847290D01*
X114034109Y-57941133D01*
G37*
G36*
X117210865Y-61651894D02*
G01*
X117281142Y-61657149D01*
X117316671Y-61668771D01*
X117326502Y-61688571D01*
X117322202Y-61702981D01*
X117295927Y-61717036D01*
X117237816Y-61724142D01*
X117138817Y-61726108D01*
X117066770Y-61725248D01*
X116996493Y-61719993D01*
X116960964Y-61708371D01*
X116951133Y-61688571D01*
X116955433Y-61674161D01*
X116981708Y-61660106D01*
X117039819Y-61653000D01*
X117138817Y-61651034D01*
X117210865Y-61651894D01*
G37*
G36*
X117210865Y-62652879D02*
G01*
X117281142Y-62658134D01*
X117316671Y-62669757D01*
X117326502Y-62689556D01*
X117322202Y-62703966D01*
X117295927Y-62718021D01*
X117237816Y-62725127D01*
X117138817Y-62727093D01*
X117066770Y-62726233D01*
X116996493Y-62720978D01*
X116960964Y-62709356D01*
X116951133Y-62689556D01*
X116955433Y-62675147D01*
X116981708Y-62661091D01*
X117039819Y-62653986D01*
X117138817Y-62652019D01*
X117210865Y-62652879D01*
G37*
G36*
X118652807Y-60887783D02*
G01*
X118651281Y-60935546D01*
X118640012Y-60985656D01*
X118615271Y-61000394D01*
X118588925Y-60984921D01*
X118577734Y-60925320D01*
X118577733Y-60924172D01*
X118575281Y-60881750D01*
X118559737Y-60859768D01*
X118518782Y-60851507D01*
X118440098Y-60850246D01*
X118358178Y-60847000D01*
X118314819Y-60835346D01*
X118302463Y-60812709D01*
X118305017Y-60800957D01*
X118327990Y-60785317D01*
X118382461Y-60777380D01*
X118477635Y-60775172D01*
X118652807Y-60775172D01*
X118652807Y-60887783D01*
G37*
G36*
X115527405Y-59574006D02*
G01*
X115623512Y-59574976D01*
X115681943Y-59579248D01*
X115712072Y-59589290D01*
X115723275Y-59607569D01*
X115724926Y-59636551D01*
X115724866Y-59647134D01*
X115721180Y-59672425D01*
X115704945Y-59687802D01*
X115666785Y-59695730D01*
X115597325Y-59698678D01*
X115487192Y-59699113D01*
X115446979Y-59699097D01*
X115350872Y-59698127D01*
X115292441Y-59693855D01*
X115262311Y-59683813D01*
X115251109Y-59665534D01*
X115249458Y-59636551D01*
X115249518Y-59625969D01*
X115253204Y-59600678D01*
X115269439Y-59585301D01*
X115307599Y-59577372D01*
X115377058Y-59574424D01*
X115487192Y-59573990D01*
X115527405Y-59574006D01*
G37*
G36*
X115527405Y-60750163D02*
G01*
X115623512Y-60751133D01*
X115681943Y-60755406D01*
X115712072Y-60765448D01*
X115723275Y-60783726D01*
X115724926Y-60812709D01*
X115724866Y-60823291D01*
X115721180Y-60848583D01*
X115704945Y-60863959D01*
X115666785Y-60871888D01*
X115597325Y-60874836D01*
X115487192Y-60875271D01*
X115446979Y-60875255D01*
X115350872Y-60874285D01*
X115292441Y-60870012D01*
X115262311Y-60859970D01*
X115251109Y-60841692D01*
X115249458Y-60812709D01*
X115249518Y-60802127D01*
X115253204Y-60776835D01*
X115269439Y-60761459D01*
X115307599Y-60753530D01*
X115377058Y-60750582D01*
X115487192Y-60750147D01*
X115527405Y-60750163D01*
G37*
G36*
X115527405Y-61400804D02*
G01*
X115623512Y-61401774D01*
X115681943Y-61406046D01*
X115712072Y-61416088D01*
X115723275Y-61434367D01*
X115724926Y-61463349D01*
X115724866Y-61473932D01*
X115721180Y-61499223D01*
X115704945Y-61514600D01*
X115666785Y-61522528D01*
X115597325Y-61525476D01*
X115487192Y-61525911D01*
X115446979Y-61525895D01*
X115350872Y-61524925D01*
X115292441Y-61520653D01*
X115262311Y-61510611D01*
X115251109Y-61492332D01*
X115249458Y-61463349D01*
X115249518Y-61452767D01*
X115253204Y-61427476D01*
X115269439Y-61412099D01*
X115307599Y-61404170D01*
X115377058Y-61401222D01*
X115487192Y-61400788D01*
X115527405Y-61400804D01*
G37*
G36*
X115719813Y-62245369D02*
G01*
X115719528Y-62251794D01*
X115713922Y-62339657D01*
X115704253Y-62389669D01*
X115686366Y-62413365D01*
X115656108Y-62422282D01*
X115640647Y-62423989D01*
X115613647Y-62417603D01*
X115602187Y-62385652D01*
X115599803Y-62315927D01*
X115599803Y-62201576D01*
X115424630Y-62201576D01*
X115377920Y-62201462D01*
X115305359Y-62199028D01*
X115267032Y-62190406D01*
X115252034Y-62171699D01*
X115249458Y-62139014D01*
X115249525Y-62128005D01*
X115253303Y-62102915D01*
X115269721Y-62087663D01*
X115308131Y-62079802D01*
X115377884Y-62076882D01*
X115488335Y-62076453D01*
X115727212Y-62076453D01*
X115719813Y-62245369D01*
G37*
G36*
X115724926Y-63215074D02*
G01*
X115724890Y-63241640D01*
X115722908Y-63318142D01*
X115714726Y-63358786D01*
X115695995Y-63374881D01*
X115662364Y-63377734D01*
X115656916Y-63377698D01*
X115619324Y-63370791D01*
X115603217Y-63342127D01*
X115599803Y-63277635D01*
X115599803Y-63177537D01*
X115424630Y-63177537D01*
X115377920Y-63177423D01*
X115305359Y-63174989D01*
X115267032Y-63166366D01*
X115252034Y-63147660D01*
X115249458Y-63114975D01*
X115249518Y-63104393D01*
X115253204Y-63079101D01*
X115269439Y-63063725D01*
X115307599Y-63055796D01*
X115377058Y-63052848D01*
X115487192Y-63052413D01*
X115724926Y-63052413D01*
X115724926Y-63215074D01*
G37*
G36*
X116178045Y-61951345D02*
G01*
X116274152Y-61952315D01*
X116332583Y-61956588D01*
X116362713Y-61966630D01*
X116373915Y-61984909D01*
X116375566Y-62013891D01*
X116375506Y-62024474D01*
X116371820Y-62049765D01*
X116355585Y-62065142D01*
X116317425Y-62073070D01*
X116247966Y-62076018D01*
X116137832Y-62076453D01*
X116097619Y-62076437D01*
X116001512Y-62075467D01*
X115943081Y-62071195D01*
X115912952Y-62061153D01*
X115901749Y-62042874D01*
X115900098Y-62013891D01*
X115900158Y-62003309D01*
X115903844Y-61978017D01*
X115920079Y-61962641D01*
X115958239Y-61954712D01*
X116027698Y-61951764D01*
X116137832Y-61951330D01*
X116178045Y-61951345D01*
G37*
G36*
X116992760Y-63808918D02*
G01*
X117005698Y-63859458D01*
X117013096Y-63887013D01*
X117035366Y-63906750D01*
X117083703Y-63917266D01*
X117170098Y-63923213D01*
X117189041Y-63924197D01*
X117271365Y-63932249D01*
X117314207Y-63946241D01*
X117326502Y-63968777D01*
X117325109Y-63978735D01*
X117306456Y-63995197D01*
X117258123Y-64001744D01*
X117170098Y-64000401D01*
X117086002Y-63998306D01*
X117037075Y-64003234D01*
X117014319Y-64018847D01*
X117005698Y-64048680D01*
X116997380Y-64087077D01*
X116982362Y-64106904D01*
X116967330Y-64087166D01*
X116955761Y-64033939D01*
X116951133Y-63953300D01*
X116953372Y-63895512D01*
X116963109Y-63832943D01*
X116977401Y-63802079D01*
X116992760Y-63808918D01*
G37*
G36*
X117543301Y-62657785D02*
G01*
X117556239Y-62708325D01*
X117563638Y-62735880D01*
X117585908Y-62755617D01*
X117634245Y-62766133D01*
X117720640Y-62772080D01*
X117725174Y-62772301D01*
X117814831Y-62780155D01*
X117862812Y-62793940D01*
X117877044Y-62815874D01*
X117876296Y-62822265D01*
X117857393Y-62840224D01*
X117806374Y-62849548D01*
X117714384Y-62852216D01*
X117630528Y-62853560D01*
X117579375Y-62860079D01*
X117556793Y-62875180D01*
X117551724Y-62902266D01*
X117547031Y-62931356D01*
X117526699Y-62952315D01*
X117515398Y-62936366D01*
X117505473Y-62882144D01*
X117501674Y-62802167D01*
X117503914Y-62744379D01*
X117513651Y-62681810D01*
X117527943Y-62650946D01*
X117543301Y-62657785D01*
G37*
G36*
X117138817Y-62301674D02*
G01*
X117326502Y-62301674D01*
X117326502Y-62411221D01*
X117322895Y-62468504D01*
X117295917Y-62539995D01*
X117236819Y-62578166D01*
X117138817Y-62589458D01*
X117078499Y-62586033D01*
X117003217Y-62560412D01*
X116963023Y-62504289D01*
X116954238Y-62435529D01*
X117001560Y-62435529D01*
X117040506Y-62487572D01*
X117066095Y-62507354D01*
X117142228Y-62525522D01*
X117228049Y-62500991D01*
X117256295Y-62476571D01*
X117276453Y-62425917D01*
X117275079Y-62409420D01*
X117259945Y-62388458D01*
X117218458Y-62378973D01*
X117138817Y-62376748D01*
X117059668Y-62381511D01*
X117007564Y-62400608D01*
X117001560Y-62435529D01*
X116954238Y-62435529D01*
X116951133Y-62411221D01*
X116951133Y-62301674D01*
X117138817Y-62301674D01*
G37*
G36*
X117138817Y-61801182D02*
G01*
X117326502Y-61801182D01*
X117326502Y-61912374D01*
X117325038Y-61945346D01*
X117298133Y-62032868D01*
X117236447Y-62084521D01*
X117138817Y-62101477D01*
X117106092Y-62100003D01*
X117019227Y-62072894D01*
X116967962Y-62010742D01*
X116951133Y-61912374D01*
X116951133Y-61912005D01*
X117001182Y-61912005D01*
X117010121Y-61948077D01*
X117053976Y-61994439D01*
X117119319Y-62021844D01*
X117189138Y-62024440D01*
X117246423Y-61996374D01*
X117260609Y-61976810D01*
X117276453Y-61921300D01*
X117275600Y-61910067D01*
X117260906Y-61888795D01*
X117219113Y-61878769D01*
X117138817Y-61876256D01*
X117063759Y-61878949D01*
X117015434Y-61890120D01*
X117001182Y-61912005D01*
X116951133Y-61912005D01*
X116951133Y-61801182D01*
X117138817Y-61801182D01*
G37*
G36*
X117045301Y-60936198D02*
G01*
X117138817Y-60966838D01*
X117193719Y-60986182D01*
X117284008Y-61026082D01*
X117325149Y-61061933D01*
X117317355Y-61096279D01*
X117260838Y-61131667D01*
X117155810Y-61170640D01*
X117155603Y-61170707D01*
X117057021Y-61202019D01*
X116996648Y-61218740D01*
X116965118Y-61221773D01*
X116953068Y-61212022D01*
X116951133Y-61190391D01*
X116955837Y-61178397D01*
X116998044Y-61149701D01*
X117076256Y-61123099D01*
X117123027Y-61109977D01*
X117179387Y-61089889D01*
X117201379Y-61075468D01*
X117192259Y-61067313D01*
X117146889Y-61048675D01*
X117076256Y-61027837D01*
X117015041Y-61009526D01*
X116965643Y-60982734D01*
X116951133Y-60949751D01*
X116951977Y-60935672D01*
X116961470Y-60921488D01*
X116989382Y-60921373D01*
X117045301Y-60936198D01*
G37*
G36*
X118537123Y-60457348D02*
G01*
X118607044Y-60491267D01*
X118635070Y-60527269D01*
X118652807Y-60583139D01*
X118650570Y-60601272D01*
X118626424Y-60656582D01*
X118587569Y-60704613D01*
X118548830Y-60725123D01*
X118529604Y-60713133D01*
X118535167Y-60676886D01*
X118568255Y-60630928D01*
X118589512Y-60606650D01*
X118590016Y-60580286D01*
X118552970Y-60545130D01*
X118504986Y-60512570D01*
X118449777Y-60503756D01*
X118389257Y-60534923D01*
X118365193Y-60555046D01*
X118355180Y-60585596D01*
X118376170Y-60634983D01*
X118392835Y-60673913D01*
X118393883Y-60713476D01*
X118368855Y-60717190D01*
X118325333Y-60678557D01*
X118286364Y-60616741D01*
X118284897Y-60559168D01*
X118327487Y-60499901D01*
X118366204Y-60473238D01*
X118449208Y-60451574D01*
X118537123Y-60457348D01*
G37*
G36*
X115974189Y-62552185D02*
G01*
X116014885Y-62566860D01*
X116025221Y-62614482D01*
X116025540Y-62631165D01*
X116032355Y-62657079D01*
X116056498Y-62670767D01*
X116108876Y-62676124D01*
X116200394Y-62677044D01*
X116375566Y-62677044D01*
X116375566Y-62752118D01*
X116375566Y-62827192D01*
X116200394Y-62827192D01*
X116153684Y-62827306D01*
X116081122Y-62829739D01*
X116042796Y-62838362D01*
X116027797Y-62857068D01*
X116025221Y-62889753D01*
X116024957Y-62901282D01*
X116010282Y-62941979D01*
X115962660Y-62952315D01*
X115936294Y-62951100D01*
X115915672Y-62940687D01*
X115904892Y-62910860D01*
X115900765Y-62851407D01*
X115900098Y-62752118D01*
X115900478Y-62667747D01*
X115903732Y-62601756D01*
X115913053Y-62567262D01*
X115931632Y-62554054D01*
X115962660Y-62551921D01*
X115974189Y-62552185D01*
G37*
G36*
X116208651Y-61475862D02*
G01*
X116375566Y-61475862D01*
X116375566Y-61614635D01*
X116375545Y-61623016D01*
X116370312Y-61709542D01*
X116351801Y-61767103D01*
X116314142Y-61814832D01*
X116255137Y-61854524D01*
X116158057Y-61877644D01*
X116055478Y-61867770D01*
X115966034Y-61824390D01*
X115941776Y-61803528D01*
X115914937Y-61765691D01*
X115902887Y-61711506D01*
X115901317Y-61662344D01*
X116007479Y-61662344D01*
X116038404Y-61710691D01*
X116094145Y-61743208D01*
X116170138Y-61746337D01*
X116236143Y-61711808D01*
X116272257Y-61660185D01*
X116262857Y-61624050D01*
X116208651Y-61605428D01*
X116111117Y-61605573D01*
X116088252Y-61608082D01*
X116024293Y-61627855D01*
X116007479Y-61662344D01*
X115901317Y-61662344D01*
X115900098Y-61624193D01*
X115900098Y-61475862D01*
X116137832Y-61475862D01*
X116208651Y-61475862D01*
G37*
G36*
X117877044Y-63997093D02*
G01*
X117875178Y-64047488D01*
X117864815Y-64106919D01*
X117849422Y-64126721D01*
X117833676Y-64103692D01*
X117822249Y-64034630D01*
X117816956Y-63992241D01*
X117799382Y-63951557D01*
X117764433Y-63940788D01*
X117743563Y-63943189D01*
X117720008Y-63966889D01*
X117713049Y-64026734D01*
X117713033Y-64027667D01*
X117703214Y-64096114D01*
X117682962Y-64121209D01*
X117661279Y-64101662D01*
X117647169Y-64036181D01*
X117645735Y-64022159D01*
X117627178Y-63957229D01*
X117599603Y-63937553D01*
X117572778Y-63963297D01*
X117556469Y-64034630D01*
X117550757Y-64079834D01*
X117536294Y-64122257D01*
X117520177Y-64120474D01*
X117507079Y-64077685D01*
X117501674Y-63997093D01*
X117501674Y-63865714D01*
X117689359Y-63865714D01*
X117877044Y-63865714D01*
X117877044Y-63997093D01*
G37*
G36*
X118652807Y-63803152D02*
G01*
X118650405Y-63868504D01*
X118638876Y-63914881D01*
X118615271Y-63928275D01*
X118611852Y-63928117D01*
X118585873Y-63905469D01*
X118577734Y-63840689D01*
X118577666Y-63832712D01*
X118567960Y-63772096D01*
X118540197Y-63753103D01*
X118513851Y-63768575D01*
X118502660Y-63828177D01*
X118494924Y-63880868D01*
X118465123Y-63903251D01*
X118438777Y-63887779D01*
X118427586Y-63828177D01*
X118419850Y-63775486D01*
X118390049Y-63753103D01*
X118386630Y-63753261D01*
X118360652Y-63775909D01*
X118352512Y-63840689D01*
X118352296Y-63852184D01*
X118344028Y-63906277D01*
X118327487Y-63928275D01*
X118318473Y-63919832D01*
X118306964Y-63874528D01*
X118302463Y-63803152D01*
X118302463Y-63678029D01*
X118477635Y-63678029D01*
X118652807Y-63678029D01*
X118652807Y-63803152D01*
G37*
G36*
X117614285Y-60449852D02*
G01*
X117689359Y-60449852D01*
X117750110Y-60450469D01*
X117826300Y-60455392D01*
X117865776Y-60466602D01*
X117877044Y-60485727D01*
X117859725Y-60512090D01*
X117808345Y-60529520D01*
X117795816Y-60531295D01*
X117748325Y-60553974D01*
X117727015Y-60609836D01*
X117703030Y-60675188D01*
X117648293Y-60716880D01*
X117568109Y-60715819D01*
X117545321Y-60709181D01*
X117516456Y-60689708D01*
X117504216Y-60649724D01*
X117501902Y-60581231D01*
X117556239Y-60581231D01*
X117569534Y-60617091D01*
X117614285Y-60637537D01*
X117647471Y-60628310D01*
X117672331Y-60581231D01*
X117674006Y-60564108D01*
X117662099Y-60532643D01*
X117614285Y-60524926D01*
X117594293Y-60525571D01*
X117559369Y-60539532D01*
X117556239Y-60581231D01*
X117501902Y-60581231D01*
X117501674Y-60574498D01*
X117501674Y-60449852D01*
X117614285Y-60449852D01*
G37*
G36*
X117144090Y-61264917D02*
G01*
X117215866Y-61270437D01*
X117302114Y-61326350D01*
X117342007Y-61384206D01*
X117344057Y-61455295D01*
X117298673Y-61536305D01*
X117297203Y-61538166D01*
X117256144Y-61579617D01*
X117208210Y-61596365D01*
X117132275Y-61595985D01*
X117047058Y-61577456D01*
X116976182Y-61531466D01*
X116937774Y-61468885D01*
X116936220Y-61434422D01*
X117007126Y-61434422D01*
X117026471Y-61488693D01*
X117055062Y-61508732D01*
X117121690Y-61524095D01*
X117193796Y-61520083D01*
X117246423Y-61495881D01*
X117270372Y-61462000D01*
X117266430Y-61411159D01*
X117212866Y-61360278D01*
X117198703Y-61351402D01*
X117144090Y-61332099D01*
X117087041Y-61346972D01*
X117033882Y-61382171D01*
X117007126Y-61434422D01*
X116936220Y-61434422D01*
X116934664Y-61399920D01*
X116969683Y-61334777D01*
X117045662Y-61283663D01*
X117116912Y-61262827D01*
X117144090Y-61264917D01*
G37*
G36*
X117731144Y-61505017D02*
G01*
X117803135Y-61523118D01*
X117852019Y-61550936D01*
X117880847Y-61586865D01*
X117899989Y-61660513D01*
X117869296Y-61736337D01*
X117840077Y-61760538D01*
X117774928Y-61781337D01*
X117669099Y-61794595D01*
X117662126Y-61795151D01*
X117575615Y-61800600D01*
X117527282Y-61798156D01*
X117506249Y-61785625D01*
X117501640Y-61760815D01*
X117502772Y-61745781D01*
X117516909Y-61725993D01*
X117556842Y-61719197D01*
X117634518Y-61721892D01*
X117693468Y-61723766D01*
X117761476Y-61715495D01*
X117800012Y-61690930D01*
X117824946Y-61648464D01*
X117814860Y-61608193D01*
X117757408Y-61584021D01*
X117652608Y-61575960D01*
X117633304Y-61575877D01*
X117553895Y-61571873D01*
X117513159Y-61560170D01*
X117501674Y-61538423D01*
X117521348Y-61514189D01*
X117575769Y-61500035D01*
X117650528Y-61497150D01*
X117731144Y-61505017D01*
G37*
G36*
X117689359Y-60778059D02*
G01*
X117758364Y-60785605D01*
X117843041Y-60838993D01*
X117860624Y-60857606D01*
X117892573Y-60911533D01*
X117890306Y-60970372D01*
X117886849Y-60983507D01*
X117849534Y-61059702D01*
X117785711Y-61100742D01*
X117686254Y-61113005D01*
X117632384Y-61110730D01*
X117569864Y-61093721D01*
X117524488Y-61053927D01*
X117484343Y-60983364D01*
X117485656Y-60941050D01*
X117551724Y-60941050D01*
X117557479Y-60971117D01*
X117596741Y-61017886D01*
X117659220Y-61043417D01*
X117728377Y-61042799D01*
X117787670Y-61011119D01*
X117822337Y-60955958D01*
X117816165Y-60902950D01*
X117770091Y-60864852D01*
X117689359Y-60850246D01*
X117634072Y-60856917D01*
X117574097Y-60888926D01*
X117551724Y-60941050D01*
X117485656Y-60941050D01*
X117486608Y-60910374D01*
X117538074Y-60836596D01*
X117573231Y-60808029D01*
X117663639Y-60775246D01*
X117689359Y-60778059D01*
G37*
G36*
X117227884Y-63485555D02*
G01*
X117301477Y-63527881D01*
X117334542Y-63573503D01*
X117351527Y-63627980D01*
X117346070Y-63655039D01*
X117314766Y-63710572D01*
X117269523Y-63758026D01*
X117226404Y-63778128D01*
X117204002Y-63764265D01*
X117208765Y-63725144D01*
X117242370Y-63674213D01*
X117248628Y-63667108D01*
X117269450Y-63627877D01*
X117251818Y-63590912D01*
X117223487Y-63570768D01*
X117156638Y-63554834D01*
X117084209Y-63558589D01*
X117031211Y-63582936D01*
X117015077Y-63601020D01*
X117004343Y-63639918D01*
X117036448Y-63684696D01*
X117052950Y-63709155D01*
X117051914Y-63751998D01*
X117046630Y-63759212D01*
X117021051Y-63764452D01*
X116979111Y-63731032D01*
X116973093Y-63724903D01*
X116933453Y-63668019D01*
X116935110Y-63612650D01*
X116977974Y-63543768D01*
X116979123Y-63542328D01*
X117047227Y-63493735D01*
X117136641Y-63474492D01*
X117227884Y-63485555D01*
G37*
G36*
X117895342Y-60115291D02*
G01*
X117882822Y-60151223D01*
X117856026Y-60189664D01*
X117824293Y-60212975D01*
X117787689Y-60232125D01*
X117783050Y-60263895D01*
X117826995Y-60299704D01*
X117856855Y-60325530D01*
X117877044Y-60376013D01*
X117876371Y-60394262D01*
X117867325Y-60409120D01*
X117838924Y-60398744D01*
X117780276Y-60361499D01*
X117683508Y-60297462D01*
X117592591Y-60351104D01*
X117536590Y-60381423D01*
X117508693Y-60386473D01*
X117501674Y-60366156D01*
X117513945Y-60332836D01*
X117554168Y-60290799D01*
X117606661Y-60254031D01*
X117554168Y-60225938D01*
X117521867Y-60198352D01*
X117501674Y-60149520D01*
X117501968Y-60133915D01*
X117509004Y-60115638D01*
X117534697Y-60122122D01*
X117591115Y-60153966D01*
X117680555Y-60206737D01*
X117775951Y-60153122D01*
X117801787Y-60138865D01*
X117856509Y-60110701D01*
X117884365Y-60099507D01*
X117895342Y-60115291D01*
G37*
G36*
X116132381Y-63214204D02*
G01*
X116221698Y-63224045D01*
X116319261Y-63283852D01*
X116354720Y-63331381D01*
X116377244Y-63419317D01*
X116363621Y-63511924D01*
X116314142Y-63591580D01*
X116294900Y-63609206D01*
X116230807Y-63643420D01*
X116142344Y-63653005D01*
X116075760Y-63648068D01*
X115979407Y-63613286D01*
X115920234Y-63546525D01*
X115901393Y-63455595D01*
X116003445Y-63455595D01*
X116036260Y-63491810D01*
X116089656Y-63518846D01*
X116169167Y-63523425D01*
X116236143Y-63488557D01*
X116261135Y-63460022D01*
X116271989Y-63419213D01*
X116239565Y-63379090D01*
X116203186Y-63361819D01*
X116132381Y-63357418D01*
X116061816Y-63374745D01*
X116015233Y-63410480D01*
X116012334Y-63415399D01*
X116003445Y-63455595D01*
X115901393Y-63455595D01*
X115900098Y-63449346D01*
X115900725Y-63419119D01*
X115917057Y-63326505D01*
X115960769Y-63266275D01*
X116038870Y-63227211D01*
X116110086Y-63211748D01*
X116132381Y-63214204D01*
G37*
G36*
X117326502Y-63290147D02*
G01*
X117324271Y-63346790D01*
X117315182Y-63405157D01*
X117301477Y-63427783D01*
X117295868Y-63425230D01*
X117282003Y-63390366D01*
X117276453Y-63327684D01*
X117276417Y-63316578D01*
X117271919Y-63257716D01*
X117253482Y-63232763D01*
X117212005Y-63227586D01*
X117175585Y-63230635D01*
X117154915Y-63251899D01*
X117155700Y-63306811D01*
X117153399Y-63365443D01*
X117132561Y-63396483D01*
X117129918Y-63397207D01*
X117108343Y-63380531D01*
X117101280Y-63317257D01*
X117099444Y-63274560D01*
X117085411Y-63237115D01*
X117051231Y-63227586D01*
X117022343Y-63233253D01*
X117005379Y-63262196D01*
X117001182Y-63327684D01*
X117000544Y-63350122D01*
X116991828Y-63405582D01*
X116976157Y-63427783D01*
X116965859Y-63415514D01*
X116955246Y-63365521D01*
X116951133Y-63290147D01*
X116951133Y-63152512D01*
X117138817Y-63152512D01*
X117326502Y-63152512D01*
X117326502Y-63290147D01*
G37*
G36*
X117687418Y-62982135D02*
G01*
X117760649Y-62982195D01*
X117808023Y-62999631D01*
X117849215Y-63042019D01*
X117863609Y-63060535D01*
X117894338Y-63108971D01*
X117897982Y-63150791D01*
X117878831Y-63210373D01*
X117838699Y-63266746D01*
X117767574Y-63303603D01*
X117682817Y-63313095D01*
X117598798Y-63296113D01*
X117529888Y-63253547D01*
X117490455Y-63186289D01*
X117485980Y-63133996D01*
X117557749Y-63133996D01*
X117575894Y-63185833D01*
X117637583Y-63231352D01*
X117651461Y-63237263D01*
X117705552Y-63245071D01*
X117763408Y-63218046D01*
X117783582Y-63203155D01*
X117821728Y-63150581D01*
X117815689Y-63101988D01*
X117769555Y-63066293D01*
X117687418Y-63052413D01*
X117639236Y-63057517D01*
X117579934Y-63087378D01*
X117557749Y-63133996D01*
X117485980Y-63133996D01*
X117485726Y-63131023D01*
X117514629Y-63057801D01*
X117582362Y-63006081D01*
X117682816Y-62982339D01*
X117685964Y-62982134D01*
X117687418Y-62982135D01*
G37*
G36*
X117877044Y-62364236D02*
G01*
X117874813Y-62420879D01*
X117865724Y-62479245D01*
X117852019Y-62501872D01*
X117846410Y-62499319D01*
X117832545Y-62464455D01*
X117826995Y-62401773D01*
X117826959Y-62390667D01*
X117822461Y-62331804D01*
X117804024Y-62306851D01*
X117762547Y-62301674D01*
X117726127Y-62304724D01*
X117705457Y-62325988D01*
X117706242Y-62380900D01*
X117703941Y-62439532D01*
X117683103Y-62470571D01*
X117680460Y-62471296D01*
X117658885Y-62454620D01*
X117651822Y-62391346D01*
X117649986Y-62348649D01*
X117635952Y-62311204D01*
X117601773Y-62301674D01*
X117572885Y-62307342D01*
X117555921Y-62336285D01*
X117551724Y-62401773D01*
X117551086Y-62424211D01*
X117542370Y-62479671D01*
X117526699Y-62501872D01*
X117516400Y-62489602D01*
X117505788Y-62439610D01*
X117501674Y-62364236D01*
X117501674Y-62226601D01*
X117689359Y-62226601D01*
X117877044Y-62226601D01*
X117877044Y-62364236D01*
G37*
G36*
X117877044Y-59936847D02*
G01*
X117874813Y-59993490D01*
X117865724Y-60051856D01*
X117852019Y-60074482D01*
X117846410Y-60071930D01*
X117832545Y-60037066D01*
X117826995Y-59974384D01*
X117826959Y-59963278D01*
X117822461Y-59904415D01*
X117804024Y-59879462D01*
X117762547Y-59874285D01*
X117726127Y-59877335D01*
X117705457Y-59898599D01*
X117706242Y-59953511D01*
X117703941Y-60012143D01*
X117683103Y-60043182D01*
X117680460Y-60043907D01*
X117658885Y-60027231D01*
X117651822Y-59963957D01*
X117649986Y-59921259D01*
X117635952Y-59883815D01*
X117601773Y-59874285D01*
X117579179Y-59877148D01*
X117557322Y-59901505D01*
X117551724Y-59961872D01*
X117551508Y-59973366D01*
X117543240Y-60027459D01*
X117526699Y-60049458D01*
X117517685Y-60041014D01*
X117506176Y-59995710D01*
X117501674Y-59924335D01*
X117501674Y-59799211D01*
X117689359Y-59799211D01*
X117877044Y-59799211D01*
X117877044Y-59936847D01*
G37*
G36*
X118652807Y-61060278D02*
G01*
X118647814Y-61080257D01*
X118615271Y-61100492D01*
X118613238Y-61100554D01*
X118585498Y-61121978D01*
X118578102Y-61168997D01*
X118590335Y-61222807D01*
X118621487Y-61264604D01*
X118642256Y-61281640D01*
X118654848Y-61306257D01*
X118626793Y-61313780D01*
X118562586Y-61303872D01*
X118466721Y-61276197D01*
X118463546Y-61275136D01*
X118361092Y-61234540D01*
X118308305Y-61197123D01*
X118306057Y-61172647D01*
X118402561Y-61172647D01*
X118412042Y-61188034D01*
X118452610Y-61207842D01*
X118484266Y-61210326D01*
X118502660Y-61185736D01*
X118493194Y-61165201D01*
X118452610Y-61150541D01*
X118423546Y-61154679D01*
X118402561Y-61172647D01*
X118306057Y-61172647D01*
X118305026Y-61161423D01*
X118351095Y-61125979D01*
X118446354Y-61089331D01*
X118452610Y-61087340D01*
X118511638Y-61068557D01*
X118581929Y-61045647D01*
X118621527Y-61032034D01*
X118637838Y-61031732D01*
X118652807Y-61060278D01*
G37*
G36*
X118583132Y-63383623D02*
G01*
X118622778Y-63407763D01*
X118641883Y-63441830D01*
X118652807Y-63502857D01*
X118646218Y-63552709D01*
X118606758Y-63608714D01*
X118533915Y-63627980D01*
X118520029Y-63627109D01*
X118475078Y-63603609D01*
X118438485Y-63540394D01*
X118431805Y-63525291D01*
X118401858Y-63473659D01*
X118377201Y-63452807D01*
X118356095Y-63467210D01*
X118356925Y-63505550D01*
X118382541Y-63547901D01*
X118398490Y-63571205D01*
X118384871Y-63605630D01*
X118379550Y-63610254D01*
X118350614Y-63610297D01*
X118313755Y-63567068D01*
X118301063Y-63546482D01*
X118283853Y-63493558D01*
X118299155Y-63437561D01*
X118327790Y-63397561D01*
X118377938Y-63380664D01*
X118431328Y-63405800D01*
X118477635Y-63471034D01*
X118515844Y-63531024D01*
X118556180Y-63551797D01*
X118591220Y-63526304D01*
X118592553Y-63499480D01*
X118567673Y-63455516D01*
X118542673Y-63424180D01*
X118527684Y-63394532D01*
X118544176Y-63378657D01*
X118583132Y-63383623D01*
G37*
G36*
X118572459Y-61358476D02*
G01*
X118613483Y-61390063D01*
X118634884Y-61419523D01*
X118652478Y-61487956D01*
X118641073Y-61555522D01*
X118601813Y-61601491D01*
X118599690Y-61602609D01*
X118528037Y-61617874D01*
X118468734Y-61586161D01*
X118426431Y-61509899D01*
X118415290Y-61479200D01*
X118392550Y-61443148D01*
X118369206Y-61449158D01*
X118354428Y-61477840D01*
X118371907Y-61526196D01*
X118395902Y-61568917D01*
X118397096Y-61594791D01*
X118365905Y-61600985D01*
X118344269Y-61596544D01*
X118305779Y-61559420D01*
X118288371Y-61499557D01*
X118299352Y-61435159D01*
X118337047Y-61386902D01*
X118391591Y-61372316D01*
X118447193Y-61398389D01*
X118491760Y-61463349D01*
X118498462Y-61478585D01*
X118527469Y-61530127D01*
X118550367Y-61550936D01*
X118554246Y-61550711D01*
X118581515Y-61528112D01*
X118585748Y-61484076D01*
X118564158Y-61440836D01*
X118537660Y-61405465D01*
X118529099Y-61367051D01*
X118550921Y-61350739D01*
X118572459Y-61358476D01*
G37*
G36*
X117860370Y-64183687D02*
G01*
X117877044Y-64216059D01*
X117872684Y-64233564D01*
X117839507Y-64253596D01*
X117812926Y-64269510D01*
X117801970Y-64329455D01*
X117811367Y-64385195D01*
X117839507Y-64419719D01*
X117846378Y-64423018D01*
X117871656Y-64452864D01*
X117875945Y-64487334D01*
X117855066Y-64503842D01*
X117822469Y-64495726D01*
X117757207Y-64474177D01*
X117673637Y-64443900D01*
X117667603Y-64441617D01*
X117568168Y-64397184D01*
X117518231Y-64356847D01*
X117518063Y-64344947D01*
X117608654Y-64344947D01*
X117618495Y-64353311D01*
X117635388Y-64355033D01*
X117687313Y-64368884D01*
X117711972Y-64372123D01*
X117726896Y-64343859D01*
X117722770Y-64324008D01*
X117695615Y-64304028D01*
X117665025Y-64310389D01*
X117629375Y-64327310D01*
X117608654Y-64344947D01*
X117518063Y-64344947D01*
X117517685Y-64318206D01*
X117566422Y-64278862D01*
X117664335Y-64236418D01*
X117695615Y-64225465D01*
X117737700Y-64210729D01*
X117807101Y-64188947D01*
X117845763Y-64180009D01*
X117860370Y-64183687D01*
G37*
G36*
X118390049Y-62351724D02*
G01*
X118477635Y-62351724D01*
X118540197Y-62351724D01*
X118652807Y-62351724D01*
X118652807Y-62448758D01*
X118652388Y-62464613D01*
X118641399Y-62531772D01*
X118620162Y-62572886D01*
X118619002Y-62573774D01*
X118575472Y-62586063D01*
X118500104Y-62591474D01*
X118409742Y-62589602D01*
X118321231Y-62580044D01*
X118315698Y-62574107D01*
X118306214Y-62532300D01*
X118302463Y-62464335D01*
X118352512Y-62464335D01*
X118359859Y-62505142D01*
X118390049Y-62526896D01*
X118414533Y-62514651D01*
X118427384Y-62465113D01*
X118507254Y-62465113D01*
X118518760Y-62506951D01*
X118540197Y-62528452D01*
X118558712Y-62512567D01*
X118573140Y-62465113D01*
X118570310Y-62417742D01*
X118540197Y-62401773D01*
X118511333Y-62415339D01*
X118507254Y-62465113D01*
X118427384Y-62465113D01*
X118427586Y-62464335D01*
X118420239Y-62423527D01*
X118390049Y-62401773D01*
X118365564Y-62414018D01*
X118352512Y-62464335D01*
X118302463Y-62464335D01*
X118302463Y-62351724D01*
X118390049Y-62351724D01*
G37*
G36*
X118585989Y-62080136D02*
G01*
X118622778Y-62106482D01*
X118642428Y-62134500D01*
X118648915Y-62199414D01*
X118613483Y-62262350D01*
X118598678Y-62275587D01*
X118540999Y-62300680D01*
X118492147Y-62282906D01*
X118491948Y-62282712D01*
X118455244Y-62269587D01*
X118394134Y-62264138D01*
X118366350Y-62263111D01*
X118323190Y-62247934D01*
X118306798Y-62206455D01*
X118305822Y-62183712D01*
X118319614Y-62129932D01*
X118348339Y-62093850D01*
X118381587Y-62091469D01*
X118390339Y-62103919D01*
X118376597Y-62140146D01*
X118366549Y-62154370D01*
X118359333Y-62194130D01*
X118383910Y-62210232D01*
X118426978Y-62189613D01*
X118444996Y-62174004D01*
X118470593Y-62163048D01*
X118486270Y-62187983D01*
X118497768Y-62206335D01*
X118537934Y-62226601D01*
X118547499Y-62225830D01*
X118583296Y-62207693D01*
X118598658Y-62178831D01*
X118582164Y-62157174D01*
X118579003Y-62155907D01*
X118557218Y-62129003D01*
X118554119Y-62093900D01*
X118572729Y-62076453D01*
X118585989Y-62080136D01*
G37*
G36*
X115289435Y-60258902D02*
G01*
X115340489Y-60276283D01*
X115421198Y-60303322D01*
X115518473Y-60335626D01*
X115599053Y-60362860D01*
X115668131Y-60389872D01*
X115705909Y-60413346D01*
X115721728Y-60439581D01*
X115724926Y-60474876D01*
X115723234Y-60503134D01*
X115711122Y-60530884D01*
X115679184Y-60554433D01*
X115618080Y-60580081D01*
X115518473Y-60614127D01*
X115482057Y-60626191D01*
X115388820Y-60657265D01*
X115316634Y-60681584D01*
X115278744Y-60694698D01*
X115275569Y-60695747D01*
X115254553Y-60686290D01*
X115253719Y-60635725D01*
X115259819Y-60603471D01*
X115279762Y-60573512D01*
X115324344Y-60551713D01*
X115405862Y-60529486D01*
X115469923Y-60512107D01*
X115527546Y-60491873D01*
X115549753Y-60477341D01*
X115532509Y-60465553D01*
X115478161Y-60446847D01*
X115399606Y-60426866D01*
X115393580Y-60425526D01*
X115313394Y-60405844D01*
X115270259Y-60386991D01*
X115252754Y-60360756D01*
X115249458Y-60318928D01*
X115256734Y-60267440D01*
X115280739Y-60255820D01*
X115289435Y-60258902D01*
G37*
G36*
X117314344Y-60601260D02*
G01*
X117327086Y-60623278D01*
X117316944Y-60658403D01*
X117288965Y-60684123D01*
X117263168Y-60713012D01*
X117251428Y-60774387D01*
X117259303Y-60828104D01*
X117288965Y-60850246D01*
X117310246Y-60858728D01*
X117326502Y-60898049D01*
X117325770Y-60912377D01*
X117316893Y-60927258D01*
X117290176Y-60926950D01*
X117236081Y-60910303D01*
X117145074Y-60876166D01*
X117102874Y-60859425D01*
X117010779Y-60815287D01*
X116967362Y-60776606D01*
X116970045Y-60756899D01*
X117057282Y-60756899D01*
X117074594Y-60773823D01*
X117109068Y-60791458D01*
X117145074Y-60799813D01*
X117160554Y-60794698D01*
X117176354Y-60759982D01*
X117170228Y-60737281D01*
X117136771Y-60734958D01*
X117116390Y-60741670D01*
X117067953Y-60750531D01*
X117057282Y-60756899D01*
X116970045Y-60756899D01*
X116972336Y-60740071D01*
X117025413Y-60702371D01*
X117126305Y-60660198D01*
X117128198Y-60659507D01*
X117136771Y-60656471D01*
X117211897Y-60629864D01*
X117276347Y-60608649D01*
X117307734Y-60600415D01*
X117314344Y-60601260D01*
G37*
G36*
X118572459Y-61658772D02*
G01*
X118613483Y-61690359D01*
X118636528Y-61724670D01*
X118652807Y-61788670D01*
X118635921Y-61852020D01*
X118594017Y-61904579D01*
X118542288Y-61926305D01*
X118542205Y-61926305D01*
X118496196Y-61904940D01*
X118449593Y-61851664D01*
X118416347Y-61782413D01*
X118400317Y-61746984D01*
X118375850Y-61726108D01*
X118365452Y-61730313D01*
X118353543Y-61762794D01*
X118357694Y-61807123D01*
X118377537Y-61838719D01*
X118394821Y-61854248D01*
X118398810Y-61885982D01*
X118365905Y-61901280D01*
X118344269Y-61896840D01*
X118305779Y-61859716D01*
X118288371Y-61799853D01*
X118299352Y-61735455D01*
X118337047Y-61687198D01*
X118391591Y-61672611D01*
X118447193Y-61698684D01*
X118491760Y-61763645D01*
X118498462Y-61778881D01*
X118527469Y-61830422D01*
X118550367Y-61851231D01*
X118554246Y-61851006D01*
X118581515Y-61828407D01*
X118585748Y-61784371D01*
X118564158Y-61741132D01*
X118537660Y-61705761D01*
X118529099Y-61667347D01*
X118550921Y-61651034D01*
X118572459Y-61658772D01*
G37*
G36*
X117795439Y-61159115D02*
G01*
X117852019Y-61200591D01*
X117888458Y-61250353D01*
X117897182Y-61323554D01*
X117856241Y-61401788D01*
X117808995Y-61440613D01*
X117747907Y-61445492D01*
X117689803Y-61405986D01*
X117641807Y-61324658D01*
X117629055Y-61296059D01*
X117599500Y-61249669D01*
X117576437Y-61238320D01*
X117565905Y-61248795D01*
X117552980Y-61289015D01*
X117556618Y-61331204D01*
X117576748Y-61350739D01*
X117588260Y-61354973D01*
X117601773Y-61388275D01*
X117596335Y-61411931D01*
X117568554Y-61425211D01*
X117530453Y-61407782D01*
X117497121Y-61363251D01*
X117481332Y-61306260D01*
X117497869Y-61236486D01*
X117499813Y-61232375D01*
X117543954Y-61183531D01*
X117600401Y-61176934D01*
X117659148Y-61210445D01*
X117710189Y-61281921D01*
X117721740Y-61304171D01*
X117755055Y-61355329D01*
X117779792Y-61375763D01*
X117787886Y-61374870D01*
X117814315Y-61348966D01*
X117816546Y-61302006D01*
X117792493Y-61253994D01*
X117782085Y-61241866D01*
X117751876Y-61187464D01*
X117759192Y-61157309D01*
X117795439Y-61159115D01*
G37*
G36*
X118402561Y-63978325D02*
G01*
X118476264Y-63978325D01*
X118533023Y-63978905D01*
X118605696Y-63983868D01*
X118642561Y-63995535D01*
X118652807Y-64015862D01*
X118637335Y-64042207D01*
X118577734Y-64053399D01*
X118576818Y-64053400D01*
X118524411Y-64060429D01*
X118502660Y-64077008D01*
X118503069Y-64079715D01*
X118527391Y-64109094D01*
X118577734Y-64144966D01*
X118584993Y-64149404D01*
X118633120Y-64188183D01*
X118652807Y-64221454D01*
X118646631Y-64246199D01*
X118616334Y-64248182D01*
X118556745Y-64213567D01*
X118524883Y-64193226D01*
X118490161Y-64188880D01*
X118449614Y-64218771D01*
X118404741Y-64246615D01*
X118357663Y-64239596D01*
X118324163Y-64188030D01*
X118308670Y-64101971D01*
X118352512Y-64101971D01*
X118352575Y-64105833D01*
X118367362Y-64153731D01*
X118398036Y-64171646D01*
X118430000Y-64150447D01*
X118448006Y-64112803D01*
X118444451Y-64069429D01*
X118402561Y-64053399D01*
X118370922Y-64061199D01*
X118352512Y-64101971D01*
X118308670Y-64101971D01*
X118307348Y-64094628D01*
X118299720Y-63978325D01*
X118402561Y-63978325D01*
G37*
G36*
X115724926Y-62652019D02*
G01*
X115724812Y-62698729D01*
X115722378Y-62771291D01*
X115713755Y-62809617D01*
X115695049Y-62824616D01*
X115662364Y-62827192D01*
X115645490Y-62826762D01*
X115615141Y-62816994D01*
X115602396Y-62784071D01*
X115599803Y-62714581D01*
X115598276Y-62666818D01*
X115587007Y-62616707D01*
X115562266Y-62601970D01*
X115551474Y-62603787D01*
X115530927Y-62632467D01*
X115524729Y-62702069D01*
X115521895Y-62759845D01*
X115507423Y-62793773D01*
X115474679Y-62802167D01*
X115445791Y-62796500D01*
X115428827Y-62767557D01*
X115424630Y-62702069D01*
X115423949Y-62673291D01*
X115413194Y-62618499D01*
X115387093Y-62601970D01*
X115371172Y-62606549D01*
X115354469Y-62640358D01*
X115349556Y-62714581D01*
X115349537Y-62722671D01*
X115345574Y-62789229D01*
X115330784Y-62819824D01*
X115299507Y-62827192D01*
X115295523Y-62827143D01*
X115270783Y-62820938D01*
X115256897Y-62796817D01*
X115250808Y-62744078D01*
X115249458Y-62652019D01*
X115249458Y-62476847D01*
X115487192Y-62476847D01*
X115724926Y-62476847D01*
X115724926Y-62652019D01*
G37*
G36*
X115724926Y-64503842D02*
G01*
X115724812Y-64550552D01*
X115722378Y-64623113D01*
X115713755Y-64661440D01*
X115695049Y-64676438D01*
X115662364Y-64679014D01*
X115645490Y-64678584D01*
X115615141Y-64668817D01*
X115602396Y-64635893D01*
X115599803Y-64566404D01*
X115598276Y-64518641D01*
X115587007Y-64468530D01*
X115562266Y-64453793D01*
X115551474Y-64455609D01*
X115530927Y-64484290D01*
X115524729Y-64553891D01*
X115521895Y-64611668D01*
X115507423Y-64645596D01*
X115474679Y-64653990D01*
X115445791Y-64648323D01*
X115428827Y-64619379D01*
X115424630Y-64553891D01*
X115423949Y-64525114D01*
X115413194Y-64470322D01*
X115387093Y-64453793D01*
X115371172Y-64458372D01*
X115354469Y-64492180D01*
X115349556Y-64566404D01*
X115349537Y-64574493D01*
X115345574Y-64641051D01*
X115330784Y-64671646D01*
X115299507Y-64679014D01*
X115295523Y-64678966D01*
X115270783Y-64672761D01*
X115256897Y-64648639D01*
X115250808Y-64595900D01*
X115249458Y-64503842D01*
X115249458Y-64328670D01*
X115487192Y-64328670D01*
X115724926Y-64328670D01*
X115724926Y-64503842D01*
G37*
G36*
X115387093Y-61626009D02*
G01*
X115487192Y-61626009D01*
X115575638Y-61626009D01*
X115724926Y-61626009D01*
X115724584Y-61744876D01*
X115722135Y-61825161D01*
X115708093Y-61915746D01*
X115678669Y-61972297D01*
X115630541Y-62003964D01*
X115579766Y-62014642D01*
X115513644Y-61992103D01*
X115468728Y-61971655D01*
X115414192Y-61981698D01*
X115381313Y-61993111D01*
X115309288Y-61979663D01*
X115278071Y-61961164D01*
X115259385Y-61931640D01*
X115251242Y-61878762D01*
X115249821Y-61807438D01*
X115354072Y-61807438D01*
X115364511Y-61842460D01*
X115387093Y-61863743D01*
X115404405Y-61851446D01*
X115417226Y-61815529D01*
X115524729Y-61815529D01*
X115524749Y-61818926D01*
X115534901Y-61864379D01*
X115568234Y-61871547D01*
X115601299Y-61852812D01*
X115621653Y-61810001D01*
X115609009Y-61768681D01*
X115575638Y-61750142D01*
X115539806Y-61764890D01*
X115524729Y-61815529D01*
X115417226Y-61815529D01*
X115420114Y-61807438D01*
X115418067Y-61768406D01*
X115387093Y-61751133D01*
X115360139Y-61761552D01*
X115354072Y-61807438D01*
X115249821Y-61807438D01*
X115249458Y-61789206D01*
X115249458Y-61626009D01*
X115387093Y-61626009D01*
G37*
G36*
X117057487Y-62802167D02*
G01*
X117137510Y-62802167D01*
X117175851Y-62802416D01*
X117264240Y-62806707D01*
X117312110Y-62817280D01*
X117326502Y-62835370D01*
X117309528Y-62857355D01*
X117251428Y-62857554D01*
X117194413Y-62860951D01*
X117175029Y-62887443D01*
X117193794Y-62927681D01*
X117250764Y-62972247D01*
X117255473Y-62975010D01*
X117307550Y-63015057D01*
X117333744Y-63052413D01*
X117337400Y-63071340D01*
X117333203Y-63095961D01*
X117304073Y-63091195D01*
X117241903Y-63057492D01*
X117187873Y-63028473D01*
X117156656Y-63023258D01*
X117140908Y-63043476D01*
X117114766Y-63067745D01*
X117045147Y-63072780D01*
X117002323Y-63066797D01*
X116974748Y-63050110D01*
X116962183Y-63010148D01*
X116956081Y-62933546D01*
X116955721Y-62927290D01*
X117013694Y-62927290D01*
X117021356Y-62967822D01*
X117057487Y-62997600D01*
X117071969Y-62998981D01*
X117095074Y-62982237D01*
X117101280Y-62927290D01*
X117100498Y-62901402D01*
X117088710Y-62862127D01*
X117057487Y-62856980D01*
X117029845Y-62873130D01*
X117013694Y-62927290D01*
X116955721Y-62927290D01*
X116948517Y-62802167D01*
X117057487Y-62802167D01*
G37*
G36*
X116178045Y-63728094D02*
G01*
X116274152Y-63729064D01*
X116332583Y-63733337D01*
X116362713Y-63743379D01*
X116373915Y-63761657D01*
X116375566Y-63790640D01*
X116374805Y-63811844D01*
X116363611Y-63839444D01*
X116328608Y-63851020D01*
X116256699Y-63853496D01*
X116137832Y-63853790D01*
X116256699Y-63931531D01*
X116310452Y-63969680D01*
X116360516Y-64020767D01*
X116375566Y-64068872D01*
X116375515Y-64076810D01*
X116371852Y-64101673D01*
X116355622Y-64116922D01*
X116317456Y-64124905D01*
X116247983Y-64127972D01*
X116137832Y-64128473D01*
X116101432Y-64128458D01*
X116003955Y-64127511D01*
X115944457Y-64123332D01*
X115913564Y-64113510D01*
X115901902Y-64095631D01*
X115900098Y-64067282D01*
X115900680Y-64050126D01*
X115911709Y-64020476D01*
X115946807Y-64005762D01*
X116018965Y-63998464D01*
X116137832Y-63990837D01*
X116018965Y-63919641D01*
X115958972Y-63880087D01*
X115913383Y-63834299D01*
X115900098Y-63788262D01*
X115900152Y-63779796D01*
X115903822Y-63754851D01*
X115920054Y-63739579D01*
X115958218Y-63731608D01*
X116027686Y-63728565D01*
X116137832Y-63728078D01*
X116178045Y-63728094D01*
G37*
G36*
X115527405Y-59799227D02*
G01*
X115623512Y-59800197D01*
X115681943Y-59804470D01*
X115712072Y-59814512D01*
X115723275Y-59832790D01*
X115724926Y-59861773D01*
X115723253Y-59890016D01*
X115709188Y-59913118D01*
X115670124Y-59922737D01*
X115593546Y-59924887D01*
X115462167Y-59925439D01*
X115593546Y-60002026D01*
X115595410Y-60003114D01*
X115673275Y-60053980D01*
X115713491Y-60096228D01*
X115724926Y-60139110D01*
X115724871Y-60147857D01*
X115721197Y-60172846D01*
X115704965Y-60188131D01*
X115666802Y-60196096D01*
X115597335Y-60199126D01*
X115487192Y-60199606D01*
X115446979Y-60199590D01*
X115350872Y-60198620D01*
X115292441Y-60194347D01*
X115262311Y-60184305D01*
X115251109Y-60166026D01*
X115249458Y-60137044D01*
X115250216Y-60115904D01*
X115261407Y-60088251D01*
X115296411Y-60076600D01*
X115368325Y-60074007D01*
X115487192Y-60073531D01*
X115368325Y-59998887D01*
X115304947Y-59954923D01*
X115261851Y-59908645D01*
X115249458Y-59861727D01*
X115249518Y-59851185D01*
X115253203Y-59825901D01*
X115269439Y-59810526D01*
X115307599Y-59802597D01*
X115377058Y-59799647D01*
X115487192Y-59799211D01*
X115527405Y-59799227D01*
G37*
G36*
X117601773Y-63502857D02*
G01*
X117689359Y-63502857D01*
X117770689Y-63502857D01*
X117877044Y-63502857D01*
X117877044Y-63637815D01*
X117874702Y-63705249D01*
X117862480Y-63762741D01*
X117837460Y-63787963D01*
X117786919Y-63800911D01*
X117727832Y-63798486D01*
X117696505Y-63774539D01*
X117680511Y-63758807D01*
X117637468Y-63772417D01*
X117598820Y-63787265D01*
X117545690Y-63777750D01*
X117512888Y-63723790D01*
X117503986Y-63646748D01*
X117556318Y-63646748D01*
X117570352Y-63693168D01*
X117601773Y-63715566D01*
X117628927Y-63699629D01*
X117645570Y-63651540D01*
X117721180Y-63651540D01*
X117729815Y-63701788D01*
X117749503Y-63726621D01*
X117788378Y-63719443D01*
X117813694Y-63693689D01*
X117826995Y-63639537D01*
X117826423Y-63620979D01*
X117812577Y-63585700D01*
X117770689Y-63582527D01*
X117767950Y-63582941D01*
X117727322Y-63602542D01*
X117721180Y-63651540D01*
X117645570Y-63651540D01*
X117647228Y-63646748D01*
X117649038Y-63624875D01*
X117639859Y-63587294D01*
X117601773Y-63577931D01*
X117584914Y-63578843D01*
X117557769Y-63596252D01*
X117556318Y-63646748D01*
X117503986Y-63646748D01*
X117501674Y-63626736D01*
X117501674Y-63502857D01*
X117601773Y-63502857D01*
G37*
G36*
X117608029Y-61851231D02*
G01*
X117688110Y-61851231D01*
X117705691Y-61851254D01*
X117795880Y-61853119D01*
X117847736Y-61859720D01*
X117871408Y-61873510D01*
X117877044Y-61896946D01*
X117875707Y-61912565D01*
X117855879Y-61933415D01*
X117801970Y-61931643D01*
X117747229Y-61933588D01*
X117726079Y-61958046D01*
X117744003Y-61997197D01*
X117801072Y-62042366D01*
X117805856Y-62045261D01*
X117857794Y-62086510D01*
X117884052Y-62125111D01*
X117887883Y-62145150D01*
X117883668Y-62170003D01*
X117854576Y-62165287D01*
X117792445Y-62131581D01*
X117738415Y-62102561D01*
X117707197Y-62097347D01*
X117691450Y-62117564D01*
X117665308Y-62141834D01*
X117595689Y-62146869D01*
X117589452Y-62146262D01*
X117546134Y-62139031D01*
X117522864Y-62119896D01*
X117512196Y-62076159D01*
X117507108Y-62001379D01*
X117564236Y-62001379D01*
X117571898Y-62041911D01*
X117608029Y-62071689D01*
X117622511Y-62073070D01*
X117645616Y-62056325D01*
X117651822Y-62001379D01*
X117651039Y-61975491D01*
X117639252Y-61936216D01*
X117608029Y-61931069D01*
X117580387Y-61947218D01*
X117564236Y-62001379D01*
X117507108Y-62001379D01*
X117506682Y-61995123D01*
X117499177Y-61851231D01*
X117608029Y-61851231D01*
G37*
G36*
X116366037Y-62139084D02*
G01*
X116375566Y-62187172D01*
X116366154Y-62234393D01*
X116338029Y-62267600D01*
X116312735Y-62295240D01*
X116300492Y-62351724D01*
X116310148Y-62402410D01*
X116338029Y-62435847D01*
X116339409Y-62436429D01*
X116362702Y-62465614D01*
X116374951Y-62513113D01*
X116373475Y-62557399D01*
X116355595Y-62576945D01*
X116346879Y-62575345D01*
X116298615Y-62561327D01*
X116220394Y-62535979D01*
X116124117Y-62503099D01*
X116043479Y-62474322D01*
X115971955Y-62445035D01*
X115931370Y-62419738D01*
X115912210Y-62392020D01*
X115904957Y-62355471D01*
X115904501Y-62344734D01*
X116051431Y-62344734D01*
X116052331Y-62360716D01*
X116078050Y-62371313D01*
X116131576Y-62386217D01*
X116159833Y-62391934D01*
X116192657Y-62386650D01*
X116200394Y-62351724D01*
X116198960Y-62331125D01*
X116181207Y-62311058D01*
X116131576Y-62317230D01*
X116091170Y-62327853D01*
X116051431Y-62344734D01*
X115904501Y-62344734D01*
X115903452Y-62320063D01*
X115913706Y-62293876D01*
X115944774Y-62271541D01*
X116005607Y-62246686D01*
X116105154Y-62212939D01*
X116143163Y-62200347D01*
X116181207Y-62187674D01*
X116236026Y-62169414D01*
X116307410Y-62145396D01*
X116344285Y-62132667D01*
X116366037Y-62139084D01*
G37*
G36*
X115382922Y-64754088D02*
G01*
X115487192Y-64754088D01*
X115527405Y-64754104D01*
X115623512Y-64755074D01*
X115681943Y-64759346D01*
X115712072Y-64769389D01*
X115723275Y-64787667D01*
X115724926Y-64816650D01*
X115724890Y-64822098D01*
X115717983Y-64859690D01*
X115689319Y-64875797D01*
X115624827Y-64879211D01*
X115557047Y-64883344D01*
X115529912Y-64898156D01*
X115550483Y-64925399D01*
X115618639Y-64966798D01*
X115636190Y-64976611D01*
X115697073Y-65026321D01*
X115720332Y-65085665D01*
X115721388Y-65118583D01*
X115704410Y-65150117D01*
X115659593Y-65145665D01*
X115582868Y-65105822D01*
X115534690Y-65079185D01*
X115499599Y-65073054D01*
X115473449Y-65093404D01*
X115462686Y-65103586D01*
X115403794Y-65125977D01*
X115333910Y-65124865D01*
X115279487Y-65099428D01*
X115266296Y-65071084D01*
X115254088Y-65002336D01*
X115251796Y-64957483D01*
X115352402Y-64957483D01*
X115373325Y-64991046D01*
X115389606Y-64991189D01*
X115417379Y-64965163D01*
X115435951Y-64925898D01*
X115432091Y-64895014D01*
X115424804Y-64889689D01*
X115382922Y-64879211D01*
X115371612Y-64882190D01*
X115352536Y-64912978D01*
X115352402Y-64957483D01*
X115251796Y-64957483D01*
X115249458Y-64911743D01*
X115249458Y-64754088D01*
X115382922Y-64754088D01*
G37*
G36*
X115715397Y-63415340D02*
G01*
X115724926Y-63463428D01*
X115715513Y-63510649D01*
X115687389Y-63543856D01*
X115662094Y-63571497D01*
X115649852Y-63627980D01*
X115659507Y-63678666D01*
X115687389Y-63712103D01*
X115688776Y-63712689D01*
X115712051Y-63741873D01*
X115724312Y-63789371D01*
X115722867Y-63833656D01*
X115705025Y-63853202D01*
X115696498Y-63851705D01*
X115648335Y-63838278D01*
X115570027Y-63813909D01*
X115473548Y-63782268D01*
X115385085Y-63751895D01*
X115316858Y-63724495D01*
X115278706Y-63700120D01*
X115261051Y-63672318D01*
X115254316Y-63634641D01*
X115254171Y-63633182D01*
X115254080Y-63630897D01*
X115399606Y-63630897D01*
X115408972Y-63643735D01*
X115449655Y-63653005D01*
X115479926Y-63653311D01*
X115517847Y-63654881D01*
X115526367Y-63653785D01*
X115544280Y-63629587D01*
X115537174Y-63598718D01*
X115515114Y-63591750D01*
X115467191Y-63596160D01*
X115420564Y-63611110D01*
X115399606Y-63630897D01*
X115254080Y-63630897D01*
X115252703Y-63596247D01*
X115263055Y-63569881D01*
X115294176Y-63547584D01*
X115355013Y-63522855D01*
X115454513Y-63489195D01*
X115492522Y-63476603D01*
X115515114Y-63469078D01*
X115585386Y-63445670D01*
X115656769Y-63421652D01*
X115693645Y-63408923D01*
X115715397Y-63415340D01*
G37*
G36*
X115616721Y-60957897D02*
G01*
X115674876Y-61000394D01*
X115689172Y-61017350D01*
X115720243Y-61096319D01*
X115719114Y-61187928D01*
X115685011Y-61271465D01*
X115670816Y-61289526D01*
X115625217Y-61318152D01*
X115554195Y-61320827D01*
X115542303Y-61319737D01*
X115487649Y-61307553D01*
X115454186Y-61275662D01*
X115425194Y-61209656D01*
X115407497Y-61166864D01*
X115374701Y-61114250D01*
X115347063Y-61103094D01*
X115328953Y-61136707D01*
X115328527Y-61156120D01*
X115347721Y-61175566D01*
X115348065Y-61175572D01*
X115366804Y-61197937D01*
X115374581Y-61250640D01*
X115374476Y-61260020D01*
X115364682Y-61313428D01*
X115337633Y-61320059D01*
X115291451Y-61280588D01*
X115253600Y-61216011D01*
X115240858Y-61128944D01*
X115260745Y-61046195D01*
X115312019Y-60985580D01*
X115347876Y-60964330D01*
X115386999Y-60958860D01*
X115434909Y-60984117D01*
X115439393Y-60987239D01*
X115488253Y-61041149D01*
X115524436Y-61112118D01*
X115529476Y-61126046D01*
X115558953Y-61179107D01*
X115589231Y-61200591D01*
X115609325Y-61192857D01*
X115623703Y-61157714D01*
X115616233Y-61114137D01*
X115587290Y-61084517D01*
X115563731Y-61062126D01*
X115549753Y-61010229D01*
X115550944Y-60992911D01*
X115572888Y-60955601D01*
X115616721Y-60957897D01*
G37*
G36*
X115616721Y-63885779D02*
G01*
X115674876Y-63928275D01*
X115689172Y-63945232D01*
X115720243Y-64024201D01*
X115719114Y-64115810D01*
X115685011Y-64199347D01*
X115670816Y-64217407D01*
X115625217Y-64246033D01*
X115554195Y-64248708D01*
X115542303Y-64247619D01*
X115487649Y-64235434D01*
X115454186Y-64203544D01*
X115425194Y-64137538D01*
X115407497Y-64094746D01*
X115374701Y-64042132D01*
X115347063Y-64030976D01*
X115328953Y-64064589D01*
X115328527Y-64084002D01*
X115347721Y-64103448D01*
X115348065Y-64103454D01*
X115366804Y-64125818D01*
X115374581Y-64178522D01*
X115374476Y-64187901D01*
X115364682Y-64241310D01*
X115337633Y-64247941D01*
X115291451Y-64208470D01*
X115253600Y-64143893D01*
X115240858Y-64056826D01*
X115260745Y-63974076D01*
X115312019Y-63913462D01*
X115347876Y-63892212D01*
X115386999Y-63886741D01*
X115434909Y-63911999D01*
X115439393Y-63915121D01*
X115488253Y-63969031D01*
X115524436Y-64040000D01*
X115529476Y-64053927D01*
X115558953Y-64106989D01*
X115589231Y-64128473D01*
X115609325Y-64120739D01*
X115623703Y-64085595D01*
X115616233Y-64042019D01*
X115587290Y-64012399D01*
X115563731Y-63990007D01*
X115549753Y-63938110D01*
X115550944Y-63920793D01*
X115572888Y-63883483D01*
X115616721Y-63885779D01*
G37*
G36*
X117761407Y-64554751D02*
G01*
X117831684Y-64560006D01*
X117867212Y-64571628D01*
X117877044Y-64591428D01*
X117871523Y-64608260D01*
X117835368Y-64625237D01*
X117758177Y-64631923D01*
X117639310Y-64634882D01*
X117758177Y-64659655D01*
X117805920Y-64671267D01*
X117860554Y-64695719D01*
X117877044Y-64727577D01*
X117872679Y-64745393D01*
X117836711Y-64773353D01*
X117758177Y-64796498D01*
X117639310Y-64822270D01*
X117758177Y-64825716D01*
X117810382Y-64828936D01*
X117861769Y-64841841D01*
X117877044Y-64866699D01*
X117872744Y-64881109D01*
X117846469Y-64895164D01*
X117788358Y-64902270D01*
X117689359Y-64904236D01*
X117626348Y-64904019D01*
X117556000Y-64901236D01*
X117518795Y-64892457D01*
X117504199Y-64874256D01*
X117501674Y-64843208D01*
X117501805Y-64835168D01*
X117511047Y-64799625D01*
X117544196Y-64779339D01*
X117614285Y-64765293D01*
X117648280Y-64759289D01*
X117704634Y-64743913D01*
X117726896Y-64729064D01*
X117721621Y-64722434D01*
X117681303Y-64706708D01*
X117614285Y-64692835D01*
X117599486Y-64690545D01*
X117536458Y-64676085D01*
X117508198Y-64653882D01*
X117501674Y-64614919D01*
X117502343Y-64594431D01*
X117510902Y-64571556D01*
X117537901Y-64559458D01*
X117593875Y-64554712D01*
X117689359Y-64553891D01*
X117761407Y-64554751D01*
G37*
G36*
X118471996Y-62794969D02*
G01*
X118557677Y-62797759D01*
X118620418Y-62799999D01*
X118646674Y-62801205D01*
X118649182Y-62817623D01*
X118650497Y-62871922D01*
X118649692Y-62950880D01*
X118647613Y-62998732D01*
X118635218Y-63079025D01*
X118612032Y-63112755D01*
X118591250Y-63131970D01*
X118578754Y-63181760D01*
X118586931Y-63235459D01*
X118615271Y-63268586D01*
X118632575Y-63279480D01*
X118652807Y-63320527D01*
X118645508Y-63342586D01*
X118609014Y-63340719D01*
X118581672Y-63330075D01*
X118514157Y-63304196D01*
X118432453Y-63273162D01*
X118355202Y-63238671D01*
X118312810Y-63202548D01*
X118316157Y-63181852D01*
X118403108Y-63181852D01*
X118422062Y-63198681D01*
X118455324Y-63217845D01*
X118483891Y-63227203D01*
X118493100Y-63222183D01*
X118502660Y-63187372D01*
X118496533Y-63164670D01*
X118463076Y-63162347D01*
X118442397Y-63169563D01*
X118406771Y-63177920D01*
X118403108Y-63181852D01*
X118316157Y-63181852D01*
X118318513Y-63167279D01*
X118372850Y-63130629D01*
X118463076Y-63095530D01*
X118476356Y-63090364D01*
X118555553Y-63060470D01*
X118602656Y-63034762D01*
X118607735Y-63017952D01*
X118587053Y-62984765D01*
X118577734Y-62925813D01*
X118577734Y-62925677D01*
X118575288Y-62883659D01*
X118559745Y-62861800D01*
X118518787Y-62853515D01*
X118440098Y-62852216D01*
X118393314Y-62851179D01*
X118324833Y-62841400D01*
X118302447Y-62820936D01*
X118319013Y-62803472D01*
X118373369Y-62795022D01*
X118471364Y-62794949D01*
X118471996Y-62794969D01*
G37*
G36*
X116050246Y-60574975D02*
G01*
X116137832Y-60574975D01*
X116178045Y-60574991D01*
X116274152Y-60575961D01*
X116332583Y-60580233D01*
X116362713Y-60590275D01*
X116373915Y-60608554D01*
X116375566Y-60637537D01*
X116375471Y-60646162D01*
X116367863Y-60681748D01*
X116338142Y-60696916D01*
X116272403Y-60700098D01*
X116211251Y-60702544D01*
X116187895Y-60712855D01*
X116198159Y-60734943D01*
X116239412Y-60767960D01*
X116301322Y-60800540D01*
X116341515Y-60820258D01*
X116364493Y-60847269D01*
X116373813Y-60895120D01*
X116375566Y-60978405D01*
X116375524Y-60991767D01*
X116371715Y-61072364D01*
X116360019Y-61113801D01*
X116338029Y-61125517D01*
X116334610Y-61125675D01*
X116308632Y-61148323D01*
X116300492Y-61213103D01*
X116300560Y-61221080D01*
X116310266Y-61281696D01*
X116338029Y-61300689D01*
X116364089Y-61315578D01*
X116375566Y-61373542D01*
X116375566Y-61446394D01*
X116137832Y-61368086D01*
X116097329Y-61354705D01*
X116003120Y-61322245D01*
X115944995Y-61297516D01*
X115914251Y-61274838D01*
X115902186Y-61248532D01*
X115900199Y-61214640D01*
X116058294Y-61214640D01*
X116062758Y-61225574D01*
X116089076Y-61229041D01*
X116144088Y-61241388D01*
X116187155Y-61244281D01*
X116200394Y-61216022D01*
X116200382Y-61214992D01*
X116180327Y-61183459D01*
X116133149Y-61177983D01*
X116075271Y-61200591D01*
X116058294Y-61214640D01*
X115900199Y-61214640D01*
X115900098Y-61212917D01*
X115900163Y-61202757D01*
X115904028Y-61169654D01*
X115920280Y-61144649D01*
X115957740Y-61121912D01*
X116025231Y-61095611D01*
X116131576Y-61059913D01*
X116133149Y-61059396D01*
X116363054Y-60983769D01*
X116259148Y-60930261D01*
X116242682Y-60921872D01*
X116183715Y-60895993D01*
X116149404Y-60893842D01*
X116124705Y-60913548D01*
X116114240Y-60923564D01*
X116055126Y-60946656D01*
X115984926Y-60945880D01*
X115930128Y-60920315D01*
X115916936Y-60891971D01*
X115904728Y-60823222D01*
X115900780Y-60745977D01*
X116000197Y-60745977D01*
X116003984Y-60781786D01*
X116026981Y-60811820D01*
X116066712Y-60796915D01*
X116097006Y-60754578D01*
X116091321Y-60716388D01*
X116050246Y-60700098D01*
X116019762Y-60707295D01*
X116000197Y-60745977D01*
X115900780Y-60745977D01*
X115900098Y-60732630D01*
X115900098Y-60574975D01*
X116050246Y-60574975D01*
G37*
G36*
X113764429Y-55945418D02*
G01*
X114849064Y-55945418D01*
X114849064Y-60600000D01*
X114849064Y-65254581D01*
X113747980Y-65254581D01*
X112646896Y-65254581D01*
X112646896Y-60600000D01*
X112646896Y-60453054D01*
X112810238Y-60453054D01*
X112810282Y-60752599D01*
X112811470Y-61048525D01*
X112813801Y-61334202D01*
X112817274Y-61602997D01*
X112821889Y-61848281D01*
X112827644Y-62063421D01*
X112834539Y-62241787D01*
X112842573Y-62376748D01*
X112863792Y-62632680D01*
X112892590Y-62932962D01*
X112923095Y-63203939D01*
X112954517Y-63438700D01*
X112986064Y-63630329D01*
X113035189Y-63864866D01*
X113112366Y-64147562D01*
X113200476Y-64384618D01*
X113299086Y-64575495D01*
X113407766Y-64719652D01*
X113526085Y-64816550D01*
X113653612Y-64865648D01*
X113789915Y-64866406D01*
X113934564Y-64818285D01*
X113940881Y-64815138D01*
X114060195Y-64732054D01*
X114167481Y-64609063D01*
X114263393Y-64444586D01*
X114348585Y-64237040D01*
X114423712Y-63984847D01*
X114489427Y-63686426D01*
X114546384Y-63340197D01*
X114563275Y-63216609D01*
X114592645Y-62969744D01*
X114617478Y-62710402D01*
X114638524Y-62429196D01*
X114656531Y-62116740D01*
X114672249Y-61763645D01*
X114674480Y-61703243D01*
X114680545Y-61497638D01*
X114685616Y-61264180D01*
X114689419Y-61019447D01*
X114691679Y-60780015D01*
X114692122Y-60562463D01*
X114688675Y-60128014D01*
X114676512Y-59567456D01*
X114655633Y-59054807D01*
X114625888Y-58589241D01*
X114587129Y-58169934D01*
X114539205Y-57796059D01*
X114481966Y-57466791D01*
X114415264Y-57181305D01*
X114338949Y-56938776D01*
X114252871Y-56738377D01*
X114156880Y-56579284D01*
X114050828Y-56460672D01*
X113934564Y-56381715D01*
X113922270Y-56375756D01*
X113835172Y-56339503D01*
X113764429Y-56326318D01*
X113687633Y-56331660D01*
X113624059Y-56345826D01*
X113501869Y-56403102D01*
X113390529Y-56499278D01*
X113289637Y-56635535D01*
X113198791Y-56813051D01*
X113117588Y-57033009D01*
X113045625Y-57296589D01*
X112982499Y-57604971D01*
X112927809Y-57959337D01*
X112881150Y-58360866D01*
X112842122Y-58810739D01*
X112842034Y-58811922D01*
X112834046Y-58951129D01*
X112827208Y-59133134D01*
X112821520Y-59351307D01*
X112816979Y-59599016D01*
X112813586Y-59869632D01*
X112811339Y-60156521D01*
X112810238Y-60453054D01*
X112646896Y-60453054D01*
X112646896Y-55945418D01*
X113747980Y-55945418D01*
X113764429Y-55945418D01*
G37*
G36*
X117270832Y-55594993D02*
G01*
X117591134Y-55595348D01*
X117873026Y-55596110D01*
X118119066Y-55597406D01*
X118331812Y-55599365D01*
X118513821Y-55602113D01*
X118667652Y-55605778D01*
X118795861Y-55610487D01*
X118901006Y-55616368D01*
X118985646Y-55623549D01*
X119052337Y-55632157D01*
X119103637Y-55642319D01*
X119142105Y-55654163D01*
X119170297Y-55667817D01*
X119190771Y-55683408D01*
X119206085Y-55701063D01*
X119218797Y-55720910D01*
X119231464Y-55743077D01*
X119246644Y-55767690D01*
X119303448Y-55852721D01*
X119303409Y-60584932D01*
X119303405Y-60801236D01*
X119303366Y-61356264D01*
X119303270Y-61864156D01*
X119303097Y-62327042D01*
X119302830Y-62747053D01*
X119302447Y-63126320D01*
X119301931Y-63466973D01*
X119301260Y-63771141D01*
X119300417Y-64040956D01*
X119299382Y-64278547D01*
X119298135Y-64486046D01*
X119296657Y-64665582D01*
X119294928Y-64819286D01*
X119292930Y-64949288D01*
X119290643Y-65057718D01*
X119288047Y-65146707D01*
X119285124Y-65218386D01*
X119281853Y-65274884D01*
X119278216Y-65318332D01*
X119274193Y-65350860D01*
X119269765Y-65374599D01*
X119264913Y-65391679D01*
X119259616Y-65404230D01*
X119254838Y-65413182D01*
X119199430Y-65487175D01*
X119130831Y-65548121D01*
X119045800Y-65604926D01*
X115815067Y-65604887D01*
X115546106Y-65604906D01*
X115095229Y-65605007D01*
X114690436Y-65605083D01*
X114329167Y-65605007D01*
X114008865Y-65604652D01*
X113726973Y-65603889D01*
X113480933Y-65602593D01*
X113268187Y-65600634D01*
X113086178Y-65597886D01*
X112932347Y-65594221D01*
X112804138Y-65589512D01*
X112698993Y-65583631D01*
X112614353Y-65576450D01*
X112547662Y-65567842D01*
X112496362Y-65557680D01*
X112457894Y-65545836D01*
X112429703Y-65532182D01*
X112409228Y-65516592D01*
X112393914Y-65498936D01*
X112381202Y-65479089D01*
X112368535Y-65456922D01*
X112353356Y-65432309D01*
X112296551Y-65347278D01*
X112296590Y-60615067D01*
X112296593Y-60460719D01*
X112341303Y-60460719D01*
X112341357Y-60887839D01*
X112341722Y-61312936D01*
X112342399Y-61733008D01*
X112343387Y-62145054D01*
X112344687Y-62546072D01*
X112346297Y-62933061D01*
X112348219Y-63303019D01*
X112350453Y-63652944D01*
X112352997Y-63979835D01*
X112355853Y-64280691D01*
X112359020Y-64552509D01*
X112362499Y-64792288D01*
X112366289Y-64997027D01*
X112370390Y-65163724D01*
X112374802Y-65289378D01*
X112379526Y-65370986D01*
X112384561Y-65405548D01*
X112387253Y-65410901D01*
X112396720Y-65431696D01*
X112405390Y-65450394D01*
X112415805Y-65467105D01*
X112430508Y-65481941D01*
X112452042Y-65495011D01*
X112482948Y-65506429D01*
X112525769Y-65516304D01*
X112583047Y-65524749D01*
X112657325Y-65531873D01*
X112751144Y-65537789D01*
X112867047Y-65542607D01*
X113007577Y-65546439D01*
X113175274Y-65549395D01*
X113372683Y-65551588D01*
X113602345Y-65553127D01*
X113866802Y-65554125D01*
X114168597Y-65554692D01*
X114510272Y-65554939D01*
X114894369Y-65554978D01*
X115323431Y-65554920D01*
X115800000Y-65554876D01*
X115919663Y-65554880D01*
X116384517Y-65554937D01*
X116802479Y-65554982D01*
X117176091Y-65554903D01*
X117507895Y-65554588D01*
X117800434Y-65553927D01*
X118056249Y-65552809D01*
X118277883Y-65551122D01*
X118467879Y-65548755D01*
X118628778Y-65545597D01*
X118763123Y-65541537D01*
X118873456Y-65536464D01*
X118962320Y-65530266D01*
X119032256Y-65522833D01*
X119085807Y-65514053D01*
X119125516Y-65503815D01*
X119153924Y-65492008D01*
X119173574Y-65478521D01*
X119187008Y-65463243D01*
X119196768Y-65446062D01*
X119205398Y-65426867D01*
X119215438Y-65405548D01*
X119219414Y-65394876D01*
X119223709Y-65374326D01*
X119227630Y-65343114D01*
X119231193Y-65299168D01*
X119234414Y-65240416D01*
X119237308Y-65164783D01*
X119239892Y-65070197D01*
X119242181Y-64954584D01*
X119244192Y-64815873D01*
X119245941Y-64651989D01*
X119247442Y-64460859D01*
X119248713Y-64240411D01*
X119249770Y-63988571D01*
X119250627Y-63703266D01*
X119251301Y-63382424D01*
X119251808Y-63023971D01*
X119252165Y-62625834D01*
X119252386Y-62185940D01*
X119252487Y-61702216D01*
X119252486Y-61172589D01*
X119252397Y-60594986D01*
X119252323Y-60114455D01*
X119252282Y-59575117D01*
X119252235Y-59082008D01*
X119252119Y-58633034D01*
X119251871Y-58226102D01*
X119251426Y-57859115D01*
X119250722Y-57529982D01*
X119249696Y-57236606D01*
X119248284Y-56976894D01*
X119246422Y-56748752D01*
X119244048Y-56550084D01*
X119241098Y-56378798D01*
X119237508Y-56232798D01*
X119233216Y-56109990D01*
X119228159Y-56008281D01*
X119222271Y-55925575D01*
X119215492Y-55859778D01*
X119207756Y-55808797D01*
X119199001Y-55770536D01*
X119189164Y-55742902D01*
X119178181Y-55723800D01*
X119165988Y-55711136D01*
X119152523Y-55702816D01*
X119137722Y-55696745D01*
X119121522Y-55690829D01*
X119103859Y-55682974D01*
X119103087Y-55682584D01*
X119087308Y-55677074D01*
X119061820Y-55672122D01*
X119024102Y-55667698D01*
X118971634Y-55663775D01*
X118901892Y-55660322D01*
X118812357Y-55657312D01*
X118700508Y-55654715D01*
X118563821Y-55652503D01*
X118399778Y-55650646D01*
X118205855Y-55649115D01*
X117979532Y-55647883D01*
X117718288Y-55646919D01*
X117419601Y-55646195D01*
X117080950Y-55645683D01*
X116699813Y-55645352D01*
X116273670Y-55645175D01*
X115800000Y-55645123D01*
X115680336Y-55645119D01*
X115215482Y-55645062D01*
X114797520Y-55645017D01*
X114423908Y-55645096D01*
X114092104Y-55645411D01*
X113799565Y-55646072D01*
X113543750Y-55647190D01*
X113322116Y-55648877D01*
X113132120Y-55651244D01*
X112971221Y-55654402D01*
X112836876Y-55658462D01*
X112726543Y-55663535D01*
X112637680Y-55669733D01*
X112567743Y-55677166D01*
X112514192Y-55685946D01*
X112474484Y-55696184D01*
X112446075Y-55707991D01*
X112426425Y-55721478D01*
X112412991Y-55736757D01*
X112403231Y-55753937D01*
X112394601Y-55773132D01*
X112384561Y-55794451D01*
X112382774Y-55800954D01*
X112377847Y-55852228D01*
X112373231Y-55949504D01*
X112368927Y-56089781D01*
X112364935Y-56270057D01*
X112361253Y-56487331D01*
X112357883Y-56738600D01*
X112354824Y-57020864D01*
X112352076Y-57331120D01*
X112349640Y-57666368D01*
X112347515Y-58023605D01*
X112345701Y-58399830D01*
X112344199Y-58792041D01*
X112343008Y-59197237D01*
X112342128Y-59612417D01*
X112341560Y-60034578D01*
X112341303Y-60460719D01*
X112296593Y-60460719D01*
X112296594Y-60398763D01*
X112296634Y-59843736D01*
X112296730Y-59335844D01*
X112296902Y-58872957D01*
X112297169Y-58452946D01*
X112297552Y-58073679D01*
X112298069Y-57733027D01*
X112298739Y-57428858D01*
X112299582Y-57159043D01*
X112300617Y-56921452D01*
X112301865Y-56713953D01*
X112303343Y-56534417D01*
X112305071Y-56380714D01*
X112307069Y-56250712D01*
X112309356Y-56142281D01*
X112311952Y-56053292D01*
X112314875Y-55981614D01*
X112318146Y-55925115D01*
X112321783Y-55881667D01*
X112325806Y-55849139D01*
X112330234Y-55825400D01*
X112335087Y-55808321D01*
X112340383Y-55795769D01*
X112345161Y-55786817D01*
X112400570Y-55712824D01*
X112469168Y-55651878D01*
X112554199Y-55595074D01*
X114797520Y-55595100D01*
X115784932Y-55595112D01*
X116053894Y-55595093D01*
X116504770Y-55594994D01*
X116909563Y-55594918D01*
X117270832Y-55594993D01*
G37*
G36*
X113778696Y-56446272D02*
G01*
X113849289Y-56455246D01*
X113908059Y-56483305D01*
X113977382Y-56539753D01*
X114047920Y-56616356D01*
X114144136Y-56770181D01*
X114231244Y-56972600D01*
X114309160Y-57223230D01*
X114377799Y-57521687D01*
X114437077Y-57867587D01*
X114486911Y-58260546D01*
X114527215Y-58700181D01*
X114557906Y-59186108D01*
X114559050Y-59223236D01*
X114560347Y-59313779D01*
X114561323Y-59445490D01*
X114561972Y-59613234D01*
X114562286Y-59811874D01*
X114562259Y-60036278D01*
X114561885Y-60281308D01*
X114561155Y-60541830D01*
X114560064Y-60812709D01*
X114557966Y-61169170D01*
X114554939Y-61492678D01*
X114550793Y-61776766D01*
X114545280Y-62026827D01*
X114538156Y-62248257D01*
X114529176Y-62446449D01*
X114518093Y-62626797D01*
X114504661Y-62794695D01*
X114488636Y-62955538D01*
X114469772Y-63114720D01*
X114447822Y-63277635D01*
X114404289Y-63552422D01*
X114339031Y-63870684D01*
X114264668Y-64140233D01*
X114181241Y-64360977D01*
X114088793Y-64532827D01*
X113987366Y-64655689D01*
X113877004Y-64729473D01*
X113757749Y-64754088D01*
X113665998Y-64744376D01*
X113558697Y-64703051D01*
X113505539Y-64663383D01*
X113405737Y-64547435D01*
X113314700Y-64383274D01*
X113232535Y-64171624D01*
X113159347Y-63913213D01*
X113095242Y-63608766D01*
X113040326Y-63259010D01*
X112996158Y-62877241D01*
X113193746Y-62877241D01*
X113201848Y-63239600D01*
X113203289Y-63302492D01*
X113206896Y-63426688D01*
X113211817Y-63513521D01*
X113219610Y-63572017D01*
X113231836Y-63611204D01*
X113250053Y-63640110D01*
X113275823Y-63667761D01*
X113300285Y-63689119D01*
X113395838Y-63736379D01*
X113505040Y-63750823D01*
X113613885Y-63733996D01*
X113708366Y-63687444D01*
X113774478Y-63612714D01*
X113806933Y-63552072D01*
X113871299Y-63613463D01*
X113878200Y-63619458D01*
X113929325Y-63654042D01*
X114005487Y-63698048D01*
X114093077Y-63744471D01*
X114178488Y-63786303D01*
X114248112Y-63816541D01*
X114288342Y-63828177D01*
X114288571Y-63828134D01*
X114293593Y-63803442D01*
X114297163Y-63742035D01*
X114298522Y-63656709D01*
X114298522Y-63485241D01*
X114117093Y-63402841D01*
X114113625Y-63401264D01*
X113989329Y-63341051D01*
X113907248Y-63291872D01*
X113861969Y-63249872D01*
X113848078Y-63211195D01*
X113855410Y-63197500D01*
X113890257Y-63185683D01*
X113960456Y-63179391D01*
X114073300Y-63177537D01*
X114298522Y-63177537D01*
X114298522Y-63027389D01*
X114298522Y-62877241D01*
X113746134Y-62877241D01*
X113193746Y-62877241D01*
X112996158Y-62877241D01*
X112994704Y-62864671D01*
X112981494Y-62704862D01*
X113196185Y-62704862D01*
X113315678Y-62697209D01*
X113435172Y-62689556D01*
X113442334Y-62445566D01*
X113449497Y-62201576D01*
X113523664Y-62201576D01*
X113597832Y-62201576D01*
X113597832Y-62426798D01*
X113597832Y-62652019D01*
X113710443Y-62652019D01*
X113746134Y-62652019D01*
X113823054Y-62652019D01*
X113823054Y-62426798D01*
X113823054Y-62201576D01*
X113937131Y-62201576D01*
X114051209Y-62201576D01*
X114046180Y-62445566D01*
X114041151Y-62689556D01*
X114169836Y-62697120D01*
X114298522Y-62704684D01*
X114298522Y-62302982D01*
X114298200Y-62212537D01*
X114296584Y-62088836D01*
X114293840Y-61990053D01*
X114290228Y-61924565D01*
X114286009Y-61900748D01*
X114281810Y-61900689D01*
X114238771Y-61900496D01*
X114155746Y-61900281D01*
X114040231Y-61900060D01*
X113899725Y-61899848D01*
X113741724Y-61899659D01*
X113209950Y-61899103D01*
X113203068Y-62301983D01*
X113196185Y-62704862D01*
X112981494Y-62704862D01*
X112958483Y-62426476D01*
X112931768Y-61945151D01*
X112914666Y-61421421D01*
X112912285Y-61239134D01*
X113170466Y-61239134D01*
X113188355Y-61424188D01*
X113189320Y-61428705D01*
X113209950Y-61477500D01*
X113219963Y-61501183D01*
X113272346Y-61569224D01*
X113336416Y-61625491D01*
X113402118Y-61662647D01*
X113459397Y-61673356D01*
X113498199Y-61650281D01*
X113515849Y-61607531D01*
X113531007Y-61538890D01*
X113538664Y-61466611D01*
X113537118Y-61408052D01*
X113524665Y-61380570D01*
X113461683Y-61340193D01*
X113429037Y-61272859D01*
X113434381Y-61192666D01*
X113479776Y-61111955D01*
X113499585Y-61090840D01*
X113542987Y-61060972D01*
X113603962Y-61043923D01*
X113698741Y-61033910D01*
X113745264Y-61031855D01*
X113879217Y-61044183D01*
X113978822Y-61083703D01*
X114040758Y-61147462D01*
X114061707Y-61232511D01*
X114038349Y-61335897D01*
X114037989Y-61336756D01*
X113997242Y-61404222D01*
X113949454Y-61425812D01*
X113918479Y-61419602D01*
X113902099Y-61390211D01*
X113898128Y-61324343D01*
X113898128Y-61222873D01*
X113779261Y-61230500D01*
X113660394Y-61238128D01*
X113653187Y-61470491D01*
X113645980Y-61702855D01*
X113900505Y-61695713D01*
X114155030Y-61688571D01*
X114226698Y-61561604D01*
X114265785Y-61478457D01*
X114306484Y-61326576D01*
X114314385Y-61173961D01*
X114287478Y-61037931D01*
X114272699Y-61003651D01*
X114197742Y-60895003D01*
X114095431Y-60806154D01*
X113981821Y-60752116D01*
X113951317Y-60744716D01*
X113830575Y-60728985D01*
X113698096Y-60727257D01*
X113573939Y-60739062D01*
X113478161Y-60763928D01*
X113359662Y-60831702D01*
X113257506Y-60939732D01*
X113193979Y-61076596D01*
X113170466Y-61239134D01*
X112912285Y-61239134D01*
X112907281Y-60856014D01*
X112909720Y-60249655D01*
X112915642Y-59880469D01*
X112922079Y-59649064D01*
X113197438Y-59649064D01*
X113197438Y-59793569D01*
X113197438Y-59938075D01*
X113485221Y-60109322D01*
X113512624Y-60125644D01*
X113614718Y-60186735D01*
X113697408Y-60236659D01*
X113752809Y-60270635D01*
X113773037Y-60283881D01*
X113752254Y-60284506D01*
X113690826Y-60283789D01*
X113598536Y-60281823D01*
X113485254Y-60278782D01*
X113197438Y-60270373D01*
X113197438Y-60422674D01*
X113197438Y-60574975D01*
X113698096Y-60574975D01*
X113747980Y-60574975D01*
X114298522Y-60574975D01*
X114298522Y-60429621D01*
X114298522Y-60284266D01*
X114054532Y-60143031D01*
X114009835Y-60117194D01*
X113888548Y-60046749D01*
X113809043Y-59997545D01*
X113770516Y-59965996D01*
X113772164Y-59948516D01*
X113813185Y-59941516D01*
X113892778Y-59941413D01*
X114010139Y-59944618D01*
X114298522Y-59952389D01*
X114298522Y-59800726D01*
X114298522Y-59649064D01*
X113747980Y-59649064D01*
X113197438Y-59649064D01*
X112922079Y-59649064D01*
X112929263Y-59390832D01*
X112949141Y-58946516D01*
X112956966Y-58827413D01*
X113197438Y-58827413D01*
X113197438Y-58995981D01*
X113197438Y-59164550D01*
X113716699Y-59334176D01*
X113747980Y-59344401D01*
X113778232Y-59354290D01*
X113926944Y-59403019D01*
X114057578Y-59445986D01*
X114162757Y-59480755D01*
X114235104Y-59504890D01*
X114267241Y-59515957D01*
X114269716Y-59516745D01*
X114286598Y-59505478D01*
X114295760Y-59457114D01*
X114298522Y-59365306D01*
X114298522Y-59202502D01*
X114210936Y-59173596D01*
X114123349Y-59144690D01*
X114123349Y-58984686D01*
X114123402Y-58947824D01*
X114125888Y-58876151D01*
X114136389Y-58836862D01*
X114160715Y-58817023D01*
X114204679Y-58803702D01*
X114216042Y-58800728D01*
X114256029Y-58786238D01*
X114277811Y-58761406D01*
X114288063Y-58713006D01*
X114293460Y-58627814D01*
X114294602Y-58554836D01*
X114290236Y-58495623D01*
X114280960Y-58472906D01*
X114272785Y-58474690D01*
X114224026Y-58489113D01*
X114138244Y-58516136D01*
X114022485Y-58553494D01*
X113883796Y-58598923D01*
X113729224Y-58650159D01*
X113197438Y-58827413D01*
X112956966Y-58827413D01*
X112975526Y-58544933D01*
X113008667Y-58183498D01*
X113030024Y-58011195D01*
X113200705Y-58011195D01*
X113203898Y-58087793D01*
X113212712Y-58141083D01*
X113228598Y-58182119D01*
X113253012Y-58221952D01*
X113262945Y-58235462D01*
X113329990Y-58302888D01*
X113407546Y-58356212D01*
X113497243Y-58387824D01*
X113620783Y-58410289D01*
X113755777Y-58420539D01*
X113882959Y-58417153D01*
X113983064Y-58398707D01*
X113985056Y-58398044D01*
X114101633Y-58339606D01*
X114200060Y-58254273D01*
X114264388Y-58155814D01*
X114275658Y-58108415D01*
X114280960Y-58065574D01*
X114285454Y-58029261D01*
X114293164Y-57930418D01*
X114298374Y-57823475D01*
X114300676Y-57720019D01*
X114299656Y-57631639D01*
X114294904Y-57569924D01*
X114286009Y-57546462D01*
X114281810Y-57546404D01*
X114238771Y-57546209D01*
X114155746Y-57545993D01*
X114040231Y-57545769D01*
X113899725Y-57545553D01*
X113741724Y-57545360D01*
X113209950Y-57544791D01*
X113202962Y-57841402D01*
X113201677Y-57900237D01*
X113200705Y-58011195D01*
X113030024Y-58011195D01*
X113048811Y-57859624D01*
X113096207Y-57570724D01*
X113151105Y-57314213D01*
X113209950Y-57101263D01*
X113213752Y-57087504D01*
X113252610Y-56971657D01*
X113334501Y-56776987D01*
X113423653Y-56629103D01*
X113521766Y-56525979D01*
X113630536Y-56465590D01*
X113751662Y-56445911D01*
X113778696Y-56446272D01*
G37*
G36*
X116668901Y-56221525D02*
G01*
X116680699Y-56233384D01*
X116689263Y-56264181D01*
X116695077Y-56320136D01*
X116698628Y-56407470D01*
X116700403Y-56532405D01*
X116700886Y-56701162D01*
X116700890Y-56710446D01*
X116702062Y-56860123D01*
X116705114Y-56986352D01*
X116709733Y-57082485D01*
X116715603Y-57141871D01*
X116722414Y-57157862D01*
X116723919Y-57155920D01*
X116741289Y-57116261D01*
X116764807Y-57043755D01*
X116789831Y-56952535D01*
X116814056Y-56860051D01*
X116839149Y-56778629D01*
X116860047Y-56735210D01*
X116880013Y-56723555D01*
X116902310Y-56737423D01*
X116906884Y-56743193D01*
X116914466Y-56779710D01*
X116905816Y-56845761D01*
X116880034Y-56949923D01*
X116876989Y-56960970D01*
X116850034Y-57056064D01*
X116826419Y-57135120D01*
X116810952Y-57181987D01*
X116803548Y-57211869D01*
X116820177Y-57212767D01*
X116839393Y-57188660D01*
X116879330Y-57127552D01*
X116935126Y-57036886D01*
X117002342Y-56923881D01*
X117076542Y-56795755D01*
X117148157Y-56672373D01*
X117214542Y-56561646D01*
X117269310Y-56474098D01*
X117308186Y-56416559D01*
X117326891Y-56395862D01*
X117335955Y-56396539D01*
X117354590Y-56409395D01*
X117355249Y-56442000D01*
X117336144Y-56498846D01*
X117295490Y-56584421D01*
X117231502Y-56703216D01*
X117142392Y-56859723D01*
X117136463Y-56869986D01*
X117063979Y-56996980D01*
X117002610Y-57107262D01*
X116955913Y-57194222D01*
X116927445Y-57251246D01*
X116920762Y-57271724D01*
X116930501Y-57266232D01*
X116970414Y-57232952D01*
X117031986Y-57176206D01*
X117106617Y-57103768D01*
X117112866Y-57097576D01*
X117193995Y-57020114D01*
X117248959Y-56975423D01*
X117284281Y-56959019D01*
X117306482Y-56966423D01*
X117308611Y-56968778D01*
X117313004Y-56992135D01*
X117293253Y-57029521D01*
X117244916Y-57087320D01*
X117163553Y-57171916D01*
X117114314Y-57222369D01*
X117054585Y-57286536D01*
X117017423Y-57330492D01*
X117009390Y-57346798D01*
X117032417Y-57336741D01*
X117092386Y-57305109D01*
X117181643Y-57255818D01*
X117292937Y-57192878D01*
X117419016Y-57120298D01*
X117557944Y-57041076D01*
X117683064Y-56974028D01*
X117773692Y-56931907D01*
X117833671Y-56913201D01*
X117866841Y-56916398D01*
X117877044Y-56939986D01*
X117876987Y-56940356D01*
X117854265Y-56959704D01*
X117795020Y-56999263D01*
X117705962Y-57054839D01*
X117593800Y-57122240D01*
X117465244Y-57197274D01*
X117454378Y-57203537D01*
X117328911Y-57276976D01*
X117222104Y-57341487D01*
X117140186Y-57393150D01*
X117089388Y-57428046D01*
X117075941Y-57442252D01*
X117082322Y-57442800D01*
X117128696Y-57436244D01*
X117206127Y-57419503D01*
X117301839Y-57395236D01*
X117369249Y-57377773D01*
X117454489Y-57360087D01*
X117506616Y-57357703D01*
X117534529Y-57369642D01*
X117548445Y-57390672D01*
X117539291Y-57411410D01*
X117498506Y-57432142D01*
X117420203Y-57455750D01*
X117298491Y-57485115D01*
X117269536Y-57491914D01*
X117180196Y-57515450D01*
X117114877Y-57536566D01*
X117086065Y-57551368D01*
X117086060Y-57552438D01*
X117113259Y-57558647D01*
X117182013Y-57564025D01*
X117285021Y-57568256D01*
X117414982Y-57571026D01*
X117564594Y-57572019D01*
X117696870Y-57572225D01*
X117832588Y-57573393D01*
X117929147Y-57576049D01*
X117992746Y-57580704D01*
X118029586Y-57587867D01*
X118045869Y-57598048D01*
X118047795Y-57611757D01*
X118045234Y-57618983D01*
X118031127Y-57631110D01*
X117999752Y-57639673D01*
X117944555Y-57645173D01*
X117858982Y-57648112D01*
X117736479Y-57648994D01*
X117570492Y-57648319D01*
X117567101Y-57648296D01*
X117419847Y-57648471D01*
X117291972Y-57650775D01*
X117191143Y-57654897D01*
X117125024Y-57660526D01*
X117101280Y-57667352D01*
X117106796Y-57673740D01*
X117149018Y-57693620D01*
X117223790Y-57719266D01*
X117320246Y-57746737D01*
X117368821Y-57759516D01*
X117457622Y-57783436D01*
X117520451Y-57801142D01*
X117546057Y-57809508D01*
X117547473Y-57817455D01*
X117537986Y-57853972D01*
X117531553Y-57865612D01*
X117511823Y-57875653D01*
X117472445Y-57873819D01*
X117404007Y-57859208D01*
X117297100Y-57830922D01*
X117241593Y-57816161D01*
X117151530Y-57794395D01*
X117087088Y-57781760D01*
X117059499Y-57780632D01*
X117059341Y-57780954D01*
X117079155Y-57797779D01*
X117135785Y-57834678D01*
X117222748Y-57887691D01*
X117333561Y-57952861D01*
X117461740Y-58026230D01*
X117469389Y-58030556D01*
X117597724Y-58103790D01*
X117709274Y-58168626D01*
X117797312Y-58221059D01*
X117855111Y-58257088D01*
X117875945Y-58272709D01*
X117874046Y-58281359D01*
X117855783Y-58317526D01*
X117852336Y-58320842D01*
X117826314Y-58320802D01*
X117774936Y-58301806D01*
X117694010Y-58261836D01*
X117579345Y-58198874D01*
X117426750Y-58110899D01*
X117420218Y-58107081D01*
X117292760Y-58033347D01*
X117181085Y-57970149D01*
X117092011Y-57921236D01*
X117032354Y-57890353D01*
X117008932Y-57881248D01*
X117012214Y-57889117D01*
X117042350Y-57925421D01*
X117097183Y-57983552D01*
X117169333Y-58055489D01*
X117237736Y-58122915D01*
X117289138Y-58178114D01*
X117313160Y-58214077D01*
X117314883Y-58238803D01*
X117299384Y-58260292D01*
X117279638Y-58275104D01*
X117255821Y-58274559D01*
X117221587Y-58252174D01*
X117169253Y-58202825D01*
X117091134Y-58121387D01*
X117043650Y-58071743D01*
X116979407Y-58007137D01*
X116933748Y-57964515D01*
X116914358Y-57951271D01*
X116914258Y-57951458D01*
X116924788Y-57976625D01*
X116956764Y-58037783D01*
X117006441Y-58128115D01*
X117070072Y-58240801D01*
X117143910Y-58369023D01*
X117182511Y-58435791D01*
X117259442Y-58572114D01*
X117312676Y-58672732D01*
X117344432Y-58742306D01*
X117356925Y-58785493D01*
X117352375Y-58806954D01*
X117344662Y-58813716D01*
X117329355Y-58819158D01*
X117310767Y-58810251D01*
X117285389Y-58782097D01*
X117249711Y-58729799D01*
X117200226Y-58648459D01*
X117133422Y-58533180D01*
X117045793Y-58379064D01*
X116997753Y-58295158D01*
X116933940Y-58186739D01*
X116880960Y-58100312D01*
X116843298Y-58043134D01*
X116825436Y-58022463D01*
X116822988Y-58026406D01*
X116826447Y-58065087D01*
X116841489Y-58136227D01*
X116865971Y-58228916D01*
X116875006Y-58260698D01*
X116904224Y-58367651D01*
X116919578Y-58436769D01*
X116921777Y-58476135D01*
X116911529Y-58493828D01*
X116889541Y-58497931D01*
X116882203Y-58495982D01*
X116852868Y-58460232D01*
X116820756Y-58386135D01*
X116789161Y-58282430D01*
X116761376Y-58157857D01*
X116759745Y-58149634D01*
X116742261Y-58090060D01*
X116723074Y-58058246D01*
X116722091Y-58060554D01*
X116719305Y-58100013D01*
X116716659Y-58186410D01*
X116714165Y-58317427D01*
X116711840Y-58490746D01*
X116709697Y-58704050D01*
X116707752Y-58955020D01*
X116706018Y-59241340D01*
X116704511Y-59560692D01*
X116703245Y-59910758D01*
X116702235Y-60289219D01*
X116701496Y-60693760D01*
X116701041Y-61122061D01*
X116700886Y-61571806D01*
X116700843Y-62055443D01*
X116700694Y-62503623D01*
X116700413Y-62906431D01*
X116699975Y-63266234D01*
X116699356Y-63585400D01*
X116698529Y-63866295D01*
X116697471Y-64111287D01*
X116696156Y-64322742D01*
X116694559Y-64503027D01*
X116692654Y-64654509D01*
X116690417Y-64779554D01*
X116687823Y-64880531D01*
X116684847Y-64959805D01*
X116681463Y-65019744D01*
X116677646Y-65062714D01*
X116673372Y-65091083D01*
X116668614Y-65107217D01*
X116663349Y-65113483D01*
X116662768Y-65113664D01*
X116657574Y-65110650D01*
X116652882Y-65097452D01*
X116648668Y-65071725D01*
X116644906Y-65031123D01*
X116641573Y-64973301D01*
X116638642Y-64895915D01*
X116636090Y-64796620D01*
X116633890Y-64673071D01*
X116632018Y-64522922D01*
X116630449Y-64343828D01*
X116629159Y-64133446D01*
X116628121Y-63889429D01*
X116627312Y-63609432D01*
X116626705Y-63291112D01*
X116626277Y-62932122D01*
X116626002Y-62530118D01*
X116625856Y-62082755D01*
X116625812Y-61587687D01*
X116625789Y-61413110D01*
X116625518Y-60971836D01*
X116624953Y-60552311D01*
X116624109Y-60156895D01*
X116623001Y-59787944D01*
X116621644Y-59447818D01*
X116620052Y-59138875D01*
X116618241Y-58863473D01*
X116616225Y-58623970D01*
X116614018Y-58422725D01*
X116611637Y-58262096D01*
X116609095Y-58144441D01*
X116606407Y-58072119D01*
X116603588Y-58047487D01*
X116596644Y-58054055D01*
X116577065Y-58098154D01*
X116552181Y-58174626D01*
X116525714Y-58272709D01*
X116516778Y-58308402D01*
X116490353Y-58404247D01*
X116468271Y-58462039D01*
X116446530Y-58490394D01*
X116421129Y-58497931D01*
X116388469Y-58489713D01*
X116385323Y-58454138D01*
X116386526Y-58450119D01*
X116421471Y-58328547D01*
X116451432Y-58215537D01*
X116474051Y-58120929D01*
X116486971Y-58054566D01*
X116487834Y-58026290D01*
X116486902Y-58025300D01*
X116482335Y-58019958D01*
X116476997Y-58019574D01*
X116467470Y-58029658D01*
X116450334Y-58055718D01*
X116422169Y-58103266D01*
X116379555Y-58177810D01*
X116319073Y-58284859D01*
X116237303Y-58429925D01*
X116176848Y-58535797D01*
X116099647Y-58665081D01*
X116041554Y-58753309D01*
X116000924Y-58802912D01*
X115976115Y-58816320D01*
X115958181Y-58809281D01*
X115941891Y-58783973D01*
X115953676Y-58758502D01*
X115986780Y-58696168D01*
X116037123Y-58604715D01*
X116100665Y-58491477D01*
X116173369Y-58363785D01*
X116242157Y-58243046D01*
X116305564Y-58130229D01*
X116355731Y-58039315D01*
X116388720Y-57977445D01*
X116400591Y-57951760D01*
X116391420Y-57955985D01*
X116353696Y-57987905D01*
X116293532Y-58043876D01*
X116218241Y-58117262D01*
X116195706Y-58139530D01*
X116115896Y-58215111D01*
X116061701Y-58258729D01*
X116026883Y-58274791D01*
X116005202Y-58267704D01*
X116001496Y-58263157D01*
X115999780Y-58238722D01*
X116022102Y-58199410D01*
X116072814Y-58138983D01*
X116156270Y-58051201D01*
X116214338Y-57990395D01*
X116269388Y-57928796D01*
X116299944Y-57889236D01*
X116300492Y-57878324D01*
X116273962Y-57891296D01*
X116209768Y-57926290D01*
X116116913Y-57978599D01*
X116003111Y-58043871D01*
X115876079Y-58117754D01*
X115762277Y-58183337D01*
X115650002Y-58245751D01*
X115558944Y-58293880D01*
X115496340Y-58323909D01*
X115469429Y-58332025D01*
X115466725Y-58330276D01*
X115449702Y-58302034D01*
X115471811Y-58264009D01*
X115535595Y-58213510D01*
X115643596Y-58147852D01*
X115779493Y-58070487D01*
X115943388Y-57975709D01*
X116074712Y-57897853D01*
X116170609Y-57838652D01*
X116228222Y-57799840D01*
X116244693Y-57783150D01*
X116237353Y-57782415D01*
X116191749Y-57789622D01*
X116114719Y-57806754D01*
X116017660Y-57831388D01*
X115970389Y-57843629D01*
X115880644Y-57864508D01*
X115815884Y-57876288D01*
X115787690Y-57876688D01*
X115782837Y-57871407D01*
X115774638Y-57840702D01*
X115805820Y-57811173D01*
X115879851Y-57780707D01*
X116000197Y-57747192D01*
X116054122Y-57733219D01*
X116142113Y-57707126D01*
X116202798Y-57684585D01*
X116225418Y-57669317D01*
X116225314Y-57668850D01*
X116198597Y-57661975D01*
X116130017Y-57656003D01*
X116027259Y-57651293D01*
X115898008Y-57648203D01*
X115749950Y-57647093D01*
X115685635Y-57647039D01*
X115533958Y-57646145D01*
X115423877Y-57643768D01*
X115349140Y-57639414D01*
X115303496Y-57632589D01*
X115280694Y-57622801D01*
X115274482Y-57609556D01*
X115275209Y-57604338D01*
X115286693Y-57592416D01*
X115317008Y-57583763D01*
X115372397Y-57577888D01*
X115459102Y-57574300D01*
X115583364Y-57572508D01*
X115751427Y-57572019D01*
X115795521Y-57571948D01*
X115973044Y-57569727D01*
X116101861Y-57564421D01*
X116181720Y-57556071D01*
X116212369Y-57544717D01*
X116193557Y-57530398D01*
X116125031Y-57513154D01*
X116078650Y-57503355D01*
X115958702Y-57472671D01*
X115862370Y-57440169D01*
X115798258Y-57409062D01*
X115774975Y-57382559D01*
X115774978Y-57381773D01*
X115780889Y-57359413D01*
X115803324Y-57349959D01*
X115850048Y-57354068D01*
X115928822Y-57372398D01*
X116047411Y-57405604D01*
X116084719Y-57416098D01*
X116169467Y-57437247D01*
X116228369Y-57447966D01*
X116250443Y-57446066D01*
X116230551Y-57428926D01*
X116173765Y-57391200D01*
X116086884Y-57337223D01*
X115976710Y-57271222D01*
X115850049Y-57197423D01*
X115725103Y-57125139D01*
X115614764Y-57060494D01*
X115527557Y-57008530D01*
X115470260Y-56973289D01*
X115449655Y-56958810D01*
X115452518Y-56930628D01*
X115465995Y-56912278D01*
X115495454Y-56910813D01*
X115546209Y-56928124D01*
X115623576Y-56966099D01*
X115732872Y-57026630D01*
X115879412Y-57111606D01*
X116005440Y-57184654D01*
X116120196Y-57249596D01*
X116213823Y-57300932D01*
X116279027Y-57334665D01*
X116308517Y-57346798D01*
X116308204Y-57337989D01*
X116280820Y-57301141D01*
X116227939Y-57242200D01*
X116155732Y-57168371D01*
X116102146Y-57115120D01*
X116036623Y-57049024D01*
X115991790Y-57002534D01*
X115975172Y-56983363D01*
X115981712Y-56977345D01*
X116017338Y-56960602D01*
X116030906Y-56958932D01*
X116073879Y-56976903D01*
X116138711Y-57027364D01*
X116230048Y-57113658D01*
X116276345Y-57159018D01*
X116340331Y-57219404D01*
X116384266Y-57257815D01*
X116400591Y-57267434D01*
X116400579Y-57267260D01*
X116387792Y-57240610D01*
X116353597Y-57178059D01*
X116301931Y-57086580D01*
X116236731Y-56973146D01*
X116161935Y-56844733D01*
X116135833Y-56800042D01*
X116054640Y-56658062D01*
X115998007Y-56552916D01*
X115963936Y-56480461D01*
X115950428Y-56436556D01*
X115955482Y-56417060D01*
X115970600Y-56408224D01*
X116000197Y-56396379D01*
X116000476Y-56396448D01*
X116017436Y-56419413D01*
X116054634Y-56478931D01*
X116108057Y-56568294D01*
X116173693Y-56680797D01*
X116247528Y-56809731D01*
X116252882Y-56819154D01*
X116326011Y-56946277D01*
X116390558Y-57055669D01*
X116442563Y-57140839D01*
X116478072Y-57195298D01*
X116493126Y-57212555D01*
X116493879Y-57203066D01*
X116485895Y-57154465D01*
X116467799Y-57075011D01*
X116442007Y-56975890D01*
X116427419Y-56920646D01*
X116406163Y-56829918D01*
X116394446Y-56764434D01*
X116394521Y-56735593D01*
X116401631Y-56729250D01*
X116431264Y-56722788D01*
X116459985Y-56754213D01*
X116490208Y-56827445D01*
X116524345Y-56946404D01*
X116538983Y-57000691D01*
X116565878Y-57088507D01*
X116588853Y-57149059D01*
X116604111Y-57171625D01*
X116604568Y-57171521D01*
X116611280Y-57144804D01*
X116617112Y-57076224D01*
X116621712Y-56973466D01*
X116624729Y-56844215D01*
X116625812Y-56696157D01*
X116625866Y-56631842D01*
X116626761Y-56480165D01*
X116629138Y-56370084D01*
X116633492Y-56295347D01*
X116640316Y-56249703D01*
X116650104Y-56226901D01*
X116663349Y-56220689D01*
X116668901Y-56221525D01*
G37*
D13*
%TO.C,R20*%
X136372936Y-77265000D02*
X136827064Y-77265000D01*
X136372936Y-78735000D02*
X136827064Y-78735000D01*
%TO.C,TP14*%
X140500000Y-55600000D02*
G75*
G02*
X139100000Y-55600000I-700000J0D01*
G01*
X139100000Y-55600000D02*
G75*
G02*
X140500000Y-55600000I700000J0D01*
G01*
%TO.C,C8*%
X141065000Y-54738748D02*
X141065000Y-55261252D01*
X142535000Y-54738748D02*
X142535000Y-55261252D01*
%TO.C,C33*%
X130061252Y-45865000D02*
X129538748Y-45865000D01*
X130061252Y-47335000D02*
X129538748Y-47335000D01*
%TO.C,R5*%
X126765000Y-76772936D02*
X126765000Y-77227064D01*
X128235000Y-76772936D02*
X128235000Y-77227064D01*
%TO.C,R6*%
X126022936Y-68015000D02*
X126477064Y-68015000D01*
X126022936Y-69485000D02*
X126477064Y-69485000D01*
%TO.C,C41*%
X132011252Y-63265000D02*
X131488748Y-63265000D01*
X132011252Y-64735000D02*
X131488748Y-64735000D01*
%TO.C,TPS1_m1*%
X138300000Y-55600000D02*
G75*
G02*
X136900000Y-55600000I-700000J0D01*
G01*
X136900000Y-55600000D02*
G75*
G02*
X138300000Y-55600000I700000J0D01*
G01*
%TO.C,C38*%
X130011252Y-49515000D02*
X129488748Y-49515000D01*
X130011252Y-50985000D02*
X129488748Y-50985000D01*
%TO.C,F1*%
X141413748Y-44090000D02*
X144186252Y-44090000D01*
X141413748Y-47510000D02*
X144186252Y-47510000D01*
%TO.C,C32*%
X134061252Y-53465000D02*
X133538748Y-53465000D01*
X134061252Y-54935000D02*
X133538748Y-54935000D01*
%TO.C,R18*%
X137477064Y-73265000D02*
X137022936Y-73265000D01*
X137477064Y-74735000D02*
X137022936Y-74735000D01*
%TO.C,R21*%
X147827064Y-82465000D02*
X147372936Y-82465000D01*
X147827064Y-83935000D02*
X147372936Y-83935000D01*
%TO.C,C19*%
X114338748Y-67665000D02*
X114861252Y-67665000D01*
X114338748Y-69135000D02*
X114861252Y-69135000D01*
D14*
%TO.C,J3*%
X112600000Y-44300000D02*
X112600000Y-54500000D01*
X112600000Y-54500000D02*
X120300000Y-54500000D01*
X120300000Y-44300000D02*
X112600000Y-44300000D01*
X120300000Y-54500000D02*
X120300000Y-44300000D01*
D15*
X114900000Y-46000000D02*
G75*
G02*
X114700000Y-46000000I-100000J0D01*
G01*
X114700000Y-46000000D02*
G75*
G02*
X114900000Y-46000000I100000J0D01*
G01*
D13*
%TO.C,R8*%
X132865000Y-66772936D02*
X132865000Y-67227064D01*
X134335000Y-66772936D02*
X134335000Y-67227064D01*
%TO.C,R12*%
X145015000Y-50977064D02*
X145015000Y-50522936D01*
X146485000Y-50977064D02*
X146485000Y-50522936D01*
%TO.C,D2*%
X155340000Y-49065000D02*
X159400000Y-49065000D01*
X155340000Y-51335000D02*
X155340000Y-49065000D01*
X159400000Y-51335000D02*
X155340000Y-51335000D01*
%TO.C,J5*%
X146324400Y-56603400D02*
X146324400Y-70423400D01*
X149024400Y-56603400D02*
X146324400Y-56603400D01*
X149024400Y-70423400D02*
X146324400Y-70423400D01*
X157324400Y-56603400D02*
X151544400Y-56603400D01*
X157324400Y-70423400D02*
X151544400Y-70423400D01*
X160244400Y-56603400D02*
X159844400Y-56603400D01*
X160244400Y-58013400D02*
X161244400Y-58013400D01*
X160244400Y-69013400D02*
X161244400Y-69013400D01*
X160244400Y-70423400D02*
X159844400Y-70423400D01*
X160244400Y-70423400D02*
X160244400Y-56603400D01*
X160444400Y-62613400D02*
X160544400Y-61313400D01*
X160444400Y-64413400D02*
X160444400Y-62613400D01*
X160544400Y-61313400D02*
X160744400Y-59813400D01*
X160544400Y-65713400D02*
X160444400Y-64413400D01*
X160644400Y-66513400D02*
X160544400Y-65713400D01*
X160744400Y-59813400D02*
X161044400Y-58513400D01*
X160944400Y-68213400D02*
X160644400Y-66513400D01*
X161044400Y-58513400D02*
X161144400Y-58013400D01*
X161144400Y-69013400D02*
X160944400Y-68213400D01*
X161744400Y-68513400D02*
X161744400Y-58513400D01*
X161244400Y-58013400D02*
G75*
G02*
X161744400Y-58513400I0J-500000D01*
G01*
X161744400Y-68513400D02*
G75*
G02*
X161244400Y-69013400I-500000J0D01*
G01*
D17*
%TO.C,L1*%
X155021700Y-73171200D02*
X159669900Y-73171200D01*
X155021700Y-73867160D02*
X155021700Y-73171200D01*
X155021700Y-76828800D02*
X155021700Y-76132840D01*
X159669900Y-73171200D02*
X159669900Y-73867160D01*
X159669900Y-76132840D02*
X159669900Y-76828800D01*
X159669900Y-76828800D02*
X155021700Y-76828800D01*
X161562200Y-75000000D02*
X162324200Y-75000000D01*
X161943200Y-74619000D02*
X161943200Y-75381000D01*
D13*
%TO.C,R19*%
X137477064Y-75265000D02*
X137022936Y-75265000D01*
X137477064Y-76735000D02*
X137022936Y-76735000D01*
%TO.C,C24*%
X128415000Y-66738748D02*
X128415000Y-67261252D01*
X129885000Y-66738748D02*
X129885000Y-67261252D01*
%TO.C,U2*%
X141140000Y-50300000D02*
X141140000Y-49500000D01*
X141140000Y-50300000D02*
X141140000Y-51100000D01*
X144360000Y-49300000D02*
X144360000Y-51100000D01*
X141190000Y-49000000D02*
X140860000Y-49240000D01*
X140860000Y-48760000D01*
X141190000Y-49000000D01*
G36*
X141190000Y-49000000D02*
G01*
X140860000Y-49240000D01*
X140860000Y-48760000D01*
X141190000Y-49000000D01*
G37*
%TO.C,C44*%
X119465000Y-78338748D02*
X119465000Y-78861252D01*
X120935000Y-78338748D02*
X120935000Y-78861252D01*
%TO.C,J1*%
X133560000Y-87120000D02*
X133560000Y-88500000D01*
X134940000Y-87120000D02*
X133560000Y-87120000D01*
X136210000Y-87120000D02*
X136210000Y-89880000D01*
X136210000Y-87120000D02*
X143940000Y-87120000D01*
X136210000Y-89880000D02*
X143940000Y-89880000D01*
X143940000Y-87120000D02*
X143940000Y-89880000D01*
%TO.C,C39*%
X143765000Y-55738748D02*
X143765000Y-56261252D01*
X145235000Y-55738748D02*
X145235000Y-56261252D01*
%TO.C,C37*%
X130011252Y-51765000D02*
X129488748Y-51765000D01*
X130011252Y-53235000D02*
X129488748Y-53235000D01*
%TO.C,C25*%
X130665000Y-66738748D02*
X130665000Y-67261252D01*
X132135000Y-66738748D02*
X132135000Y-67261252D01*
%TO.C,U15*%
X132165000Y-46845000D02*
X132165000Y-50965000D01*
X132165000Y-50965000D02*
X132260000Y-50965000D01*
X132260000Y-46845000D02*
X132165000Y-46845000D01*
X137190000Y-50965000D02*
X137285000Y-50965000D01*
X137285000Y-46845000D02*
X137190000Y-46845000D01*
X137285000Y-50965000D02*
X137285000Y-46845000D01*
X137525000Y-51745000D02*
X137195000Y-51505000D01*
X137525000Y-51265000D01*
X137525000Y-51745000D01*
G36*
X137525000Y-51745000D02*
G01*
X137195000Y-51505000D01*
X137525000Y-51265000D01*
X137525000Y-51745000D01*
G37*
%TO.C,R2*%
X153427064Y-48865000D02*
X152972936Y-48865000D01*
X153427064Y-50335000D02*
X152972936Y-50335000D01*
D18*
%TO.C,J2*%
X122125000Y-35750000D02*
X122125000Y-40650000D01*
X122125000Y-40650000D02*
X122875000Y-40650000D01*
X126275000Y-40650000D02*
X127650000Y-40650000D01*
X130545000Y-40650000D02*
X131150000Y-40650000D01*
X133689000Y-40650000D02*
X134911000Y-40650000D01*
X137439000Y-40650000D02*
X138661000Y-40650000D01*
X141189000Y-40650000D02*
X142411000Y-40650000D01*
X144939000Y-40650000D02*
X146525000Y-40650000D01*
X149925000Y-40650000D02*
X150675000Y-40650000D01*
X150675000Y-35750000D02*
X122125000Y-35750000D01*
X150675000Y-40650000D02*
X150675000Y-35750000D01*
D14*
X128575000Y-42950000D02*
G75*
G02*
X128375000Y-42950000I-100000J0D01*
G01*
X128375000Y-42950000D02*
G75*
G02*
X128575000Y-42950000I100000J0D01*
G01*
D13*
%TO.C,TP15*%
X151900000Y-88800000D02*
G75*
G02*
X150500000Y-88800000I-700000J0D01*
G01*
X150500000Y-88800000D02*
G75*
G02*
X151900000Y-88800000I700000J0D01*
G01*
%TO.C,C16*%
X121338748Y-69065000D02*
X121861252Y-69065000D01*
X121338748Y-70535000D02*
X121861252Y-70535000D01*
%TD*%
M02*
